<svg width="300" height="300" viewBox="-702 0 1404 1872" xmlns="http://www.w3.org/2000/svg" version="1.2" baseProfile="tiny"><path fill="none" stroke="#000" stroke-width="5" stroke-linecap="round" stroke-linejoin="round" d="m-139.173 695.12 2.059-.027.684.571-.111-.288 1.07-.698.519.304.394-.594.386.205.335-.319 2.172-.412.454-.807 1.14-.436 1.49-1.444 2.104-.68 3.245-1.704 4.826-1.281 7.646-3.008 2.02-1.061.188.132.963-.892 1.32-.54.519.267 1.817-1.423.289-.597.622-.282.299.255.995-.094 3.21-1.394 2.582-.547 1.35.103.399-.519 2.553-1.171 3.722-2.382 5.31-2.582.7.09.319-.493 1.494-.541.888-1.073.478.245 1.93-.219 1.786-.626.771-.801 1.86-.18 1.744-1.37.407.04 1.372-.81 3.633-1.229 1.976-1.033 1.845-.635.75.042 2.758-2.213 1.128-.216.728.485.24-.679 1.293-.888 1.473-.657.613.066 1.406-1.258 3.121-.592 2.182-1.467.449.308 1.758-1.919.828-.266.217.196 1.573-1.061.763-.03 1.949-1.067 1.888-.616 2.486-1.219.325-.546.755-.016 2.077-1.012.417.035 2.074-1.253 1.575-.586.604.116 2.514-1.707 1.046-1.091.525.113 1.56-.633 1.159.159 3.254-2.104.654.063 3.296-1.13.952-.492-.256-.217.147-.312 1.84-1.386.307.21-.016-.373 1.06-.596 2.451-.641 1.548-1.028 1.57-.293.824.355 1.528-1.68 1.777-.68.991.062 3.258-1.903 2.436-.788 1.849-.13.613-.358 1.328-.173 1.643-.964 3.406-.21 1.963-.668.41-.578 1.491-.061-.299-.325-.31.346 1.526-.691.825.107 1.227-.331.79.175 6.147-1.804.735.135 1.148-.714 3.55-1.084 2.545-.21.919.296 1.981-.57.693-.559 1.092.036.594.4 2.98-1.142 1.282-.026.16.234.642-.48.99-.114 4.169.151 4.655-.523 1.27.254 2.772-.725.703-.723 2.708.065.96-.407.4-.743.34.463.78.245.365-.289 8.194-.123 2.748-.457 4.28-.236.719-.415 2.484.414 1.739-.383.455-.453.829.33.289.531 1.882-.362 11.889-.281 5.234.256 1.723.382.14.421 1.046-.089 2.464.501 5.529.196 4.729.526.515-.25 1.371.873.751-.458 1.423.571 2.565.43 11.053 1.41 2.392 1.014 2.425-.122 1.04.467.597.836.226-.287.839.221.578-.355 1.968 1.138 6.789 1.18 1.231.58 4.319.802.696.44 1.482.142.68-.235 1.427.859 1.098.102.631-.491.308.306 2.339.578 4.915.798 4.251 1.193.646-.084 2.005.816 3.082.051 1.315.62 2.936.247.686.429 4.832.45 2.019.595 1.038.077.313-.412 2.686 1.141 2.446-.071 1.503.313.623.458.583-.163 2.613 1.11.879.786 2.469.674 2.377 1.403 1.349.425.642-.521 1.436 1.259 1.69-.008 1.408.496.289-.336 2.026 1.072 3.088.45.795.648 2.321.338 1.016-.135 1.828.69.708.86 1.992-.113 1.436.743 2.864.439 1.492.623.62.634.812-.28 2.097.199 5.177 1.058.525.611.932-.033.431.627 3.338 1.702.808.578.497.837.492-.161.549.211.441-.283.355.497 2.888 1.538.479.588 1.455.555 1.645 1.743 1.158.76.851 1.168 1.482.617 1.18.967.262.947.181-.166.556.465.321-.31 1.231 2.589 2.618 2.461 2.508 1.85.79.977.265 1.239.203-.261.573 1.765.84.966.763 1.701 3.147 4.829 1.97 4.205 2.675 3.739 1.804 4.258.257 1.525 1.242 1.803 2.065 4.149.909 1.159.652 1.976.312.434.449-.132 1.008 1.937.865.831.403-.121 1.514 2.358 1.323 2.858 1.703 2.17 3.027 2.105 1.018 1.549.637.273 1.494 2.642 1.035.73.791 1.036 2.293 4.081.402.302.626 1.51 1.349 1.036 1.171 3.7.553.665.332-.192 2.193 4.389.389.4.215-.106.421 1.427 1.169 1.112.132.543.755.047.456.67.114.91.047-.325.122.433.268-.222 1.651 1.617.336 1.081.159-.208.323.544.347 1.322.577.481.394 1.296.627 6.828-.069-.488-.157.647-.073-.453.21.497-.043-.326-.168.091.16-.576-.202.79.197-.773-.026.491-.534-.428"/><path fill="none" stroke="#000" stroke-width="5" stroke-linecap="round" stroke-linejoin="round" d="m333.907 752.232-.611.04-.575-.892-.869.452 1.264.3.106.35-.187.342-.086-.433.065.748-1.163 2.798-2.274 2.781-3.016 1.506-4.403 1.396-1.115-.047-4.035 1.738-15.793 4.78-3.701.842-1.915-.094-6.161 1.739-5.068.611-4.179 1.163-1.613.871-3.226 1.089-12.761 3.85-5.004.798-3.263.174-1.471-.269-5.425.923-5.475-.331-2.585.479-.603.705-.69.216-.515-.364-2.267.496-1.109-.129-2.87.829-1.155-.093-8.292 1.361-7.659.587-1.137.328-2.641-.098-1.776.274-2.42-.317-2.141.081-1.006.495-1.051-.364-1.942-.124-1.241-.553-.596.313-10.154.339-2.231.262-1.297.503-1.117-.076.156-.362.59.016-1.781.089-1.181.377-2.307-.382-5.635 1.496-1.415.987-.691-.384-2.003.141-1.953.56-.717-.107-3.012 1.208-4.161.788-.498-.197-.465.446.208.252.018-.513-.911.295-.385.473-1.316-.323-.797-1.079-.389.446-1.4.241-.616.521-3.445-.025-.85-.488-.351.236.154.518-.372-.684-2.099.411-.732.707-.324-.318-2.017-.263-.58.039-.146.418.222-.376-.098-.214-.06.401-.286-.033.323-.19-.395-.32.002.318.308-.084-.03.436-.192-.618.364.225-.315-.012.061.292-.025-.214-3.333.196-1.486.366-2.651-.044-1.28.398-.202.333.202.719-.054-.194-.702.384-.495-.047.109-.182.241.021-.19.257.068-.642.048.802-.142-.663-.212.278-2.621 5.48-.414 1.674.137.524M-55.089 801.698l.338.386.048-.223.077.254.035-.258.263.171-.189.34.59-.137-.387.08.454.011-.266.098-1.462-.209-1.059-.49-2.477.461-.409-.635-.99.629-.286.699-.09-.299-1.132-.17-3.11.478-5.7-.399-8.896.766-.924.465-1.975-.184-.658-.382-2.635.473-1.314-.306-.402-.738-.55-.291-.416.484-1.275.252-.908.511-3.027-.116-1.772.235-5.667 1.199-3.431.514-.796-.122-2.617.729-2.089.243-3.151-.307-.95.325-2.643-.087-3.498.448-1.307.627-.496-.258-3.082-.052-5.651.802-1.602.106-.62-.234-1.342.453-.672.667-.216-.272-1.108.069-.578-.424-1.925-.242-1.877.108-.818-.261-1.931.242-.977-.204-2.828.652-2.706-.051-2.253.32-2.179.935-2.527.065-.332.433-1.122-.313-.543-.553-.919.383-9.203 1.152-2.739.195-2.216-.275-2.132.536-.431-.355-1.564.592-.745.757-.069-.303-1.33.044-.777-.635-2.78 1.209-3.14.192-.272.248-2.905-.451-.392-.365-1.484.494-2.573.205-.791.514-.85-.139-.387-.717-.868.609-2.72-.181-.545.185-1.666-.441-3.935.637-.749.578-3.252-.152-.35.277-1.24-.472-.866.258.226-.154-1.827-.316-1.219.283-1.123-.21-.708-.702-.952 1.131-.778-.263-.089.291-.243-.36-.45.164-.806-.811-2.009.092-.448.302-.6-.235-.159-.622-.925 1.119-.634.014-.192-.488.054.284-.632.267-.271-.265-.454.283-.209-.185-1.243.197-.22-.395-.831.478-.354 1.002-.107-.519-.502-.359-1.106.017-.322.274-.634-.353-.628.351.216-.08-.263-.027.24-.037-.077-.354.066.826.203-.921-.332.162 3.03-.877 1.139-.886 8.985-4.214 6.12-1.855 3.736-.809.842.299 3.058-1.417 3.96-1.318.027-.242 3.247-1.617 1.555-.421.58.262.583-.854 2.625-1.445.565.263 1.235-.072.633-.669 4.548-1.458 3.222-1.821 5.166-1.637 3.801-.853.834-.119 1.091.275 2.172-1.687 2.045-.055 1.57-.382 1.172-1.41.214.274.431-.084 1.469-.813.878-.109 1.728-.942.708-.775 7.202-1.098 1.885-.971 2.738-.316 1.15.211 1.572-.414 2.146-1.045 1.631.014 1.614-1.02 1.554-.519 2.695-.418 8.845-2.3 2.655-1.468 3.065-.539 2.68-1.587 1.443-.179.691-.877.86.042 2.471-.629 14.344-4.717.957.032 1.899-.553 1.019.168.153.385 1.24-.746 1.605-.097 2.623-1.106 2.964-.518 5.239-.606 1.9.012 1.882.38 1.489.001.612-.366 3.561.632 8.145-.793 4.25.194.681.294 1.831-.251 1.74.695 1.293.032.669-.496.306.294 2.672.39 2.866-.145 9.354-1.086 2.078.04 2.057-.683 1.908-.124.612.238 2.098-.822 1.045-.08.645.552.506-.411 1.26-.196 2.961-1.11 10.438-1.504 3.75-.99 2.662-.186 3.865-1.217 1.729.017.727.28 1.644-.253.633-.442 1.622.252 11.952-.565 3.02.598 4.425-.068 1.035.317 4.947-.971 2.733-.043 1.895-.537 1.563.173 1.44-.289.584-.416 4.068.107 9.393-1.329 3.379-.064.938-.571 3.285.675 1.967-.365.93-.56 1.395.332 3.32.002 6.583-.522 3.515.267 2.61-.137 1.006.195.465.442 1.58-.695 1.218.057.527.396.23-.258 3.084-.284.629.206 4.438-.461 1.848.185 1.52-.8.759.313.668-.365.415-.736.226.194 1.726-.122.707-.294.275-.452 1.066-.163-.336-.178.216.299 1.274-1.706.939-.587.258-.785.289.658-.586-.153.703-2.028.251-2.239.715-1.771-.089-.86.479-1.441-.58-.762-.619-1.836.332-.275-.12-1.051.273-1.242-.278-.483.518-.829 2.78-1.332-.016-.385.036.713-.282-.729.429-.319.176.231.453-1.237.029.38.242-.194-.322.115.342-.016-.098.465.151-.264.076.306.084-.452.042.604.324.179.479 1.211.775.878.272-.031.401.943.709 3.489 1.115 2.508-.135.341.796.875-.01.802.3.134.703 2.793.537.576.235-.116.583 1.263 1.561 1.488 2.47.509.659-.255 1.994.282.387-.288.781.431.715-.136.678-.604.414.292 1.939-.085 1.014.274 4.148-.456 3.882-1.769 4.184-.86.89-.782 1.852.13.703.836.242-.43.832-.217 3.603.023 2.867-.49 7.824-.532 3.228.044.289-.239.679.751.618-.149.327-.531.158.294 1.396.264 2.031-.16.938-.349 7.203-.286 1.24-.412-.09-.356-.692.06.49.346 1.502-.888 3.026-.487.884-.284-.284-.242.738-.245 1.554-.006 2.804.67 2.09-.117 1.792.317.311-.057-.535-.371-.293.66.14-.649.529.352 1.416-.174.529-.262 1.833-.069.65-.237.057-.269-.693.126.266.477.715-1.326.765-.591.25.278.202-.525-.276-2.288 2.526-2.094.379-.987.255.205-.078-.536.091.322.617-.643.944-.325 3.861-.587.831-.301.347-.56-.175.469.188-.307 1.75.388 1.801-.01 3.19-.421 1.799.186 4.799-.608 3.2.476.335-.051-.019-.34-.476.536-.149-.748-.023.284.32.096 1.053-.481.532-.575 1.537-.228.531-.614 1.391-.057.712-.397 1.607-.26.638.4.261-.349 2.526-.969 1.821-.018.883.448 2.658-.615 1.398.168.695.425 1.114-.121 4.785.648.749.588.811.049.377-.544.129.724.524-.394.352.519 4.474.78 2.062.963.269-.202-.276.587-.059-.344.098.206 2.136-.201 1.225-.513 3.877-.693.551-.356-.402-.199 1.095-.469 5.967-1.843.976-.635.251-.627.316.015.059-.58.06.247.071-.29 2.232-.804 2.225-.425.017.247-.319-.047.021.816.127-.354 1.416-.272 1.211.423.589.517 2.684.533.322.581.395-.426 1.244.946.36-.005.67 1.016.595.167.437-.567.695 1.376.434.207.255-.295.456.573 1.686.573 7.358 1.43 1.355.638 1.632-.232 6.144 2.208.65.454-.773-.379.163.287.882.458 1.101 1.144 1.048 1.749-.052 1.283.079-.404.552.63.938.221 5.503 2.945.381-.099.346.417 1.527-.583 1.129.249.64.685.333-.31 4.708-.351.722.43.963-.285-1.178-.068.525.206.176-.766-.163.666.012-.37-1.505 1.754"/><path fill="none" stroke="#000" stroke-width="5" stroke-linecap="round" stroke-linejoin="round" d="m-122.618 690.296-.857-.013-.007.22-.385-.203-.006.467.011-.255-.391-.134-.013-.351.314-.177-.244 1.225-.545-.404-2.712 1.305-3.16.722-1.399.617-.805.827-.594-.066-.518.299-.151-.443-.743 1.126-.711.113-.161-.205-3.033 1.085-5.402 3.296-.831.123-.357.348-1.241-.063.062.305-1.288.805-.295-.127-3.035 1.249-.718.715-1.2.01-1.4.751-.509.933-1.465.37-1.33 1.301-1.24.248-.518.766-1.681.505-1.028.965-1.262.628-1.586 1.979-.003.559-.744.642-.364-.29-.722 1.789-.311-.142-.79.937-1.326.397-.981.879-.276.656-2.401 2.071-.936 1.591-.597.486-.419-.115-1.448 2.124.425.085-1.85.908-.675 2.068-.023-.38-.957.371-2.034 3.481-.643.277-2.204 3.083-1.586 1.516-.445 1.376-1.503 1.015-.887 2.354-.96.552-.149.529-2.309 2.242-.628 1.388-1.897 1.31-2.807 3.233-4.057 8.31-1.555 1.683-.68 2.364-1.102 1.331-.929 2.009.144.184-1.139 1.045-.361.984-.417.607-.526.2-.524 1.125-1.887 1.582-.649 1.449-.91.667-.334-.227-.496.365-.805 1.111.055.353-.783.552-.422-.434-.699.783-.356 1.215-.716.896-.692.217-1.316 2.76-1.421 1.501-.807 2.137-1.303 1.148-.448 1.35.16.152-1.062.626-.305.673.267.19-.912 1.127.157 1.446-.981 2.556-.227 2.231-.495 1.165.014 1.603-.589 1.538.32 1.391-.097 1.103-.619.369-.041 1.25-.367.086-.289.571.287.679-.498 1.414-.619.597-.121 1.387-.48.263.12 1.079-.702 1.581.139.844-.308.431-.26 2.213.471 2.014.495.456M121.868 791.492l-.716-1.153.529-3.196-.467.057-1.589-1.252.21-.405-.463-1.158.185-.49-1.953-.777-.172.76-.321-1.454-.04.865.192-1.122.048.286.238-.153-.074.74.255-.728-.11.287.31.083.082 1.066.382.514-.11 1.52.422 1.978.603.992.092 1.061.449.229.373 2.085.366.072.194.411-.031.809.114.366.115-.44.821 3.633.558 1.096.595 3.008 1.381 3.384.588 2.431.75 1.486.433.32.673 3.129 1.179 2.772-.016 4.042.549 3.469-.208 3.635.706 1.984.168 2.246.412.26.166-.421.534 2.59.546.459.297-.536.325 3.811.551 1.948.068 3.473.701 4.516-.178.631.618 1.886-.095 2.43.163.513.142-.199.812 4.254.073 10.228-.02-.373-.172.52.264 1.094-.015-1.037.039.826.28.21.043-.339-.266.097-.14 1.294.492 2.143-.241.078.31.141.045-.52-.04-.747-.304 1.487.394-.69-.307-.149.265.377-.326-.146-.024.226.555.021-.111-.434.27.082-.258.755-.161-.607.581-.021-.198.012-.048.767-.043-1.373-.168 1.415.171-.995.285.196.947 4.155.506 1.008.397.127-.057.946.585.221-.099 1.33-.152-.421.338-.773-.029 1.631.314.253.128-.658.44 2.349.273.045.486 1.427.332 2.564.237.027-.263-.18.103-.94.186.485-.227.266-.084-.21 1.459 2.902.85 2.875.039 1.409.296.249.117-.34.254 1.913.385-.746-.191.541.051-.482.472 1.932.503.379.681 2.803.989 1.461-.11.766.822.488.582 2.535.573.522.634 3.154.036 3.211.703 2.336-.133.798.888 1.246.129 1.283-.249.58.896 1.857-.045 2.569.538 1.242-.12 2.221.825 3.586.951 1.864.142.924.45.337-.087 1.642.264.767.286.109.24 2.063.457.318.431 1.662.346.162.775 1.653.187 1.475.252.417.006-.454.631.612.469 1.735.409.073.694 1.353.657 9.275.206.028.045-.688.163 2.467.35.729.226-.569.203 2.925 1.101 3.056-.256 1.737.44.936.128 1.423-.191.069.158.32.129-1.193.075.743.055 7.247.356 2.15-.05 3.82-.508 1.067.494 2.505-.382 1.909.458 1.712.064 3.383.393 1.145-.151 2.724.176-.266.321 7.819-.199 3.14-.658 2.98-.245 8.56-.427 4.81-1.609 9.63-.368.48-.423 2.65-.019 2.68-.895 2.72-.21 2.46-.93 2.81-.186 2.49-.94 2.05-.318.19-.17 1.08-.919 1.21-.362 1.33.179.46-1.181 2.26-.217 1.43-.715 1.09-.107 1.33-.498.26-.922 1.46-.493 2.15-.045-.25-1.02.73-.158-.43-.254.27-2.039 5.44-.601.75-.184 1.74-.933 3.16-.369.17-.142.93-1.114.77-.321 1.52-.487.62-.152-.24-.273.17-1.363 4.22-.978 2.11-.175-.82-.291.13-.117 1.22-1.693 3.77-.21-.23-.271 1.37-.269.26-.248-.21-.921.69-1.723 2.51-.723.61-.285-.47-.33.11-.174.78-1.076.87-.935 1.74-.967.82-.682-.3-1.8 2.68-.411-.09-.531.95-1.577.72-.183.93-.501-.42-1.352 2.55-1.393 1.4-.606 1.49-.619 1.02-.297.02.02.32.408-.25-.175-1-.216.4.176 1.17.053-.64-1.221-1.06M-50.88 787.464l.297-.03.175-.916 1.805-2.319-.477-.134-.038.713.552.012-.013-.39.255.144-.366-.245.062-.495-.01 1.056.078-.298-.066.196.31-.033-.09.769.233-.278.023.421.148-.3.129.95-.339 1.478.318 1.418-.034 2.679-.66 3.77.65 3.651-.004 1.776.261-.086.06.401.196-.501.132.569.084 1.027-.305.317.311.327.034-.305-.183 1.687.486 1.147-.249 1.935.234.345-.41.751-.02 1.887-.452 1.617.136.975-.362 1.937.511.727-.397 1.05-.033 1.125.259.276-.55.717-.302 1.405-.002 3.747-2.328 4.367.296.661-.834.939-.379 1.742-.987.967-1.479 3.392-.237-.086-.383 2.34-1.23 2.14-1.022 1.087-.617 1.265.082.512-1.51 1.717-.413 1.727-.317.15-.054-.255-.628 1.073-.244 1.11-1.227.959-3.79 4.991-.99 2.779-.126-.259-.437.472-.269 1.162-.448.235-.143.615-.303-.024.09.337-.402.527-.187-.308-2.066 4.191-.997 1.483-.777.561-.513 1.416-1.814 1.493-.167 1.56-1.553 1.856-.406 1.409-.374.389-.286-.112-.389 1.129-.199-.132-1.243 1.488-.604 2.162-1.665 1.837-.498.947-.389 1.718-.491.483-.36-.229-.22.222-.868 2.868.236.573-1.324 2.181-.071 2.397-.81 1.921-.383 3.312-.751 2.409-1.26 2.202-.268 1.865.249.425-.359.866-.11-.435-.281 1.129-.169 3.584-.803 1.892-.966 3.983-.008 1.911-.483 1.292-.042 1.83-.986 1.504-.081 2.427-.72 2.284.192.511-.241 1.762.187.029-.128.289-.082-.345-.31 2.428-.542.802-.46 2.896-.313.354-.031 2.995-.326.587.288 2.192-.512 1.073-.023 2.77-.912 2.207.04 3.078-.408 1.892-.52.932.247 1.795.326.488-.339 1.083.362 2.032-.268 9.18.257.35-.03 1.754-.236 1.92.522 3.451.584.424-.25 2.193.418 1.951.609.869-.345 3.008.607 1.494 1.865 10.39.09 4.179.684 3.456.108 3.01.993 2.61.291 2.32.294.61.098-.43.264 3.82.49 1.36.557 5.29.694 3.6.98 1.96.38 2.5.34.76.309.09.871 3.49-.183.56.128.25.177-.2 1.51 6.4 1.296 3.47.75.8 1.93 4.52.37.36.308-.5.9 3.32.338.21-.144.41 1.271 2.73-.23.24.564.31.268-.25.75 2.07-.25.24.439.38.31-.36.664 1.12.778 2.68 1.653 3.02.366 1.52 1.296 1.08.386 1.53.153.18.15-.38.816 1.07.105 1.75.473.42.174-.38.419.81.305 1.46-.19.19.616.21.975.92-.128.22.64.45.438 1.05.74.61.131 1.5.147-.28.218.21.254-.48.386.93-.023.79.282-.36-.16.28.226.5-.21-.54.266-.04-.235.35.096.22.133-.21-.036.71.073-1.22-.14.56.112-.2-.337.1.065-.39.242.28-.13.29-.057-.39.334.06-.218.71-.069-.47-.321.08.265-.7.554 1.82 1.1 1.76"/><path fill="none" stroke="#000" stroke-width="5" stroke-linecap="round" stroke-linejoin="round" d="m-69.107 1085.79.279-2.29.678-1.41.168-1.29-.214.65-.304-.33.132-.58.496.49-.27.51-.422-.19.209.02.102-.64.358.35-.101.8.102-.22-.29-.02.28-.85.269.32-.166.43.34.02-.309.09.036.29.467.66.492.47.521-.37 1.36 2.4.669.65.951.51.756-.2.297.51 1.19.44 1.335 1.15 1.18.22.647-.5 2.67.38 3.838 2 .52.58 2.79 1.02.555-.17 2.03.93.988 1.05.492-.26 1.837.02 2.258.31.914.48 2.065-.16 2.97.61.622.67 2.503 1 .784 1.04 1.788.73 1.067-.2 4.133 1.11 2.57.09 1.185.44 3.233-.16 2.104.22 4.842 1.66 1.205 1.03.226-.26 3.577-.11 1.195.36 2.213.02 1.014-.72.437.38 1.492.23.892.48 2.303.17 2.276.58 5.021 2.01h2.747l1.886.43 1.09.81 1.842-.27.912-.62 2.204.65.796.5 1.564.28.675-.33.861.53.458 1.06.368-.22 1.642.19.572.44 2.813.6 4.115.15 1.037-.51 1.897.34.774-.22 1.928.28.753.43 1.525-.1.342-.69.494-.26.614.68 3.534 1.08.738-.22.069.32 1.621.77 3.328.3 1.342-.24 2.568.34 3.767-.41.355.57.893-.1.414.32.932.12.491-.42.46.47.86.11.608.5 2.32-.39 1.418-.57.844.05 3.855-.82.904-.61.997.35.52.53 1.753-.56 1.573.24.72.66.272-.37 1.301-.11.711-.52 5.04-.65 3.509-1.39.575-.56.817-.22.249.53 1.152-.98.722-.16.4.93 1.476-1.91 1.227-.52.705.36 1.511-1 .739-.94.25.21 1.37-.2 4.436-1.42.53.28 1.205-.51.357-.67.76.04.477.47 2.059-1.73 1.928-.48.782.14.941-.5 1.081-1.2.907-.04.4.38 1.409-.81-.334.01.127-.16.06.5-.372.33M-36.105 796.779l-1.385-4.707-.307-.405-.43.496.884.448-.155.358-.343-.019.46-.053-.71 10.138-.703 2.099.159 1.257-.394 3.586-.46 3.151-.603 1.465.06 1.576-1.136 7.396-.641 1.476-.539 5.431-.762 1.609-1.263 4.477-1.692 3.018-1.017 2.615-1.038 3.768.085 1.064.144-1.248.562-.263.269-1.104.168.153.553-.727.697-.18 1.847-3.27M-25.174 796.552l-.439.172-.535.935.238 6.363-.826 4.129-.068 1.67-1.322 4.214-1.037 1.798-1.035 5.783-2.064 6.974-1.617 8.233-.418.641-.57 2.747-1.717 3.964-.752 2.747-1.331 1.827-1.179 2.563.107.524 1.105-1.791 1.226-1.089 2.685-4.549 1.413-3.029.709-.284M-8.718 793.084l-1.164-.671.089-.749.327.251.287-.395.147.266.544-.446.47.136.07.744-.33.814.486 8.903-.644 6.198-1.668 9.355-1.101 14.314-1.7 8.297-1.496 3.822-2.709 9.759-1.15 2.619-.163 2.344.402.057.281-.635.415-.02.224-1.147 1.427-1.975 1.922-3.645M14.163 793.527l-.21-.849.32-.763.1.538.013-1.049-.043.853.177-.3 1.084 8.341-.084 4.766-.408 1.425.227.807.015 4.361-.693 7.168.367 8.172-.298 2.761.881 4.971.006 4.255-.405 4.9-1.245 8.765-.302 4.918-.352 1.331.36 2.426.466 1.1.402-1.035.829-.98M40.414 791.839l-.568-.716-.062-.313.267-.093-.333.365.302-.361.2.51.183-.169.2 1.08.297-.197.01-.57-.33.789.67 3.048-.183 4.559.206 5.453.485 1.55.357 6.029 1.419 4.577-.143 1.028.495 3.912-.048 1.741.437 2.672.134 3.218-.322 5.096-.41 1.34-.14 6.467-.27 1.506.084 2.024.576.607.406 1.339-.018 1.601.386 1.003M69.885 788.365l.677-1.9-.096.35-.281-.341-.252 1.945-.165 5.461.98 10.87 1.164 7.084.333 6.884-.043 9.514.53 6.328 1.177 4.195 2.726 5.521 1.176 4.466.099 4.189-.282 4.031.087.424.407.164M99.05 788.688l-.74.65-.542-.019-.157-.402 1.092.306.646 3.576-.575 11.076 1.312 10.154 1.683 6.296.679 7.526 1 5.259 1.063 3.493 1.492 3.171 2.042 3.39 2.389 5.452 1.207 4.322 1.495 3.12.39 2.951 1.011 2.52.628 2.629.568.544.622-.13.431.683.783.41.561-.245M116.263 798.964l-4.363-4.036-.888-1.593 1.083-1.598 1.288-.445.736.289.645-.734-.228.539.226 1.08-.245.074.381.835-.127 1.337.495 1.519.44 3.261.492 8.354 2.951 9.407 2.013 3.747 1.647 7.786.584 4.519-.148 4.253.66 5.393-.247 4.82.34 1.809 1.17 4.587 1.101 1.707.764 2.529.527.145.433 1.315 3.244 4.677.211.707M123.02 872.963l-3.902 2.631"/><path fill="none" stroke="#000" stroke-width="5" stroke-linecap="round" stroke-linejoin="round" d="m-69.65 1022.88-3.146-5.29-.714-1.87.315-.67.528.13.83 1.36-.702 1.83-.154 3.63.043 7.52.694 8.35 1.32 5.12 1.432 4.15 1.239 2.72 1.484 1.56 1.56 2.54.719 1.73 1.45 5.39 2.886 6.63 1.013 3.82 1.045 2.05.975 3.03 2.398 3.6 3.054 5.69 1.376 1.85 1.386 1.53 2.405 1.32 3.259 3.73.514.05.92 1.41.469 1.76.803.37.26-.51-.162.3.342.23-.013-.52-.183-.87-.283.14.16-.44-.383-1.43-.024-1.98-1.554-9.01-1.05-3.87"/><path fill="none" stroke="#000" stroke-width="5" stroke-linecap="round" stroke-linejoin="round" d="m-55.528 1057.42-.901-1.53.093-.82-.689-1.41-.361-2.63.145-1.86.742-1.41.45-.05-.03.47.736 1.24-.224 1.11-.413.33.722.12 1.835 2.4 1.73 3.12 1.96 2.14 1.978 3.11 1.086.94 3.702 5.86 3.6 7.7 4.096 5.12.858 1.86 2.034 1.99.485-.18.455.22 3.08 4.33.787.73.2-.35.187.12-.042.79.45.82.276 1.81.305.61.182-.16.007.64.496.29.41-.76M-25.817 1062.36l-1.3.63-.007.75.245.06.758 3.56.953 2.69 2.435 4.76 1.767 2.02 1.559 1.16 5.297 6.54.924.53.643 1.51 2.823 3.14 2.277 3.62 3.127 3.23 1.276 2.45 1.736.5 1.182 1.49.772.12.567-.5.236-1.64M12.12 1081.21l-.2-.12-.858.71-.602 1.16.41-.27.749.46.108-.26 2.049 2.26.806.22.934 1.64 1.116.87.391.7 1.275.65.571.71.172-.46.22.11.242 1.6 1.623 3.75.805 3.03-.03 1.34 1.252 2.67 1.299 1.26 1.062-.65 1.95-2.27M35.949 1080.96l.443-1.86.567-.06-.2 3.28 1.508 3.59.673 3.86 1.36 4.2 1.787 4.19.176 1.38.824 2.38.616.35.43 1.07 1.484-1.35.757-1.44.86-.89M67.342 1077.22l.582-.43.312.84.695-.41-.336-.72-.098.77.203.13-.203.18-.162-.62-.243.96.131 1.57.43.57.476 2.68.485 4.47.028 7.5-.326 6.8.192 1.21.36.27.557-.46M103.694 1076.75l-.096-.17.086.26.285-.21-.7-.1-.074.72.22-.04-.009-.64-.295.5-.065 2.19-.662.86-.87 2.07-.71 3.31-1.044 3.02-4.461 9.7-.984 3.27-1.084 2.33.533.71.798-2.48.36-.38.343.14 3.01-4.83 2.113-2.79 5.503-9.41M134.446 1050.14l-.229-3.21.608-1.2.044-1.02-.028 1.27-.283.34-.035 1.06-.132.16-.084-.3-.167.34-.752 5.18-.858 3.55-.728 6.06-1.173 4.93-.902 5.75-.521 1.53-.346.27-1.585 6.05-.342.93-.333.18-.977 3.13-2.989 3.38-2.213 1.8-.447.97-1.12.95-.675 1.32-.834.7-1.116 2.07-1 1.03-.467-.06-1.285 1.74-.293 1.09-.622.07.255.47.535-1.3.308.83.881-1 1.012-.26.483.33.631-.09 3.548-2.34 2.465-2.9.967-2.28h.263l1.41-1.88 1.015-2.19.114.23.371-.31.164.16.525-.75.45-1.64.403-.56.308.07.857-1.44.887-2.64.564-1 .414.04.934-1.9.509-2.2.321-.58.925-.39.943-1.1 2.248-4.85.471-.45 1.77-3.86.595-.64 1.313-4.21 1.455-3.49 1.149-5.02 1.199-3.01.448-3.47.517-.42 1.068-3.93.22.01.682-1.53.44-.36 2.395-5.03M150.823 1042.05l-.485-.06-.544.37.069.39-.324.06.047.27.182-.44.46-.06.134.45.533-1.35M133.988 791.638l-.003-1.874.722-2.645-.457.534.122.922-.397-.243-.579.294-.534-.381-.558.182-2.627-.893-.63.156-2.399-.933-.607-.059-.309.483-.431-.028-.325-.359-1.12-.253-.575-.546-.917.403-.141.517-.328.084-.112-.355.503-.339 1.852-.089 1.312-.418M118.568 787.239l.528.267"/><path fill="none" stroke="#000" stroke-width="5" stroke-linecap="round" stroke-linejoin="round" d="m125.41 788.633-.533-2.489.232-.393-.297.17-.323-.499.124.405.603-.683M124.293 784.142l-.182-1.641.37-1.574.353-.344.135.35-.03-.541-.136.354.294.695M134.436 788.91l.333-2.055-.165-.367.598.018.297.3-.128.176-.054-.488-.258.042.351.816-.271.061 1.044-.114M141.067 790.458l-.106-1.433.529.11-.037.614.269-.506.424-.061M153.252 784.677l-.555.555-.014-.838.197.336.766.041.65-.851 1.2-.631M161.473 786.131l.617-1.033.596-.423.324.195.235-.615-.212.214.061.988-.227-.529M132.161 786.96l-.621-1.495-.441-.532-.115.188.435-1.115.78-.038 3.617-1.428M131.087 784.488l-2.084-2.146-.681-1.133-1.103-.584-.292.425-.072-.387.34-.288.259.31 1.27.236M146.899 785.09l-.039-2.72.637-1.025.492.268.788-.114 5.319-2.326M160.525 784.07l-.678-1.818.663.098 1.818-.592 4.3-2.889M164.75 777.365l-.941.056.517-.42.707-1.53M138.029 777.328l-1.45-3.088.461.717.748-.193.837.395M134.327 773.709l-1.266-2.358-.222-1.172-.39.223-.037.379.669.559.899-.101M151.067 770.521l-.49-1.119-.058-1.01 3.283-.28 2.566-1.167 2.309-.391M171.573 769.794l.349-.702-.004-.977-.129.268.102-.227.41.662 1.991-.108M191.333 779.992l-.928-1.832.442.093.216.401.14-.775.019.361.843.431.786-.273M215.327 767.563l-1.609-5.058.034.201.69-.864 1.852-1.109M191.211 757.151l-3.631-3.51 1.375.234.905-.366 1.087.305 4.193-.469M203.336 776.095l-1.165-2.377 1.098.484 1.344-.484M249.414 761.993l-.382-2.282-.548.254.061.336M264.943 756.03l-1.307-.742-2.421-.664-2.614.3-1.626.836-.339.527.031 1.104M206.942 772.721l-.856-.595-1.009.511-.968-.111-.329-.438.277-.037-.112-.229.316.176M195.135 774.544l-.002-1.716.387-.68-.545.358-.069.374.282-1.118M254.337 765.996l-.794.316 1.965.597M271.931 776.211l-.39-.824-.059-1.149-.726-.925M225.906 776.626l-2.222-1.528-.402.068.488.162.274-.311.662 1.002.837-.661M219.283 777.814l-3.511-.999-2.802-.054-1.027-.279-3.822.926M192.654 775.88l-.929-4.106-.339-.079-.214.369-.477.088-.267-.4-.496 1.338-.174-.368M190.652 769.049l1.075-3.821.772-.91 2.859-1.724 1.504-.123M198.613 762.067l-1.913-2.391-.363.364-.466-.654-.427.88-.261-.083M167.962 770.907l-.673-1.677-.283-.055-.258.376M138.713 778.324l-.485-.392-.15.297M121.091 780.119l-.832-2.341.178-.494-.033.722.254.268.435-.299M125.236 773.247l-.583-3.836.078-.936.167-.225-.002.361.219-.326.164.146M113.861 773.33l-2.518-2.798-.407.153-.213.581-.003-.375.522.872M101.303 778.459l-.367-2.148-.988-1.498.425.757-.107.319"/><path fill="none" stroke="#000" stroke-width="5" stroke-linecap="round" stroke-linejoin="round" d="m96.48 776.836.892-1.445 4.092-2.077 5.634-.412"/><path fill="none" stroke="#000" stroke-width="5" stroke-linecap="round" stroke-linejoin="round" d="m117.033 775.125-.855-.405-4.136-.117-1.135-.493-1.787.393-1.028.58-.5-.221-9.223-.245-3.778-.376-4.626.684-2.323-.211-1.11-.65-.827.412-3.713.524-1.576-.238-4.223 1.144-2.466.079-1.232-.245-6.106.793-6.32-.212-3.498.102-1.225.362-4.618.039-4.081 1.244-1.748.954-1.907.197-6.518 1.58-1.335.912-.686-.142-4.954.949-1.057-.064-3.202.778-.95-.072-5.989 1.173-1.377.71-7.985.865-3.22 1.448-4.008.272-9.283 1.37-1.95.537-.898.983-1.074-.246-2.055.215-1.64.518-1.172.803-1.724.118-.948-.402-.5.386-7.039 1.905-9.284 1.242-1.453.739-1.41-.009-.221-.345-.775 1.259-.593-.655-.883.747-.684.058-.331-.499-2.101 1.249-.75.04-1.19.678-.403-.032.476-.204.121-.649-.178 1.004-.314-.258.42-.778-.23.429-.342.001.302.051.115-.848.35.539-.176.366.312-.148-.026-.311-.111.337.174-.138-.425-.055.337.022.006-.299-.109.806.045-.63.277.168-.292.312.021-.317.26-.016-.278-.168.077.329.97-.496.366.292.381-.486 1.28.006 1.481-.839"/><path fill="none" stroke="#000" stroke-width="5" stroke-linecap="round" stroke-linejoin="round" d="m4.628 786.133-2.16 1.229-.536-.327-1.799-.153-3.932-1.096-.64.163-1.62-.302-1.309-.749-2.458.115-3.11-.333-2.988.593-1.365.649-5.583.318-8.116 1.934-1.323.591-7.36.774-3.749 1.216-.486.018-.255-.686-.028.441-.36.26.084.577-.245.015.542-.252.23-.741.06.494.215-.37.372.203 9.463-5.042 11.805-2.7 3.813.277.703.617.836.134.807-.495 5.89-.242 3.588.308 2.082.487 15.312-1.041 10.17-1.243 4.71.516 2.605.899.847-.098 5.373 1.439 3.042-.315 1.45-.57 10.615-.714 1.72-.601 4.49.667.794.63 1.547-.783.288.111.446-.53-.128.352-.277-.259-.201.215.28.019-.757.086-.001.458-.333-.136.208.02-.005-.386-.125.228-.47.107-.22-.288-1.196.521-2.875.162-3.222-.354-.48-.287M-35.962 796.07l-.782.272-.928-.434-.425.238-1.115-.203-.118.418-.125-.368.425-.357 1.783-.301 3.371-1.831 5.379-1.511 7.12-.264 6.16-.775 3.337-.124 11.026-1.786"/><path fill="none" stroke="#000" stroke-width="5" stroke-linecap="round" stroke-linejoin="round" d="m-23.427 801.04.086-5.81-.238-1.749-.481-.657-.274.537-.328.153-.096-.207-.287 1.841-3.917 5.666-1.02 2.442-.25 1.403-2.102 4.575-.629 2.317-2.86 6.401-.35 1.606-.203-.135-.755.701-1.097.367M-36.778 803.828l-.21-5.793-1.014-1.193-1.135-2.689-.679.849-.4.022.776.218-.27.574.193.47-1.282 7.559-.063 2.971-1.325 6.3.073 2.716.691 4.521.656 1.137"/><path fill="none" stroke="#000" stroke-width="5" stroke-linecap="round" stroke-linejoin="round" d="m-19.948 797.573-2.315-4.043-.981-.993-.35.276.426-.283.105.605.638.385.227.887.374-.109.593.847.919 6.977-.203 4.762-1.183 9.48.221 1.718.416.823M-10.187 797.388l-1.004-1.479-1.365-3.789-.222-.161-.228.48-.287-.402.098.221.089-.418.546 1.544.619.594.161 6.721-.353 3.801-1.191 5.453-.037 1.863-1.185 4.905-.32.463-.294 2.223M-.184 793.635l-1.848-2.454-.464-2.037-.027 1.03.491 1.289.961.588.593 1.743.353 1.869.22 4.475-.065 3.23-1.929 9.357.079 1.604-.825 4.401M12.926 791.589l-.443-2.76-.765-1.796.068 1.705.849.499.62 5.182-.077 6.188-1.486 13.902.228 3.293M29.194 791.105l-.233-2.683-.579-1.472.555-1.72-.432.773.258.595.079-.436.1 1.356-.382.228.463.474.548 5.952-.731 20.211M46.024 785.831l-1.418-2.431-.201.121-.337-.747-.234.293.238.865 1.1 1.374 1.158 2.933.831 13.287-.426 5.808-2.421 11.074M61.844 786.641l-1.325-3.229-.212-.164-.04.312.763.82.233.96.263-.011.73 1.383.606 3.392-.14 1.611 1.059 6.62-.154 11.753M72.727 785.666l-.388-3.411-.335-.216-.232-1.172.016 1.654 1.114 2.905 3.315 18.494.476 3.353-.08 5.521M83.5 786.957l-.37-1.562-.548-.611-1.154-2.632-.125-.573.37-.035-.214.175.418 1.058.58.314.769 1.987 1.271 1.595L86.134 791l2.31 10.148.532 4.938.107 5.231.45 2.206-.07 3.649M98.535 787.537l-.347-1.911-.902-1.925.27-1.17.165 1.097.225.356.109-.27.114 1.247.436.239.168 2.184.682 2.251 2.462 15.44.026 2.034 1.476 6.027.572 4.235.805 2.108M110.402 786.518l-2.383-5.189-.296.021-.005.437.808 1.546.574.502.212-.164-.074.675 1.247 3.91 1.534 12.725 1.271 6.853 2.659 7.715 1.785 3.15M115.474 784.845l-.919-4.432-.149-.291-.13.375.203.927.491.276.022 1.432.411.527 3.965 10.875 1.124 8.218.114 4.598-.302 2.423-1.115 6.751-.238.749-.69.455"/><path fill="none" stroke="#000" stroke-width="5" stroke-linecap="round" stroke-linejoin="round" d="m99.887 782.417-2.934-3.876-.609-1.453.166.312.024-.416.094.933.352.355.308 3.152 2.512 11.401-.101 5.007-.25-1.619.053.519-.93.051-1.143-.811-.798-1.066-1.377-.704-2.652-3.017-.276-.732-1.823-2.081-2.397-3.63-1.304-1.418-1.166-.675-.517-1.034-.184.265.14.355.567.135-.08.259.56.744.883.186 3.26 4.836.837 2.296-.069.687.912.69.967 2.557M90.698 791.469l-2.632-1.64-2.593-.297-.731.11-.639.511-1.203 1.863M106.64 776.566l-.272.996-.047-.368.232.311.22-.282 1.462.012M127.268 774.588l-.642-2.22.279.168.097.739.378-.03.404-.696.123.315.592.013M141.959 774.541l-.985-.897-.826-.109-.253-.614-1.359-1.012-3.008.536M118.091 774.144l-1.656-1.934-1.893-1.627-2.359-.718M99.102 772.564l-.975-2.718-.673-.265-.483-.623-.437-.007-.343-.536-.046.35-.765.391M82.082 776.621l.421-.748.534-.298.559-1.332.475-.098M72.502 775.468l-2.653-.485-1.1.124-2.5-1.07-.945.147-.228.429M107.613 766.136l-1.358-1.978-.805-.006.067.677-.043-.302-1.26.225M127.096 762.362l-.06-.658.747.235M155.546 766.212l-1.052-1.491.188-.555.635.419M150.103 771.346l-.54-.278.218-.68-.253-.041-.036-.939.266.35M143.855 767.773l-1.915-4.268-2.328-1.888.101 1.028M115.86 769.82l-1.916-3.508-.618.492M87.712 770.345l-1.078-1.593-4.305-1.708-.265-.073-.615.543-.374.948M69.634 772.541l-1.515-2.492-.524-.161-1.083-1.324-.6.084-.154.541M60.04 771.616l-2.77-1.523-.276.358-1.398-.646M43.576 771.867l-1.041-2.44-.475-.354.137-.262-.239-.25.21.2-.15.773.615.428M33.685 775.704l-.274.133-.168-.598-.689-.854-.29.067-.287-.615-2.817.001-.973.692M11.501 780.269l-.936-1.017-.677.137-1.303-1.618-1.814.203.081.697M-4.021 782.464l-.078-1.735.306-.556.066-1.262.259.109.403-.453 2.298-.654M69.25 771.27l-1.868-4.512-.758-.195-.576.483-.705-.309-.057.209.726.402M43.275 774.226l-.778-.811-4.121-2.531-1.655.105-.628.653M13.91 778.865l-.749-1.993-1.893-2.753-.95.041-.465.653M-5.069 781.559l-2.247-1.989-.667-1.004 1.264-.275M-17.145 782.68l-3.91-4.269-1.387-.189-.65.441-1.573.015-.211.741M-33.902 784.097l-2.082-.761-.064-1.005.08.405.487-.117M-43.511 786.496l-.396-1.022-1.502-1.12-.215.177-.997-1.33-1.918-.183-.214.118.156.338.334.137M-61.056 791.058l-.99-3.622-.188-1.993.342.115-.197 1.51.436.529M-71.03 794.837l.645-2.264-2.19-2.13-.19.935 1.145.096M-61.941 793.44l.127-.749 1.422-1.613.509-.162.02.443.275-.203.264.211M-74.149 797.588l2.852-.919 1.245-.025 1.451.056.547.384 1.28-.122-.19.197.916.316 1.855-.435.519-.79.631-.273.538.444 4.17.635 4.144-.385 1.552.21 3.181-.22.76-.208-.582-.147-1.544.136.086.235.584-.258-.167.231-.1-.585.239.318-.218.275-.176-.352.13.235-.62.174-.213.377-.691-.297-.874.393-2.07.12-3.722 1.312-.596-.152-1.659.932-2.194-.105 5.617.215 3.714-.55 2.1-.788 5.123-.511 1.614.432 2.767-.934.468.173-.12.5-1.447.811-.935-.141-1.265.251-2.192.97-3.087.701-4.78.373-3.33.785-2.303.102-1.35-.431-4.225.294-1.848.547-.938-.264-4.375.029-2.267-.424-6.644.785-6.804-.116-.91-.183.17-.606-.21-.255.708-.667-.788-.554-.163.525-.15-.675-.352.148.392.577.822-.224.546-.66 1.928.279 7.937-1.49 4.639.099 3.65.416 4.157.781.422.523 1.114-.634.28.795.234-.513-.194-.911-.223.624.209-.304-.344-.175.08.259-.466.047-.196.507-1.144-.47-4.524-.515-6.242.222-2.52.659-1.245-.101-4.143 1.299-3.494-.002-.728-.701-.854-.28-1.77.503-3.927.145-4.806-.271-1.913-.541-4.811.228-7.336.972-5.084 1.046-5.974 1.836-1.931.104-1.256.401-.247-.223-.548.571-.504-.229-.214.165-.609-.772-.887.087-.18.444-.108-.399-.178.131.955.34 1.248-.06.786.502 2.019.477 4.587.063 7.566-1.262 4.96-1.393 3.374-.489 8.21-2.414 4.731-.583 2.396.013 3.456-.733 6.762-.469"/><path fill="none" stroke="#000" stroke-width="5" stroke-linecap="round" stroke-linejoin="round" d="m-69.61 796.664-1.86 1.127-.21-.178.543-.022-.101-.351-.156.124.229-.06-.61-.067-.609-.527-1.708.35-1.671-.6.42-.501-.133-.4.972-.792 2.18-1.036"/><path fill="none" stroke="#000" stroke-width="5" stroke-linecap="round" stroke-linejoin="round" d="m-60.989 790.381.458-.101-.275.089.083.413-.357.112-.487-.396-1.453.203-6.044-.184-2.36.229-.951.57-1.705-.962-1.653.12-.722.619-.198-.223-1.793-.083-.888.411-.765 1.127-1.32.888-.792 1.005.093.394.367.102.5-.282 2.472.147 4.45-.808 6.017-1.99 1.446-.097 1.6-1.198.411-1.347-2.575.719-.368-.431-.933 1.08-2.646.095-3.11.521-7.723 1.948-1.273.581-6.263.875-1.012.87-1.293-.492-.338-.458.662.211 1.685-.649 2.51-.469 2.93-1.529 8.057-2.684 4.485-1.04 2.435-.076 5.65-1.333 2.03-.783 7.105-1.05.182-.332.51-.068.16-.624.007.4-.909-.017.567-.051-.237.283-2.935.464-1.449-.251-6.207 1.707-6.684.863-4.853 1.158-1.266.002-2.406.806-3.534.284-2.157.683-5.123.077-1.877-.323-.798.299-3.582.243-1.398.539-.849-.348-.927.126.3-.036-.237-.021.086-.255 1.439.125.258-.631-.173.261.915.486.493-.477 7.973-3.221 1.248-.399 2.457-.127 1.095-.577 4.364-.85 2.16-.748 7.875-1.002 7.086-.339 5.005-.588 3.894-.06 3.144.452.282.289-.346.134-1.035-.633-.41.105-.243.502.218-.317-1.574.079-2.704.754-4.636.271-2.294.597-4.557.371-15.933 2.288-2.644.654-4.578.56-2.368-.062-6.672 1.492-2.371 1.027-7.455.809-4.491 1.375-1.889 1.63-.613-.282-5.143.952-2.506 1.015-1.053.81-1.829.324-.583.43-.235.93-.195-.22.611-.199-.289.008.176-.487-.283.201.221.262.52-.159.11-.927-.118.338.301.425 2.092-1.546 1.393-.024 5.68-2.22 8.633-2.133 6.582-.596 7.216-1.248 6.637-.591 3.333-.782 11.316-.251 6.712-.949 3.16-.907 6.886-1.174 2.1.203 4.433-1.404 2.137.273.736.454 9.087.105 5.343-.346 14.544-2.301 6.97-.774 1.67-.567.457-.424.37.082-.17.252.27-1.003.374.223-.26.488-2.965.577-11.26 1.332-4.876.305-1.85.774-2.661-.347-.745-.264.006-.255 3.635-.321 8.204-1.791 2.978-.232 10.35-2.832 8.192-1.583L9.4 773.258l5.77-.789 4.705-.113 1.819.297.396.331-.181-.242-1.134.57-2.09.174-6.546 1.656-2.867 1.011-4.069.424-2.283-.145-9.673 1.922-6.34.907-3.417-.001-3.283.734-4.867.434-2.893.594-9.081.024-1.568.679-.509.569.33.177.197-.247-.103.235.032-.673.762.726.129-.332.982.194 9.201-.756 1.313-.512 5.942-.89 10.102-2.503 7.13-1.074 7.336.236 14.152-.625 5.346-.892 2.51-1.108 7.562-.64 5.286-1.659 1.829-1.012 4.522-1.027 3.546-1.42 9.99.464 7.46-.414 1.362.374 5.526-1.188 3.218-.075 1.607.645.66-.406 4.245-.526 6.42.339 1.53.228.092.235-.363.005-.1-.462 2.348.606 3.15.194 1.389-.546 3.426.906 1.2-.154 1.15.222.826-.471 1.12.269.923-.113.315-.324 1.535-.106-1.016.153-.854-.328-6.086 1.261-8.481-.033-8.248.759-3.428.807-5.348.108-11.19.821-7.321 1.22-2.36 1.047-3.233.411-2.737.771-.355.324.359.35 2.131-.561 6.171.098 8.472-1.099 3.41-.785 5.161-.544 7.266-1.288 5.95-1.189 5.798-1.716 3.234-.433 1.934.199-2.157.239-.468.334-3.658-.066-27.862 1.446-11.086 1.349-4.584 1.123-2.378-.005-7.62 1.025-2.546-.03-2.797.594-.466.538.067-.606.1.261.51-.413 4.802-.319 10.17-1.47 15.771-1.688 5.488-.204 13.884-2.176 5.254-1.316 13.604-.909 7.851-1.032 2.443-.946 2.023.254 21.133-1.743 16.791-.555 2.198-.43 4.194-.086 1.731-.308 1.334-.627 1.374.043.546.436.226-.556-.188-.3-.543.076-.318.397-1.966-.307-6.434-.007-9.415 1.032-2.74.627-4.237.481-2.591-.075-4.301 1.038.045.228.232-.289 1.437 1.151 2.039-.302 4.711.734 6.499-.198 12.349-1.389 20.45-3.41 5.73-.358 3.958.298 1.71.774.702-.068-1.547.1-.535.533-.261-.301-1.806-.5-7.409 1.959-14.955 3.213-9.913 1.726-3.996.292-8.649 1.314-.722.31-.543.638.11.702 1.845.656 7.425.613 15.877-2.086 8.775-1.713 4.413-.502 2.661.044 2.551-.455.944-.433 1.024.415-.056.296-.797.4-.751-.006-.333-.339-1.217.613-5.248 1.221-3.526.389-6.218 1.384-7.412.394-5.038.968-3.027.794.213.65.543.27 2.202-.654 11.574-1.879 2.699-.806 8.689-.598 2.995-.699.746-.617.19.308-.377-.038-.424.547-1.57-.063-1.746.697-7.898 1.445-11.343 1.151-17.208.745-6.084-.337-3.625.228-3.763-.188-1.352.502-.662-.724.602-.566 1.655.217.763.489 1.32-.121 1.509-.879.721.107 2.65-2.15 3.025-1.467 10.159-2.536-.084.349-.58.043-.163-.565-.435-.124-.057.549-.883.372-1.483-.018-.497-.431-.742-.102-.755.387-3.544.475-5.686 1.452-4.228.668 1.086.168.995-.547 2.633-.623 4.281-1.995 3.153-.63 1.509.205 3.321-1.773 1.035-.074-.633.475-3.26.801-2.226 1.306-4.711 1.391-1.38.108-5.685 2.315-1.259-.046-5.936 2.957.295.563.244-.095 1.167.768 1.845.025 4.989.983 6.801-.006 14.532-.916 10.498-1.127 4.484-.18 4.198.339-.17.286-.383-.18-1.287.206-.508.342-2.339-.171-2.78.875-1.764 1.004-.876-.176-2.451.31-.876.375-1.738-.126-11.3 1.897-2.999.783-6.295.785-5.295 1.021-2.939.97.308.567.876.389 2.832-.559 1.392.231 10.987-1.431 2.277.03 5.01-.998 2.832-.911 18.299-2.586 10.884-1.138 5.501-.923.233.447-.005-.305-.676-.24-.618.603-.609-.412-.836.768-3.305 1.001-4.697 2.385-11.866 3.213-7.973 1.53-3.008 1.037-3.517 2.378-.49-.183-.074 1.182.403.747.394.001.667-.607.304-.764.384.078.383-.452.438.162 1.276-.308 1.556-.912 5.646-.748 4.629-1.076 8.908-1.362 8.069-1.628 9.41-2.292 1.172-.349.17-.287-.388.21-.124.678-.113-.338-1.724-.262-.161.726-.492-.304-3.51.408-7.458 1.976-8.319 1.292-7.622.57-3.326.563-.219-.3 2.878.062 1.566-.299.703-.823.412.243 3.967-.663 13.334-4.84 12.05-3.067 12.619-2.286 2.545.1.215.26-2.725.212-.42-.538-1.986.606-1.834-.221-2.406.337-5.407.005-5.575.716-2.263.706-4.302.308-1.061-.196-.949.634-.223.537.544.259.727-.148 1.512-.773 1.603-.306 1.445-.654 8.425-2.478 4.191-.911 6.295-2.216 10.061-2.508 2.732-1.558 2.795-.304 1.336.322.375-.244-.329-.125-1.975.397-4.254.203-12.004 2.475-4.011.523-8.758 2.371-11.162 1.497-4.752 1.36-1.649 1.181-.518-.231-1.562.618-.577-1.035.303-.755 5.408-1.674 1.702-.847 3.979-.486 2.183.126 6.518-1.46 2.011-.001 1.073.344 1.077-.334.563-.693.538.196 1.136-.237M227.838 769.214l-1.092-.799-.07-.353-.266.033-.146.307.322-.158.143.945.084-.573.594-.25.453.169 3.877-.84M243.645 770.908l-.067-2.169-.438.024-.147.693-.351.036.246.126M223.992 774.843l-.524-1.999 2.724-1.004M262.54 767.752l-.454-2.088.043 1.201.019-.246-.301.041.34.066M279.621 766.117l.118-2.575 1.021-1.41.592.006 1.935-.85.993.247.231.378 1.233.213.189-.297.297.366M293.517 758.166l-1.285-1.951-.21-1.058-.459-.047.432.551 1.945.968M268.598 759.59l-3.985-2.58-2.205-.821-1.781.114-1.685.752-.952 1.345-.079 1.016M238.955 763.201l-1.615-2.059-.205-.747-.1.482-.14-.932.19-.047M236.366 755.489l-2.371-2.163-.034-.334.559-.432M252.472 751.403l-1.931-5.149-1.005-1.203-.315.183-.685-1.04.028.702 1.01.647M283.098 749.853l-1.086-2.757.445 1.197.506.137.491-.67.696.378M297.583 750.238l-.173-2.121-.381-.312-.339.803M242.577 752.246l-3.795-1.883 2.447.772.727-.38M219.343 756.906l-1.467-2.016-2.363-2.278-.964.661-2.024.731M193.833 760.158l-1.576-2.309-.162.229-.506-.442-.7-.006-.522.323.088-.583.314.83.422.156"/><path fill="none" stroke="#000" stroke-width="5" stroke-linecap="round" stroke-linejoin="round" d="m215.78 756.131-.275-3.05-.281-.4-.511.063.404.533.376-.149M230.225 749.01l.155-3.67.556-3.529-.35.049-.334.576-.083 1.79M214.381 756.994l-.75-1.182-2.366-1.604-.296.145-.439-.616-1.246-.793-1.076.239-1.061.638M178.873 760.622l-2.667-3.046-1.961-.538-.652.379-.146.539M160.469 759.488l-3.456-1.384-2.514-.248M139.611 758.697l-.098-2.694-.349-.65-.384.117.321.467-.206.496.313.292M124.851 759.729l-2.529-1.455-1.522-1.412-2.008.226-.327 1.304M118.056 755.097l-1.478-3.554-.294.226.001.495.159.206.163-.623.428 1.147M111.064 758.62l-.79-.09-.683-.906-1.065-.333-1.722.434-2.341 1.555M89.777 763.951l-1.576-3.526-.435-.121-.042.39-.553-.166-.714.329-.623 1.07M59.183 764.153l-1.422-2.069-1.309-.977-1.12-.352-.265-.419-.202.384.18.592.506.569M42.224 765.245l-1-3.113-.977-1.381-.773-.155.067.65-.424.758-.388.136M24.947 766.86l-1.02-2.166-.867-.631-.43.431-1.121-1.231-.78.696.036.577M3.02 770.522l-.92-2.281-1.008-.325-1.034.111-.453.164-.132.404M-22.72 774.926l-.404-.589-1.92-.695-1.15.473M-39.456 775.972l1.516-3.064.035-.63-.404-.167.373-.004-.028-.425-.739 1.497.159.508M-51.69 779.156l-4.163-3.226-.315-.55-.407-.06-1.626.291-.75.601-.595-.035-.867.419-.653.584-.846 1.565M-77.637 784.526l-1-1.563.028-.349-1.037-.224.102.573.427-.11-.118.284M-99.612 786.418l-.422-.74-1.226-.793-1.941-.744-1.061.246-.122.998M-119.39 789.708l-4.065-3.151-3.457.336-.494 1.102.458 1.062M-144.705 793.753l-.547-.911-1.718-1.099-1.056-.302-2.469-.009-.76-.311-.749.332-.156.862.706.715M-159.572 798.414l-.759-.886-2.581-1.653-.556.221-.953-.266-.37.748M-174.894 801.278l-.934-1.155.077-.312-.332-.082.034-.592-.364.315.288.702.48-.06-.158.161.022-.342M-152.083 799.429l-1.514-1.486-.773-.295-.269.154.4.42 1.239.01 1.199 1.2M-141.893 802.907l-1.465-.303-1.207-.913-2.787-.748-2.379.439-2.01 1.229M-170.629 807.218l-1.607-.188-2.994-2.253-.748.094.673.22.265-.554.093.374.343.1M-183.367 803.873l-2.651-2.22-3.341-1.228-1.812-.164-1.497.293-.877.791-.054 1.11M-197.86 808.094l-2.153-1.681-.728-.342-.107.463-.339.135-.009-.367-1.406-.789.177.77.399-.365 5.193.041M-159.111 800.03l-2.231-.19.306-.044-.161-.305-.195.111.286-.101.349.821.701-.592-.226.048.067-.601-.224.27"/><path fill="none" stroke="#000" stroke-width="5" stroke-linecap="round" stroke-linejoin="round" d="m-147.938 801.627-.98-1.495-1.123-.627.107-1.739-.431.041.742.587.362-.282"/><path fill="none" stroke="#000" stroke-width="5" stroke-linecap="round" stroke-linejoin="round" d="m-147.975 800.951-.628.462-.645-.767-.291-1.336-.384-.156-.302-.643-.263.082-.168-.651-1.866-1.323-.028.307.14.146.101-.355-.242.073.562.586.223-.326.672.107 1.716.718 2.654.531M-125.361 798.16l.77-.558-2.516-.726-1.277.326.27-.16-.313-.053.134-.561-.135.269.722.454M-116.991 796.722l-.698-5.846.588.282-.017.509.503.687.933.033 1.511-.755.902-.006 1.419-.605.444-.478M-121.28 790.343l-.263-.528-.673-.161-1.821-1.27-1.213.119-.484-.547-1.914-.381-1.021-.693-2.946 1.269.437.372-.403.419-.005-.406.882 1.954.886.671M268.401 680.358l-.155-.779-.809-1.121.383.09.295.555.33-.082-.08 1.071.348.115 1.879 5.301 5.538 9.171 3.691 7.096 2.215 1.848 1.236 1.322.225.639.495.383.077-.181.018.74-.496 1.086M256.5 693.738l.006-1.438-.346 1.926.123 3.576.583 3.849 2.215 3.883.331-.022 2.062 1.734M249.235 702.908l-.92-.622-.381.05.229-.076.468.537-.036.517.165-.332 1.018 2.241 1.299 4.605.433 3.168.437.652M231.265 707.027l-.907-.065-.157.831.151-.744.394.729.443.058.881 2.697.033 5.832.269.753-.221.294M220.172 712.762l-.677-.516-1.161-.347-.503.125.576.437.305.833-.392 6.419M202.584 716.247l-1.359-.822-.708-.182-.221.215.391.965.297-.521.224.457.3 3.84 1.086 5.294M177.746 720.078l-1.101-.814.205.915.192-.356.131.465-.009.866.154-.878-.051.367-.229-.159.338 1.633M156.349 725.97l-.508-.075-.54.583-.398-.479-1.947.117-1.489.661-1.192 1.386M69.438 724.399l-.132-2.967.244.299.054 1.092-.128.291-.1-.247.257.685-.28-.86.357.521.532 6.96-.15 3.19-.763 3.573M50.962 726.801l-1.124-.142-.359-.444-.578-2.022.263.024.136 2.514-.624 2.898-.218 3.462.274 1.11-.439 2.839.098 1.483.34.776-.475 2.098-.105-.177-.306.664M37.497 726.417l-1.349-2.278-.8-.275-.518-1.259-.096.21.063.761.621.302.276 1.934-.676 3.344.234 3.295-1.502 7.194.023-.216-.51.054M20.857 726.717l-.61-.618-.254-.693.147-.403-1.871-.201.264.227.052 1.099-1.258 4.711.3 2.81-.185 2.888-.282.338-.581 3.289-1.051 1.185M5.606 726.796l-.998-2.152-1.236-.842-1.113.069-.53.616-.109 1.479-.194-.162-.212.213-.698 1.35-.484 3.839-1.504 4.931-2.577 3.064M-17.73 727.315l-1.561-.524-.013 1.054-2.46 4.412-.14 1.696.282.787-.52 2.817-1.178 2.249-1.264 1.42-1.653 1.161M-38.356 731.302l-1.074-.814-.498-.018.304.737-1.397 2.004.154.278-.505 1.62.262.48.345-.075.234.837M-49.291 736.736l-2.992-2.085-.517.425-2.741.618-.146.386.79.184M-67.665 741.909l-2.267-1.271-.327-.952-.497-.173-.29.689-2.988 1.118-.108.414M-108.713 752.534l.091.917.31.325.082-.961 1.967-3.043 1.569-3.456.01-1.002-2.521-.201.202.104.151-.341-.001.459.342-.535-.129 1.047-.337.141-.935 2.73-2.014 3.733-1.24 3.205-2.418 3.95M-113.746 744.328l-1.132-1.837-.088-.709-.948.628-.886-.063-.075-.224-.457.833-.804.656.11.972-1.546 4.219-.937 5.182-.622 1.706-.537 3.165.188.416-.738.722M-129.444 748.354l-1.347-1.529-.229-.778-.902.082-.554-.292.756 1.111-1.98 3.45-1.293 5.716-1.984 3.551-1.168 3.387-1.718 1.848M-145.162 749.308l-1.03-.659-1.96-.338-.552.323-1.192 1.975-.529 4.191-1.049 2.923-.752 4.093-.705 1.301-.565.243-1.064 2.918-2.462 4.501M-159.948 754.166l-1.363-.683-1.487-.014-1.602.363-2.484 1.701-.333 2.122-1.04 1.973-.708 3.68-2.15 2.875-1.755 5.241M-174.756 762.354l-2.448-2.477-.998-.433-1.422.517-.708 2.968.082.909-1.271 1.898-1.384 4.541M-194.403 771.082l-1.08-.434-.348-.462-.301.766.307.033-.199.043.251-.36-.191.18.293.131.217.769M-207.622 784.406l-.623-.351-2.529-.4-2.54-.061-.541.307-1.213 1.254-.447 1.843 1.658.731 1.154-.158M112.7 897.904l-.754-.395-.421-.813-1.297-1.024-.94-1.542.013-2.84.891-2.642 1.118-1.876.004-1.868-.315-2.029-.564-.909-.482-.123-1.192-1.309-.598-1.026-2-1.698-3.069-1.85-6.722-2.065-2.449-1.365-3.41-1.401-.954-.951-4.405-1.287-2.749-1.347-.81-.849-1.022-.483-.807.313-4.21-.32-2.307.514-1.103-.367-3.164-.057-2.017-.473-4.962.262-1.841.467-4.892.361-3.15-.242-5.53-1.69-4.506-.589-2.959-.06-2-.573-5.24.761-2.162 1.115-1.137-.234-5.125.555-4.755 1.327-.824.903-.95.453-.928-.28-2.609.35-1.526-.13-3.223 1.02-1.443.793-6.948 1.344-2.847.372-6.031-.156-5.926.457-7.217 1.131-3.592 1.234-2.494 1.665-5.103 1.736-2.4 1.398-6.548 4.767-1.224.317-6.058 5.294-2.92 2.017-2.833 2.94-2.954 3.712-3.114 5.311-1.085 3.132-3.438 7.731-1.01 3.893-.34 2.857-.084 5.435.48 8.179-1.445 13.209-.366 8.688.983 10.706.82 3.653 1.43 3.338 1.813 2.551 1.345 1.282.903.661.425-.173.381.245 6.154 13.235 2.198 3.428 2.463 4.64 4.224 6.05 1.432 1.58.802.38 3.486 4.33 1.485 2.59.998.29 2.404 1.72 1.51.39 1.464 1.34 4.653 3.13 6.351 2.7 10.335 6.3 1.66 1.65.904.35 5.244 3.64 10.276 9.2 5.957 4.65 2.025 1.05 3.102 2.17 7.732 4.07 5.742 2.02 6.517 1.28 7.511.72 8.51-.71 3.066-.61 6.518.04 2.165.44 7.554-1.55.675-.45 1.38-.18 8.615-2.45.898-.49 2.162-.34 8.88-2.93 8.268-3.72 3.318-1.96 4.81-3.52 2.941-5.29 2.808-8.13 4.066-9.02 4.822-11.99 1.485-5.22 1.476-8.22-1.011-11.394-.262-4.999.156-1.907"/><path fill="none" stroke="#000" stroke-width="5" stroke-linecap="round" stroke-linejoin="round" d="m112.333 899.063-5.057-5.683-1.769-1.182-.752-.946-1.268.016-.42.312-1.574-.371-1.769-2.773M67.54 934.45l-.326-.465-.963-.246-.827-.61-1.315.888M149.192 1012.99l-1.538-1.11-.758-1.7.023-.21.404.09M135.334 1012.25l.002-1.01.751 2.61.747 5.5 2.137 8.29 2.089 18.1.148 3.68M130.286 1022.43l-1.361-1.2-.729-.03-.314.67-.067-.33-.261.07-.137.75-.393 10.52.615 10.29.068 14.27M114.131 1047.44l-1.226-1-.504-2.88-.133 1.06.508 20.28M116.696 1088.95l-.187.86-.69.88.07 1.13.271-.25-.059-.49-.275.23.306-.05.275.99.378-1.45.639-.64.678.11 3.904-2.27 1.779-.61 2.812-.12.345-.3.22.96-.464.91-.24-.07h.192l-.085.41-.1-.93.288.37.325-.33.096-1.2-.225 1.43-.21-.38.138.29-.093-.27-.053.3.243-.43 1.102-.59 3.572-3.49 1.75-1.3 1.493-1.91.944-2.01 2.09-2.59 2.041-1.69.343-1.02.059 1.18-.012-.22-.348.37-.184-.41-.886 1.87-2.583 1.65-3.411 3.87-1.067.39-4.376 5.04-2.368 1.83-3.571 1.75-.977.9-2.085.41-3.448.14-3.854.84-3.048.01-1.249-.28-3.214 1.22-1.404 1.37-.515-.2-1.773.62-1.099.01-1.925 1.26-.426-.18-2.69 2-2.506.52-.608-.22-.079-.3-.217.13.104.42.098-.32.412.19.093.77.492-.26 2.338.21 1.362.69 3.904.63 2.218-.17 4.633-.76 6.057-2.31 2.42-1.45 2.372-.75"/><path fill="none" stroke="#000" stroke-width="5" stroke-linecap="round" stroke-linejoin="round" d="m125.118 1092.06-1.263.63-1.057-.03-3.57 2.76-2.029.74-1.129-.31-3.693 1.82-5.275 1.92-7.152 3.24-1.168.87-.432-.09-3.664 1.04-2.308 1.27-1.365 1.74-.276-.24-1.914.77-1.175-.15-4.9 3.02-.973.39-.83-.37-3.4 1.42-1.232-.21-1.36.17-3.19-.59-4.16-.08-1.585-.24-.589-.49-1.213.26-.766.65-2.055-.13-.446-.92-.637-.36-.56.66-.997.34-3.507.68-.963-.23-5.918.79-2.169-.45-2.268.11-.822-.32-3.284.31-.643-.33-.686.4-1.323.02-.706.54-.89-.32-.663-.95-1.664.74-2.542-1.44-1.845-1.81-3.735-2.74-.8-1.07-1.99-.4-.383.23-1.252-.53-1.681.08-1.17-.26-3.214-.02-.77.4-.328-.31-1.662.09-.788-.57-2.145.45-4.137-.77-2.84-1.19-1.493.37-2.642-1.39-1.75-.16-1.436.36-4.096-1.5-1.046-.04-2.857-2.19-.539.03-2.064-1.01-.652.01-1.403-.63-1.335-1.05-.95-.26-.345.6-.432.12-.365-.62-1.253-.53-.595-1.28-1.404-.52-.68.57-.272-.51-1.275-.51-.766-.84-1.568-.63-3.11-2.1-1.516-.3-3.39-1.44-.663.25-1.837-.71-1.335-.19-.523.43-.319-.06-1.07-.47-.336-.7-.51-.2-.287.4h-1.296l-.746.6-1.333-.38-.274-1.05-.445-.45-.212.64-.479.01-.029-.39-.159.67-.46-.16.365.06-.143.15.98-.57"/><path fill="none" stroke="#000" stroke-width="5" stroke-linecap="round" stroke-linejoin="round" d="m44.716 1109.75-.148-.22.279-.27 3.468-.27 9.25-1.73 9.133-2.68 3.262-1.31 8.176-1.77 3.015-.07 8.738-2.54 3.622-.01.84.4 5.372-1 .343.45.555-.9-.484.21-.338-.24-.673.75-1.128.23-.657-.44-3.343.36-2.393-.08-3.504-.29-1.149-.44-2.688.22-1.432.45-5.232-.25-10.129 1.85-5.81-.08-.423.6-.493.14-.36-.47-4.38-2.13-1.137.19-3.944-1.67-5.06-.47-4.493-.85-1.717.1-4.205-.68-5.694-.02-5.152.59-2.559-.29-1.044-.59-3.105-.24-.652.56-.729.13-.492-.6-4.205-1.63-2.809-.21-1.485.42-1.66-.41-2.538.08-1.567-.45-5.11.18-10.055-.45-5.816-.68-3.54-.93-1.382.1-6.983-2.87-.652-.1-.637.33-.54-.17-2.322-1.6-.496-.99-.729-.51-.593.24-1.834-.69-2.004-.15-3.371-.77-1.764-1.03-.94.05-2.96-1.12-1.669-.23-3.116-1.41-6.328-3.55-3.097-2.95-1.83-1.21-.741-.74-.746-1.87-1.049-.95.087-1.08.375.51-.203.9.208-.25 1.002.34.173-.2 1.939.16 8.277 2.27 9.464 1.23 2.66.83 8.65.84 7.114 2.09 1.33.95 1.572.62 1.591.1 4.869 1.36 1.55-.17 1.515.25 1.38.96 4.904 1.76 3.125 1.55 8.645 2.07 9.74 1.17 8.75.7 13.628.34 11.135-.53 11.14-1.4 3.688-.81 4.618-.04 2.59.23 2.31 1.33 1.112-.26 4.745.78 2.81 1.24 1.553 1.04 4.497-.01 1.898-.3 6.33.45 3.283-.06M128.148 1081.47l.011-2.35.868-2.92-.067.38-1.885 1.8-1.829.88-1.259-.09-1.498 1.39"/><path fill="none" stroke="#000" stroke-width="5" stroke-linecap="round" stroke-linejoin="round" d="m23.175 1096.67-5.795-.59-3.338-.75-1.394.03-5.678-1.03-1.412-.96-1.807-1.81-.076-.57-.494-.49-1.046-.59-5.145-.86-6.43-.42-3.95-1.35-2.791-1.4-1.083-.19-1.42-.95-3.968-1.85-2.732-2.1-1.949-.88-1.789-.16-.86-.76-3.956-1.67-1.802-1.11-3.741-.71-.922.53-1.015.01-1.015-.67-3.488-.77-1.034.08-1.967-.88-1.737-.03-5.822-1.17-3.296-1.49-1.248-1.5-.235-1.23.505-3.83.686-1.83-.038.86 4.958 1.59.974.64 5.94.71 2.314-.08 1.256.46 7.714 1.27 7.763.49-2.145.03-.5.26-1.269-.29-1.334-.74-5.104-.15-4.39-.97-3.524-1.27-4.326-.78-2.125-.02-4.409-1.39-1.956-1.24-1.036-.33-5.05-.65-8.333-3.56-.193-.81 1.259-.07.403-.42 1.442.67 2.518-.74 2.244-1.05 7.32-.67 3.198.29 6.405-.12 2.783-.41 4.332 1.24 1.122.69-.221.28-1.812.3-.656-.57-.791-.07-5.295-2.41-3.382-1.05-2.356-.13-1.202-.63-4.731-1.42-2.125-1.07-3.713-.75-1.735.26-6.109-3.38-.472.32-.025-.56-.449-.47.281-.64 1.984-.18 2.832-1.28 2.96-.56 4.081-.11 1.314.62 2.339.07.66-.3.565 1.28-.657-.02-.339-.57-1.211.19-3.28-1.54-1.963-.51-2.773-1.19-6.638-3.6-2.608-1.75-2.707-2.54-1.837-3.45-.046-1.08.882-1.65 1.455-.91M-77.302 1022.28l-4.362-2.05M-29.566 808.742l-1.371.502-.26-.348-.483.027.84-.163.392-.617.588.029.49-1.142.37-.081-.288-.065.361.492 1.094-.05 9.89-1.391 2.87.367 1.52-.364 7.124-.171 9.39-.762M-15.556 809.085l4.714.52 4.933-1.123 3.39-.169M10.632 822.359l-6.451-.307-2.49-.472-.295-.136.126-.291.511.176.394-.217.372.334"/><path fill="none" stroke="#000" stroke-width="5" stroke-linecap="round" stroke-linejoin="round" d="m7.899 823.257-1.177-.107-.88-.371-.483-.806-.994.095-1.036-.652-.401-.95-.022.282-.726-.152-.315-1.157M-5.826 826.959l-1.542-.457.528-.194.854.422 1.208-.375.072-.295M22.026 832.401l-1.013-.861-1.346-.636-.716.334.483.571.717-.105.294.583-.06-.268.421-.199M179.735 762.218l1.111.428 1.808.193M202.545 760.515l-.22-1.339-.327-.114-.607.655.163.549 1.775.021M215.219 761.171l-.36-1.086.194-.127-.136.701-.229.06.088-.231.291.406.823-.527.344.088M229.226 760.871l-.257-1.405.25.721.146-.758 1.66-.319M245.398 758.066l1.482-.628.933-1.156 3.372-1.656M270.42 753.876l1.259-1.565-.15-.679-.184.711.275.348 1.295-.877 3.211-1.213M290.841 751.939l-.415-1.131-.532-.335.2-.077-.008.95.283.436.299-.511M279.409 755.206l-1.073-.292-.748-1.152-.75.528-.515-.568-.628.47-1.691-.574M241.257 760.196l-.253-.373-.364.094.116-.799-.667-1.421-1 .032M224.197 760.833l-.407-2.026M197.078 762.525l-.865-.82-.374-.019-.074-.425-.26.334-1.217-.885-1.055-.23M173.604 762.034l-.339-1.158-.246.102-.085-.238.041.634-.695-.908-.366.048M156.983 762.224l4-4.727M166.625 755.065l-.132-3.305-.465-.801-1.103 1.439M151.939 751.633l-.244-2.599-.726-1.862-1.146.754-2.451.59-.725.433M137.355 757.07l-.212-3.516.24-.768.113 1.774.303-.431.056.306 1.427.096"/><path fill="none" stroke="#000" stroke-width="5" stroke-linecap="round" stroke-linejoin="round" d="m165.291 752.972.104-2.006.39-.788.024 1.043.416-.017M183.13 748.838l-.172-4.244-.414 1.366.579 1.015M182.457 760.537l-.362-1.759-.485.961M187.944 758.152l-.436-1.182-.559-.377.035-.865.359 1.129.106-.284M202.398 745.5l-1.942-2.919.211.593 1.121.619.311-.383.452.319.097.462M206.343 746.68l-.626-3.666-.2.954.404.723M207.047 755.672l-.163-2.053-.245-.292.062-.242.068.519.168-.191.468.469M224.644 745.193l1.136-3.777 1.337-3.016.134-.929-.937 1.905.112.936M235.078 741.617l.259-5.237.357 1.184.649.215M249.791 741.685l-.025-1.629.578-.758.071.754 1.911.025M262.198 744.041l.592-2.004-.178-.591.068.617.19-.686.368 1.262 1.352-.483M287.92 742.512l.027-2.683.213 1.009 1.126.131M300.226 748.844l-.337-3.479.136 1.29.21-.053M240.244 749.1l-.177-.683-.52-.245-.957 1.849M100.367 760.72l.549-1.106M80.033 765.091l.727-3.157-.242-1.816-.25-.251-.538.496-.396-.21-1.367.853M56.684 767.61l.529-1.594.218-2.069-.255-.421.349.088-1.065 1.172.026.704M90.006 762.831l1.08-2.721.186.14-.915 1.343M104.928 760.309l-.29-2.244-.603-1.218-.192.252.438.746.546-.215M110.514 748.753l-.661-.89-.179.099.027-.953-.415-.459-.21-1.152-.272.128.116.754-1.081-.085M112.669 739.527l.314-2.968-.384-1.914-.234-.159-.697.963.079.824M111.948 746.438l-.759-.653.428-1.438-.271-.803.175-.194.198.234.096.691M103.867 762.543l-1.526-2.726-.405-.063-.648 1.048-1.072-.257M70.931 763.711l-1.535-2.566-.722-.65-.74-.115-1.167.329-1.692 1.079M40.988 766.336l-.449-1.179-1.049-1.1-.598-1.752.031.543-.773-.518M20.378 765.483l-.062.191-.934-.341-.323-.722-1.054-.365-.17-.423-.298.408M.71 769.241l-.635-.418-3.12-.146-1.261-1.305-.096.261-1.61.246M-12.676 771.567l-.216-.021-.067.402-.618-.244-.808.167-1.266.785.803.149M-27.375 777.253l-1.963-.859-1.42.148-.49-.499-1.17-.285-.535-.57-.623.421.058.405M-56.15 782.518l-.4-1.166.084-1.873.588-1.396 1.812-.811M-69.649 773.063l-.695-2.001-.762-.992-.324-1.242 1.24.601.511.844M-80.353 779.179l-.468-.737-.158-1.937-.243.127h.313l.295.563M-92.061 784.912l-2.479-2.361-2.032-1.074-.345.077.138-.56.925.909M-110.983 783.917l-1.769-1.13-2.083-.809M-92.764 780.92l-.384-3.729.232-.382.06.271.596-.032 3.303-.69"/><path fill="none" stroke="#000" stroke-width="5" stroke-linecap="round" stroke-linejoin="round" d="m-83.78 777.814-1.364-.709-.496-.671-2.762-1.066-.974.098-1.133-.49.443 1.23M-105.535 785.781l-1.441.006-2.472-1.416-.909-.141-1.156.329M-134.156 797.899l-1.321-1.22-1.025-.343-.062-.582-.751-.418-.465-.979-.235-.117-.135.331.457.24.243.763.535.055M-155.316 805.45l-1.284-1.868-.042-.685-1.129-.691.81 1.363M-129.06 791.386l.291-2.188-.367-.254-.101.601.446-.268-.686.323.056.832-.312.144.393.086-.269-.011M-145.926 794.194l-.46.382-.548-.703-.775.088-.281.853.066-.424-1.024-.429-1.068.099-.182.265M-160.666 803.896l-.576-.352-.223-.937-.254-.028.354-.278-.87-1.055h-.295l.124.787.332-.285M-182.277 808.751l-2.137-1.249-.134-.823.318-.721 3.177-1.552M-152.454 806.844l.091-1.333-.834-2.398.127-.654-.029.241.6-.536-.343-.943-.357.261.303.195.048.649.517.039-.123.171M-139.844 802.679l.461-.455-.333-.552.321-.103-.06-.321.319.023-.38.116.213.222.761-.384.986.203M-128.643 802.877l.234-.623-.371-.827-.094-1.462-.269.172.19.179.491-.559M-126.424 797.834l.204-.837-.506-.88-.163-1.359-.742-.724-.338.386-.163-.606-.643.044M-133.365 796.457l-1.736-1.708-.318-.781.245-.878-.268-.728 1.167.414 1.488-1.122M-111.165 791.569l-.007-2.069-.36-.148.458-.359.101.161M-89.243 784.21l-.872-1.565-.67-.231.443-.429-.013-.574-.218.022 1.04-.855M-75.857 780.009l-.074-2.13.48-.777-.166-.911 1.892-.567M-50.353 777.729l.415-2.095 1.262-3.341-.49.661-.022-.911-.06.271-.31-.212-.164.221M-47.31 773.756l-.3-2.375.23-.393.13.633.398-.086M-20.955 774.108l.705-1.084.664-.336.343.153-.534.095M2.338 773.224l.541-3.117-.265-.396-.121 1.185M-67.329 733.045l.026.442-.337.011v-.248l.463.137-.527.665-.423-.512.778.081-.477.197-.264-.074.305-.143.453.162 1.515-.559M-61.92 724.828l.318-2.032-.203-.75-.18.167.158.506-.303.339.435-.12-.204-.513.714-.979.608-.281M-57.085 713.995l-.297-2.691-.796-.159.195-.83-.325.051.286-.342M-52.15 702.155l-.029-2.475.383-3.109-.02.513.358-.76M-45.257 687.992l-1.882-1.288-.484-.817M-60.381 726.649l.011-.262-.17.392-.293-.268.161-.689.25 1.046.108-.493.184.189M102.455 703.74l.096-.474.288-.045.072.217-.55.283.214.077-.392-.039M98.961 706.913l1.473-1.457.472-1.307-.486-1.323-1.627.751M86.976 699.666l-.46-1.624-.675-1.121-.204-.184-.52.359M40.783 674.297l-.833-.384-1.259-1.449-2.306-1.672-1.145.447-.492.676.13.188.18-.542.398-.147.58.644M129.213 718.183l-.658-1.194-.223-1.009.247-.564-.368-.064.243 1.261 1.042-.321.256-.48M167.198 718.215l-.024-1.882.032 1.141-.149.328-.039-.47-.373-.03.049.238M195.43 710.716l-.449-2.258-.604-.628-.472.132-.219 1.06.614.026M194.911 684.924l.115-1.845.536-1.816.236 1.462 1.841.448M128.577 640.915l.067-.698-.494-.731-.126.281-.221-.239.037-.59-.072.976.427.085"/></svg>