<svg width="500" height="500" viewBox="-702 0 1404 1872" xmlns="http://www.w3.org/2000/svg" version="1.2" baseProfile="tiny"><path fill="none" stroke="#000" stroke-width="6.25" stroke-linecap="round" stroke-linejoin="round" d="m38.188 1063.96.912.08.017 1.46.337.16.96 2.78 1.974 3.03 2.946 13.75.19 5-1.078 13.76-.82 5.3-2.368 6.05-2.528 15.8-1.58 4.9-3.244 13.6-1.833 5.8-3.056 5.84-1.22 4.15-.801 1.21-1.921 4.9-.32 1 .16 1.3-.074-.55-2.587 6.42-1.009 6.92.082 1.77.37.37-.256 2.04.257 1.34.296.29.081-.35.164.56-.027-.61.495-.25.322 1.19.682.61.466-.33 1.899 3.94 3.071 2.54 3.633 1.32 3.273.34 2.113.72.881-.59 3.104 2.58 3.21 1.15 2.442 1.57 2.15.56.902.65 4.534-.75 1.906-1.29 1.268-.38.399-1.18-.045.88.239-.58 1.824-.35.444-.78.742.22.492-.34.468.47.82-.3.665.22.65-.36.22-.75.79 1.06.68-.44.86.17.31.48 2.645-.14 1.689.5 3.565-.36.811.43 1.228-.44.663.28 1.642-.49.8-.71 1.819.88 2.026-.39.934.5 5.674.71.51.47 1.458-.14.708.46 4.615-1.21.298-.67.951.47 3.676-2.33.444.17 4.184-5.05 1.498-2.53 1.934-1.38.416-.84 1.181-.81.73-1.32 1.493-1.37 1.348-2.53 3.127-4.12.658-1.62.45-.52.186.36 1.684-6.83.151-4.05-.633-2.39-.784-1.44-.214-3.02-.08.24-.727-.54-1.882-5.44-1.417-2.07-1.259-2.92-.258.1-1.507-5.57-2.308-14.39-.058-5.35.573-9.78-1.756-14.08.078-10.18-1.295-18.12.138-17.01.303-.68.723-20.67-.69-7.34-.779-3.24-.622-6.46-1.101-4.72-1.008-8.73-2.437-9.648-.538-3.427-.976-2.383-1.184-1.461-2.396-4.688-3.149-7.921-.775-.878-.252.732-.97-2.252-1.706-1.911-3.546-7.968-.897-1.549-.391.001-1.464-2.87-.346.183-1.014-2.975-.56-.632-3.615-8.463-1.816-5.21-.28-3.239-1.608-4.349-1.061-4.142-2.027-16.712-.042-3.022-.827-5.595.04-2.232-1.222-11.498.576-7.96 1.101-2.422 2.52-8.953.372.191.699-3.362 2.11-6.322-.108-1.508.671-3.73 2.283-8.577 1.106-6.743 2.967-12.198.668-1.946 2.943-5.254.752-2.934.46-.449 1.29-3.416 2.416-3.723 1.702-1.7 1.078-2.517.624-.679-.16-1.158.38-1.618 1.055-3.467 1.423-2.606.497-2.313.899-.411 2.66-2.406 1.865-2.372 2.38-1.984.585-1.259.677.376.525-.949 2.611-1.057 1.666-2.094 1.838-1.06 3.882-4.126.433.093 3.476-2.148.69-.959 1.162-.742.4.175 1.838-2.215 1.418-.363.301.272 2.717-.882 1.134-1.432.942-.392.407.31 1.226-1.606 8.593-4.344 3.253-2.297.359.393 1.158-1.406.619.343 1.615-.66 3.783-.218 1.194-.767.501-.057.144.331.629-.844.633.195 1.126-.873 2.013.006 3.971-1.125 2.749.412 1.555-.229 1.373.583 1.087-.336.699-.888 1.991.383 1.163-.636 1.082.334 6.905-1.685 2.142-.145"/><path fill="none" stroke="#000" stroke-width="6.25" stroke-linecap="round" stroke-linejoin="round" d="m139.396 772.665-.179-.83-.385.113.366.669-.232.179.47.32-.326 2.998-1.982 6.303-.34 3.775 3.035 2.816 4.505 1.582 1.88-.255.944-.625 1.931-.043 3.327-.843 4.189-1.536 3.822-1.923 2.899-2.494 1.344-.42 1.281-1.817 1.763-1.395 3.446-6.182.419.481 1.972-1.191 1.529-.44.732.149 2.079-1.185 1.209.557 2.67.122 3.529 1.022 3.185-.13.602.38 1.692-.663 1.094.291 1.212.566 1.692 1.711 1.579.459 3.941 2.071 3.015.888.626-.357 1.375.698 6.156-.235 2.088-.518 2.102.303 2.997-.628.652-.435.671.161 3.857-.928.719-.428 2.041-.057 4.954-1.196.91-.378.408-.677 1.659-.386 2.151-1.664.31.154.665-.858.774.195 2.203-.556 4.116-1.526 1.106.403 1.89-1.545 3.513-1.095 2.996-2.731 1.551-2.258.553-.559.146.374.621-1.634 4.045-3.726 2.067-3.124 1.963-4.101.869-.84.98-2.091 1.078-1.031 4.431-10.707.017-3.332 1.268-4.079-.804-3.38.57-2.475-.182-.677-.041.502-.023-.531-.454.852-3.037.819-.9.715-.819-.05-.042-.506-1.248-.765-1.332-1.946-.882-.399-.289.216-1.244-1.103-.694-3.853.513-3.704 1.291-3.013 1.234-1.791 2.307-2.239 4.88-7.62 1.284-1.623 1.807-1.496 2.147-2.961.376-6.462-.39-1.197-1.726-2.196-.534-1.311-.408-1.643-.214-4.839.456-4.946 1.36-4.755 1.987-4.985.448-4.239.575-1.585.632-4.097-.266-2.31-1.535-4.135-1.931-2.744-1.793-1.196-1.572-.021-.169-.268-.623.595-.511-.282-1.355.705-1.827-.029-2.502-4.627-.167-2.172-1.312-5.194-1.168-2.625-.389-.345-.178.351-.331-.924-.627.319-2.661.066-.487.344-1.439-.135-3.175.49-3.287-.848-1.548-1.026-.875-.073-.85-3.498.178-2.512 1.195-4.694 3.612-8.135.366-2.946-.402-1.077-.348-6.762-1.158-2.585-3.193-4.405-4.227-3.482-2.556-2.475-.067-.685-1.145-.803-.929-.001-1.457-1.122-4.444-1.785-2.75-.581-.383-.353-1.082.236-.807-.87-.611.49-1.084-.441-.935.148-3.915-1.289-.972.242-.46-.821-.203.326-3.53-4.529-.49-1.345-.484-1.611-.411-6.244-1.427-3.747-.673-4.36-1.103-1.748-2.56-1.603-1.774-2.978-1.859-1.703-2.23-1.17-7.564-2.584-.371-.512-3.424-.708-3.626-.402-8.35.165-2.358.596-4.602.432-3.166 1.066-4.217 2.065-5.296 3.484-2.238 2.022-5.123 2.443-3.018 1.958-5.044 1.94-1.702 1.025-3.859 1.331-.603-.141-.219.367-.661-.021-2.572 1.119-.115.482-2.528 1.626-1.461 1.639-1.583 3.224-2.762 7.539-1.074 4.479-2.153 2.647-1.236.96-5.481.759-5.111 2.264-2.97-.131-3.106.378-2.114.678-3.265.316-.625.406-2.08-.073-4.385 1.22-6.694 2.883-.49-.119-2.23 1.383-8.652 3.818-9.424 3.079-6.725 4.445-.89 6.583.202 3.466 1.195 5.226-.246 3.368-.474 1.379-1.097 7.934-1.193 4.289-1.443 7.894-.272 11.815-.643 4.759-.072 4.943-2.475 5.013-1.491 6.065-.478.26-3.223 5.179-2.076 1.207-1.03.048-.474-.627-2.117 1.232-1.793-.356-1.183.216-.616.491-2.388-.334-3.479.764-2.358.169-.628-.326-1.058.831-.968-.204-1.546.814-1.78.296-5.984-1.29-.397.452-1.508-.765-4.661-1.111-.591.139-1.438-1.173-1.983-.848-1.125-1.232-1.187-.624-.125-.585-3.124-.273-1.054-.706-3.954.04-2.647 1.085-4.56 3.985-.756 1.871-.597.448-1.378 2.459-3.607 4.044-1.932 3.213-1.971 2.334-1.424 1.073-1.054.268.21.128-.362.394-.837-.419-.688.587-1.414-.059-.806.693-.288-.638-1.94-.789-2.737-3.863-.753-2.652-.555-.581-.558-1.712-1.137-.518-1.02-1.15-1.208-.012-.1-.279-1.462.551-1.266-.384-1.095.159-2.886 1.467-2.744 2.203-3.658 5.747-1.737 5.205.017 4.205.42 1.078-.963 3.629-1.266 2.816-4.23 4.024-5.033 2.863-1.396-.131-1.396.34-1.258-.568-1.29.268-2.238-1.601-1.354-1.659-1.066-2.975-.84-5.675.434-.624-.537-2.359-.057.388-.01-.282-.6-.049-.086.385-1.544-1.181-3.759-1.179-.865.064-.346.4-1.47-.378-.741.653-1.974.653-.43-.303.64-.231-.36.409.005-.395-.63-.129-1.483-1.246-2.757-.25-1.668-1.03-6.022-.99-5.759.196-6.963 5.249-.917.166-2.283 1.698-1.053.204-.79-.325-3.744 1.284-2.824 2.02-2.181 2.165-1.534.728-1.776 2.331-.323-.18-.354.76.154 1.259-.105-.221-.949.737-1.536 2.039-.953.691.171.378-.144-.22-.727.682-.634-.031-.578.849-1.267-.139-1.83.721-.501-.61-.426.805-1.458-.23-.711-.813-.54.277-1.796-2.657-.595-.169-.316-1.321-1.507-1.856.119-.48-.241.276.216-.246.077.301-.117-.432.061.676.266-.09-.327.045.388.216-.524-.249.453-.109-.371.244.226-1.129-1.202-4.296-.822-1.046-.873-2.317-2.819-3.856-.429-1.116-1.595-1.552-1.266-.703-.247.276-.925-1.009-2.563-.548-2.326-.057-.513.267-1.681-.686-1.722.651-1.88-.25-1.567.238-.361.574-2.465-.255-4.042 1.691-2.656.33-2.217.747-.651-.205-3.096 2.077-.965.123-1.382 1.402-1.621.377-1.482 1.369-2.088.856-2.675 1.985-3.616 3.816-.989-.321-.345.524-.78-.312-1.044.654-1.177-.118-4.416 1.829-.67-.527-1.913-.006-.337-.3-.712.114-.057-.32-.713.159-.206.559-.762-.674-.842.246-.663-.412-.272.359-3.478-1.032-1.421-.921-.335.227-1.674-1.928-.609.057-1.466-.855-2.22-2.61-2.613-2.177-.502-1.49-1.107-.773-1.564-2.484-.695-.172-1.125-1.457-1.128-.493-.162-.717-2.28-2.692-.795-3.055.225-.045-.261.051.339-.078-.361.03 1.904-3.322.317-.009-.081.494 2.367-.099 3.526-1.056 1.546.237 1.636 1.236.498 1.537.284-.131.745.743-.035.692.993 1.499.919 6.294.045 1.618-.425.521.552.677-.305.411-.185 3.192.551 1.731 3.051 2.616"/><path fill="none" stroke="#000" stroke-width="6.25" stroke-linecap="round" stroke-linejoin="round" d="m-238.183 697.393.081-.483.398-.098-.483.132.233.093-1.03 2.749-1.581 8.268-.254 4.954-.982 7.15.397 5.212.775 4.257 2.511 6.031.126 1.714.608 1.625 1.297 2.471 1.979 1.949.401.017 1.407 1.881 2.361 1.559.894 1.35 1.858.816.994 1.006 4.771 1.99 2.06.459 1.313.901.477-.138 3.454 1.956 3.363.501 3.454 1.103.827-.114 4.025 1.77 7.643 1.554 6.301.001.882.37 2.604-.607 1.354.155.614.65 2.032-.882 4.354.611 5.545-.273 3.594-.724 3.678-.221.507-.461 1.792.254 1.131-.21.557-.625.32.265 1.894-.241 7.589-2.108 5.821-.815 1.487.51 1.723-.177 2.389.734 6.647-.343 4.402.442 6.73 2.013 3.423.245 9.157 1.917.803.702 2.933 1.221 4.98 1.46 4.251 1.723 4.617 2.798 2.446.855 2.125 1.767 6.868 3.065 2.131 1.617 1.36 2.197 3.002 3.231 2.05.994 1.73 2.004 1.27.816.445-.066 4.495 4.627 2.56 1.526 5.322 4.713.388-.071.87 1.857 1.292 1.315 1.002 2.218 4.273 3.385 1.021 1.238 2.297 4.369 1.946 5.298.982 1.465.814 3.644 1.656 2.86 1.822 6.227.274 2.803 3.339 9.084 2.339 8.27.408 3.284 1.308 3.515 4.651 9.215.19 2.04.992 2.669 3.26 6.372 1.473 2.006 2.083 5.169 4.33 8.446 3.08 5.794 1.123 1.26 1.338 4.634 4.905 12.586 2.48 10.303 1.723 5.272 2.224 11.255 4.173 12 .703 3.648 2.772 9.858 1.221 2.239 1.601 9.817 7.574 28.828 4.099 13.85 1.89 10.07.81 1.87 1.1 1.24 1.2 2.24.546 1.94.678.56.726 2.95 2.823 5.69 2.538 3.17 2.024 3.71 2.62 3.71.665.18 6.541 15.28M53.376 633.984l-.77.666.491 1.166-.442.37-.046.599-2.799 1.14-.984-.796-1.56-.195-2.142-1.4-4.718-1.581-1.332-.89-1.297-.273-.63-.612-1.88-3.242-1.781-2.186-1.341-2.991-.336-2.347.337-5.905-.198-1.971-1.783-5.398.136-.606-.701-1.847-.319-2.281-2.084-3.493-1.655-.331-.506-.737-.936-.072-2.59-2.25-1.693-.688-.98.043-.179-.366-.202.562-.402-.106-.174.395-2.243.77-3.248 2.444-2.437 1.074-1.971 1.646-.46-.314-1.402.721-1.286-.199-1.061.294-2.367-1.568-4.146-4.401-.497.038-1.839-2.396-.496-.003-2.437-2.566-3.119-1.638-3.277-.74-.253-.333-.764.336-1.023-.072-.275-.374-1.835.405-.982-.446-.672.489-3.097.834-3.676 3.528-2.317 1.332-1.677 1.736-1.521.821-1.576 2.779-.515 2.073-1.012 9.229-3.485 7.585-1.734 2.55-7.792 8.41-1.781.862-1.352 1.418-1.786.978-6.594 6.654-1.004.536-.465 1.084-1.003.699-1.473 3.336-.602 2.763.615 3.043.8 1.219-.313.042.118.446-.094-.409-2.393-.128-11.31-.1-1.73-1.218-1.398-.076-.778-1.359-.992-.348-.384-.949-4.584-3.817-1.23-.175-1.492-1.163-1.378-.113-.517.392-.884-.377-1.004.131-.388.523-1.9.579-1.883 1.816-1.476 2.675-.386 1.991.854 2.854 3.446 5.534.03 1.209-.532 1.138-2.138 2.235-2.979 1.408-5.44 4.388-3.352 1.812-.455-.28-2.267 1.85-.538-.225-2.66 1.766-2.281.898-3.413-1.244-1.492.193-.601.609-1.647-.754-8.317.354-8.912-.787-2.087.445-.688.763-2.439.42-3.729 2.37-1.353 1.607-.81.396-.623 1.201-1.17-.058-1.836 1.412-.676.072-6.032 6.477-.433.84-.455-.012.016.541-.26-.365-.462.509-1.933.398-2.736-.976-2.759.088-.131-.322-.643.767-.692.08-.225-.462-.277.705-.136-.294.291.207-.239-.211-1.272 1.998-.621 1.597.326 4.112M59.653 884.784l-.214-.864 3.507-17.279-.741-6.452-.044-10.9-1.849-8.888-.64-8.2-.457-1.602-.055-3.831-1.484-8.254-.376-15.18-.295-.958.179-3.191-.68-11.271.09-11.083.849-5.751 1.64-19.107 1.97-13.294 1.137-4.044 1.907-4.501.274-1.803 2.785-6.313 2.432-7.21 2.973-6.133 1.286-1.52 1.302-5.24 1.283-3.462 3.214-6.282.245-2.79 1.606-7.452 1.553-11.407-.113-4.898-2.385-9.729-1.841-5.326-1.154-5.729-.816-1.801-.575-.691-.61-.142"/><path fill="none" stroke="#000" stroke-width="6.25" stroke-linecap="round" stroke-linejoin="round" d="m68.87 771.826.076-2.891 1.006-3.062.41-3.301 1.616-4.762 1.808-3.506 3.906-15.151 4.981-14.556 1.93-4.449 1.629-5.163.53-3.125 2.206-5.676 2.793-5.277 1.332-1.706 1.621-4.558 4.292-7.317 1.61-3.616.865-4.831.338-5.772-.284-10.075.587-9.509-.01-2.003-.758-.744-.666-1.57M102.808 691.823l.256.483.824-.255 1.451-1.593 1.793-2.943 6.176-8.295 3.647-7.6 2.174-8.266 2.766-14.352 1.765-15.846.254-6.23-.284-3.323M116.476 688.099l.722-.141 3.634-4.651 4.175-4.326 2.643-3.316 5.89-4.888 1.609-3.469.267-1.776 3.761-10.898 1.09-4.663 2.34-24.51.196-6.976-.663-6.175M84.437 795.323l1.38-3.476-.027-5.568 1.541-9.214 1.667-7.591 2.025-6.933 1.188-3.617 3.449-7.207.598-2.54 5.372-15.041 2.226-10.591 4.18-8.798 4.032-6.546 1.436-1.38 1.119-1.976 1.571-.561 2.193-2.782 4.536-3.527 2.719-2.764 3.632-1.929 4.335-1.428 1.689-1.203 2.928-.739 2.538-2.098 2.829-1.012 3.007-2.297 1.813-.56 3.372-2.245 3.285-2.608 14.744-15.334 4.721-6.627 2.238-4.541 2.788-7.978 1.849-8.505 2.443-5.864.891-1.185"/><path fill="none" stroke="#000" stroke-width="6.25" stroke-linecap="round" stroke-linejoin="round" d="m109 743.688-.653-.346-.089-.647.58-1.276 5.001-6.877 1.08-.906 1.299-2.21 1.579-1.493 2.669-4.901 6.78-7.529 6.108-4.748 1.765-2.667 3.159-3.275 1.959-2.764 7.848-8.305 4.406-3.265 1.077-.531.601.074 3.579-1.924 10.534-3.996 10.14-2.815 7.637-3.764 5.964-4.248 9.734-9.33 3.99-2.787 3.604-3.587 11.095-8.8 3.063-1.97 4.717-1.413M153.745 713.601l-.318.289.305.224.788-.457 1.771.186 1.815-.783 2.412-.087 3.484-1.217 2.129-.335 7.883-3.298 4.956-1.596 2.02.041 15.557-2.997 2.318-1.043 4.546-3.429 7.046-4.277 1.407-.337.681.303 4.073-.869M144.661 739.357l.07-.516.224.597 2.195-.307 3.706-1.45 4.903-.999 5.251-1.924 19.453-2.917 9.725-2.032 5.111-1.815 4.116-.582 1.85.972 1.905.502.94-.414 3.641.877 10.605-.866 4.082.249 2.323.307 9.082 2.35M149.764 766.337l.614-1.303-1.437 5.802-3.867 12.047-1.047 4.46M157.899 768.349l-1.595-.563.562 1.813-1.054 5.145-1.713 3.843-3.96 6.8M163.939 766.603l-.524-1.541-1.197-1.51.487 1.742-.115 2.578-2.674 10.54M171.468 764.894l.655-5.083-.232 2.306.761 3.074.298 4.681M182.308 759.36l-1.462-2.097 1.075 1.648.353 2.289-.559 7.316M191.823 757.057l-.92-2.724-.358.048.727 2.252.228 2.135-.135 5.014M202.494 751.837l-.857-1.867-.077 4.27-1.194 5.617M210.523 749.769l-.74-1.632.186 4.572.49 3.12.645 1.51M230.592 746.734l-.644-.33M251.891 737.061l-.401-1.845.74.192M31.883 854.396l-.53-.481-.488-2.394 1.185-17.783-.87-11.108-.165-17.857.316-6.9 2.35-15.953-.089-6.036 1.08-8.486.126-5.296-.566-7.075-1.667-7.529-.235-3.773 1.214-6.733.77-8.8 1.615-4.561.64-1.006.282.167.726-2.034.76-.703.39-1.075-.357-.844M15.219 816.52l-.343-.054.839-.894 1.047-3.247-.27-4.822.496-8.301-.206-6.536-.803-3.916-.115-4.253-1.876-9.133-1.695-11.242-.874-14.85-1.056-2.591-4.231-17.171-2.139-4.725-.426-.224-.73-2.209M-3.732 766.873l.563.246.405-.455-.733-3.366-1.232-3.284-1.262-2.142-2.145-6.395-.877-3.868-1.113-1.897-.393-2.921-1.505-1.953-3.612-10.316-4.995-6.062-.355-1.538.217-5.088M-9.677 797.621l-.256-2.797-1.112-2.455-.905-3.769-1.838-3.86-.982-3.531-3.516-7.918-3.011-8.474-1.216-1.526-1.045-2.517-1.362-1.634-.752-3.512-.963-1.916-1.681-6.91-.266-2.678-1.4-3.519-1.736-11.97-.536-.394-.167-3.569-1.4-3.361-1.044-1.558-.717-.754-.41.157-.518-.848.133-.608-.55.069.05.55-.258-.85.153.368-.292.084.025-.26-.06.421.028-.871.03.854-.045-.391-1.616 1.157-.315-.198-1.34 1.252-.102-.301.306.272-1.043 5.016.036 2.364-1.447 3.609-1.905 3.324-1.56 1.784-2.373 1.065-2.055.25M18.955 707.379l.844.041 3.337-2.169.328.535 1.36.43 7.843-.675 2.261.349 4.116 1.617 2.765.143 1.937-.625.448.381 2.808-1.4.42.322.952-.856.858-.225 7.035-6.903.37-1.019 2.685-3.423 4.173-6.585 3.113-8.636.47-4.976.691-3.263 1.598-3.684.786-2.798 1.51-8.796.157-2.698 3.5-8.755-.106-1.724 1.264-4.142.248-3.401 1.283-2.626 4.794-7.017 4.705-2.413.69-.794 1.104-.372.7.766 2.852.629 4.662-.775 2.364 2.037 2.56.813 1.239-.167 3.08-1.5.394.332.606-.134.231-.464.799.245 1.566-.372 7.401-4.087.281.389 1.393.193 3.545-.739.748.124 5.857-3.731 4.473-3.337 2.841-1.446 1.468-1.394 1.261-.068.966-.56 1.997-.405 3.47-1.854 3.079-.892 2.739-1.378 1.134.479.118-.411.526.407 1.468-.183 4.553-1.047 1.462.094 2.202-.849.274.372.855-.142 2.134.575 5.818.158.275.384 2.039.434 6.09-.349.333-.262.616.966 2.953 1.74 1.255.541 3.11.37 2.211 2.941 1.131.24 1.014.74 1.112-.063.814.378.31.675 4.09 1.436.888.052.259-.329 2.496 1.882 2.524.586 1.743 5.241M-52.73 731.458l-1.377.722-.14.562-.056-.437.35.315-1.215-.028-4.057 1.042-3.777 1.495-3.344.535-.393.356-.626-.395-.243-.785-.958.11-.946-1.241-2.95-.346-1.648.17-1.123-.449-2.09-5.474-.865-.188-.12.397-.584-1.124-.605.041-.163-1.631-2.711-3.746-1.005-.69-1.765-.439-.18-.43-1.381-.561-1.242-1.134-.551-.016-.12.373-1.086-.633-1.079.49-1.276-.673-.63.221-3.48-1.943-1.233-.303-1.018.12-.284.467-1.16-.372-.884.562-.116.648-.72-.004-.148-.394-.991 1-1.784-.038-1.097.508-1.868.986-3.096 2.811-1.399.7-1.423 1.629-.371-.361-.294.638-1.115-.085-.917.529-3.309.53-1.459 1.14-1.13-.272-2.278.756-2.038-.094-1.754-.721-1.322.163-.453-.439-.688.844-.504-.102-.063-.614-.176.312.342.235-1.147-.496-.104-.5.075.423-.555-.033-.133-.351-.124.608-.265-.889.017.658-.287-.558-.864.076-.204-.324-.002.365-.313-.382-.233.518-.865-.726.039.534-.13-.364-.375.149.31.3-.085-.516-.01.492-1.163-.63-.709.485-1.385-.141-.087-.441-.3.164.454.226.512-1.968M-162.289 718.116l.015-.251-.131.315-.658-.149-.621-.682-3.398-.591-.42-.575-.703.543-1.997-.367-1.067.617-1.038-.474-3.781-.131-2.942 1.046-1.78 1.255-1.125.13-.976.859-.45-.049-2.778 1.518-2.58.541-2.324 1.56-2.588.35-1.605 1.321-3.71 1.151-4.411-1.466-.603.665-1.794-1.137-1.276.183-6.066-2.591-3.469-.992-.6.204-1.19-1.386-1.115.343-2.819-1.507-1.839-.311-2.368-2.065-.759-.464-.086.301-.378-.179-.087-.484-.082.382.321-.405-.196.394-.201-.313-.898.371.274-.491-.015.698-.003-.45 1.158.308M-44.137 786.566l1.742-.197.41-.351-1.052-1.497-1.605-3.645-.735-2.871-1.101-2.215-1.189-5.182-1.55-2.67-2.517-1.266-1.467-.383-.807.156-4.977-2.872-4.594-4.215-3.756-2.658-7.203-2.542-1.119-.827-2.233-.38-2.386-2.07-2.738-1.655-.79-1.218-3.283-3.301-8.264-3.787-2.249-1.383-1.288-.047-2.088-.799-2.552.567-5.4-.178-6.452-2.01-4.59-.793-2.516.02-5.339-1.005-7.062-3.317-2.836-.582-2.573-1.39-1.791-1.512-.241.268-.628-.426-1.356-.032-1.224-.718-3.604.152-6.046-.818-2.307-2.948-.445-1.692.6-.274"/><path fill="none" stroke="#000" stroke-width="6.25" stroke-linecap="round" stroke-linejoin="round" d="m-88.554 757.174-.819-1.263-3.07-2.779-3.49-1.948-.652.036-2.373-1.648-2.301-.428-2.219-1.072-2.533-.387-2.766-1.312-3.476-.995-5.566-.422-4.739.418-2.07-.153-.571-.351-3.859-.146-.469-.311-5.321-.103-6.544 1.033-7.952-2.669-6.917-.914-2.722-1.368-4.028-3.044-1.264-1.474-2.831-.413-3.735-1.865-3.929-3.506-3.568-2.232-1.607.086-1.236-.846-.71.285-.061.417"/><path fill="none" stroke="#000" stroke-width="6.25" stroke-linecap="round" stroke-linejoin="round" d="m-147.736 740.725-2.297 1.153-5.538-.384-4.024.308-10.425 2.06-1.201.803-5.318.434-2.754-1.641-1.43-.377-4.265.048-3.65-.63-.98-.621-1.994-.434-3.972-2.666-8.078-2.051-3.982-2.659-4.005-4.493-4.312-2.52-4.182-.072-.593.88"/><path fill="none" stroke="#000" stroke-width="6.25" stroke-linecap="round" stroke-linejoin="round" d="m-151.023 737.283-1.315-.004-.988.543-1.54-.227-5.733.328-2.853 1.369-15.29 3.591-4.303.645-10.571.027-3.414.451-2.837-.503-2.35.276-1.913-.658-6.449-.628-4.889-.099-1.002-.607-1.959-.307-1.918-1.558-2.434-1.056-5.219-4.062-1.861-3.918-.439-2.479-.525-1.028-.686-.241.158-.187"/><path fill="none" stroke="#000" stroke-width="6.25" stroke-linecap="round" stroke-linejoin="round" d="m-176.055 728.396-7.976-.536-1.676.226-2.183-.583-4.42 1.496-1.04.026-2.979 1.931-3.368 1.596-6.022 1.707-1.429.02-2.932-.67-2.342-.929-1.197-.94-4.805-1.906-.413.135-1.079-.439.531-.04M-184.226 741.216l4.992-1.71 6.282-.858 3.577.537 7.23.288 1.734-.171.779-.468 3.216.03 2.491-.918 2.635-.171 7.695.783 6.306.127 2.834.336 4.397 1.444.868-.166 2.273 1.008 8.473 1.391 8.371 3.551 8.294 2.419M-69.95 760.501l.098.679.454-.139-.16.531 1.286 2.432 3.07 2.232M-66.782 747.096l-1.119.343.734.034 5.567 4.155 4.734 2.66 8.07 5.59 3.61 1.529 4.53 4.29 4.618 6.101 2.992 5.254 2.42 1.978 2.245 3.38 2.051 2.019 2.476 5.561 1.137 3.897 1.364 2.535 5.42 6.308 1.172 3.651.284 4.708"/><path fill="none" stroke="#000" stroke-width="6.25" stroke-linecap="round" stroke-linejoin="round" d="m-19.441 805.597-1.899-1.844-.192-.88.65-1.134.388 2.489.847 1.862 4.282 6.756 2.337 2.47 2.563 5.468 2.36 3.014 2.705 9.21 1.487 6.734 1.592 3.512M6.241 884.205l1.095 8.853.732 3.649.202.277.146-.238.313.922M2.34 823.636l1.414.055.234-.319.175 2.94 1.256 4.297 4.91 10.92 2.635 7.384 3.801 17.706 2.205 5.572.285 2.967-.178.431-.48-.806-.21.37.36.502-.037-.7-.066.546.506.02M31.873 897.941l.63.064.23.483-.378-.478.068-.611.308-.071.171.527.177-.972.223.887.254-.044M178.387 623.542l.979-11.56-.368-2.54-.042.403.435-.499-.033 1.997-2.63 7.166-1.812 7.717-3.581 11.915M173.371 613.321l.585-3.407.374-.402.405.168-.184 1.098-3.502 11.961-3.091 15.48M168.558 609.709l-2.059-2.218-.737-.259-.41.242.01.754.905 1.493.045 1.192-3.628 14.283-1.858 9.831M156.162 612.778l-.961-.931-.744-.06.56 1.18.005 1.727-4.249 17.608M142.245 610.814l-3.037-.234-1.603 1.171 1.453 8.186.449 5.02-.148 8.773-.977 8.222M124.787 619.834l-1.949-3.895-.31-.463-.161.211 1.891 5.769.543 4.481.33 9.582-.741 9.004M113.24 618.967l-2.281-1.492-1.262-.029-.512.635.729 3.639.67 15.386-.143 13.195M99.08 623.639l-3.47.129-1.083 1.662-.08 2.527.956 6.447.202 5.854-1.239 11.649M87.569 624.062l-2.435-2.262-.392.99 1.773 3.295 2.639 11.675.748 8.449-.394 5.68M74.582 639.859l-3.403.328-1.486.678-1.065.951-1.088 1.916-.19 2.599 1.04 3.21 1.497 2.534M196.855 617.269l-1.185 1.029-3.236 5.832-1.964 6.122-3.515 8.706M202.331 615.32l-2.972-1.123-.616.558.065 1.754-9.655 28.622M204.896 633.677l-.194-1.138.659-2.838-.577 4.827-1.97 5.994-4.459 8.645-7.157 11.907M215.404 650.756l-2.876 6.667-3.518 6.114-3.632 4.139-9.388 8.688-1.205 1.621M227.494 661.597l-.486-.121-1.782 1.05-2.875 2.907-2.673 3.555-3.312 3.548-4.866 6.604M224.954 685.855l-2.877 1.179-2.049 1.891-2.687 4.7M215.861 632.081l1.019.365.153-.286-.156.41.113-.304 1.198-.035.194 1.389 3.589 2.727 4.354 4.997 3.209 2.492 3.089 1.558 2.425 2.221 3.336 1.691 2.091 3.215 3.019 2.015 1.465 1.453 2.162 3.796.649 2.257.493 7.578-1.633 4.402-4.402 7.089.832 1.527.011 8.678M246.046 702.414l.505.236 1.379 2.201-.185 4.624"/><path fill="none" stroke="#000" stroke-width="6.25" stroke-linecap="round" stroke-linejoin="round" d="m243.04 669.634-.338-.652-.301 1.819-3.284 4.295-14.387 21.403"/><path fill="none" stroke="#000" stroke-width="6.25" stroke-linecap="round" stroke-linejoin="round" d="m243.485 668.902-1.029-.586-.213-.693-.358.262.002-.503-.231 1.845-2.359 2.512-11.698 15.369-7.29 8.682M241.22 665.912l-1.274-3.024-1.198-.17-.989 2.128-2.908 2.731-3.462 4.296-12.822 17.905M241.217 653.585l-5.9-.628-1.798.571-1.399.929-2.364 2.579-1.932 4.636-1.632 2.902M233.773 647.128l-1.201-.535-.92-.972-1.009-.233-.878 1.086M245.533 724.011l-14.077-3.096-3.051.158-4.668.865-1.624-.079-3.922 1.701-1.597 1.163-.632-.026-3.796 1.655-1.714 1.212-1.079 1.361M246.842 729.167l-1.465-.164-3.09-1.352-2.729.271-4.829 1.414-6.074 2.795-3.56 1.129-5.79 1.195-4.875 1.726-5.67.964-2.957.99-1.548.942-3.639.312-1.434.61 4.702-2.163M238.327 707.807l-6.134.329-8.868 2.066-3.479.485-3.251-.348.036-1.669M240.327 711.764l-2.661-1.512-1.718-.178-.371.408M34.415 673.95l-.605.462-.174 1.552-.471-4.228-.496-7.587-.172-11.345M15.797 678.17l-.675.151-.248.566-.025 3.319-1.947-6.967-2.163-9.327-2.543-16.876M-16.195 685.534l.736.048-1.265-2.734-4.766-7.327-2.562-5.133-6.012-16.867M-41.863 695.816l-.804-.052-.41-.548-1.3.684-.893-.104-2.495-1.069-1.463-1.054-6.1-5.808-4.03-4.552-2.632-3.736M23.778 722.666l-.088-2.133.874-5.092.177-.323.589.218.572-10.802-.18-.536-.388.711.571 3.437-1.492 16.618-.876 24.658M14.426 710.332l.309-2.089-.221-.87-1.135 3.079.485 2.939-.51 12.711.505 14.124 1.154 13.387M-1.194 722.145l-.97-.367-.447.174-.23-.463-.177.644-.457-.594-.532-3.94-.605.122.067 1.204 1.557 4.289 7.98 38.42M-27.1 724.85l-1.435-1.568-1.025-1.987-.507 1.068 2.019 3.158 1.231 2.779 1.897 6.846 6.063 18.378 2.227 8.445M35.798 721.09l-.979-.684-.579-2.666.455-.782.17.749-.252.776.492 3.355-1.335 35.234-.244 24.276M60.507 685.699l-.34-4.304.452-.967.2.503-.667 1.412.013 2.04-1.06 6.398-10.356 43.866-9.835 45.261M73.82 684.872l-.148-2.114.682-4.324-1.456 3.209.228 1.159-2.411 12.008-7.025 29.233-2.227 11.985-1.776 14.004M54.12 737.995l-2.469 1.785-1.17 2.749-1.155 5.151-1.483 34.703M33.404 787.228l-1.65.347 1.021.531-.562 8.584M-41.865 740.996l-1.247-1.155-3.96-5.175-.879-2.333-.486-2.72-.12-1.591.526-.587.042 1.734.49.312 4.526 7.59 10.061 13.297 1.958 3.134 2.54 5.258M-90.382 734.972l-1.144-2.109-.161-1.868-1.654-5.962-1.299 1.296.001-.655 1.024.076 1.38 1.287 3.674 2.209 12.033 11.348 5.63 4.767 2.602 2.871M-108.021 725.5l-2.516-.47-.732.166-1.319-1.008-1.011.515.47-.04.187.404.798-.206-.269.246 1.239 2.65 3.498 6.015 2.838 3.221 2.631 1.975M34.036 1051.74l.675.92 1.219-.01 2.672 3.34 1.623 4.64 2.156 4.69M34.213 1191.63l1.132-1.97-.301 1.66.256 2.27.08-.25.326.27.049.8-2.173 2.21-8.65 10.94-.718 1.5-1.372 1.25-.934 2.43M53.581 1207.32l.044 1.98.658-.28.04 1.19-1.524 2.84-1.622 5.53-1.135 5.94-.539 5.87M83.766 1204.1l-.434.72.1-.33.127.44.445-.88.374.57-.145.54.418.51.318 2.04.957 14.69M104.694 1196l-.8.01-.186.38.876-.69.319.52.065-.58-.007 1.58.174-1.03.049 1.05.668.24 3.532 5.48 1.809 4.39M114.884 1182.64l-.534-.21-.215-.97.065-.77.32-.09 1.037 1.74 5.189 2.19 2.957 3.17M44.891 1116.08l1.957-2.49 2.412-4-.416.22-1.578 3.35-2.568 6.48M34.171 1136.39l.59-1.41 1.316-1.68 10.926-11.04M32.659 1143.5l-.16.55 1.312-1.08 17.898-17.81M27.526 1164.88l.72-.27 1.864-2.92 6.508-7.95 15.27-16.44M23.694 1178.36l8.712-11 5.367-6.13 6.171-5.94 2.264-1.66M28.452 1185.19l.426-.11 9.601-12.51 4.198-4.38 4.208-3.59M30.503 1193.44l1.392-.64 1.615-1.42 7.876-8.99 4.418-4.12M39.2 1201.74l-.596-.56.077.38.73-.01 4.008-4.13 4.144-3.29M43.55 1204.75l.48.16.874-1 5.912-8.45 6.543-7.68M66.465 1200.05l-.094-1.05.647-2.32.13.79 5.797-8.36M62.06 1198.69l2.368-2.02 4.022-5.2 4.33-4.58M68.814 1198.13l.203-.43 1.263-.58 11.175-11.42 2.39-1.67 1.489-.29M73.67 1199.4l.324.68 5.032-3.34 8.634-8.38M79.915 1203.87h.024M80.724 1203.92l2.602-1.18 1.97-1.84 4.046-4.36 3.817-4.87M87.454 1200.43l.604-.1 6.08-6.07 7.302-7.94M101.716 1198.03l1.956-3.07 1.686-1.05M111.431 1186.26l-.023-.01M46.257 1153.93l3.815-4.41 7.597-6.86.915-1.24 2.88-1.81 3.903-6.19M44.182 1163.07l.455-1.47 1.442-2.08 16.012-15.35 1.44-2.15M70.97 1141.21l-.559-.17-.238 1.78M58.687 1157.79l5.43-6.75 2.658-1.79M77.476 1149.17l.033.59.098-.61 2.907-2.32"/><path fill="none" stroke="#000" stroke-width="6.25" stroke-linecap="round" stroke-linejoin="round" d="m37.638 1066.04-.218-2.14.471-3.82 1.564-7.35M34.752 1030.73l-1.936-1.05.9-1.74"/></svg>