<svg width="500" height="100" viewBox="-702 0 1404 1872" xmlns="http://www.w3.org/2000/svg" version="1.2" baseProfile="tiny"><path fill="none" stroke="#000" stroke-width="4.75" stroke-linecap="round" stroke-linejoin="round" d="m-37.743 681.92-.148.257.312.171-.01-.435-.355.815-1.301.612-2.58 2.788-.938.259-2.687 1.585-2.148 2.201-1.28.725-.727-.154-.367.279-1.337 2.316-1.75 1.643-1.794 7.313-1 2.023.117.735-1.008 3.123.154 1.539-.64.695.48 1.568-.068.871-.418.483.052 1.049-.495 1.098-.422.053-.23 1.236-.549.278-.113.523-1.09 1.328-.114.685-.738.699-1.639 2.632-.716.567.038 1.239-.567.923-.325 1.607-.624.855.3.456-.067 1.019-.487.016-.074 1.009-.66 1.36-.622.553-.275-.09-1.541 2.792-.259-.637-.242.986-.374.135-.31-.246-.526.712-.387-.034.596-.045-.076.857-.341-.649.067-.387.119.16-.314-.099-1.388 1.055-.513.012-.9 1.122-.959.536-.046.707-1.19 1.326-.66 2.769-.839 1.099-.604.312.016 1.078-1.602 2.607-.34.943.207.594-.44 1.075.288 5.013.367 1.963-.105 2.249-.796 4.049-.522.216.132.203-.773 1.364-.327.125-1.324 3.299-1.666 3.057-1.057.843-1.938 4.005-.756.984-.346.063-.01 1.106-.492.378-.213.906-.205-.119-.142.277-.087-.517.332.456-.27-.281-.143.444-.497-.278.092.747-.273.185-.185 1.136-.363.196-.213 2.367-.424.514.128 1.459-.482 3.366.236.529-.428 1.385.03.442.1-.539.103.5-.06 1.72-.454.398.31.327-.026-.341.376.818-.57 1.13-.463.334-.093 1.256-.816 1.164-.151.912h-.472l.255-.04-.582 1.755-1.208 2.641-.912 4.154.175 3.843 1.097 2.26.035 3.338.604 1.709.579.729.028.789-.357.322.14.196.24-.152-.683-.39.392-.221.005.284-.22-.034.204-.433.064.228-.007.622-.246.015.223 1.35-1.367 3.064.222 2-.251.115.764-.195-.16-.413-.357.278.151.896-.216.2-.007-.276-.151.304.413.007-.248 2.332.23.774.22-.092.215.384-.096 2.071.147-.398.265.245-.151.462-.227-.176.241-.373-.124.217-.516-.072.358.033.055.558-.513 1.839-.132 1.857.284-.006-.065-.667.187.217-.224-.019-.077.542-.318-.322.096-.696-.075.78-.394.049.228.131.128-.466.342.233-.434.459.484.216-.386-.205.279.049-.436.308-.927 2.595-.261 1.552.322-.729.257.602-.295.959-.327.2.093.811.427.348-.617 1.173.44 1.187.007-.385-.244-.067.522-.054.238.282.232 1.057.783.422.695-.069.71-.574 1.668-2.317.586-2.574-.109-1.189-.218-.595-.234.041-.319 1.06.144.55.332-.925.22.783-.231-.219.183-.871-.014.419-.382.146.396.502-.3-.074.5.451.09.897.218-.623.324.127.026.464.094-1.913 1.55-7.319-.143-1.208.715-2.837.634-.914 1.214-4.733 2.227-4.681 1.325-4.03 4.402-16.74.006-1.148.046 1.574.621-.175.692.893.075.57.316.039.24-.482.764.194.188-.287.283.387 2.84-3.125 3.84-7.975.237-1.649-.693-1.337-.177-1.066.399-2.621.623-.648-.073-.386.524-.84.08-1.529.957-2.488 1.165-1.411.288-.942.21.494.217-.16.245-1.912.728-1.563.542-.048-.623.47.178-.062-.097.347M-53.388 751.71l.87-4.085 1.857-3.532 1.293-1.67 2.831-5.45 2.96-3.139 1.445-.619.397.317-.684 1.275-1.055 1.063-.077.872-1.269 2.899-.37 2.73.041 6.654 2.248 11.578 1.7 4.889.242 1.769.486.06-.306-1.874.178-.116-.467-.256.02-2.147-.953-6.471-.676-2.576-.317-.25-.02.357.465 1.811.096.338.385.072.623 1.491 1.435 5.714.82 1.8-.017.973 1.882 7.328.738 1.698-.042 4.661.313 1.348-.03 1.803-.397 1.934-.36.467.333.383.142-.252-.247-.096.381-.404-.245.331.133-.14.052.498-.075-.486.667-.805.137-.746.708-1.135.431-2.151 2.096-5.944 1.603-3.071 2.549-6.293 1.862-3.813 1.215-3.412 3.826-7.579 2.596-6.231 2.477-4.442.225-1.751-.905-1.226-.574-.232.03-.407.524 1.453.275-.796 1.486-.896 1.68-2.275 3.64-6.401 2.787-6.194M-3.914 712.323l.01.008M-1.033 722.204l3.189-4.334.08-2.001-.489.014-.984 1.105.43.284.008.308.227-.052M8.399 760.249l-.097-1.07.543.997.52-.255-.03 1.067.802 1.968.576 6.456.293.65.258 4.749-.38 2.242.9 7.08-.002 5.948.816 7.789-.197 6.675.226 6.512.436 1.998-.223 10.891.185 1.944.489.538.499.064-.362-.005.197-.348-.192-.034-.155.627-.058-.693.139.692-.334 1.68-.878 2.2-.172 1.541-1.178 3.818-.096 1.669-.441.918-.244 2.648.306.502-.22.371.31 1.177-.09.989.83 2.141.673.518.205.526-.02-1.873.398-.747.19-1.417 4.691-14.661 1.974-7.911.287-.301.002.712-.607 1.061M22.354 824.054l.882-2.495 1.124-5.996 1.416-3.898 1.071-5.703M30.547 779.753l-1.043-.624-.515.472.029.573-.867 1.969"/><path fill="none" stroke="#000" stroke-width="4.75" stroke-linecap="round" stroke-linejoin="round" d="m30.113 781.678.872.251.445-.897 2.279-7.386.249-1.861.56-1.167 1.438-5.685.402-3.32.282-7.884-.488-1.06-1.118-.187-.222-.374.009-2.543.583-4.767.633-1.76 1.156-1.845.364-1.392.29 1.375.289.29-.384.266M45.47 823.789l-.065 9.763-.367 3.077-.3.788-.243-.325M43.39 846.64l1.845-.383.12.272-.305-.237.056-.393.274.245-.526.4-.058-.713.202.505-.159.461.153-.301.287.065.114-.682.181.071 1.344-4.365 1.904-2.887.738-3.237M53.854 796.555l.568-1.828.37-3.433-.156-.322-.135.331.12 3.432 1.096 2.654 1.11 7.733.634 2.122.765 7.736 1.23 7.654.777 2.505 1.05 9.31 1.422 6.536.63 4.973-.12 1.425 1.404 4.181.17.151.076-.503.115 2.918-.384 3.69.17 1.405-.199-.609 1.01-3.043.021-2.333.75-4.732 4.103-22.742 1.097-5.044 2.923-9.693 1.012-5.092.309-3.603-.099-3.485-2.288-16.179-.164-4.868.896-4.907 1.136-4.169 3.925-11.285-.027-1.375-.536.358-.108.828.157-.318-.25-.128-.247-1.367.334-1.821-.671-14.451.296-2.228-.272-1.242-.287.104-.693-.874-.779-.462-.122.317.094-1.713.08 1.561M105.821 855.543l1.063 5.861.507-.013.123-1.213-.345.701.197-.491-.422-1.587.373-2.373.618-2.163.399-3.171 4.035-19.848 1.527-5.693.65-5.913 1.128-6.086.213-3.759-.23.904.309.683-.255.27v-.281l-.492 2.802.32 5.881.562 2.859.549 6.479.068 11.505"/><path fill="none" stroke="#000" stroke-width="4.75" stroke-linecap="round" stroke-linejoin="round" d="m101.553 771.014.687 1.18-.178 2.658.396 1.109 1.02 10.612.934 4.205 1.693 5.204 1.767 8.658.674 1.366.402 5.268.997 5.152-.103 3.296-1.168 7.329.14.876-.33.525-.673 3.129.548 2.221 1.554 2.753.32 1.644.147 3.049-.236 2.258-.699.583.252.131.106 1.498-.409 1.096.302.442.442 2.618.03 2.13M131.476 817.865l-.229-.469.382-.143.047-.357.067.217-.067 1.079 1.041 4.917.483 4.965.03 18.405.418 2.531.87 2.022 1.36 4.847.632 4.71-.224 3.115.159.298.076-.19-.389-.419.158.789.287-.616-.103-.787.26.113.377-.551.8-3.668 2.448-7.619 1.237-5.884 1.126-7.266-.184-3.046.431-1.165.457-4.668.662-1.677.282-1.89.308.16.326 1.911.568 1.199 1.117 6.235 1.518 4.396.127.286.12-.197.182 1.052 1.232-1.714M155.83 821.231l-.628-.463-.062-1.225-.06.509.422.334-.115.723M158.681 822.1l2.551 2.612 3.489 5.39 1.641 6.636.485 6.031-.234 7.956.285 5.908.517 1.931 1.534 44.416.367 4.462 1.127 5.422.216.56.782-.179.217-1.896-.211-.074-.14 1.276.511.34.876 2.191.575.413.305-.083.334-.838.455-.356.365.095.765-1.977 2.616-15.22.715-8.475.788-4.952.07-5.271M206.746 833.293l1.335-1.306 1.721-5.057 1.44-1.993 1.193-2.37-.023 1.993-.227.114-.073-.356-.145 1.263.463.104 1.798 2.095.464.051.493-1.448.721-.631M222.277 810.981l-.539 1.586.021.734.779.44.605 1.891.739.96.486.077.303.408.907 2.373.006.977.029-1.014.239 2.568-.037-.181.725.167 1.435 1.068 1.083-.194 4.541-5.732 3.405-5.871 1.37-2.951 1.245-2.109 1.182-1.13-.167-.19-.371 1.487-.804 1.561.619-.423.346.439 1.54 2.748 1.14 2.982.324 1.627 1.431 1.427-.173-.124.019.319-.278-1.688.357.147-.331-.08.001.19-.056-.371.399-.831 3.172-14.36 1.475-11.905.74-3.18.51-4.376.495-1.242-.074-1.535 2.472-10.017 1.944-5.092M166.12 731.112l-.344-3.732-1.435-5.533-.282-4.826-.575-2.029-.21-2.123-.392.09-.295.498-.629-.057-1.555-.961.29.147.372-.259.236-.709.458.765 1.872.846 2.249 1.915 3.056 4.578 2.3 4.623 2.644 9.331 1.161 5.322 1.83 16.149.605 2.96.287.378.223 2.086-.176.898.217.163.149-.475.197.882.009 2.902.295 1.741 1.744 4.797.719.975.743.494 1.251-.564 1.192-1.187 1.429-2.374 2.053-5.225 1.787-7.167.961-9.129.283-.132.078-.803.067.458.014-.833.427-.936.579-.131.449-.512.388.045 2.206-2.263.618-.006.971.636 1.066 2.3.28.069 2.516 8.376 2.504 3.197 1.301 2.3 2.295.979.219.545.694-1.051.451.828.433-.108.307-.504.108.529.637.729 1.781 3.672.289 1.379 1.225 2.811 1.358 5.101 1.161 6.239 1.268 3.474.78.011.591-.655 2.498.258 3.467-3.179.403-.224.146.337.501-.257.164.434-.003-.503-.217-.001.263.037.077-.612-.529 1.739-.234 3.153.268 1.173 1.44 2.273.884.716.116.686.507.091.081-.334.102.198.305-.215.201.584-.005-1.486.091.203.438-.437.346.059 1.362-1.436 1.417-2.676M231.543 769.038l-.676-1.52-.282.356-.441-.229-.996-1.695-.264-1.12-.528-.301-.126.422-.109-.198-.238-1.101.166-1.835-.498-2.223-1.699-4.338-.571-2.422-1.498-2.966-1.13-6.196.11-6.324.466-3.793 1.646-8.084.951-1.514.415-2.415-.413-1.17-.074-1.712.34-8.95-.419-2.802-.079-4.113-1.477-5.39-.871-1.938-.573-.062-.31-.587-.467-3.74-.014-14.648-.553-2.937-.376-.299-.77-2.868.208-3.943.952-7.18-.4-5.313-.263-.009-.421.678-.418-1.698-.946-1.615-.079-.808-2.164-3.211-.06-.602-.697-.751-.262.223-.751-1.888-.451-.258-.199.336-1.054-1.355-.265.142-.567-.427-.393.138-.873-1.431-.442-1.356-.484-.202-2.103-2.673-.834-.212-.649-.687-.554-.006-.516-.761-1.083-.636-.927-1.235-.164.136-.796-.667-.461.025-1.496-1.79-.263.169-.982-.402-.567.371-.257-.367-.901-.145-.637-.719-3.05 1.267-.278.495-.966.418-1.499 2.302-.542-.189-.267-.586-1.037 1.429-.657.083-3.814 3.39-1.077 1.885-3.375 4.046-3.867 3.733-3.053 3.431-2.572 4.18-.49.137-.114.845-.115-.831.291-1.233-.252 1.055-.169-.934-.589-.386-.579.009-.753-1.105-2.519-.94-2.898.45-2.507 1.367-1.56.458-.52.831-.865-.448-.028-1.162-.481 1.23-.34-.029-.123-.458.314.279-.083.442-.081-.45-.536.299-1.47-.302-1.383-1.013-.53-.038-.274-.759-1.266-1.857-.208.042-.466-1.52-.365-.249-.023.298-.671-.935-.601.564-.042-.701-.489.603-.529-.076-.222-.342-.324.244-.052.553-.344-.198.218-.085.073-.851.212.763-2.003 2.664-1.263 2.302-.848.482-.208.436.076-.606.155.895-.207.025.053-.36.318-.239.308-1.196.288.128.855-1.069"/><path fill="none" stroke="#000" stroke-width="4.75" stroke-linecap="round" stroke-linejoin="round" d="m156.391 665.543-.268-1.657-.366-.64-.74-.279-.138-.641-.731.212-.438-.387-.02-1.917.061.656.391-2.431.508-1.063.257-.154-.048 1.693.923-.027.974.808.49 1.018 1.004.808.327-.195.371.262 1.863 3.992.114 1.104 1.237 2.738.535 4.296-.643 3.772M166.718 651.517l-1.874.582-.105-.2-.025.454.28.169.22-.196-.009.559.147-1.332.178.713-.213.246.158.104.191-.721 1.579 4.434 2.811 6.395 3.983 11.06 2.165 6.939.662 3.46-.199 3.058-.337.15-.085.526M175.034 646.883l-.335.375-.539-.051.055.477-.731.659.3-.179.157.461.212-.641.101.225.277-.131.369 1.864 1.32 3.174 1.271 5.121 1.513 4.068 2.546 11.461-.461 2.544M186.382 649.78l.724.366-.337.499.2 2.131 1.327 5.852.361 4.728M204.598 645.968l-.451-.58.06.966.108-.739.322.327-.681 2.245M143.988 656.186l-.064.505.329.003-.105-.547.723.384-.353.201-.058-.354-.001.429-.348-.17M135.168 651.083l.259.333.787.011.087-.463.082.472-.672.989.054-.699-.066.375.442-.118 1.158 5.889.107 3.695M121.536 650.206l-.809.726.65.056.13.688.211-.436.358 1.188 3.21 21.194M107.817 652.603l-.505.575-.375-.284.426-1.515.1.853-.227.225.296.365.078-.352.218.429-.409.281.312.002.212.691 1.159 1.093 2.214 3.218.84 2.04.545.433 1.741 3.314.722 1.874M101.381 655.643l.646.217 1.045-.972.039-.719.279-.216-.257-.187-.008.446-.534-1.332.322.466-.366.911-.101-.405-.124 1.255-1.5 4.344M89.935 647.471l-1.016-1.78.333.013.083.407.197-.167-.095 1.989.797 2.033-.272 5.489M71.088 648.685l-.543-.532.207-.065-.084-.474-.218.591-.885.388-.587.838-1.262 1.007-2.06 2.8-2.025 4.928-.881 4.578-.38 4.139M63.13 651.947l-.314-.388-.789.49-.902 1.271-.312.124-.184-.224-.081.246-.383 1.72.14.965-.62 5.448-2.017 8.302M50.093 657.706l-.014-.729-.473-.11.154.864.297-.249-.044-.63-.071 1.041-.209.212-.262-.285-2.984 6.522-1.366 4.382-.876 5.184M34.016 665.078l-.545-.269-.625.255.101.746.252-.619-.02-3.038.624-2.047-.175-.719-.395 1.59-.418-.416.288-.105.095-.534-.188-1.909.284-.517.076.335.48-.978-.002-1.325-.345.434-.168.378.285.568-.254-.261.153-.379.222.085-.185.037.207.11-.206 1.1.048.278.163-.234-.296-.548-.19.993-1.026 2.103-1.097 4.561-.629 3.416.053 1.006-.615 1.44M30.982 658.408l.15-.576-.253-2.802-.23-.247.126-.634.05.296.22-.076-.652.961-.021 1.253-.972.529-.745.96M18.705 663.302l.412-3.062.197-.328.365.495"/><path fill="none" stroke="#000" stroke-width="4.75" stroke-linecap="round" stroke-linejoin="round" d="m19.588 659.228-.389-.545-.727.81-.17.696.007-.473-1.611 2.233-1.485 5.061-3.534 18.072-.54 5.23M14.153 699.949l-.256.534.156 1.621.22-.262-.909 3.857-.031 1.664M11.714 665.42l-1.099-.915-.791.001.275.215.197-.303-.601-.738-.117.567-.42-2.254-.238.235.174-.205-.053.684.322-.095-.184.206.082-.692-.484 1.475-.976 1.424-.996 2.354-.941 3.266-.002 1.352-1.067 2.98-.417 4.409.378.434-.626 2.305M2.63 670.413l-.524-3.963-.333.094-.117-.491.198.099-.182.261-.021-.192-.092 1.481.166.577-.365-.056-.566.475-2.77 4.972-2.568 8.593M-4.959 670.992l-1.399-2.215-.718-.461-.333.755.23.433-.228.822-3.425 4.975-.828.998-.378-.006-.55 1.141-.387 4.55M-12.41 674.645l-.931.003-.013-.598-.617-.098-.07-.455-5.491 6.693-3.475 5.166-1.448 2.771-3.01 7.974-.85 1.544M-14.6 672.076l-.17-.275.37-.059-.201.098.01-.557-.11.377-.229-.089-.263-1.189-.162.402-.58-.136-.34-.798-1.44.306-1.918-.054-1.183.643-.432.608-.963.084-.363-.317-.495.395-.09-.159-.253.516-.469.004-.33-.451-.592.501-.36-.192-.373.334-.788.07-.12.543-.206-.241-1.294.43-1.254 1.146-.934 1.359-1.67 1.387-1.079 2.079-.602 1.935-1.212 1.24-.452 2.199"/><path fill="none" stroke="#000" stroke-width="4.75" stroke-linecap="round" stroke-linejoin="round" d="m-30.088 681.307-.58.112-2-.605-.756 1.109v-.22l-1.222.03-.67.485-.888 1.494-2.058 1.304-1.625 3.345-.741.898-.532 3.69.125 3.927.227 1.161.362.134.238 1.444.68 1.376.687 3.591.03 2.056M-41.992 687.752l-.073.189-.195-.193.16.564-.344.023.18.901-.002-.397-.423-.033-.061-.542-.536 1.361.136-.276-.538-.099-.34.383-2.768 7.273-1.45 7.03-.3 3.273-1.066 3.083-.669 4.849.186.484M-54.58 708.385l.011 2.19-.365.107.287-.679.304.013-.067-.337-.13.403-.734 4.755M-57.635 718.677l-.51-1.08-.5 1.484-.837.984-.282-.556-1.084 3.394-.802.875.024.397-1.254 1.907-2.155 1.761-1.746 3.954-1.298 1.917-.76 3.323.002 1.279-.79 2.958-.27 3.278.15 2.017-.56 5.561M-71.867 741.804l-1.123.188-.597-.336.237-.563-.028.335.373.105.242 3.05-.743 1.383-3.367 9.132M-87.31 772.204l-.396-1.19-.5.275.023 2.597M251.137 802.607l.297-1.292-.188-.415-.119.945.133.69.133-.512-.198.418-.02 8.076.322 5.14 1.033 5.034 2.703 10.102.825 5.219.76 2.928.232-.14.3.711 1.408 8.657 1.3 2.896.679 3.28.66.199.038-.247-.21.605.177-.304.074.713.037-.744-.345 3.064.227 2.761-1.435 4.241-.176.924.275.81-.27-.08-.022-.372-.091.943-.152-1.015-.357.563-.106-.614-1.135-1.677-2.952-2.784-2.659-5.106-4.171-5.769-3.042-2.361-.833-1.299-.533-1.767-.221.194.036 1.156.148-.443-.233-.147.036.872-.189.259-.078-.224.181-.706-.003.847-.288.212.247.753-.236-.175.035.342-.011-.953-1.258-2.821-.751-4.185-.445-.806-.319-.189-.174.348-.072-.512-.319 1.665.411.551-.574 4.341.15 6.953.333 2.452 1.595 6.722 1.054 2.954 2.257 12.12.39 6.562.467.856 1.294 9.459.346 5.834-.059 5.427.494-.504-.2-.192.149-1.256-.155 1.053.236-.563.013.606.245-.517.221.401-.705.058-.044.282-.179-.625.019.267.178-.502-.012.222-.197-.19-.529-1.088-.273.704.029-.331.241.216-.372.042-2.298-2.047-.961-1.279-1.403-2.665-3.371-8.888-1.344-5.831-.339.018-.26.898.015-.429-.576.022-.223-.425-.165.157-.642-.289-.761-1.038-.714-6.369.033-2.583-.335.649.235 1.237-.343-.037-.039.871.045-1.312-.804 1.458-1.43 4.165.295-.564-.155-1.497-2.449-7.304-1.172-6.609-.663-.876-.198.477-.346-1.327.047.685.362.332-.188.943-1.07.258-1.384.856-2.287 3.546-1.059 2.725-1.202 4.754-.767 6.74.512 5.321.558 2.432M218.386 893.724l-.968-1.016-3.218-9.887-.268.248.065.484-1.045.464-2.852-.01M196.312 899.246l-2.288-.715-.93.224-1.058-.412.664.303.303 1.338.687.408"/><path fill="none" stroke="#000" stroke-width="4.75" stroke-linecap="round" stroke-linejoin="round" d="m250.729 873.459-.703.129-.171-.607-.166.455-.446.203.059.488.279-.182.089-.59.236.892.063-.467-.88 3.231-.003 1.038.247 5.604.511 2.691.875 8.778 2.14 9.561 3.583 19.725.78 2.566 1.921 10.874.282 3.438.198.605.11-1.206M258.634 942.301l.46.002.694.918.351 3.878.244.326-.146.883.177-.327-.547-2.575-.266.372-.352-.15-.308.46-.03-.419-.501-.19-1.111 1.458-.303-.036-.792 5.458-.077 2.76.685 2.947 1.15 2.355.992 3.872 3.083 15.015-.541 2.943-.232-2.423-.987-3.378-1.983-4.247M249.264 963.228l-.531.341.323 1.044.052 7.138.69 6.773-.837 10.935-.832 5.601-.299 11-.745 1.87-.53 3.55-.613 1.5-.242 1.8.14 2.33.509.14-.004-.84M240.043 997.243l-.544 1.38-.132-.253-.158.167-.092 2.413.388 2.15.474.77.319 1.48.666 7.61-.626 5.19-1.819 9.1.174 2.11M232.612 1012.23l-1.733-2.13-.459.11-.869-1.59.115.83.244-1.58-.429-1.22.071-1.62-.53-1.8-.705 9.26.092 8.13-1.073 1.39-1.643-.11-.503.31-.822-.64-1.171-2.58-.627-.42-5.443-16.86-1.142-2.725-1.477-1.342-1.302.624-.69-.507-.734-1.482-.801-.826-2.834-5.928-.517-.458-.261.089-.594-1.609-.262 1.772-2.648 5.936-.209 1.449.168.272.063-.303.073.519-.051 1.331-.068-1.944-.218.529-.249-1.722-1.348-4.407-1.5-2.633-3.79-8.91-2.041-3.363-.297-.367-.334.106-.142 1.05.566 2.289-.142 1.443 1.61 8.154.711 8.857.451 2.496-.165 4.77-.877 13-2.415 19.51-.212 6.77-.568 4.55-.046 4.72-.652 5 .131.73-.286 1.66v-.32l-.372.05.115-.62.117.65-.366-12.34M190.333 1036.01l.277-1.28.013.98-.214.01-.058-.66.203.84-.189.8-.121-.7-.23.74.021-.64-1.664-3.42-3.011-7.79-1.679-5.45-2.601-11.1-.428-.69-1.654-7.53-.469-.317-.358 1.287.04-.24-.379.25-.491-.09.074-.46-.814-1.762-.121-1.059-.335.295.243.192.18 5.984.901 8.61M172.009 1039.6l-.908-.77-1.937-.26.134.49-.329.33-1.404 6.68-.284 5.42.585 7.94.472 1.42-.219 2.05-.581 1.26-.222-.03-.019-2.12-1.251-7.22-.477-6.26-.152-.79-.326.71.259 1.46-.175 1.1.092.4.203-.15-.232.08-.197 1.27-.51.49-.31 1.94-.763 7-.129 7.06-1.26 12.01-1.209 5.41-.731 2.1-.224-.02.065 1.7-.054-.52-.279-.15.24-1.33h.241l-.148.75-.288-.67-.813 3.03-1.8 3.82-.52-.03.22-3.05-1.046-3.84-.226-2.06-1.577-4.42-.364-2.08-.251.02-.414-1 .02-.74-2.533-6.3-.313-1.94.159-.54.257.5.089-.31.033.56"/><path fill="none" stroke="#000" stroke-width="4.75" stroke-linecap="round" stroke-linejoin="round" d="m150.99 1072.38-.338 1.56-.546-.57-.738-3.78-.894-2.83-.28-2.53M146.532 1058.12l-.726.94-.681.02-.377.96-.837.65-.169.55M140.331 1071.2l-.495-.47-.092-.51M131.429 1069.88l-.428.05-.401-.57-.038.22-.353-1.04-.357-2.59h.243l.124-1.34.324 1.14-.319.71.056-.53.201.25-.513-.28-.015-.41.264-.14-.147-.28-.52 5.23-1.081 6.56-.438 3.84.179.1-.237-.31.294.29-.746 3.84.138.99-1.972 3.93M120.642 1104.41l.193.18-.268-.38.788-1.3-.304-2.19-1.753-6.78-.151-.15-.074.53-.019-.91.276.41-.184.74.086-.57.119.5-.288.35.302-.1-.463.33.158.75-.776 4.25-.263 4.36-.25.42.333 1.26-.287 5.65-.573 1.66-1.318 6.43-.144.32-.184-.47-.26.6.157-1.38.402-.78-.263 1.54-.137-.7.179-5.53-.561-13.27-.356-.3-.144.78-.072.59.337.74-.265.05-.036-.4-.524.55-.246.95-.581.59-.232-.27-.552 2.27-.288.09-.08 3.16-.621 2.75.431-2.33-1.353-6.55-.242-.44-.505-.07-.958-1.7-.282-1.07-1.089-.35-.435.67-.265-.53-.941-.67-.458-1.19-.587-.14.84.32-.238.23.039.64.342-.38-.109-.57-.344.4.356 1.73-.194 7.05-.633 1.17-.329.01.468-1.27-.339-10.55-.139 1.16.223.62-.157.94-.278.21.178-.07-.168-.66-.98-2.13-.506-3.62-.148.47.113.2.126-.27-.063-.93-.32 1.83-.328-.82.22.01-.475-.24-.172.36-.622-.89-1.937-1.66-.609-.18-1.741-1.57-.424.41-.406 1.94-.62.66-1.038 5.88-.72 2.1-.887 8.07-.485 1.01.02 1.67.151.19-.081-.33.337-.29.349.13.33 1.56-.017 3.08-.8 2.63.087.57-.604 1.18.285 2.71-1.056 8.72.031 1.76-2.07 9.97-1.339 4.18-1.45 2.38.005-1.01.705-.99-.2-.54-.022.74.053-1.54-.696-3.09-.593-1.05-.894-3.03-1.148-5.07-1.474-10.99.144 1.81-.15-.3-.435.86-.774 6.4.27 9.66-.502 15-.907 4.52-.928 1.03-.467-.08.03-.39.096.3-.282.18.026-.6.1.89-1.79-1.79-1.2-2.61-.57-.64.117-5.53-.367-1.52-.052-6.14-.53-6.24-.087-6.18-.465-2.79-.381-6.52.205.29-.526.14-.088.52.123-.87-1.286-2.56-.012-.99-1.02-2.3.026-1.97-.184.96.084-.91-.625-2.37.292-.87-.264 2.48.284 1.6-.105 4.51-.093 1.22-.22-.02.074-2.13-.286.08-1.06-1.85-1.414-1.09-1.065-3.19-.732-.52-.254-.56-.351-.01-1.135-5.51.311-1.95.221.48-.001 3.49-.445 9.64-.64 4.72.136 1.28-.272.95-.119 3.01-.59 3.73.25-.35-.212-1.29.553-1.53-.17-4.06.187-5.89.376-1.81-.097-5.26-.613-3.71-.39 3.98-1.297 2.8-.639 2.77-.28 3.09.166.9-.914 4.48-.062 5-.53 2.21-.849 6.49-.692 1.55.03.64.223-.26-.414 1.05-.067 2.94-.763 2.66.127 1.24-.225-.48.316-.53-.19-.29-.007.52-.147-.37-.753 1.67-.384-.26-.907 1.79-.025.61-1.037-6.2-1.62-6.42-.359-3.36.019-6.76-1.052-2.11-.11-.8-.835-.87-.145-1.81-.034.21-.452-.42-.334-1.37-.34 1.3.227.36-1.485 2.9-.14 1.26.17.12-.02-.75-1.814-10.01-.152-3.73.34.53.057 1.25-.693 2.12-.148 1.67-.858 1.23-.29 1.07.285-.12-.28-.29-.22.27.388 1.42-.422 4.91-1.422 6.37-2.263 4.01-.066.88.466-1.06-.03-1.21.152-.4.018.53.312-.17-.02-.72-.808 1.68-1.6.98-1.178 1.45-.526.24-.219-.51-.217.09.268.02.309-.73-.15-1.3-.447-.05-.14.58-.29-1.86-.55.02-.038.34-.108-.19.108-.37-.968-1.78-.298-2.72.268-12.72 1.72-15.5.054-3.84-.89 1.6-.209 1.32-.794-1.78-.67-.45-.502-.96-.38-1.39.416-1.14M28.494 1113.21l-1.311-.33.08.2.478-.88-.076-.73.12.31.346-.18-.144-.49.068.22-.22-.01.29-.34-1.198-7.3-.172-4.89-.71-5.96.252-2.71-.434.22.2 1.31-.248-.31-1.018 1.11-1.252.45-1.562 1.87-1.707 3.67-1.239 4.42.016-1.42-.406.56.43-.19-.195.02.033-.89-.347.63.164-.52-1.681-2.11-2.378-5.38.064-2.87-.162-.23-.126.2-.312-1.14-.23.69-.08-.41-.449-.07-.064-.74-.66-.16.116-.82-.392-.93-.774-.25-.634-.85-.094-1.07-.489-1.15.386-1.58-.07-3.47 1.245-15.27-.803-2.64-.235-.11-.169 1.18.226.16-.322.76.076.59.297-.32-.334-.41.056.35-.487.42-.56 2.29-2.366 5.22-.192 1.39-1.3 3.86-.595 3.4-.677 1.49-.007.84.18-.31.026-.27-.272.12-.146 1.45-.849 1.99-.62 3.97-1.301 2.76.293-.58.01-1.88-.201-.32-.094.31-.814-4.67-.615-1.57-.784-3.99-.142-.9.268-1.61-.473-.8-.445-2.96-.873-1.56-.148-.84-.31-2.71.129-1.83-.812-4.6-.537-1.61-.856-7.35-.499-.86-.127-2-1.133-5-.06-3.09-.556-2.88.017-1.37-.261-.43-.01.33-.556.51.213 1.05.362-.86-.31.11.15.44-.682 1.27.13.65-.784 6.89-.168-.18-.07.8-.448.26-.767-.21.05.38-.024-.76.48-.32-.945-4.09-.184-6.31-.456-1.57.008-4.23-1.028 2.15-.408-.27-.126-.98-.773 1.48-.335-.63-1.109 2.58.132.21-.183-.09-.319-2.56-1.519-3.7-.834-5.23-1.299-5.74-.479-4.16-.611-1.78-1.525-8.58-.368-.91-.19.47-.405-2.89-1.019-2.481-.38-1.93.118-1.792-1.06-3.519.412-.993-.021-1.006-.27.025.106-1.866-.548-1.494.156-3.523-.23-.711.2-.412.232.113-.455.563.16.908.434-.084-.404-.171-.229.519.373.279-.278.268-.201 1.269-.142 3.816.577 5.581-.33 7.231.196 1.17-1.208 5-.23 3.48.178 1.14-.923 5.03.048 3.97-.645 4.14.009 1.38.327.46-.328 4.94-.685 4.72.124 1.84.088-1.04-.325.28.179.34-.032-.42-.174.19.427.05-.154.46-.207-.14.043-.57-3.932 5.86-1.53 3.14-.014.54-.716.59-.172-.15.032.42.039-.34.292.01-.008-.83-.227-.03.245.38.101-.79-.523-.46-.983-4.02-.593-4.68.755-4.04.756-.61-.052-.52-.411.34.124 1.12.281-.25-.197-.34-.36.24.034.8.267-.25-.718.31-3.895 6.26-1.041.9-.34-.18-.257.28.128-.21.086.52.364-.9.055-1.25-.191-.47-.085.2-.123-.17.103-2.13-1.314-6.08.23-3.72-.339-1.86-.778-.16-.065 1.67-1.297.75-.555.17-.175-.21-.364 1.73-.34.42-.3-.47-1.165 2.43-.164.22-.348-.27-1.105 1.3-1.06.05-1.884-.81-.049-.29-.46-.16-.697-1.84-.373.04-.152-.75-.796.36-.097-.44-.923.71-.986-.43-.817.01-.033.21.435-.16-.272-.81-.241.3.101.4-.534-1.43-.53-.05-.35-.46-.059-1.2-1.054-3.76.097-2.75-.2-1.3-.286.48-.098-2.73-.395-.86.598-3.11-.143-3.89.502-.81-.209-.18-.38.27.07.58-.831-.89-.074.42-.215-1.76h-.382l.166.94.052-.31.362.02-.01-.72-.3.52.037 1 .298-.39.01-.64-.508.01.26-3.37-.331-.88.916-5.254-.002-4.996-.972-.83-.325-1.208.001.523-.637.269.12.774.033-.476.054.194-.34.027.134.547-.278-.135-.367.539-.917 1.914-2.061 6.782.206.1.052-.359.177.399.399-1.114-.13-.914.717-7.296-.07-3.007.32-1.633-.425-4.408-.762-2.795-.256-6-.365-.589-.976 2.008-1.088.434-2.7 5.978-1.557 2.297-2.184 4.386-.804 3.212-1.25 2.662-1.544 2.086-.044.699.246-.031-.346.521.275 1.947-.317-.318v.709l.26-.49-.077-.663-.284.133.17.889-.02-.437.447-.233-.368-.967-.885.325-.513-.945-.723-.136.257-.346-.317-.105-1.145 1.155-.335.86-1.356.874-.566-.236-.235.55-.996.566-1.122 1.392-.288.17-.18-.82-.304-.23-.077.64-.727.33-.516.81-1.262.22-.352.39-1.878-.48-1.05-.97-1.067-2.316-.312-1.575.028-1.971.155.173.472-1.005.14.529.01-.415.46-.382-.31-.382-.037.286.376.217-.178.534.566.485.115.493.31-.169.084.481.229-.21 1.634 1.113.3-.239 1.117.006.597-.81.277.208 1.288-.266 1.454-1.424 2.194-3.412 1.195-1.086.657-.099"/><path fill="none" stroke="#000" stroke-width="4.75" stroke-linecap="round" stroke-linejoin="round" d="m-75.116 975.44.853-.166.787.198.055-.41-.33.681.876 1.918 1.217 1.772 1.332 1.003.318-.16.239.69.348-.424-.168-1.074-.034.241-.468-.329.328-.221.133.189 1.272-1.67.75-2.093.357-.281.237-1.248 2.296-5.287 2.311-7.45.059-3.116-.32-.798.217-.567-.095-3.667.956-3.026.102.228.222-.128.733-3.589.393-.598.169.648.004-.436.405-.056-.07-.412.256.666 1.031-1.857.669-2.113.67-4.021.382-.46.158-1.211.222.723-.18.825-.21-.832.087-.343.004.287.238-.203.044-1.629.44-1.9 1.323-3.906.007-1.026.78-1.578.245.64-.489 2.231.239 1.535-.222 2.542.29 3.591 2.4 14.286 1.097 3.466.634.944.34 1.516.628.307 1.035-.892.01-2.092 1.198-2.714.814-3.078-.016-1.413.562-1.135 1.751-7.194-.013-1.367.658-2.704-.678-8.834-.329-1.446.19-8.557-.26-1.911 1.236-6.334.755-6.695.462-1.464 1.3-9.512 1.543-8.568 1.121-2.495.902-1.125M-20.15 879.757l.117 1.007.327-.609.1.445-.251-.202.243-.459-.16.271.328.433M-87.909 982.282l-.234-1.341.202-.232-.017.35.357-.119-.698 1.634-.088 2.692-1.011 1.633-.465.236.116.167-1.17.29-.448-.209-.074.306-.641.037-.743 1.256-.204-.317-.94-.024-.234-.498-.362.109-1.38.83-.68 1.47-.201-.242-1.117.07-1.035.526-.148.617.256-.314-.141-.359-.514-.236.42-1.134-.325-.432-.158-1.644-.505-1.308.13-5.341.088-1.979.86-4.433.018-2.486 1.123-9.368 2.819-15.46.291-5.649-.177-.71.666-4.194.126-3.867.617-3.394 2.172-8.408.798-1.543.287.043.647-2.047.18 1.219-.045-.96.37-.15.101-2.097.913-3.733-.1-1.967-.435-.714-.202.265.367.244-.07.694-.331-.132.235.049.07-.354.243.186.436-.194-.167-.168 1.406-.732-.06 1.388.559 3.705"/><path fill="none" stroke="#000" stroke-width="4.75" stroke-linecap="round" stroke-linejoin="round" d="m-97.683 898.223-.904.974.13-1.343-.693-2.835.12-.835.286-.014.117.372.08 13.981.4 3.807.559 2.08.328.254 1.4 4.365 2.27 1.689.979 1.955 2.321 1.695 1.153.326 1.021-.06 1.852-1.76.778-1.401 1.668-3.399 1.242-3.328 3.65-10.987.25-1.945-.669 1.205.085-.56.051.515-.13-.136.498-.466-.314.077.376.464 1.223.959 2.684 5.792 1.715 2.738 1.171.213.49-.732.97-.643 3.877-11.792 3.06-13.181.042-1.528 1.277-7.053 1.524-4.7.995-1.301.19-2.58.69-2.703-.019-3.642 1.225-4.791 1.229-3.271 2.008-4.158 1.108-1.351 1.684-.443 1.29-1.566 2.167-3.527.76-.656 2.727-6.563.787-2.63-.548 1.194M-38.682 831.259l-.694 1.707-.44 2.491.48-.106.307-.593.506.128.407-.4.021.193.234-.438.203.095-.256.517-.324-.051.11-.963.035.427.283.086-.237.693-.232-.365.28-.431.29.082-.171-.314-.235.299.45-.473.267-2.675"/><path fill="none" stroke="#000" stroke-width="4.75" stroke-linecap="round" stroke-linejoin="round" d="m-98.768 910.269-.63.219-1.428-.392-.88.451-.856-.583-.391-.682.564-2.222.394-.136-.121-.262-.213.706.17.667-.105-.385-.261.27.216.879.234-.119.212 2.298.65-1.045-.272-.43.508-1.227.082-2.279.33-.362.918-4.392.688-4.898 3.14-10.78.714-4.822.33-.223.352-1.399-.24-.519 1.096-1.728.611-3.02 4.626-9.715 1.678-2.805.909-.891.242.19.175-.485-.093-.162-.69.972.04-.833.01.307.355-.015-.222-.214-.082.199-.108-.453-.118-1.941.404-1.548-.23-3.748.43-1.634.549-.627-.09-2.897-.427-.138 1.773-5.625.746-3.588 1.64-4.221-.282-.033-.589 1.292.045.697.318-.718-.265-.242.231.005-.065.573.283-.493-.276-.169-.51 1.71-.334-.005.008.291-.705.616-1.161 3.489M-91.5 857.715l.17-.455.193.425-.038-1.293.085 1.257-.168-.539.301-1.421.695-.784.178-3.805.498-.757-.456-1.91-.43-.472.136-1.185-.802-2.871.434-5.807-.216-.974-.454.195.157-.267.3.292-.29.392.295-.702-.151-.995-.43-.588.428-1.328-.263.199.157.458.253-.088-.357-.127 1.75-4.111M-79.55 833.468l-.375.709-.52.104.23.085-.157-.262.373-.008.116-.288-.037-.939M243.557 883.123l.619.111.664-1.522-.835-3.295-.345-.076-.362-.707-.425.347-.894-2.998-.193.184-.568-.275-.221.535-.72-1.529M139.116 1035.25l-.964.08-.255-.33-.089-1.09.402-2.42-.065.27-.437-1.17-.002-.92.356.2-.395.89-.272-.21-.03-.7.219.31-.241.18-.17-.19-.077-1.5.234-1.9.103 1.12.114-.57.225.29-.108.4-.225-.03.157-1.05.218 1.19-.227 1.92.565 2.86.413 6.34.361 1.51-.004 4.66-.506-.92.111-.89-.336-.24-.098.29-.451-.45-.637-1.64-.558-2.22-.165-2.04M130.441 1012.13l-1.098-1.29-.321.17-.05-.5-.533-.66-.101-1.5.444-.76-.09-.29.02.38-.143-.23.241-.29.165.22.125 2.14.518.83 1.498 5.35 1.896 9.64M140.27 1022.8l-.601.07.35-.02.091.76.12-.25.083 5.55 1.435 18.55"/><path fill="none" stroke="#000" stroke-width="4.75" stroke-linecap="round" stroke-linejoin="round" d="m140.599 1028.8-.711-1-.702-3.41.09-3.25.245-.84.082.58-.239-.05.415 1.49-.241 3.54 1.216 16.04M130.164 1018.79l-.169-7.02-.044 3.21-.51 1.46-.193 2.09-1.018 20.75.028 10.83M121.106 1020.16l-.898-.56-.164.85-.25-.11-.034-1.06-.525-.61-.15-1.99.165.1.031-.83-.377-.82.165-1.61-.174-.08.041.57-.189.01.12 2.15-.788 5.62.171 9.43-.595 9.26.091 2.95M110.459 1017.47l-.914-1.5-.209.24-.564-2.24.39 1.6.179-.06.056 1.5-.192.76-.436.12-.089 1.73.869 5.23 1.004 10.62 1.686 10.69.802 8.2M99.308 1026.87l-.954.91-.197-.47-.125 1.53-.15-.37.407-1.08.279.66-.213.48.186.31.066-.24.141.75-.473 3.13-.169 8.49.396 7.86 1.32 12.81M92.841 1042.41l-.4-.29.053-.56.241.63-.094 1.21.173-.44.04.25-.189 1.22-.19-.01.062-.51-.704 2.21M87.992 982.871l.146-3.642.523.155-.214.863.384.68-.365 2.484 1.154 8.317.83 8.772.429 10.98 1.551 21.22M93.298 1048.69l.087-1.42.135-.12.15.36.317-.53.234.27.118 1.4-.234-.63.214.11-.2.57-.33-.25.304-.47-.249.08"/><path fill="none" stroke="#000" stroke-width="4.75" stroke-linecap="round" stroke-linejoin="round" d="m93.537 1008.09.204 1.45-1.06 3.44-.085 3.51-1.564 8.61M92.16 1044.37l-.641-.22.02-.36.045.51.215.02.015-.74-.105 1.76-.453-.66M86.254 1010.6l-.836.69.179.39-.4.56-.42 2.21 1.134 9.22.301 9.16M82.556 1044.56l-.713-1.93-.99-4.82-.563-4.92.157-.8-.232 1-.196-1.6-.236-.11-.027.25-.273-.25.423.14-.482 4.51-.018 14.21M66.392 989.519l-.275-.133-.17-.762.456-1.692-.26-3.714-.054 1.851-.365.059.109.281.058-.48.053.785.207-.039-.069 1.16-.346.081.34.095.038-.89.157.313-.309.706 1.15 10.102.517 7.408.927 7.09.269 7.54 1.435 10.83M69.035 1054.57l.988-1.28-.17.76.003-.7.003.57-.407.16.113.6.234-.76-.076.66M57.75 1041.25l-1.08.17.177.43.438-.19.201.3.15 1.75-.744 14.64M54.143 1045.67l.64 3.22.122 6.38-2.006 13.94-.764 2.68.248 1.5M51.416 1050.69l-1.24-3.24-.03-2.28M48.755 1052.26l-.306 1.95.266.21 1.013 5.53.63 7.01.036 3.23-.328 2.27M39.622 1041.99l-.113-.88-.482.49.106.48-.165-.32.299-.08.289-.73.408.91-.388.57.32.19-.318.41.103.66-.442 1.62M35.564 1037.42l-.468-.84-.622-.14 1.387-.99M46.908 990.882l.421-.989M49.832 983.236l.46.437-.03.931.055-1.099-.105.656-.217-.191.27.01.032-.662.082.542.172-.149-.173.813-.334.104.304.906-.279 3.227.064 5.181.332 2.256-.25 16.382.183 8.43M49.658 1032.31l.354-1.93.386-.03.264.45-.492.21.023.28.14-.81-.195-.24M26.081 1010.27v-.37l-.732-.61-.585-3.45.668-1.44.04.45-.21-.18.358.71-.35 1.31-.064 2.1.558 1.51 2.54 14.68.59 17.25M25.227 1056.93l-.043-2.34.099-.26.086.41.22-.12.04 1.44-.147 1.07-.444.14.03.6-.051-.27M16.784 1023.63l-.675-.07.487.02.64.99-.35 1.45.246 2.14-.165 10.08.182 1.78-.736 6.74M12.037 1019.88l-.937-.64.048-.29.06.49.162-.15.226 2.17-.3 2.72.155 4.14-.626 5.52-.33 7.6-.436 1.76M9.375 1018.5l-.338-.04.097-.78-.103.86-.324.02.316.25-.03 2.02-.295-.3-1.236 4.37-.276.13-.257.88-.452.19M6.646 1001l-1.758 1.49-.477.92-.023-.41.13-.13.451.96.368.17-.545 1.38M10.547 1017.98l-.39-1.22-.063.4-.448.09-.13-.55.172-1.56-.23-.15.522-.01-.392.31.248.71.002-.5-.26.24M77.896 1049.24l.12.18.102-.39.158-2.45-.14-.17.005.47-.285-.06.28.09.02-.32.131.32-.469.82.364.49-.045.5-.327.02.346.61-.23 2.05.575 5.84.086 7.68-.122 5.33-.677 4.62-.024 1.62.27.6-.424.68-.109 1.28.146 1.63-.32 3.24.28 3.39-.186.98.35 2.02-.232.14.11-.45-.057.27.24-.06-.367.07.028.95.212-.93-.402 3.76M87.714 1046.79l-.363.29.251.4-.007 1.87-.502 2.91.066 2.38-.68 3.72.16 2.47-.26 3.59.36 10.13-.235 1.64.719 4.54-.445 3.7.486 2.47-.257.5.165 1 .25-1.65-.099-.49-.052.31-.321-.38.273.37-.14.27.347-.58.004.38.211-.25.579-2.15-.185-2.14.441-5.47-.973-14.79.407-3.45.407-.29.113-1.17M99.1 1047.28l.571 1.21.277-.71.646-.1-.107-.35.352-.12.145-.98.87 2.01-.517 2.34.332.48.325 3.07 1.289 4.67.412 6.11-.14 3.18M114.662 1048.39l.084-.22-.496.03.522-.54.814-.03-.283 1.43M120.916 1054.4v-.24l.609.57-.43.67.076-.22.359.19-.225-.16M163.018 1038.61l-.175-1.53.202-.53.934-.47M119.252 915.549l-.001.006M118.428 934.362l.741.053M121.535 920.466l-.377-2.572-.019-2.612-1.357-6.08.262-2.867.332-.378-.185-.178.263-.152.414 1.417-.115 1.575-.353.521-.424 2.396.584 6.329-.177 5.326.82 7.514.026 7.822 2.192 22.872-.025 6.43-.168.37-.281-1.527.442-2.471M131.37 909.943l-1.226.604.142.34-.309.084-.013.404.221-1.234-.235-1.022-.734-1.868-.362-.29.218-.71-.264.548.318.652-.25.31.241-.098-.004-.468.129.158.042 2.315 1.444 9.1.688 8.431-.295 7.057.184.777-1.002 4.548-.5 5.874.271 4.296-.686 5.289"/><path fill="none" stroke="#000" stroke-width="4.75" stroke-linecap="round" stroke-linejoin="round" d="m125.573 945.267-1-1.304-.106.417-.237-.481-.125.315.349-.641-.188-.268.336-1.272-.164-.702.608-3.395-.003-2.508-.303-.977.183-.675.202.386-.297.519-.388 3.295-.902 2.888.108.84.099-1.013.77-1.901-.435-.884.238-.278.032-2.758-.792-5.421-.482-.301-.242 2.644-.494.977-.009.674-.273.212-.037-.287.218.924-.727 1.841-.266.31.035-.622.012.245.3.019.116.84.028-1.253.557-1.417.222.052.601-3.262 2.646-8.034.896-2.199.998-1.249M137.318 909.074l-.626-1.528-.199-1.718-.309.298-.017-.322-.028.514.371.168-.184-.071-.166.849.3 1.206-.395 1.287.443 2.267.656 12.691.815 9.008.401 6.95-.124 3.617 1.092 8.953.041 2.973.208.041.085-.902.317-.409-.197-.952M143.678 919.863l-.892-2.32.185.855.153-.68.146 1.031-.267 2.839 1.131 13.376.598 3.172M152.368 940.889l-.383.057-.359.71.383-.808-.318-.322-.105-.969.149.793.416-.193-.131-.328.077.979.273-.112-.475.392M158.01 944.825l-.845 1.414-.201 1.083M152.306 880.042l-.357-1.254-.599-.215.322.316.073-.685.168 1.121.273.11-.18.166.094-.357-.234.606.39 3.069-.136 2.506 1.013 14.263 1.729 12.581.85 9.084.338 13.153-.49 3.23.231.512.131 4.347.163.376.325-.402.524 5.848-.251.819-.044.682.187-.062-.197.158-.268-1.04M158.543 963.691l-.109.779-.276-.099.087-.461.151.548.216-.392.173.308-.249.088M161.355 922.864l.465.406.366-.762-.42-1.577-.108.919"/><path fill="none" stroke="#000" stroke-width="4.75" stroke-linecap="round" stroke-linejoin="round" d="m160.93 910.377-.34-.165-.402-1.407.219-4.567-.211-3.548-1.086 1.493-.225-.494-.23.235-.138-.327-.336-1.654-.38-2.588.232-4.639.267-.591.059.843.173-.079-.215 1.923-.66 1.494.293 1.833-.079 3.873.376 4.457-.183 9.948.245 1.872-.437 6.973.081 4.278.328 1.4-.066 4.417 1.633 9.294 3.577 12.24M164.413 955.548l-.326-1.785.31-1.703.144-.264.11.403-.171-.292.271-.451.096-3.225M173.87 919.822l-.059.904-.369-.278.29.002.113.775.426-.54.244.52.147-.159 1.056 1.173M82.707 887.684l-.363-2.423.39-1.877-.303 1.1.095 2.952.425.512.13.853v9.894l.278 7.341.471 3.816-.233 1.783M107.12 877.694l-.746.4-.401.633.825-.396.374-.838-.182.056.298.038.023.759-.083-.388-.298.637.23 2.737-.69 5.289-.099 7.554-1.65 29.75.198 16.047.661 7.507-.117 3.879-.669 4.129.291.931-.652 1.418-.268-.353.108-.985.306-.167-.04 1.025.073-.334.165.096-.043.394-.137-.256.262-.482-.299.26.662.049-.041.747M104.485 976.721l-.273.369-.289-.045-.028-.305.079.345M26.501 873.591l.048-.631-.1.193.241.075-.963.545-.635 1.195-.02-.539.066.308-.697.711-.02-.674-.019 1.257-.25.262.162 1.534-.523 2.425.213 2.119-.25 2.808 1.437 17.496.155 5.177.977 12.25.116.363.153-.442.271.452-.662-.678.14-1.086.272.306-.13 1.583-.034-.23-.165.279.12-.468.288.474-.39.676.067.431-.297-.174.284-.395.011.842-.084-1.074.392.885-.297 2.461-.369.826-.027 2.084.256.598-.689 2.838M14.052 916.566l-.063.667.612 1.738-.284 1.837.564 7.208-.873 4.398.071 1.726-1.275 4.542-.145 4.549-.655 3.74.235.865-.164-1.012.496-.779-.21-.552.682-2.234M2.958 864.881l.505.01-.109.312-.657-.248-.336-.92-.271-3.123.268-1.392-.217 1.005.2.24.012-.35.213.925-.275 1.106-.311.004.302-.775-.04.381.28.217-.097 2.08.411 1.186.328 4.312.08 9.471-1.478 12.862-.157 4.333.294 1.677-.189 5.168 1.288 7.768-.064 3.496-.18 2.871-.264.648.163.56-1.102 2.637.28 1.146-.356 1.265.242.526-.218 1.04.264.697-.245 1.573.197 1.694.037-1.26-.112.401-.239-.136-.393-1.584M-4.299 879.665l-1.18.773-.097-.402.352.065.118.702-.036-.717-.462 2.309-1.01 1.411-.005.685-.138-.418.292.545-.159-.275.487-1.335M-8.21 875.74l.013-1.057-.143.399-.711.08-.363-2.671-.729-.832-.484-2.391M-22.11 852.991l-1.126-2.995-.426-2.115.107-3.876.523-2.733.192-3.931.345-2.972.374-.069-.555 1.648.11 1.265-.176.653-.246-.106-.19 7.525.475 4.451-.106 5.074-.3 1.1.132 5.06-.368 5.269-.4 1.706 1.308 4.203.922 6.413.39.749.005 1.325-.421 5.3-1.213 2.614-.226-.268.23-.117.078-1.759.445.063-.323.002M-17.932 856.353l.05-4.238-.067 2.73-.273.141 1.248 2.661.273-4.647 1.244-4.629.389-.632.8-5.799-.083-4.183-.623-3.038-.362-.135-.743.872-.325 1.037-1.087 1.007"/><path fill="none" stroke="#000" stroke-width="4.75" stroke-linecap="round" stroke-linejoin="round" d="m-19.725 845.598.506-.396.132-.731.305.108.357-.526 1.417-6.021.284-2.73 1.602-3.625.331-4.206.518-1.024-.29-.578-.172.168-.357-1.015-.304-1.244.186-.276-.355-.283-.28.557.03-.477-.598-.481-.806-5.323-.013-5.307 1.07-14.093-.198-4.259 1.01-6.352 1.154-12.571.985-5.011-.745 2.335.237.157-.153.676.13-.385-.328-.244.137-.804.245.282-.377.287.124-.793.112.76M-7.818 829.306l-.202-1.852 1.452-7.309 1.693-5.452.654-4.074.234-5.541.01-5.913-.817-8.206-.497-1.394-.771-.763-.59-1.379-.95-.924-.122-1.136.292-.209-.194-.22-.065.733.038-.312-.313-.206.15-.93.264.582M-3.616 830.026l.42.208.012.714-.205-.179.118-.267.23.231-.265 1.007M182.807 745.984l-.247.523-.332-.643.212-4.6.325-.623.569.682.061 1.687.233.225-.245.194.101.826.031-1.357.122 1.223-.15-.327.297.155.149-.787 1.948 10.148.147 6.256M191.748 726.802l.783.052.562.951.298-.7.605 8.197 1.261 10.888.178 5.294M199.318 716.191l.467-1.965.471-.185-.658 1.535-.224-.095.048-.925-.275 1.057.177-.887.15.961-.375 2.122.405 15.617.747 8.432 1.349 7.357M205.53 713.192l-.084.365.086-.86.533 1.53-.25.936.23.245-.003-.325.312.489.085-.251M235.63 743.718l-.446 4.487.066-.785.289.889.096-.239.547.116.512.571M231.7 720.141l-.584.51-.579 1.881-.788 5.004.886 4.924 1.692 5.629 1.746 11.095 1.146 5.063 2.589 22.384-.055 5.495-.441 1.273-.386.348-.338-.36.112.93-.351 1.662-.452.805-.038-.299.321.284-.241.302-.008-.511M241.622 758.705l-.524-3.207.134-1.99.095.402-.03-.262.251.265-.031-.395.107.276-.061 2.714-.883 2.049-.785 6.353"/><path fill="none" stroke="#000" stroke-width="4.75" stroke-linecap="round" stroke-linejoin="round" d="m240.507 759.396-.296-3.907.136-2.289 1.438-3.534M246.573 723.29l-.357.392-.679.007-.668.695-.071 1.162.115-.339.176-.114.158.291.234-.399M50.743 722.372l-.359-2.169-.291-.162-.144.38.451.523.014-.277-.375.287-.033-.665-.128.395-.313-.081-.307.758.165 1.258-.373 2.838-.151 6.363.334 2.025-.05 5.805.37 8.462.964 13.762.393.44-.124.161.18-.462.174.812.33-.337-.189.01-.001-1.023-.23.809.38.806-.058-.174-.171.33.173.794.276.216.11-.354-.37-.955-.298.17.186-.282.012.467.17-.518-.068-1.489-.23.319.424-.923.1-2.257"/><path fill="none" stroke="#000" stroke-width="4.75" stroke-linecap="round" stroke-linejoin="round" d="m50.614 724.295-.564-2.466-.486-.799.587 2.175-.072-.786.197.676.16-.683-.404-1.755.026-2.017-.172 1.741.329.634-.212.46 1.298 5.727-.01 1.191.726 2.653.373 3.094.762 1.988.706 6.491.722 3.729 1.04 2.759-.056-.644.377-.398-.374-.365-.119-.907-.422-.374-.1-.995.35-1.745-.366-4.431.737-2.428-.426-4.914.327-2.582-.371-2.19M62.135 713.409l-1.121-.034.073-.827-.006.455-.224.046.451.1.215-.345-.094.693-.434-1.093"/><path fill="none" stroke="#000" stroke-width="4.75" stroke-linecap="round" stroke-linejoin="round" d="m60.576 697.998-.371.302-.261-.48.24.298.325-.208.275-1.063.187.844.167-.139.104.225.583 2.995.278 4.489.405 1.255-.322 2.384.342 3.762.59 2.892-.146 2.394.533 7.625.006 15.164-.442 7.54.388 6.462.422.789-.275.909.26 1.122.144-.337.146.397-.245.585.342 2.443-.027 2.447.29.598-.153 1.433.259 1.234.395-.262-.134-2.297.252.035-.18-.527 1.416-14.241M66.37 721.514l-.3 1.504-.162.405-.18-.196.114-.689-.546-1.452-.546-3.548.192-.965.429 1.643-.15 2.561.144-.68.567 2.572.498.158M68.37 713.472l.559.468.05-.547.088-.156.109.239M77.994 727.063l-.167-.545.25-.009.062-.931.38.769-.445 1.143.363.343M83.178 748.876l-.448.983-1.003-.527-.943-3.334-.654-3.841.56-3.471.271-.579.333.484.36 1.966-.207 1.515 1.111 4.922.298 7.967.228 2.851.415 1.428-.16 5.803.548 6.108-.254 2.515.084 3.902.53 5.015.52 2.178.434 6.625.84 5.187.422 4.842-.046 10.168.292 2.881.45 2.409.171-.052-.123 1.08.32 1.078.22-.114-.187.318-.04-.658-.263.218.15.733-.243.122.26-.048-.041-.348.16.385-.24-.222.265-.329-.21-.844-.386-.189.55-.994.312-3.536M91.92 770.587l-.107.488-.123-.419.14.797-.462-.023.008.381M96.836 764.66l-1.87-1.027.192-.186.031.289.216-.301.077-.664-.058.559.197-.091.115.614.071-.23.057-1.918-.237-.762.248-1.931M98.41 725.723l-.675-3.394.113.267.216-.108.124.674-.163 2.318.307.177-.535.076.438.948-.066 6.824 1.989 21.604-.009 2.037.765 5.121.09 2.805-.427.659.245.283-.026 1.294.175-.606-.141-.771-.261-.149.586-1.451-.553-2.855.322-3.153M100.795 705.482l-.133.46.249.029-.225-.683.345.039-.565-.721-.347-1.733.176-.716-.525-1.78.255-.104.146.549.283.106.149 2.622.205-.066.086.339 1.204 5.862 1.548 4.211-.079.588.986 4.291M110.31 722.239l.195-4.434.392-.125.085-.524-.196 2.284.053.528.095-.605.091.252-.24.974.185.131.114-.424 1.363 8.963 1.005 12.16M118.748 781.707l-.276-.03.195.004-.076-.35M117.843 732.305l-.277-.952.534.875.119.962-.198 1.999.515 7.141-.15.813.788 3.865 1.235 24.224 1.405 11.392.348 10.577-.348 5.515-.506 1.842-.056.714.187-.175-.259-.019-.022-.758.084.5.37-.327-.227-.489-.122.521.21 3.742-.131.577-.217-.051.004-.606.158-.155-.02.342.19-.102-.126-.58-.183.307.152 1.735.115-.368-.448 1.265.214 1.783M126.964 779.084l-.088-.624-.232.175.223-.025.084.749.132-.636-.204.273.447.398-.148.2-.3-.237M129.251 758.556l-.349 3.022.643-.438.046-.835M136.519 737.737l.138-7.531.218 1.649-.185 2.585.041.636.259.115-.27.31-.069 1.931.77 9.993.651 18.925.96 4.54 1.59 4.927M137.194 791.133l.09-1.308.088.854.355-.289-.051 1.127M137.803 812.889l.333 1.214.483-.625-.225-.482.459-.09-.187-.056-.015.833.334-.634-.024-1.45M188.731 830.146l.774-1.766-.236.005.066 1.537-.071-.756-.279 1.167.302-1.114-.222.011.008-.322.143 1.295-.693 2.661-.573 7.804.217 2.71-.095 5.856.638 6.547-.18 1.536.211 13.625-.269 5.156.286 2.495-.348.78.067 1.345.32-.456.007-1.121-.187 1.899.498 2.031.245-2.045.533-.598.001-3.296.626-5.827-.283-25.958.185-5.445-.189-2.186-.634-.659-.146-.992 1.345-9.578.2.899.261.024-.525 1.537M176.768 852.618l-.322.283-.23-.115-.07-.619.098-.498.082.403.437.098.212.845-.35.742.025 1.353.176-.084-.181-.771-.15.828-.069 3.772.257 1.066-.197 5.938.259 4.704.956 5.547-.216-.161.194-.354-.371-1.338-.54-.511.149-.964-.577-3.51-.631-1.457-.687-5.462M203.184 917.289l-.162-.853-.344-.204-.098.954.091.336.111-.449-.245.105.162-.627.188.426-.114 1.775 1.251 11.791M226.445 947.512l.326 1.062-.209.748.254-.148-.534 8.982-.111 8.034.344 3.796.738 4.048 1.107 2.835 1.159 5.348-.042 1.232-.332.35-.583-.791.001.481.215-1.019.12 1.157-.22-.005-.068-.825-.41.704.058.426.292-.163-.115-.633-.135.387.266.049-.146-1.275M236.515 931.406l-.662 1.737.326 1.229-.5 1.645-.201 3.262-.141.215-.245-.845-.052.776M193.46 957.502l.316.173.121 1.017-.429 8.131.151 2.851-.221.49.09 1.141.189-.16-.102.214.02-.501-.199.068.185.362.245-.194.008-.686M175.065 957.33l-2.287-19.55-.177-.259-.23.482-.154-.313-.395.644.26 4.692-.243.64.068-.554-.234.585-.136-.295-.24.217-.258 2.28.29 13.608.44 6.064.386 1.525.455 10.997.587 4.568-.326 4.36M172.967 1003.94l-.293.17-.238-.3.431-.17-.205-.02.079.26.262-.74.409-.04-.109.33-.182-.26.17-2.15-.466-7.622M161.2 1005.52l-.587-.36-.525.05-.415-.96-.137.21-.217-.32-.082-1.7-.901-4.646-.132-3.597-1.317-4.631-.457-.619-.457-2.55"/><path fill="none" stroke="#000" stroke-width="4.75" stroke-linecap="round" stroke-linejoin="round" d="m156.309 985.94-.659 2.689-.409.245.258-.055.028.571.382-1.925M153.961 1012.12l-1.23 2.72.147 1.48.341-2.47.107-5.19-.41-1.76.281-.85.331-6.399-.195-1.072"/><path fill="none" stroke="#000" stroke-width="4.75" stroke-linecap="round" stroke-linejoin="round" d="m153.674 984.919-.054.701-.267-.767-.22.537.623 1.21-.286 1.969.168 4.465-.275 1.489-.005 4.006.507 10.921-.427 2.47.081 4.69-.207 3.47-.315.98.121 1.5-.253.76-.075 3.72.273 2.12-.753 6.31.377 3.38M149.33 1040.57l-.615.52-.128-.5-.777-.23.067-.8M141.839 1012.63l-1.064-2.96-.224-3.18-.199.12-.963-4.05-.761-9.65.378-2.482.006 1.238-.153-.151-.175.343.036-1.168-1.062-.659-.416-2.281M137.938 983.809l-.334-2.501.241 1.305-.018 3.529M138.471 1002.5l-.815-2.6.42.3-.39.09-.199.74-.01-.4-.37-.08M133.422 985.191l-.676-.38-.802-.047-2.084 1.659-.344-.207.199-.971.276.13M90.704 951.209l-.017-.964-.397-.6.42-.741.321.723-.113 1.133-.254.192.176.567-.229 1.755-.192-.171.109-.333.144 1.056.226 6.561-.298 13.344.113 2.386.36 1.149-.134 1.515-.02-1.714.465-.358-.401-.378-.066.465-.525-2.991-1.636-4.745-1.969-10.765-.633-6.382-.036-7.176-.063.288-.138-.265-.073.742-.694-1.273-.21.211-.402-1.132-.11-1.704-.207-.723-.14.401.068-.581-.426-1.116-.056-1.285M82.363 937.089l-.083.835.333.745-.964 2.806-.769 8.873.083 3.058-.22 1.266.357 2.051.231 5.128-.669 3.817M74.307 937.39l-.892-.956-.736-1.437-1.39-4.387.685.903.01 1.429.07-.591.275.484-.168 1.511-.342-1.265.012.986 1.497 15.831M75.985 974.115l-1.043-2.105-.185-2.302M62.578 906.827l-.026-4.367-.252.644.3-.004-.002 1.433-.288.316.43.404v-1.627l.333-1.256-.241-.808.346.494-.375 1.77-.155 3.309.19 3.214.663 1.377-.23.788-.087 4.403.752 6.897-.063 7.263.798 6.868.18 7.064 1.679 9.997.244 5.428.543 4.26-.195.769.148.283.096-.604.134.707-.167.547.31 2.58-.229 3.35-.18.703-.096-.415-.078.208-.259-1.754M54.061 938.717l-.35.697-.126-.281-.232.321-.048 1.07.036-.43.247.276-.109 3.042.262 1.774-.262.854-.299 5.445.07 7.307-.293.784.42 2.058.255.053-.058-.218.053.31M50.527 935.386l-1.038-3.452.505 2.948.03-.62.236.681-.173.491-.306.017.247-.178.253 2.121.025 4.897-.097 7.123-.45 4.869M46.935 935.243l-.362-.055-.912-1.328-.709-1.875-.453-.418-.693-3.147-.285-5.752.729-2.92.473-.905.236-.131.163.968-.199 2.034M42.122 912.318l-.53 1.807-.3.192.201.033.438-1.982-.176-.928-.678-.389-.242 1.652-.28-.096-.114.223.155 1.148-.567 2.147-.757 1.163.08 4.364.592 1.443-.543 6.203-2.446 15.686-.465 1.008.295 4.463-.488 4.552 1.06 3.403.417 6.817.624 3.974.09 3.517-.122 3.741-.339 1.531.04 2.703-.3.796-.266-.065.185-.365-.275-.51-.254 1.219-.043-.724-.357.7-.489.346-.38-.176M24.36 961.654l-.209-1.048-.319.098-.793 1.385-.332.033-.666 3.213.277 5.595-.346.207.008.396.383.231.02 1.62M21.606 952.499l-.906-3.233-.073.512-.622-.196-.156.525-.516-.51-.024-.971-.005.286.425-.045-.081.786-.16-.109.671.033M23.145 935.401l-.992.129-2.227 1.594-.483.553.138.71M12.847 959.761l-.593-.473-.026-.578.238.373M17.916 974.103l-.372-.614.77-1.465.072-.861.122-.229.094.338.12-.334.317.168-.689 4.161.243 1.167M7.745 965.455h0M-3.498 935.323l-.525 2.278-.313-.121.07-.277.426.318-.526-.209.323-.551.196.376-.293.092-.417 1.006-.358 2.299-.007 7.968.712 3.238.41 3.931-.136 1.611 1.19 6.407.845 13.921-.432 4.855.087 2.481-.394.309-.043-1.146-.13-.166-.156.197.47-.623-.532-1.876-.173.179-.155-.313-.036-1.385-.758-1.882-1.05-5.502-.293-3.413.255-5.121-.173-1.609M-4.74 933.817l-.194-1.784-.852-1.66-1.936-.692-.64-.512-1.015.488-1.36 1.303.558.108.596.859.255-.238-.393.765-.172 1.339-.291.262-.427 4.679-.99 18.549-1.305 13.867-.173 13.79-.636 5.05-.23.886-.094-.409.231.428-.205-.065-.143.36.288-.055-.842 2.449M-21.026 920.795l-.808-.588.904.77-.695 2.854-.097 5.202-.407 3.768-.434.274M-20.59 898.523l-.194-1.321-.058 1.03-.375.513.124.703-.563 1.283.145.218.276-.491M-20.165 878.845l.669-1.452v-1.087M-11.5 904.386l-.745-.431-.314-1.351.107.519-.533.231-.284-.251.017-1.094-.49-1.166.22-.465.296.233-.03 1.273-.204.115.197.109-.724 2.418.442 9.558-.144 7.422-.995 11.051.017 2.976-1.255 6.334M-24.639 955.379l-.384-3.576.19-2.145.302-.424M-31.936 1020.07l-1.084-.7-1.05-2.49-.114-8.25.293-2.31.388-.86-.3-.35.142-1.63-.685-4.815-.003-7.401-.545-6.935M-33.417 917.644l-.527.081-.096.314.448-1.93-.242-.641.232-.789-.231-.122-.17.383.334 1.172-1.213 3.639-1.179 13.778-.803 3.402-.821 9.152-.023 2.874-1.806 12.91-.386 1.029-.166 2.094-2.044 10.885-.31 4.28-.334 2.585-.142.475-.038-.566.22 1.573.179-.529-.225-.701.074.978-.088-.733-.41 1.242.196.733-.4 2.812M-49.084 1000.39l-.178-.28-.077.22M-55.972 978.784l.109 3.021-.913 1.937M-58.81 961.243l-.706-.461.046-.225.35.165-.145-.156.18.657.36.04.232 1.744.338.63.212-.288.553.258M-39.166 826.015l-.991 2.034.001-.313.644-.508.601-3.039.136 1.262-.249 1.594.249.539-.452 1.834.531 10.49-.164 10.871.291 10.591-.355 8.909M-53.183 895.719l.267.024.12-.642.462-.369-.198-1.361.478-8.276 1.048-3.204M248.348 799.87l-.43-2.741.042.989.446-1.45.167.281-.058 1.335-.174-.212.112-.386.133.157-.008-.899-.579-2.499-.597-1.007-.454-3.799-.202-8.005-.194.065.019-.295-.187.977-.241-.187.161.158.054-.295.123.276-.162.485-.659-.169-2.955-5.898-1.12-4.683-.286.109.012.35-.144-.257.01.407-.103-.581.108.448-.657-.256-.605-.546-.452-1.102-1.14-.793-.61-.051-.186-.645-.505-.372-.383-.119-.072.324-.056-1.45-.508-.765-.776-3.68-.437-.467-1.643-4.428M231.198 741.206l-1.002-.723-2.217-2.431-.573-1.68-.615-.504M58.003 650.54l-.094.51.334.838.061-.295M-85.994 842.632l.847-2.04 1.58-8.634.662-7.225.857-5.691 1.63-7.157.395.259-.919 3.554.315.522.416 7.598-.2 3.563.078.208.128-.426-.106-1.77.472-1.535-.028-4.171.66-11.597.29.181-.266 1.513-.278-.024.244.799-.27.891.351.602-.258 1.304.655 5.152-.353 13.407-.52 5.017.134.619.845-.167-.259-1.413.805-1.759M-70.383 797.879l1.088-6.117-.23-1.965.447-.642.626-2.705.203.146.547-.309-.05-.418-.12 2.386-.221-.011.353.122-.312.607-.134 1.541.114 4.33-1.241 13.844.086 2.864-1.734 9.618-.167 2.889-.47 2.298-.32 5.907-.47 1.551-.09 2.835.698 1.51.378-.421-.278-.264.174-2.317M-57.696 779.427l-.652-1.655-.294-2.384.491 2.195-.286 1.172.322.492-.474 1.329-.099-.339-.357.344-.216 5.066-1.995 8.934-1.193 15.526-.515 2.815-.123 12.034M-57.129 801.087l.927-6.232 1.02-4.061.77-10.768-.219-.643.434-1.136.135-2.252.366-.98.326-.519.15.11-.22.006.125-.808.102 1.853M-48.092 802.958l-.752-2.551.197-1.481 2.59-10.917 1.062-1.864.336-1.171.19.075-.145-.558.381-1.401-.2.653-.625-1.505M-38.878 773.781l-.57 1.001-.286-.367-.687.169.268-.03.1-.938.568 1.112.102-.502-.313-.369.559-1.297.365.046 2.071-1.876M-21.348 769.872l-.047.22.134-.191-.405.11.64.149.491-.431 4.05-4.42 2.296-1.832 1.603-2.472.845-2.232M-6.298 745.658l.103-.158.313.567.144-.209.108.33.143-.174-.026.243.524-.891-.257.346.935 1.607M-20.266 774.252l-.096.219-.328-.313.324.405-.183-.273M-80.783 868.271l-.225 2.094-.769 2.249-.254-.156.125-.846.576-.362.359-1.457.097 2.114-.14-.456-.247.053.113 1.031-.992 4.497-.63 8.236-1.476 7.273-.045 3.065-1.499 8.983-.437 4.215-1.52 6.011.016 1.25-.6 3.055-.459.866.277 2.812-.315.253.257.554.384-.425-.563-.327.097.397.363-.367-.329-.498.532-1.124-.115-1.435.401-2.247M-76.618 875.103l-.42-2.462.821-7.154.477-.706.364.118.559 2.019-.493 1.229.057 1.427-.313 1.114.172 8.947-.357 9.027-1.145 8.3-1.834 8.42.081.571.054-1.467.165.867.02-1.32.465-.421-.195-1.482 1.45-4.044M-49.473 834.302l-.187-1.017.522.49-.639 2.535.232.216-.357 3.284-.96 3.8M-82.915 926.079l-.895-4.867.817-2.888.698-1.374.35 2.703-.647 4.356.18.824-.331 6.368-.552 4.113-.761 1.746-1.057 8.296.234 1.623-.126 1.819.411 2.376.532-1.743.054-1.807.575-2.267 1.965-4.919.565-5.618.498-1.973.612-2.376 1.1-2.366 1.416-5.812.966-1.355.702-.37-.104-.371-.54 1.378.202.703-.273 1.157.094.152.136-.266.37.56.285 1.187.596.696-.168 2.332.586 2.803-.333.551.127.549.13-.148-.03-1.183.736-1.724M-60.386 882.48l-.292.826-.358-.214-.106.369.017-.67.22.792-.11 1.1-.157-.311.25-.394.507.234-.342.273.45.802-.033 3.08 2.287-6.609.555-.755 2.652-6.256M-52.497 866.076l1.125-3.914-.456-1.585-.004-1.142.181-.625.095.306.134-.261.015 1.74.196.211.084-.593.249.943-.618 1.963.072 6.601-2.664 15.571-.063 2.298-1.535 7.439-.642 8.876-.995 7.398.404 5.642.382 1.094-.217 1.575-.453.976-.273 4.306-1.18 2.3-.116.984.113-4.684.84-7.974"/><path fill="none" stroke="#000" stroke-width="4.75" stroke-linecap="round" stroke-linejoin="round" d="m-48.062 852.529-.66-.779.312-1.081.37-.035-.089.567.161-.477.24.237-.34 8.121-1.409 13.062-1.153 7.86-.666 2.032-.372 3.409.004 1.874-.6 4.55.44 2.263.565 1.898 1.276-1.188 2.354-9.941.532-4.753.653-11.982.696-6.201-.104-2.085.408-1.835.203.398-.222 1.045-.329.148.182-.263.286.086.92-6.06.405.481-.202.85.275.803-.099 1.948.87 4.247-.255 7.913.268 6.516M-38.294 858.657l.066-2.701.642 2.886-.107.653M-36.334 898.759l-.25 1.235-.188-.621.389-.37.103-1.001.398.194.049.646-.262-.246.306-.507.285.259-.448.637-.174 1.027M-70.646 919.259l-.34-1.944-.072-4.331-.394-1.632-.285-5.46.16-1.202.447.595-.267 2.266.232 1.27.365.405-.156.712-.243-.128.054.173.403-.222-.286-.276-.32.222.473 1.678-.212 2.549.768 5.072-.282 3.958M-73.904 914.081l-.407-.695-.003-.674.38-.371-.277-.827.145 2.364-.272 2.089-.284.246.192.737-1.736 9.285M-76.617 923.288l.052-.346-.81-.925.189.474.37-.324-.002.553.069-.342M-61.388 955.873l-.32.001-.576.645-.813-.756-.114-.489.592-.76M-61.601 951.95l-.21.639.18 1.297-.001-.663.438-.566-.643-2.369.055-1.992.37-1.609-.324-7.424.347-4.187.67-3.589-.118 6.944-1.462 4.006-.65 5.305-.567.829-.84 6.395-.258.373.879-3.269"/><path fill="none" stroke="#000" stroke-width="4.75" stroke-linecap="round" stroke-linejoin="round" d="m-60.895 934.591.1-1.269-.371.722M-87.946 960.651l-.23-.736-.097.702-.393.422.822 1.681-.182.156.37 1.403.382 4.27-.17 5.767.54 6.061.03 3.733-.334 1.736.775 6.397.093 3.217.333.722-.203-.275.228-.626-.305.094.244-.264.19 3.29.18-4.374 1.578-3.756M-69.33 954.462l-1.43.498-.184.506.053-.517.132 1.142.497.064-.23.061-.055 1.266.267.47-.796 2.624.013 3.1-1.163 3.393.06 3.603-.132 2.651-.435 1.349-.142 6.569-.501 4.344-.906 4.048.043 3.747-.381.664.203 1.342.192.017.173-.388-.318-.133.371-.372-.234-.358.205.006-.025.351.099-.598-.224 3.948.284.564-1.126 4.297-.24 2.95-.569 2.54.285 2.6.52 1.27-.123 4.53.196-1.02-.293-.37.257-.18.079.19 1.261-3.7 1.133-1.34.51-3.81.785-2.61 1.954-10.106 1.662-6.157 1.294-2.93 1.188-6.691.449-1.174.222.115.99-.886-.188.138-.041-.487-.602 1.209-.08-2.724 2.085-8.795.04-1.787 1.066-4.397.49-3.513-.236 1.269-.543.565.187.883.494-.245.083-1.086-.024.257-.239-.088.029.641.238-.267M-55.446 948.381l-.186.495-.235-.772.171-.686.706.162M-54.535 968.842l.332-5.097-.302-.493.18-.108.22 1.793-.061 1.911.496.14-.47.451.24 3.352-.148 10.49.2 2.336.549 1.002.022-.387M-49.365 957.504l-.623-.999-.2-1.641-.398-.319.397.973.304.046-.13-.282-.267.213M-48.5 975.71l-.44.214-.14.821.278-1.443.22.912.174-.622-.063.476M-32.754 1030.36l.467.49-.29.22.881.3.113 1.02.001-1.17-.036 1.31.363-.06.224.37.207 1.46.014 1.62 1.434 9.47.42 7.73.434 1.03-.187 1.35.237 6.79.3 1-.128 3.27.24 2.85.588 1.84-.117-.44-.365-.06.16.4.321-.01-.074-.24-.126.3.466 1.47-.043-.37.303.03-.187-.78.313-2.24.209-6.73.925-8.03.823-3.87.877-8.44.638-3.37.578-.57-.328-.39-.566.98.05 1.39.263.19-.073-.43.063.23-.466.01.699-.46.196.56-.09-.23-.327.15.256.63.1-1.15v.32l-.355.05.144.42.308-.41.002-2.17.735-1.73 1.174-4.32.82-13.21-.31-2.81-.244.26.19.27-.31 1.62.145-.74.204 1.32.226-1.15-.151.9.108.25-.094-.22.384.08-.26-.22-.294.39.244.75.208-1.95-.287 1.16.188-.36.726 5.71.445 12.64.904 8.67.348 6.59.197 8.21-.272 5.13.182.83.226-.39-.07-.53-.165.1-.03.33.327.01-.26-.06-.337 1.28.423 3.04-.253 3.46-.46 1.42-.19 3.43-.053-1.47.067.67h.225l.065-.84-.383.62.275-.01.352 1.12.516.63.14-.19-.05.91.455.52.578-.04-.25-.56.408-.82.542-.36.014-.51 1.248-2.02 1.309-4.64.647-3.47.593-7.08.969-3.93.766-1.41.307-1.58-.305 2.08.322.42-.443.7h.326l1.002 2 .895 3.67.762 6.74-.153 4.53.25-.36-.306-2.42.305-.6.972-11.71-.586-2.35"/><path fill="none" stroke="#000" stroke-width="4.75" stroke-linecap="round" stroke-linejoin="round" d="m-21.967 1034.05-.253-.19.434-.14-.048.34.158-.54.077.58M-15.728 1033.51l.768-.68.108.32M-35.467 983.041l-.429.686-.07.817-.004-1.145-.457-1.076.58.046v1.512l.28-.079-.197.443.035-.598-.005 1.667.528 3.458.121 4.111-.212.746.765 5.515.643 2.636.6 1.03.883 3.35-.072.58.736 1 .506 1.88M-31.335 967.926l.699-.04.265-.283.101-1.288.16.182-.428.617.372.362-.17.766-.365.331.25 1.208.457.621.105 1.99M-6.589 988.865l-.409.212M-12.607 1003.98l-.942-2.55-1.059-.95.244-.29-.377-.688-.58-.379-.277.436.209 1.191.606-.06-.113.55.241-.05.092.56.33.13-.288 1.12.459 3.59-.021 7.54.89 11.35.46 2.1.32-.14-.1-1.44.393.22 1.096-2.02M-7.671 1004.92l-.298-1.69.567-5.825.774-1.053-.06 1.669.275.189.127-.717-.02 2.15.873 2.367.593 3.07M3.058 1031.66l-.074.67.534-.03.384.41-.324.91.375.73.114 3.37M17.245 1043.83l-.717-.09.368.28.043-.21.416.16-.08-.23-.302.18.106.5.158-.37-.237-.56M29.33 992.9l-.024.419.645.04-.208-.319.073.407.397-.821.004-.803M47.19 953.897l-.145-4.519.406-4.937-.307-1.003.191-.847.002 2.372-.446 2.08.225.383.05-.393.414.318-.042-.647.31.363 1.076 4.202 1.496 16.705.98 4.698.113 4.518"/><path fill="none" stroke="#000" stroke-width="4.75" stroke-linecap="round" stroke-linejoin="round" d="m47.542 944.539-.307-.112.011.412.66 10.846-.439 3.427-.707 1.351M32.823 933.328l-1.385-2.121-.014-1.204-.539-1.101-.25.115-.302-1.991.441-2.08.39.751.143 1.197-.297.024-.044.309.4.36.076-.417.146.909-.566 1.27.36 11.744 1.276 8.175.102 2.253-.367 4.348.41 4.842-.691 1.782-.302-.412-.013-.824.282-.327-.32-1.048.506-1.203-.127-2.612M30.226 905.592l-.12-.128M29.642 898.759l-.861-.35-.332 1.456-.03-.333-.257.07.344.072.015-.271.394.516-.197.054-.2 1.665.206.397M21.862 906.028l-.618-4.333-.017-3.622.021 3.198-.214-2.046-1.089-2.398-.803-2.8.124 1.977.258.502-1.377 4.427-.073 1.44-1.234 5.322.204.484-.048 10.837-1.658 10.75.215-.972-.279-.51.488-1.498.029-2.402-.211-5.091.183-14.023-.438-5.999M9.873 862.927l-1.081-.44.347.726-.3.188.425-.085-.03 1.258-.353-.086.29.085.123-.699.25.885-.344 1.635.174 2.276-.309 3.032-.712 2.125.057.894-.753 3.26.437 5.654.166.465.212-.054.523 2.009.528 3.558.818 2.801-.697 2.499-.667 1.159-.618 2.908-1.057 1.522.323.092.024-.289.36-.06.675.25-.382 3.405.401.571.171-.83.202.776-.036-.307.39-.086M14.825 888.552l-.436.99-.177-.571-.449-.337.146-.795.664.121-.087.533-.146-.37.652-.738-.174-.58.192-1.143M15.515 883.308l.095-4.264.759-1.71M6.163 931.225l-.331.301.265.02.067-.513.105.927.26-.475M-28.96 923.407l.158.675-.748 1.58.175-.41-.3-.371-.033-1.225-.338-.379-.244.123-.015.655.2-1.065-.14 1.236-.105-.33.211-.954.202.186-.117 1.106-.346.139.145.278.14-.159.542 3.177.042 5.468.968 10.22 1.025 15.682.31-.413.31.609.012-.84.24.327-.08.825 1.037 1.644.344 2.455.42.397.067.428-.257-.151.025-.616.383.055-.656-.302-.01-.8.413.52-.28.65.26.106-.091-.374.226.296M-23.575 923.516l-.33.013-.538-.951-.396-.112.257-.037.123.436.486-1.232.308.157.106.811-.209 1.784-.244.134-.07 7.565 1.177 5.532.735 12.837 1.285 8.893-.105.998.96 3.992.835 10.919.418.085-.023.707.39-5.465.419-.67.276.159.724-1.285.348-1.924M-20.369 925.237l-.916-4.808-.17-4.535.272-2.803.583-2.22.132.369.363 2.48-.34 1.092.047 1.097-.163-1.531.19-.347-1.12-1.881-.22-5.069-.326-.032.415 1.222-.155.449-.195-1.394-1.533-3.87-.288-2.76-.048 1.111.429.567-.328-.324-.071.458-.69-3.235-.2-.316-.213.317-.33-.274-.067-.652.052.28.168-.12-.23.728.371-.139.142-.491-.192.069-.06-.333.053-1.007"/><path fill="none" stroke="#000" stroke-width="4.75" stroke-linecap="round" stroke-linejoin="round" d="m-27.742 927.332-.703-.731-.979-2.234-.067.209-.453-.536-.247.158-.152-.456.29-.228.621.261.043 1.046M-34.708 967.491l-.41.463-.195 1.343-.617.842.089.929.27-.857.419-.305.316-.943-.22.152-.003-.196.14.453-.213-.119.318-.436-.212-.139.24.005.435-.837.22-1.191M-25.872 901.039l-.853.62.074.191.135-.477.328-.085.41-1.714.215.029M-30.29 887.901l.032-.467.06.485-.085-.369-.2.272.506-.781.133.623M72.415 1032.1l-.67.13-.758.72-.175.59-.882.65-1.083 2.4-.234 1.33-.445 3.29.055 15.11-.478 3.64-.469 1.11-.02 1.91-.35.8.04 1.44-.367 1.55-.146 3.4.313.42-.029-1.04-.186.2.087.45.187-.42.092.2.187-.73-.033-16.79-.182-1.76-.77-2.74M65.724 1014.11l-.476.3-.402-.73.082.85-1.19 1.47-.857 3.43M55.424 1028.07l-.865-.9-.056-2.1.096.58.522.34M38.766 1042.63l-1.11.69-.138.78.37-.69.244.51-.727 2.38M29.532 1061.27l-.126.35-.233-.05-.192-.56.26-.49-.47-1.61.311-.85 1.076-.99M5.43 992.224l-1.872-.668-.191.293-.041-.32.569-.177-.055-.699.659.523-.11-.294-.453 1.343.07.595.234-.062-.826 3.138-1.381 12.444.196 7.07-.448.87-.703 4.4-1.191 2.73.195.18-.198-.21.227-1.53-.535-1.36-.808-4.06-.104-3.43.454-5.48M-5.365 997.026h0M-8.272 991.923l-1.28.244-1.35-.428.029-.707.013.589.148-.238M-51.254 862.659l-.663-11.608-.483-1.166.345-2.979 1.353-7.45.93-3.333.8-1.437 1.444-4.544-.217-.553.37-.77-.167-2.655.458-5.703 1.27-6.466 1.287-4.608.282-.421.066.347-.46 1.141-.102-.642-.357.37.323.463.034-1.457.409.368-.507.3M-58.486 869.285l.179-.799.144.432.276-2.515.156-.363.102.309-.375-.762.653-7.685 1-3.577 1.095-2.207.961-2.864.202-1.242.904-1.56.893-.737M-43.758 828.874l-.514-1.275-.299-1.943.241.136-.001-.623.124.442.474-1.481.597.41-.106.922-.573.651-.059.54"/><path fill="none" stroke="#000" stroke-width="4.75" stroke-linecap="round" stroke-linejoin="round" d="m-51.492 855 .345.315-.305.067-.12.897-.466-.277.231.019.1-.629.36.539-.056.763-.274.214.29 3.078M-71.84 844.895l-.526-1.341-.364-.228.144-.729.39.398-.13.171.453.52-.246.414.232.699.287.392.015-.311-.103 1.61.623 3.344.266 7.926-1.383 8.931M-64.24 842.968l-.621-1.729-.252.257.03-.342-.387.23-.489-.398.079-1.17-.525-.911.067-.845.557-.092-.405.337.474 1.354-.467.253.009.694-.056-.57.227.279-.408.069-1.228 8.542M-72.249 783.234l.748-3.781-.086-1.31-.172-.288-.477.849.152.852-.06-.988.271-.041-.234-.015-.115.542-.373-.408.216-.533.194 1.361-.692 1.267.098.492-.359.696-1.909 9.575-1.298 4.215.573-.863-.09-.973.37-2.155.285-.209-.47-2.451.279-4.33.312-1.176.02-7.736.704-6.111.907-3.467.108-4.475-.503-2.639M-66.628 763.918l-.255-.59-.343.008.228-.101.17.57M-70.364 789.168l-.435.939.497.081-.226.028.254.614.083-.2M172.964 676.057l.381.25-.076.348.472-.239.598.542.422 1.51 2.374 1.958 2.429 5.218.336-.024.332.487 3.535 11.727.432.135.362.63 2.52 6.685 2.436 5.268 3.338 11.017M194.179 737.603l-.007-4.477.192.761-.267 3.007.219.426-.26-.038.32-.52.087.472.022-1.21.278.193-.152.553M184.501 676.382l-.017-1.755-.232.261.446.544.34 1.341.06 1.708.526.695.264-.327.285.309 1.552 4.492.491 2.274 1.127 3.322.482.718.657 2.192.679 4.348M194.853 707.408l-.646.958.085-.766.296-.172-.134-3.43M195.651 673.032l.586-.497.108.349M201.88 676.019l-.035-.53.423-.293-.065-.265-.381.013.308.218-.129 2.034.35.778-.166 1.615 1.918 10.643M211.872 691.353l-.216-1.945.353-4.075-.203.12.272 1.326"/><path fill="none" stroke="#000" stroke-width="4.75" stroke-linecap="round" stroke-linejoin="round" d="m196.396 672.691-.414-.698-.224.133-1.309-.541-.152-.956.234-.275.005.235.339-.139-.16.876M154.404 724.979l.08-.849.246.732-.261-.033v.4l.258-1.218-.182-1.568-.094.228-.229-.536M148.329 699.271l-.145 1.219-.298.344.08-.737.269.546-.134-.431.347-1.291.257 2.163.186.433.085-.436.226 2.869-.153 1.678.635 5.965-.586 8.478.106 1.635-.559 3.538-.065 2.391-.397-.982M143.233 695.944l-.166.499-.112-1.018.062-.253.135.331-.226 1.638.14 2.407-.805 8.311.179 2.877-.276 2.466M134.24 695.556l-1.144-.338-.503-.627-.199-1.793.203-.051.148.597-.114-.322.233.001.088-.529-.133.59.237.272M131.416 682.211l-.851.011.081-.264M157.716 734.333l-1.707.324-.321-.407.718-.956.546.368-.245-.506-.065 1.421-.095-.99.221-.051.07.46.11-1.902.487-1.262 1.47-12.954.833-3.414-.134-.54.29-.099.207.37-.231 2.941.361.839.294 4.377.57 4.082.428.987.008 1.438.963 2.391.358 2.167.53.905.267-.004M166.855 729.805l-.597.083.099-.211.477.141.15.314.225-.318.677 2.777M153.241 757.054l-2.239 1.836-.005-.597.94-.691.078-.803.746-.657 1.268-2.545M114.551 743.704l.275 1.502-.133 3.487.306 5.677 1.062 9.878.212 5.021.34 2.5.871 1.47 1.582 13.075.145-.244.124.204.615 2.55.102 2.471.334.154-.184-.424.047.701.163-.345-.195-.818-.285.061.134.402.103-.378M121.502 783.53l-.382.275-.13-.9-.366-.328.325 1.786.464-.344M122.835 788.083l-.059.711M96.53 765.148l-.445-2.076-.604-.782.085-.609-.265-.221-.113-.919.673 2.464.01 2.315.304.15.106.502-.098 5.596.155 2.537.347.082.14.477-.189.925.261 3.637.838 4.068 1.906 4.585M99.495 796.191l-.103-1.729.204 1.264.237-.138-.131-.302M101.862 762.271l-.832-.356-.236-.657-.141.213-.074-.188.183-3.091.185-.734.048.896M102.071 738.134l-1.918-.03-.356-.65.177.271.305-.395M110.958 813.32l-1.525.614-.04.55-.292-.496.067-1.53-.456-1.167.806-1.191M77.459 775.615l.062 1.62.215.41.25-.602-.22-.297-.121.682.142.882-.711 5.185-.004 5.467-.197.207.494.257.006-1.206-.219-.161.23-.325-.06.714.114-.443-.13-1.333-.562-.03.276-.356-.888-4.218-.462-.425-.4-1.905-.589-.58-.227.276-.023-.528.103.217.137-.204-.078.491.17-.64.19.669.549.455 2.198 7.878M83.415 815.368l-1.344-.51-.403.159.004.889.506-1.844-.064.424.307.579.159-.094-.212-.033.002-.457.015.327-.082-.202-.223.325M68.508 833.349l-1.05-.997M69.894 826.769l-.317.594-.289-.13.29.144.278.961-.108 1.175.522 3.22.215 4.393-.201 1.462.673 4.351-.003 3.175.432 3.731-.142 1.025.403 1.386.15 3.248.685 1.995-.193.762.446 1.659 1.044 8.84-.131 1.399-.099.297-.12-.376-.03.282.29.244-.227 1.48-.1-1.906.135.132-.023-.365.057.655.14-.31-.409-.806.51.217-.129.311-.082-.242.107.359.214-1.112.425-.417.45.369 1.151-2.7.192-1.459M79.488 830.432l-.537-1.61-.506.657.202.854.34-.191-.21.052.05-.574-.21.853.138.514.3.05-.235.08.062.304.173-.073-.42.002.068-.243"/></svg>