<svg width="500" height="500" viewBox="-702 0 1404 1872" xmlns="http://www.w3.org/2000/svg" version="1.2" baseProfile="tiny">\n<path d="M-65.234 887.723c1.72-.734 3.51-1.324 5.162-2.204 1.928-1.026 3.878-2.083 5.544-3.496 2.813-2.385 5.487-4.971 7.813-7.833 3.434-4.226 5.824-9.256 9.408-13.356 1.132-1.295 3.19-1.418 4.49-2.545 3.763-3.264 6.813-7.295 10.592-10.539 1.039-.891 2.544-1.04 3.718-1.744 2.168-1.301 4.014-3.131 6.28-4.253 5.009-2.48 10.373-4.178 15.454-6.506 2.26-1.036 4.28-2.553 6.547-3.573 4.409-1.983 9.107-3.301 13.45-5.424 1.598-.781 2.934-2.029 4.248-3.227 2.624-2.393 4.95-5.098 7.543-7.524.306-.286.822-.277 1.118-.573.987-.984 1.65-2.269 2.677-3.211.674-.619 1.709-.761 2.356-1.407.692-.693.942-1.728 1.549-2.498.588-.746 1.09-1.786 2.012-2.02 5.492-1.398 11.14-2.175 16.776-2.76.707-.074 1.26.782 1.97.813.708.03 1.318-.645 2.027-.642.39.001.588.588.974.651 1.016.168 2.076.204 3.088.018 5.6-1.026 11.286-1.834 16.684-3.641 4.215-1.411 8.1-3.701 11.938-5.941 1.044-.609 1.59-1.859 2.591-2.538 1.133-.768 2.534-1.057 3.718-1.744 1.962-1.139 3.924-2.306 5.697-3.721 1.509-1.204 2.842-2.626 4.095-4.095.601-.704.821-1.683 1.43-2.38 1.586-1.814 3.049-3.867 5.115-5.108 3.046-1.83 6.478-3.01 9.913-3.923 4.815-1.279 9.771-2.006 14.716-2.619.416-.051.671.793 1.069.663 2.045-.67 3.689-2.337 5.765-2.901 8.558-2.322 17.415-3.423 25.981-5.713 1.635-.437 2.839-1.945 4.462-2.425 5.238-1.551 10.68-2.311 15.981-3.627.941-.234 1.757-.951 2.724-1.017.733-.05 1.375.845 2.093.689 1.528-.331 2.759-1.487 4.215-2.056 2.907-1.136 5.818-2.324 8.854-3.05 4.6-1.099 9.351-1.453 13.983-2.406 3.008-.618 5.886-1.828 8.92-2.303 1.665-.26 3.39-.142 5.056.116 2.336.364 4.541 1.37 6.876 1.739 1.358.215 2.767.223 4.124 0a251.55 251.55 0 0 0 17.893-3.609c1.559-.373 3.027-1.071 4.481-1.747 2.142-.997 4.302-1.991 6.292-3.266 2.713-1.739 5.328-3.651 7.774-5.749 2.254-1.934 4.41-4.012 6.287-6.314 1.052-1.291 1.456-3.012 2.422-4.368.687-.964 2.188-1.388 2.492-2.532 1.436-5.398 1.462-11.085 2.586-16.557.108-.523.875-.7 1.062-1.201.238-.634.146-1.349.148-2.026.004-1.354.163-2.739-.132-4.061-.951-4.273-.873-9.198-3.583-12.636-1.65-2.092-5.132-1.621-7.791-1.788-1.693-.107-3.304.82-4.993.984-1.658.161-3.343.183-4.997-.014-.73-.087-1.311-.87-2.045-.826-4.316.263-8.586 1.051-12.857 1.73-1.39.221-2.703 1.015-4.109.97-6.592-.215-13.162-.951-19.71-1.745-6.435-.782-12.774-2.28-19.219-2.98-.718-.079-1.341.658-2.063.665-.405.005-.645-.733-1.037-.632-2.392.619-4.565 1.905-6.908 2.689-.343.115-.807.217-1.084-.014-2.246-1.873-3.935-4.38-6.281-6.127-3.121-2.324-6.544-4.239-10.012-6.006-2.69-1.372-5.666-2.111-8.404-3.383-2.246-1.044-4.222-2.645-6.525-3.554-4.073-1.608-8.314-2.762-12.524-3.967-2.357-.675-4.724-1.413-7.162-1.67-.733-.077-1.37.81-2.097.694-1.405-.224-2.537-1.379-3.932-1.658-.395-.079-.622.545-1.005.671-.345.114-.74.119-1.09.021-1.665-.466-3.198-1.405-4.902-1.696-.401-.068-.614.595-1.011.685-.679.154-1.402.136-2.088.016-6.67-1.162-13.242-2.89-19.945-3.854-1.998-.287-4.052-.131-6.056.116-3.346.412-6.594 1.466-9.944 1.856-1.983.231-4.004.21-5.99-.001-1.043-.111-1.957-1.07-3-.955-1.747.193-3.209 1.553-4.944 1.831-.709.113-1.326-.588-2.033-.713-.684-.12-1.403-.148-2.084-.013-.81.161-1.508.71-2.315.886-3.66.798-7.398 1.203-11.05 2.028-.562.127-.957.714-1.524.812a9.198 9.198 0 0 1-3.08-.009c-.705-.118-1.266-.752-1.977-.837-1.343-.16-2.737-.181-4.058.116-3.354.757-6.54 2.137-9.863 3.024-4.05 1.081-8.11 2.181-12.245 2.878-6.832 1.15-13.813 1.329-20.613 2.656-3.539.691-6.755 2.602-10.278 3.371-4.563.998-9.374.688-13.884 1.908-6.872 1.861-13.285 5.156-20.078 7.289-3.586 1.126-7.361 1.54-11.003 2.471-3.667.938-7.192 2.439-10.913 3.135-.707.132-1.327-.589-2.035-.715-.686-.121-1.405-.151-2.088-.017-2.408.471-4.834.96-7.132 1.821-1.049.392-1.692 1.615-2.778 1.89-.699.177-1.36-.846-2.057-.665-1.218.316-1.965 1.724-3.187 2.025-5.106 1.257-10.47 1.278-15.562 2.591-2.143.553-4.043 1.827-5.946 2.957-.612.363-.846 1.304-1.534 1.484-8.588 2.237-17.386 3.587-26.007 5.693-1.562.382-3.037 1.072-4.492 1.756-3.356 1.58-6.705 3.192-9.927 5.029-.641.365-.951 1.172-1.592 1.538-1.717.981-3.757 1.357-5.401 2.457-.853.571-1.118 1.757-1.897 2.427-1.621 1.393-4.03 1.938-5.236 3.704-2.78 4.073-3.996 9.033-6.398 13.34-1.199 2.15-2.744 4.104-4.366 5.956-.766.873-1.735 1.571-2.74 2.153-3.378 1.952-7.048 3.38-10.37 5.425-1.046.643-1.646 1.846-2.632 2.577a42.72 42.72 0 0 1-5.655 3.562c-.497.258-1.255-.135-1.662.249-1.551 1.462-2.501 3.463-3.941 5.034-.633.691-1.8.874-2.235 1.703-2.696 5.139-4.942 10.513-7.015 15.933-1.452 3.797-2.97 7.644-3.545 11.668-.619 4.33-.678 8.802.001 13.123.532 3.378 1.963 6.601 3.576 9.617 1.141 2.135 3.237 3.623 4.581 5.638 2.667 4.001 4.698 8.406 7.422 12.368.962 1.398 2.466 2.34 3.574 3.626a37.79 37.79 0 0 1 3.004 4.006c1.567 2.401 2.782 5.026 4.426 7.374.702 1.002 1.806 1.664 2.57 2.62.571.714.674 1.809 1.407 2.356 3.388 2.521 6.968 4.826 10.754 6.696.912.451 2.036.199 3.05.122.473-.036 1.176-.014 1.347-.456.366-.949.753-2.359.008-3.052-3.257-3.027-7.645-4.585-11.159-7.31-.822-.638-1.019-1.825-1.669-2.638-.685-.858-1.686-1.443-2.312-2.344-1.633-2.356-2.76-5.041-4.426-7.374-1.676-2.347-3.918-4.256-5.57-6.62-4.63-6.623-9.371-13.213-13.25-20.302-1.399-2.557-2.386-5.48-2.45-8.395-.101-4.607.707-9.25 1.967-13.682 1.672-5.877 3.896-11.643 6.769-17.035 1.464-2.747 3.702-5.079 6.083-7.084 4.002-3.371 8.439-6.213 12.917-8.92 1.433-.867 3.242-.94 4.713-1.741 1.467-.799 2.751-1.908 4.008-3.008 1.357-1.186 2.676-2.434 3.813-3.833 1.798-2.213 3.593-4.466 4.964-6.966 1.455-2.656 1.892-5.809 3.458-8.401 1.001-1.656 2.632-2.851 4.103-4.108.704-.601 1.683-.822 2.38-1.432.425-.373.427-1.126.898-1.441 1.594-1.065 3.502-1.589 5.136-2.592.627-.385.983-1.114 1.586-1.535 1.677-1.171 3.381-2.332 5.224-3.219 3.391-1.635 6.845-3.184 10.432-4.325.401-.128.66.743 1.073.664 6.314-1.212 12.531-2.889 18.763-4.47 1.422-.361 2.85-.752 4.187-1.355 2.586-1.166 4.825-3.135 7.546-3.938 4.983-1.47 10.277-1.603 15.33-2.81 3.473-.829 6.708-2.521 10.196-3.285 5.447-1.192 11.073-1.423 16.532-2.566 2.793-.584 5.406-1.837 8.155-2.601 2.46-.682 5.007-1.029 7.462-1.733 2.89-.829 5.737-1.812 8.555-2.861 2.678-.996 5.174-2.489 7.922-3.27a56.238 56.238 0 0 1 10.316-1.916c.726-.066 1.326.977 2.034.803 3.758-.926 7.186-2.911 10.902-3.992a93.61 93.61 0 0 1 12.021-2.678c.404-.061.611.62 1.014.689 1.014.175 2.08.225 3.088.018 8.657-1.777 17.135-4.408 25.836-5.954 10.078-1.791 20.271-2.871 30.44-4.045 6.871-.794 13.761-1.49 20.669-1.857 4.013-.214 8.055-.264 12.055.116 3.25.308 6.381 1.396 9.6 1.939 4.606.777 9.27 1.195 13.868 2.021.531.096.905.717 1.444.73.401.01.608-.586 1-.672.668-.147 1.402-.211 2.052.001.503.164.672.93 1.186 1.052 4.395 1.049 8.934 1.402 13.337 2.414.879.202 1.533 1.056 2.423 1.207.395.067.634-.692 1.029-.621.532.095.759.81 1.253 1.031 5.11 2.281 10.4 4.143 15.499 6.449 3.398 1.536 6.849 3.032 9.972 5.069 2.126 1.388 4.104 3.098 5.64 5.119.317.416-.274 1.079-.676 1.414-1.881 1.571-4.335 2.432-6.04 4.193-.475.491-.25 1.414 0 2.05.228.582.727 1.144 1.325 1.325.982.298 2.107.34 3.08.011 1.239-.418 2.095-1.595 3.275-2.159 2.127-1.016 4.45-1.575 6.593-2.556.6-.275.969-.95 1.585-1.188 2.109-.817 4.242-2.074 6.499-1.945 9.742.556 19.289 3.031 29.001 3.972 3.978.386 7.999.223 11.989-.001.716-.04 1.288-.749 2.004-.784.404-.021.638.699 1.037.632 2.051-.348 3.907-1.55 5.969-1.819 2.641-.344 5.336-.22 7.99.001.712.059 1.263.807 1.977.828 1.043.029 2.011-.712 3.054-.686.711.018 1.262.814 1.973.812.713-.002 1.274-.688 1.974-.821.99-.189 2.022-.26 3.022-.133.623.08 1.467.17 1.732.738 1.596 3.423 3.166 6.987 3.617 10.736.182 1.508-1.479 2.698-1.82 4.179-1.175 5.103-1.228 10.45-2.705 15.474-.475 1.618-1.896 2.805-3.035 4.048-2.579 2.813-5.043 5.804-8.095 8.095-3.694 2.773-7.751 5.106-11.977 6.971-3.053 1.347-6.388 1.996-9.673 2.581-.4.071-.626-.551-1.01-.679-.346-.116-.736-.095-1.093-.023-2.665.539-5.252 1.465-7.944 1.851-1.327.191-2.696.08-4.019-.134-.707-.114-1.263-.794-1.978-.837-3.989-.239-8.002-.257-11.99-.001-.916.059-1.688.76-2.589.937-5.498 1.082-11.129 1.494-16.571 2.832-4.364 1.073-8.417 3.197-12.753 4.377-7.936 2.16-16.09 3.458-24.021 5.632-1.73.474-3.137 1.828-4.871 2.287-6.9 1.826-13.997 2.825-20.925 4.539-3.982.985-7.783 2.638-11.782 3.55-5.033 1.148-10.228 1.482-15.263 2.619-.816.185-1.36 1.006-2.138 1.313-2.536 1.003-5.61.917-7.757 2.598-4.504 3.524-7.388 8.781-11.652 12.591-2.076 1.854-4.876 2.701-7.192 4.245-1.694 1.129-3.087 2.681-4.814 3.758a34.047 34.047 0 0 1-5.957 2.958c-3.804 1.438-7.61 3.07-11.63 3.687-10.334 1.585-20.84 1.744-31.232 2.889-.861.094-1.674.468-2.465.82-.826.369-1.645.786-2.367 1.332a9.697 9.697 0 0 0-1.812 1.832c-.558.725-.76 1.709-1.407 2.356-.731.731-1.885.937-2.616 1.668-.685.686-.84 1.791-1.526 2.474-.738.734-1.873.964-2.638 1.669-1.003.924-1.636 2.195-2.602 3.157-1.49 1.482-3.015 2.957-4.742 4.154-2.194 1.521-4.55 2.813-6.96 3.961-2.074.987-4.354 1.486-6.45 2.425-3.911 1.752-7.655 3.861-11.555 5.639-4.005 1.826-8.226 3.177-12.15 5.171a114.292 114.292 0 0 0-12.253 7.228c-1.293.874-2.286 2.132-3.316 3.303-.277.315-.277.823-.574 1.119-2.158 2.145-4.336 4.291-6.742 6.155-1.36 1.053-3.359 1.25-4.491 2.545-3.584 4.1-6.074 9.05-9.408 13.356-1.924 2.486-3.955 4.933-6.34 6.981a24.32 24.32 0 0 1-6.367 3.935c-2.26.952-4.69 1.769-7.142 1.76-2.803-.011-5.527-1.008-8.21-1.817-2.156-.651-4.132-1.804-6.257-2.549-3.435-1.205-7-2.028-10.413-3.296-1.406-.523-2.537-1.732-4.001-2.06-.717-.161-1.366.792-2.094.691-2.273-.314-4.371-1.427-6.617-1.894-3.882-.807-7.872-1.046-11.74-1.92-1.513-.342-2.946-1.006-4.329-1.711-1.156-.59-2.085-1.571-3.246-2.152-.323-.161-.76-.175-1.084-.014-.867.433-1.797.921-2.341 1.723-.311.459-.266 1.204.047 1.661.986 1.443 2.319 2.634 3.659 3.757.785.658 1.667 1.291 2.661 1.538.389.096.636-.697 1.03-.622.55.104.806.797 1.298 1.064a7.084 7.084 0 0 0 1.982.719c5.147 1.027 10.37 1.657 15.499 2.77.794.172 1.386.966 2.192 1.068.397.05.619-.54.999-.665.345-.112.746-.137 1.088-.018 8.003 2.791 15.648 6.719 23.882 8.727m76.356-76.174c.892-.556 1.851-1.015 2.674-1.668.86-.682 1.443-1.686 2.345-2.313 2.367-1.643 5.1-2.73 7.407-4.458 1.708-1.28 2.849-3.217 4.552-4.503 1.084-.818 2.527-1.025 3.692-1.722.515-.309.746-.998 1.286-1.259 2.063-.999 4.37-1.441 6.417-2.471.68-.343.984-1.208 1.646-1.586 4.033-2.306 8.335-4.119 12.368-6.424.657-.375.963-1.224 1.632-1.576 4.289-2.259 8.819-4.032 13.15-6.208 1.662-.834 3.147-1.996 4.815-2.817 2.151-1.06 4.352-2.04 6.62-2.816 2.782-.95 5.726-1.374 8.497-2.353 4.041-1.428 7.892-3.353 11.907-4.855 2.504-.937 5.124-1.543 7.637-2.457 3.297-1.2 6.57-2.475 9.784-3.88 3.234-1.414 6.284-3.234 9.549-4.574 4.155-1.705 8.54-2.814 12.682-4.55 5.019-2.103 9.934-4.46 14.77-6.955 2.472-1.276 4.433-3.646 7.126-4.343 7.972-2.062 16.311-2.31 24.407-3.814 2.332-.434 4.607-1.169 6.833-1.991.793-.292 1.376-1.013 2.16-1.329 1.372-.552 2.825-.879 4.256-1.256 6.711-1.766 13.595-2.94 20.166-5.171 2.558-.869 4.8-2.511 7.015-4.058 1.24-.866 2.033-2.281 3.281-3.136.462-.316 1.217.091 1.662-.249.77-.591 1.29-1.477 1.723-2.345.161-.324.16-.768-.015-1.084-.3-.544-.711-1.173-1.315-1.322a8.844 8.844 0 0 0-4.08-.011c-.997.232-1.832.943-2.636 1.577-.96.758-1.641 1.836-2.62 2.57-1.403 1.052-2.808 2.232-4.481 2.756-6.21 1.944-12.677 2.956-18.976 4.589-2.356.611-4.708 1.273-6.982 2.142-.85.324-1.489 1.076-2.333 1.415-2.568 1.032-5.148 2.123-7.859 2.679-1.661.34-3.447.407-5.087-.023-.463-.122-.469-.941-.328-1.398.301-.977.891-1.871 1.571-2.635 2.225-2.498 4.568-4.904 7.095-7.095 2.519-2.185 5.216-4.173 8.004-6.002 2.016-1.322 4.359-2.096 6.37-3.425.91-.601 1.629-1.463 2.314-2.311.166-.205.272-.525.177-.772-.33-.862-.86-1.64-1.392-2.395-.192-.271-.444-.537-.756-.651-.339-.123-.756-.169-1.082-.015-2.961 1.394-5.907 2.853-8.67 4.606-1.019.647-1.619 1.812-2.585 2.535-1.702 1.275-3.715 2.107-5.38 3.43-1.512 1.201-2.839 2.629-4.095 4.095-.684.799-.987 1.882-1.692 2.662-.604.668-1.592.918-2.168 1.609-1.115 1.338-1.579 3.18-2.831 4.39a26.43 26.43 0 0 1-6.455 4.588c-2.334 1.173-5.096 1.288-7.456 2.406-2.216 1.05-3.982 2.888-6.146 4.039-2.879 1.533-6.006 2.552-8.935 3.988-1.649.808-3.081 2.046-4.783 2.736-3.408 1.381-7.079 2.048-10.479 3.448-3.881 1.599-7.481 3.815-11.313 5.527a131.607 131.607 0 0 1-9.854 3.926c-2.027.715-4.192.994-6.206 1.742-4.482 1.665-8.74 3.906-13.252 5.486-3.206 1.122-6.624 1.547-9.853 2.602-.773.252-1.326.959-2.068 1.29-2.106.938-4.39 1.463-6.448 2.502-1.963.992-3.582 2.589-5.555 3.561-3.682 1.813-7.736 2.826-11.354 4.765-.825.442-.913 1.731-1.704 2.233-3.287 2.082-6.967 3.478-10.349 5.403-1.263.719-2.263 1.865-3.564 2.515-2.052 1.025-4.387 1.414-6.421 2.475-2.138 1.115-4.097 2.556-6.02 4.012-2.285 1.731-4.242 3.881-6.584 5.535-1.11.783-2.563.967-3.692 1.722-.914.611-1.455 1.676-2.35 2.317-1.46 1.045-3.415 1.409-4.66 2.704-.591.615-.578 1.704-.374 2.533.15.607.713 1.199 1.325 1.325"/><path fill="none" stroke="#000" stroke-width="5.5" stroke-linecap="round" stroke-linejoin="round" d="m-15.046 813.075-.368 1.022.602-.071.095-.418-.037.652M268.417 750.138l-1.139-.553.348-.358-.113-1.243-.256.099.495.292-.241.567-.042-.327-.154.132.085.377.183-.33-.34 1.564-.378-.16-3.82 5.69-.579 1.996-.918 1.742-.6-.293.116.237-1.374 1.601-1.031.821-.125-.334-.573 1.194-.455.269-.133-.363-.593 1.005-.607.26-.399-.206-1.164 1.178-3.608 2.105-.161.579-.371-.257-.372 1.022-.805.388-2.296 3.08-4.079 3.03-1.629 1.411.292.1-.806.856-1.684 1.008-2.288 2.283-1.719 1.184-1.958 2.306.043.54.5-.736-.003.741-.02-.209-.472.221-1.606 1.965-.572 1.625-2.054 1.243-3.426 4.401-.399-.055.186.558-.916 2.105-1.073 1.42-.529.192-4.599 6.467-5.096 4.975-6.487 8.475-1.701 1.654-1.019.276-2.839 2.663-.529-.175-1.964 3.014-.669.865-.368.042-3.3 6.094-.409.17-1.237 1.807-.486 1.196-1.265 1.142-.776 1.673-.568 3.284-2.562 3.957-2.424 2.952-1.006 2.398-.183 1.625-.787 1.998-.588.906-2.829 2.327-3.967 5.096-.658 2.071-.495.347-.443 1.121-.173 1.54-1.122 2.125-1.739 1.707-1.439.915-1.798 1.925-.809 1.365-1.547 1.366-.338.903.078 1.245-.159-.201-.49 1.649-5.731 10.358-.931 4.112-1.468 3.408-1.681 2.864-1.233 1.439.167.138.061-.853-1.542 2.658-1.339 1.782-.289-.162-.458 1.086.233-.101.379-.733-.318.111-.016-.237-.056.851.055-.761-2.486 3.261-.302-.177-.272.772.684-.651-.484.351-.535 1.625M141.856 910.078l2.01-.011-.619.736-.122-.393-.339.473-.329.027-.123-.349-2.306.397-.723-.328M26.941 933.279l-.396.238-2.407-.811-.456-.415-1.27-.182-.463.339-.707-.978-.02.512-.043-.877.033.721 2.788.141M91.464 914.94l.294-1.396.087 1.348M93.965 913.973l-.377-6.849-.616-3.301-1.075-3.235-2.007-4.212-5.666-9.529-3.279-8.822-1.133-4.872-.594-6.315-.032-7.372-1.524-10.737-1.356-5.095-.695-.583-.841.105M75.835 915.954l-.349-1.783-.214.487.242-.761-.546-2.49-1.798-4.712-3.7-13.085-2.788-15.053-1.341-12.468.375-9.566-.555-4.441-1.406-3.923-.726-.748-.684-1.608.194.391.145-.297.057 6.049.557 5.063"/><path fill="none" stroke="#000" stroke-width="5.5" stroke-linecap="round" stroke-linejoin="round" d="m85.864 915.317-.042-1.907.453-.121.14.449.16-.542-.866-6.718-.146-28.53-.87-7.8-4.202-18.519-.93-10.647.087-4.466 1.506-9.153.112-3.868-2.002-7.139-.003-1.777-.825 2.229-.845 3.978M101.504 910.453l3.68-15.782 3.22-24.468 2.297-12.913 4.259-20.537 1.195-10.678.017-6.614-.274-2.088.672-7.825-.886 1.521-.577 2.754M125.516 812.028l.433-3.919.675-2.279-.236 1.648-.602.984.293.152.045-.27 2.001 11.873.151 6.624-.381 5.448-1.615 8.005-.631 4.523.286-.284.091-.749-.486 1.774-3.092 4.789-1.021 2.24M154.693 779.63l-1.709.764.513.619-2.555 6.625-.956 4.449-1.734 4.874-.909 4.949-1.873 6.798-.766 6.822-1.214 4.661-1.857 3.55-1.256 1.055-6.391 8.902-1.93 1.81-2.35 2.904M46.059 814.628l-.417-.512.142-.619 1.097 1.132.709 2.185 2.34 8.348.8 5.264M22.976 834.587l-.821-1.991-.556-.267-.146.419-.71.172.103-.205.363.348.11-.425.636.842.42-.122 5.476 6.981 5.865 6.106 2.714 3.281 6.507 10.731.841 2.031 4.044 6.175 2.706 5.076 1.48 3.797M54.424 916.169l-.45-2.464M-3.58 841.579l-.289.062-.026-.253.19-1.169.482-.228 1.142 1.509L0 842.625l6.956 6.496 4.748 3.712 4.245 4.022 4.544 3.068 1.427 1.427.722.2 1.847 1.82 3.883 5.061 2.482 4.726 3.02 7.834 1.159 2.028M-7.83 858.026l-.424-1.323.431.641.488-.499.542.72.407-.81.208.78.205-.172.768.801.961.376 7.617 7.805 3.318 1.866 1.36.284 1.424.848 2.807.915 2.226 1.612 2.391 2.411 1.006.261 5.874 3.336 6.228 4.416 1.719.802.85.034 4.388 3.406.421-.249.48.15.434.847 3.161 3.114 6.05 5.047M-21.782 873.507l-1.196-.533-1.619-.14-1.909-.901.124-.937.974-1.728.3.093.455-1.422-.03.716-.285-.057-.223.873.276.331 2.983 2.092 2.224 2.264 7.98 5.292 2.249 1.98 2.37 1.088 1.263.157 3.777 2.702.568.063 4.197 3.2 6.42 3.755 3.936 1.87 2.221.652 3.833 3.224 3.236.846 2.202 1.402.92 1.371.358-.192 5.22 2.224 10.857 7.461 4.56 4.242 1.528 1.914M-47.51 880.817l-.302-.949-.147.472.436-.265.46.793.54.066.529-.511.426.369 4.28.858 12.953.838 6.014 1.076 3.832 1.629 3.171 3.305 3.541 2.495 1.535 1.674 2.681 2.1 3.708 2.522 6.229 3.338 7.514 3.231 2.588 1.724 1.547 1.397 2.256 3.407 2.592 1.768 5.374 5.007.823.405 7.109 7.956"/><path fill="none" stroke="#000" stroke-width="5.5" stroke-linecap="round" stroke-linejoin="round" d="m26.21 921.583-9.382-5.497-4.646-3.201-2.575-2.586-1.337-.737-2.402-2.039-5.988-6.301-2.604-1.553-4.421-1.881-1.49-1.132-1.546-.067-2.241-.782-1.365-.066-.441-.601-2.045-1.018-1.429-1.357-3.073-1.145-1.105-.05-2.358-1.75-1.107-1.258-2.671-1.387-2.845-2.301-2.628-.673-11.218-1.05-5.556-.927-2.092-1.128-.825.166-3.349-2.722-2.916-1.044-.352.484.395.219-.11.72-.172-1.428-.135.851-.066-.651.287.009.177.689.645-.186 2.153 1.063 5.495 1.876 7.322 1.741 19.254 6.118 1.39-.122 11.08 4.201 6.316 1.675 4.984.994 1.297-.022 4.268 3.171.61.12 2.925 4.19 2.096 1.803 1.042.288 3.682 5.496.68.573-.413.005.047-.363-.057.668-.654-.766-.34.1-3.84-1.468-4.227-.957-11.189-4.233-2.374-1.261-4.705-1.234-1.216-.478-1.274-1.058-2.235-.495-.517.401-.614-.009-.541-.647-3.794-2.055-2.6-.751-1.345.527-5.474-2.444-4.53-.93-1.968-1.291-2.305-.977-1.882-1.513-.735-1.055-1.686-.69-.938.346-1.685-.837-2.615-.523-12.474-.544-6.259-2.233-2.031.095-5.068-.948-3.444.382-1.794.711-3.863.321-.652-.527-.77-.03-.589.679-2.78 1.249-.94.166-.282-.484-.369.303.939-.805.263.397.208-.487 1.725 1.123 3.581.492 20.59 1.162 14.745.2 3.524.456 4.15 1.003 6.02 3.353 3.628 1.463 1.897.138 3.85 2.163 1.513 1.273 4.416.552 14.203 8.266 4.921 1.591 4.109 2.217 4.148 1.703 3.061 2.426.585-.048 1.497.762 4.936 5.481 4.081 2.785 3.268 1.105 3.513.421.884.442 1.783-.155.429-.311.397.23.035.497-.062-.33"/><path fill="none" stroke="#000" stroke-width="5.5" stroke-linecap="round" stroke-linejoin="round" d="m33.084 921.497-5.288-6.867-3.113-2.636-4.232-2.289-6.742-2.661-10.537-3.26-1.811-.302-7.007-3.053-2.541-1.58-.812-1.154-2.34-.381-1.02.304-2.043-1.28-3.028-.927-7.36-1.648-2.597.02-1.611-.42-.493-.435-1.88-.005-2.041-.62-1.18-.936-4.01-.509-4.124-1.932-2.497-.835-1.162.013-3.82-1.523-2.704-.284-5.307.989-1.479-.24-1.906-1.161-.802-.154-1.733-2.167-.355.068-.978-.65-.65.063-2.145-1.39-6.323.027-1.014.628-.443-.805-.558-.318-.21.264-2.608-2.458-.782-.111-1.547-1.239-4.744.539-.556-.337-.305.242-.965-1.08-.72-.16-.327.439-1.698-1.437-1.926-.075-1.525-.66-2.308.047-1.008-1.155-.906-.51-1.554.033-.387-.794-.635.278-.652-.27-.287-.855-.837.147-.26.351-.593-.957-2.056-1.246-.714-1.001-.556-2.597-.282.195.203.193.047-.79-.009.974-.134-.465-.097.516.326 1.141.185-.266-.401 6.221-.03-.875.272.056.423-.591.071.292.269-.167.351-.644"/><path fill="none" stroke="#000" stroke-width="5.5" stroke-linecap="round" stroke-linejoin="round" d="m-104.149 877.635-1.554.824-.472-.623-.328-1.479-.46-.489-.689.163-1.367-1.504-1.564-.056-.785.817-.281-.397-1.917-.59.037.439.563-.225 1.299.322 1.098.839.88 1.224 1.036.264 1.7 1.263 9.095 3.722 3.355.996-1.999-.515.08-.535-.543.11-3.553-3.867-6.441-3.98-.867.101.545 1.551M30.612 924.151l-1.33-1.099-.275.946.469.501 1.245-.293 1.086.948M35.227 925.008l-.534.028-.251-.555-1.07-5.327-1.133-2.728-.107.396.424.237.197-.301.496 1.107 5.45 5.308M42.43 916.254l-1.251-2.306.132-1.335.395-.056.316 1.373.224.121.084-.266.325.861.448-.354 2.489 2.544 4.445 3.527"/><path fill="none" stroke="#000" stroke-width="5.5" stroke-linecap="round" stroke-linejoin="round" d="m51.21 921.995-3.092-4.428-3.505-4.15-1.619-1.334-1.454-2.249-3.292-3.913-3.658-3.947-2.606-2.061-3.245-2.307-5.192-2.031-2.442-.098-3.011-.612-.965-.484-1.799.075-.778.623-.34-.515-1.589-.764-.254-.657-.936-.575M60.49 909.283l-.855-.82-.317-.976-.032.298.807 2.019.22 5.672M144.272 885.726l-.241-.216-.67.424 1.206-1.257.096-4.398 2.231-6.798 3.403-4.689 5.446-9.067 13.357-15.122 11.736-15.725 8.161-14.025 3.517-7.607M146.681 884.87l1.187-.08.614.545.248-.171.045-.728-.473.489-.483.013.187.586-4.491 7.149-.215 1.281-2.854 5.725-1.738 4.649M138.605 907.447l.159.318.046-1.049.152.725-.034-.72.736.428 3.431-6.019-.94-.685-.376-1.059M129.063 884.016l-2.392-3.019.06.656.457-.517.214 1.476-.12-.267-.491.386-.765 1.497M142.824 855.736l-3.742 7.237-5.436 13.477-1.604 2.736-3.401 7.792-.421.283-.81 3.893-.126-.618-3.596 7.221-1.639 2.593.068 2.032M165.532 816.127l.502-2.919.881-1.874-.142-.405-.055.983 1.006-1.406 6.963-11.603 1.091-.995.677-.213 4.682-6.078 7.011-12.068 2.299-2.652 3.265-2.458.258.069-.383.859-.279.129-.194-.32-.389.66.251-.909.294.285.469-.53-.144.847.304-1.046.843-.146 3.237-3.636 1.794-1.188M27.726 935.833l-.16-.215.158.377.097-.688.148.942-.123 1.631-1.698 6.93-.864 5.892.371 7.05.82 6.147.45 20.738 1.465 13.587 1.179 4.986.583 10.11.77 4.07.668 1.78.155-.27.094.29.48 4.6.842 3.11.073-.24.211.35 1.46 13.72.309.63.153-.36.183.81.36-.44.208 1.95.23-.65-.033.72.09-.55.239 4.21.211-.41.403 2.13.305-.21.283 1.28.398.35.73 3.13.201.45.397-2.23M141.056 916.095l-.161-.996-.214.148.409.67.076-.404-.073 3.729 4.29 13.297 2.56 5.987 2.228 11.351-.642 14.958 2.052 20.255.159 4.637-.697 13.643.439 8.39.739 2.74.359 3.52-.177 7.24-.62 3.96.032 3.92 1.148 7.68.038 8.43.597 3.51.117-.55-.046 2.44.357 1.01.147 3.64.197-.48.03 1.04.222-.07.401 3.66.49 1.57-.107.71-.314-.17.235-.4-.204-.26.294.39-.107.48.026-1.01.308.19.395-.95"/><path d="M89.959 1098.52c.297-.33.692-.59.893-.99.157-.31.128-.69.133-1.03.04-3 .412-6.03.001-8.99-.947-6.85-3.036-13.5-4.057-20.33-1.275-8.53-1.622-17.18-2.823-25.73-.368-2.61-1.091-5.17-1.875-7.69-.093-.3-.403-.55-.708-.61-.87-.17-1.877-.47-2.655-.05-.868.47-1.729 1.43-1.715 2.41.04 2.86 1.51 5.53 1.867 8.37.936 7.4 1.018 14.91 2.005 22.31.48 3.61 1.713 7.08 2.391 10.65 1.31 6.91 2.008 13.93 3.569 20.78.147.65.834 1.16 1.47 1.35m65.389-9.43c.375-1.01 1.15-1.96 1.126-3.04-.29-13.43-1.201-26.85-2.063-40.26-.124-1.94-.872-3.81-.893-5.75-.281-25.66-.052-51.326-.013-76.99.001-.688-.062-1.4.133-2.059.8-2.695 2.151-5.217 2.836-7.944.126-.501-.205-1.033-.468-1.479-.241-.41-.656-.69-1.002-1.017-.313-.296-.586-.664-.974-.852-.31-.15-.685-.165-1.026-.118-.513.071-1.064.161-1.482.467-.73.533-1.604 1.107-1.86 1.975-.204.693.788 1.348.67 2.061-.613 3.726-2.493 7.21-2.814 10.973-.623 7.303-.283 14.665.001 21.989.041 1.053.905 1.956.97 3.007.266 4.325.049 8.665.015 12.997-.01 1.34.069 2.7-.148 4.03-.116.7-.815 1.26-.837 1.97-.259 8.66-.533 17.35-.001 25.99.412 6.71 2.217 13.27 2.826 19.97.067.73-.796 1.31-.825 2.04-.248 6.33-.357 12.67-.001 18.99.242 4.3.71 8.63 1.789 12.8.153.59 1.089.66 1.701.69m-87.545-1.46c.297-.33.692-.59.893-.99.157-.31.128-.69.133-1.03.04-2.67.294-5.35.001-7.99-.979-8.85-2.292-17.67-3.809-26.44-.37-2.15-1.033-4.25-1.846-6.28-1.54-3.82-3.874-7.32-5.197-11.23-.44-1.3-.316-2.78.004-4.11.262-1.1 1.814-1.81 1.685-2.92-.126-1.09-1.398-1.74-2.295-2.37-.288-.21-.775-.21-1.056 0-1.247.94-2.917 1.8-3.323 3.31-.787 2.93-.626 6.12-.011 9.08.471 2.28 2.306 4.05 3.18 6.2 1.439 3.53 3.026 7.07 3.742 10.82 1.779 9.32 2.328 18.84 3.713 28.23.235 1.59.502 3.21 1.143 4.69.284.65.865 1.25 1.539 1.48m56.375-2.42c.052-2.01.26-4.03.156-6.04-.727-14.1-1.385-28.21-2.647-42.27-1.336-14.88-3.231-29.71-5.143-44.532-.038-.29-.389-.499-.674-.559-.678-.14-1.423-.239-2.076-.011-1.019.356-2.053.881-2.756 1.7-1.445 1.684-2.675 3.593-3.541 5.632-.395.93-.212 2.02-.134 3.03.04.52.208 1.04.482 1.48.23.37.558.75.977.87.656.19 1.379.13 2.048 0 .288-.06.586-.81.693-.54.631 1.61.848 3.36 1.084 5.08 1.362 9.88 2.879 19.76 3.71 29.7 1.099 13.16 1.003 26.41 2.076 39.57.184 2.26.727 4.53 1.685 6.58.266.57 1.107.7 1.734.74m28.979-11.14c.167-.44.455-.86.5-1.33.125-1.33.12-2.68.003-4-.297-3.38-.981-6.71-1.243-10.08-2.112-27.18-3.727-54.4-5.878-81.573-.039-.498-.68-.833-.685-1.332-.003-.398.539-.617.663-.996.111-.344.174-.76.013-1.084-.433-.867-1.054-1.64-1.723-2.341-.136-.142-.392-.111-.585-.075-.524.097-1.097.157-1.53.468-.736.53-1.62 1.105-1.869 1.977-.461 1.609-.273 3.351-.135 5.02.113 1.373.775 2.665.881 4.039 1.766 22.787 2.93 45.627 4.733 68.417.523 6.62 1.143 13.24 2.244 19.79.193 1.15.637 2.46 1.605 3.11"/><path fill="none" stroke="#000" stroke-width="5.5" stroke-linecap="round" stroke-linejoin="round" d="m48.292 1041.26-.52-.44-1.805-.14-.524.37-2.867-2.6M41.314 1035.51l-.608-.3-.558-.9-.718.55-1.893 7.84-1.515 9.35-1.062 2.61-.367-.83.047-1.33"/><path d="M48.844 1086.54c.336-.67.868-1.28 1.008-2.01.25-1.32.376-2.71.134-4.02-.303-1.66-1.036-3.21-1.739-4.73-.132-.29-.406-.62-.722-.62-.708.01-1.317.64-2.025.64-.39 0-.588-.59-.974-.65-1.004-.16-2.079-.3-3.052 0-.598.18-1.127.73-1.325 1.32a5.64 5.64 0 0 0-.135 3.02c.309 1.33 1 2.54 1.703 3.7.792 1.31 1.482 2.82 2.76 3.66.842.55 2.014.2 3.019.13m66.976-4.1c.809-.58 2.236-.77 2.425-1.75.674-3.5.459-7.16-.028-10.69-.615-4.46-2.284-8.72-3.254-13.12-1.255-5.68-2.166-11.44-3.42-17.13-.276-1.25-.557-2.53-1.165-3.65-.321-.6-.86-1.24-1.53-1.34-.611-.09-1.194.44-1.633.87-.707.7-1.87 1.46-1.715 2.44 2.293 14.56 5.583 28.95 8.921 43.3m41.894-6.3c.673-1.67 1.879-3.22 2.019-5.02.541-6.97.518-14.01 0-20.98-.475-6.4-2.318-12.64-2.972-19.02-.34-3.31-.228-6.66.001-9.99.051-.73.856-1.31.827-2.04-.248-6.27-.587-12.57-1.651-18.76-.103-.597-1.086-.63-1.691-.669-.517-.033-1.046.187-1.482.467-.525.337-1.042.772-1.316 1.332-1.039 2.12-2.102 4.29-2.57 6.61-.403 2-.349 4.11.002 6.12.274 1.57 1.603 2.84 1.837 4.41 1.058 7.13 1.523 14.34 2.012 21.53.032.47-.038 1.12-.455 1.34-.602.33-1.381.14-2.052.01-.316-.06-.479-.67-.785-.56-.401.13-.64.63-.701 1.05-1.18 8.12-1.698 16.32-3.004 24.41-.317 1.97-1.413 3.75-1.852 5.69-.224 1-.196 2.04-.118 3.06.036.47.014 1.17.456 1.34.949.37 2.159.5 3.052.01.935-.51 1.343-1.68 1.79-2.65.724-1.56 1.36-3.19 1.694-4.89 1.161-5.88 1.223-11.98 2.779-17.77.277-1.03 1.114 1.9 1.199 2.97.319 3.98.257 8-.001 11.99-.068 1.05-.873 1.95-.97 3-.185 2-.257 4.06.134 6.03.121.61.72 1.16 1.325 1.32m-1.641-28.36c-.224.01-.53.21-.673.04-.22-.27-.178-.69-.143-1.03.079-.78-.063-1.74.483-2.3.324-.33.436.84.483 1.3"/><path fill="none" stroke="#000" stroke-width="5.5" stroke-linecap="round" stroke-linejoin="round" d="m35.007 1046.4-1.127-.98-.283-1.95"/><path d="M42.837 1095.54c.675-1.33 1.757-2.52 2.025-3.99.427-2.33.53-4.8.006-7.11-1.146-5.05-3.876-9.66-4.958-14.73-1.494-6.99-1.697-14.2-2.735-21.28-.546-3.73-1.184-7.44-2.016-11.11a8.95 8.95 0 0 0-1.132-2.79 4.076 4.076 0 0 0-1.5-1.37c-.31-.17-.764-.2-1.055 0-.901.62-1.678 1.43-2.323 2.31-.203.28-.192.69-.119 1.03.666 3.08 1.833 6.05 2.323 9.17 1.15 7.31 1.233 14.78 2.59 22.07.892 4.77 3.052 9.24 4.132 13.98.865 3.8 1.07 7.72 1.69 11.57.048.29.094.64.313.84.717.67 1.53 1.25 2.403 1.69m18.478-4.3c.297-.33.694-.59.892-.99.155-.31.191-.69.118-1.03-.13-.61-.139-1.48-.71-1.72-3.09-1.29-6.355-2.41-9.697-2.64-1.68-.12-3.241.94-4.787 1.61-.293.13-.596.41-.625.73-.072.78-.142 1.71.344 2.32.244.31.59-.6.98-.65 1.66-.22 3.397-.54 5.023-.13 2.133.52 3.837 2.22 5.944 2.85"/><path fill="none" stroke="#000" stroke-width="5.5" stroke-linecap="round" stroke-linejoin="round" d="m-61.102 869.746.354-1.003-.464-1.146.077-1.649M-17.196 819.745l-.568-.737.296-1.154-.138.612M138.605 914.226l4.884-4.944.071-.764-.437.316.317.15-.025-.583-.152.363.178-.259-.626.14-.001-.317.096.627.113-.704-.124.714.261-.66-.051.246-.514-.003.463-.085-.024-.362.236.31.989-1.789.463-1.595.209.073.301-1.917.184.287-.545.486-.225-.367.024.35-1.256-.656M103.149 924.16l.46-.139-.034.341.794-.301 1.933-2.371.121-.562.363-3.919-.385-5.8 2.179-15.502-.009-3.679-.448-3.692M113.227 922.375l-.242.546.296-.067 1.126-1.041 2.152-4.097 2.477-7.135 1.608-6.598M122.133 919.633l.366-.357.136.514-.004-.248 2.397-1.247 2.257-1.853 1.427-1.982 3.76-10.151 2.937-10.992 1.517-3.534 3.518-5.617 2.05-5.165M73.891 929.853l.252-.104-.187-2.746-.915-5.66-.984-4.902-1.788-5.601-.37-4.267M87.687 928.374v-.322l.162.459.066-.232 3.213.479.903-.139.657-.742.748-.146-.332.236M88.524 924.459l-.005-.151M89.306 924.565l.606-.233-.014-3.882-1.34-3.875-1.248-6.67.086-9.264M92.263 921.843l-.256-.187.692-3.124.76-9.692M65.675 931.173l-.393.002-2.024-3.766-2.874-4.008-2.932-5.526-5.33-6.607-3.891-6.054M51.091 932.318l-3.112-2.913-7.083-8.702-4.747-7.295-2.105-4.942M44.12 933.139l-.37.147-7.349-2.711-6.474-3.939-4.36-3.546M28.184 931.189l-2.396-1.044-1.1-.824-5.242-5.413-1.786-.62-.725.193M42.094 936.694l-1.687-.39.038.244M34.147 950.992l.178-.259-.467-.596"/><path fill="none" stroke="#000" stroke-width="5.5" stroke-linecap="round" stroke-linejoin="round" d="m33.142 940.677.193.319.06-.211.111.97-.717 16.931.677 10.469 1.506 8.954 1.732 7.652 5.177 13.604M44.608 945.199l.263-.046.104.628-.694 2.072-.16 2.595 1.811 12.411M56.022 946.515l.8 1.868 1.43 7.179 1.131 17.973M71.028 951.808l-.253-.197h.518l.901 2.096 1.231 4.317.6 5.946M134.573 927.75l-.082-.434 2.008.13 1.456.99 2.552 4.665 1.026 2.52 2.642 9.345 1.113 8.357M148.511 962.622l-.108-.233M20.35 793.481l.473-.201.01.756M33.93 792.355l.254-.149.118.583M42.766 785.752l.197-.456 1.224.393M57.232 781.303l.13.327.13-.23M73.116 773.879l1.925.091M97.174 762.139l.341.034M126.807 748.304l.035-.251.211-.049-.12.247M88.466 765.566l.48.583M86.295 776.2l.427-.445M113.017 755.897l.264-.237.006.324.465.013M121.89 750.141l.383-.388.18.66M138.237 742.536l.382-.596-.295.323.711.147M147.98 739.719l-.138-.259.703-.286.392.485M161.333 737.867l.56-.732.884-.403 2.049.425M178.77 734.82l-.005-.22.584.262M170.986 724.361l-.144.093M171.69 723.78l.3-.854 1.472-.928M180.662 713.437l-.268-1.074-.945 1.804M168.153 724.104l.222 1.004M171.25 726.604l-.461-.84-.705 1.55M175.189 722.17l.211-.468M183.428 715.937l-.664.206.434.012"/><path d="M226.955 717.518c.632-.663 1.465-1.181 1.894-1.99.26-.489.358-1.202.047-1.661-.544-.802-1.474-1.29-2.341-1.723-.324-.161-.786-.19-1.084.014a9.01 9.01 0 0 0-2.313 2.315c-.199.289-.246.803.001 1.052.946.956 2.126 1.674 3.317 2.3m-30.632-2.281c.333-.672.767-1.304.998-2.017.109-.334.199-.765 0-1.054-.618-.902-1.375-1.763-2.314-2.322-.475-.284-1.202-.358-1.661-.047-.802.544-1.29 1.474-1.723 2.34a1.31 1.31 0 0 0 0 1.112c.433.867.831 1.964 1.723 2.342m-4.399-4.074c.809-.564 1.912-.851 2.429-1.692.395-.643.383-1.614.001-2.265-.491-.836-1.476-1.29-2.343-1.723-.324-.161-.786-.19-1.084.014a9.01 9.01 0 0 0-2.313 2.315c-.199.289-.246.802.001 1.052m26.67-17.975c.008-.691.271-1.427.024-2.072-.224-.585-.728-1.148-1.327-1.329a5.364 5.364 0 0 0-3.052 0c-.596.18-1.113.735-1.316 1.324-.168.486.09 1.056.339 1.507.212.382.554.765.977.871.978.246 2.016.203 3.022.133"/><path fill="none" stroke="#000" stroke-width="5.5" stroke-linecap="round" stroke-linejoin="round" d="m247.182 709.162 1.704-.51M-3.847 807.32l.113-.015M30.665 776.612l-1.305.385-.323-.247.942-.11.75.292.965-.727.266-.609.375.034.298-.731.993-.86M91.652 743.876l-1.325-.992 1.147 1.202-.015-.559.063.571-.266-.363M4.237 755.751l-.315-1.446 1.454.053.1.397M50.651 747.16l-.302-1.112-.196.705.23-.855.18.664.011-.388.02.276-.942.627M-59.818 786.875l-.762-4.47.24-2.86.786-1.739-.202 1.886-.388.235-.085.614M9.37 791.04l-.44.114-2.467-2.008.625.606 2.067.809"/><path d="M85.768 1127.72c3.894-1.29 7.706-2.87 11.684-3.88 5.963-1.52 12.269-1.69 18.088-3.69 4.074-1.41 7.429-4.38 11.233-6.4 1.74-.92 3.78-1.29 5.385-2.44.8-.57.941-1.73 1.557-2.5.769-.95 1.893-1.61 2.573-2.63 1.337-2 2.19-4.29 3.424-6.36.293-.5.994-.74 1.139-1.29.259-.99.304-2.09 0-3.06-.184-.59-.75-1.42-1.351-1.27-1.445.36-2.502 1.62-3.69 2.51-.414.32-.828.66-1.098 1.11-1.287 2.1-2.005 4.57-3.548 6.49-1.095 1.37-2.694 2.26-4.192 3.17-3.586 2.17-7.243 4.24-11.029 6.04-1.701.81-3.544 1.29-5.37 1.76-5.012 1.28-10.138 2.1-15.127 3.46-4.379 1.2-8.555 3.09-12.949 4.23-.5.13-1.066-.16-1.479-.47-1.056-.8-1.804-1.95-2.828-2.78-.917-.76-1.891-1.47-2.966-1.97-2.082-.97-4.34-1.52-6.451-2.43-1.364-.58-2.75-1.17-3.957-2.03-.454-.33-.492-1.03-.89-1.42-.828-.82-1.76-1.53-2.74-2.16a89.61 89.61 0 0 0-6.96-4.02c-1.18-.62-2.375-1.7-3.692-1.52-1.1.15-2.178 1.26-2.357 2.36-.164 1.01.83 1.92 1.54 2.66.452.47 1.145.68 1.787.79.664.12 1.365.03 2.02-.13.305-.07.498-.73.76-.56.772.51 1.045 1.54 1.706 2.19.308.3.869.26 1.144.59 1.366 1.65 1.938 4.03 3.704 5.24 4.075 2.78 9.045 3.98 13.346 6.4 1.069.6 1.664 1.82 2.626 2.57.804.64 1.625 1.42 2.636 1.58m-41.675-24.14c1.07-.72 2.455-1.12 3.213-2.16.41-.56.14-1.45-.133-2.09-.245-.57-.77-1.03-1.322-1.32-.503-.27-1.217.06-1.685-.26-.55-.38-.816-1.07-1.114-1.67-.597-1.19-1.314-2.37-1.56-3.69-.074-.39.593-.61.682-1 .152-.68.2-1.42.014-2.09a13.871 13.871 0 0 0-1.617-3.67c-.42-.66-1.013-1.27-1.72-1.62-.497-.24-1.203-.36-1.662-.05-.803.55-1.351 1.45-1.729 2.35-.266.63-.255 1.37-.123 2.04.707 3.61 1.644 7.16 2.624 10.7.297 1.08.497 2.26 1.201 3.12.639.79 1.634 1.28 2.606 1.55m8.384-10.31c.007-2.03.372-4.08.021-6.08-.108-.61-.756-1.06-1.323-1.32-.503-.23-1.202-.36-1.66-.05-.804.55-1.479 1.41-1.73 2.35-.351 1.31-.316 2.76.01 4.08.15.6.753 1.07 1.326 1.32.619.27 1.349.19 2.022.13m106.464-10.46c.967-1.32 2.195-2.49 2.902-3.97.299-.62.242-1.43-.011-2.08-.228-.58-.727-1.14-1.325-1.32-.974-.3-2.118-.41-3.052 0-1.006.43-1.812 1.36-2.325 2.32-.326.62-.233 1.43-.014 2.09.401 1.21.812 2.58 1.819 3.36"/><path fill="none" stroke="#000" stroke-width="5.5" stroke-linecap="round" stroke-linejoin="round" d="m49.598 1073.83-.445-.24-1.734.68-.176-.29.135-.89.13.29 1.147-.04 1.76-.53.926.49.303.76.025 1.39 1.676 7.73.389 4.51 1.318 3.04.806 2.82.762 5.01.592 1.9.214 2.56.123-.34.371 1.1-.278 1.2.264-.49.09.53.127-.18.296.33-.4.34-.22 1.12.016 2.51.226-1.72.19-.09.035.76.404-1.11-.046-.38-.2.62-.466.47-.282-.09-.59 1.84.979-.26.734-2.29.31 1.66.505.5.269-.38.171.74.81.8.708-.1.738.82 1.373-.28 1.92.56 2.329-.23 1.445 1.02.25.78M91.116 1086.34l-.546.48-.217.91.306-.7.773-.29.522.21.216.81-1.561 5.64-.193 4.32.235 2.2.114-.26.15.27 1.771 10.12-.09 3.54.46 1.66.812 1.15 1.243 4.03.328 5.22.298-.67-.529 2.11.75-2.03M113.048 1081.48l-.524-.48 1.427-1.13.597.07.624.74 1.096-.19.287-.44-.654 3.85.06 11.51-.602 4.02-.282.1-.953 2.91-1.152 1.46-2.489 8.45-.244 1.52.27.72.459.34.649-.31M111.294 1116.96l-.028.8.052-.5.753.22.806-1.42.07.93.086.23.109-.34-.012-.57-.406 1.28-.427-.04-.076 1.09.46-.43.135.73.848-.98.463.12M117.69 1115.03l.966-2.48.217.41.62-1.03 1.749-.97.225.43.699-1.72 1.893-.73 1.844-2.45.596-1.53.127.4.323-.15-.189.55-.078-.39-.031.7.025.65.29-.02.324-.94.912-.99 4.718-2.6.31-.58.375-.08 1.015.83M136.988 1105.59l-.021-1.31.328-.62.261.33.535-.35.173-.79.474.38 1.117-.86.311.32 1.298-1.71-.141-1.01-.365-.23-.06.5-.127-1.95-.239-.28-.456.44-.521-.15"/><path fill="none" stroke="#000" stroke-width="5.5" stroke-linecap="round" stroke-linejoin="round" d="m124.812 1107.93.747 1.1.398 1.99.037-.96-.256-.11.209-1.01-.25.49-.451-.4-2.375.94.866-.91.536-.11 1.838-3.43 1.399-5.22 1.019-2.15-.049-2.67 1.963-6.84-.582 1.79-.081-.54-.575 2.48-.599.22-.825 1.8-.959 4.47M137.713 1089.87l-.281-.48.014.61.575-1.02.457.09.142 1.24M94.936 1109.04l-.443 1.02-.163 1.96-.787.67-.137-.27-2.745 4.12.679-.96.046.89.415-.93.648.07.145.65.305.06.219-.59 2.213-1.26 2.98.06 6.794-4.73-1.315 2.72-.045-.32-.423-.03-.275.8-.457-1.14.025.54-.626 1.02-1.517 1.02-.802-.05-1.11 1.1-4.06 2.41M84.195 1127.94l3.197-3.44.88-1.39"/><path fill="none" stroke="#000" stroke-width="5.5" stroke-linecap="round" stroke-linejoin="round" d="m99.188 1115.68-3.035.47-.731.96-.65-.71-.122-.62-.26.09-.056.95.202-1.29.095.74h.447l2.178-1.07 2.833-2.41 1.053-.18 4.226-4.57 1.009-.63M98.472 1101.5l-.818.39-.04-.81.46 1.06.978-1.02 1.3-.53"/></svg>