<svg width="500" height="500" viewBox="-702 0 1404 1872" xmlns="http://www.w3.org/2000/svg" version="1.2" baseProfile="tiny">\n<path fill="none" stroke="#000" stroke-width="7.75" stroke-linecap="round" stroke-linejoin="round" d="m-16.648 994.553.425-.075.05.38.126-.339-.369-.553-.317.47-.034.552.363-.668.057.76-.614.811.233.43.54-.259 2.121 4.668 1.586 5.61 1.55 8.97 2.12 4.64.694.39.265 2.69-.92 15.19-3.563 16.94-2.376 27.03-2.752 8.48-.681 4.97-.948 2.63-.237.33-.26-.26-1.303 2.78-.922.9.184-.56-.331.11-5.262 1.94-1.324.9-.973 1.41-1.724.75-1.08 1.77.55-.5-4.457 4.94-1.786.25-1.473 1.03-1.141-.23-.834.7-4.03 1.08-1.699 1.75-2.434 1.24-.265.98-.425-.28-.363.42-.943 2.55.044 2.88.834 2.39.8.33 1.366 4.28 1.703 2.32 1.006-.14.503.83 1.154-.28 1.14.99.787-.38 1.756 1.61 2.638 1.25.864.23.463-.45 1.15 1.42 1.469.52 8.774 9.86 1.214.51 1.046 1.31.72.18.373-.47 1.647 2.51 1.022.38 1.952 2.08 3.515 2.29 3.526 1.61.904.92 1.619-.27 1.002.74 1.16-.19 1.087.64 5.25.9 5.172-1.41 1.272.24 3.628-1.7 2.5.39 1.57-.29 1.202.54 4.92-.34.699.39 3.114-1.37 4.637-.48.683-.56 2.616 1.31 2.713.73 2.675-.14 3.443-.99 5.704-.08 1.207-.58 3.904 1.44 2.685.03 6.022 1.12 4.92.12 1.348-.34 2.853.64 2.151-.45 2.028.65 5.055-1.02 3.273-1.35 3.631-2.31 2.232-.76.7.53.954-1.24 1.673.2 2.504-2.19 6.218-3.4 1.901-.5.969.21 2.519-1.28.624.22 2.416-2.81 3.607-2.46.418-.04-.556.65.299.08 1.011-1.49 1.761-1.25 1.732-2.86v.43l-.75.38.374-.31.049.4.047-.5-.129.4.26-.12 1.297-1.1 2.84-1.36 2.972-2.31 3.687-4.56.847-1.68-.973.74-1.927-1.54-3.729-1.46-2.354-2.11-.385.06-3.102-3.16-1.119-1.96-.49-2.05-4.818-6.19-10.524-16.8-7.112-6.08-2.183-3.3-4.252-11.74-.76-2.77-.411-7.52-1.507-7.92-.727-8.08-1.38-8.71-.972-15.63.401-3.27 2.89-10.18 2.096-4.17-.5.05.535-5.163-.507-7.459M-50.034 980.122l1.229.584M-48.944 983.413l2.883 5.278 4.237 2.706 2.062.049.844-.595 4.163.428 3.29 2.58 4.058.992 3.56-1.005 3.349-.375 3.547-2.154 2.335-.861.777.186 1.5-.893 1.024.317 7.66-1.888 8.636-4.061 1.702.094 4.342-.781 10.99-2.773 2.59-1.312 2.403-.489.964.301 3.538-1.803 6.922-1.056 8.735-2.659 3.853-.667 1.753.539 1.524-.8 1.449.74 7.039 1.473 4.476 1.968 2.112.011 2.002 1.188 5.574 1.923 10.993.55 6.95 1.259 7.532.559 5.463-.515 6.812 1.352 2.34-.567 2.135.2 18.579-1.857 1.078.433-.093-.565 1.21-.767 4.501-4.885 1.043-3.753.652-.938.522-6.162 1.457-5.514.759-5.399 3.089-10.119 2.727-11.844 1.074-2.06 5.76-7.42.235-4.714 2.062-3.984 2.938-3.649 1.053-2.024 1.94-6.199 4.635-9.874-.21-2.632.797-7.754-4.722-9.509-.374-2.441-2.062-6.276-.676-5.185-.064-4.99-4.65-11.913-1.475-2.723-4.393-5.061-1.159-2.751 2.235-6.85.563-3.596 2.06-3.976 1.755-8.023 2.104-4.762 2.095-3.426.344-1.303.108-8.321-1.302-5.146-2.814-4.388-2.045-9.924-2.367-5.404.202-9.612-1.259-6.507-.254-7.03-.965-4.077-2.707-6.082-1.305-8.687-3.343-7.163-.647-3.867-2.631-4.237-2.893-6.191-1.093-6.769-1.154-2.151-1.654-5.712-1.007-7.178-5.649-11.631-.145-3.658.886-4.547 3.847-9.479-.462-7.825-1.142-2.869-2.378-3.923-1.486-1.653-5.387-9.023-5.678-6.904-.116-1.21-2.273-2.694-2.197-3.837-2.444-5.523-1.484-8.011-2.209-4.031-4.014-5.277-5.858-5.951-4.39-2.416-5.972-1.373-7.687-.404-12.347-2.023-2.723-.93-1.016-.873-1.95-.09-2.474-1.017-2.084-.098-4.135-1.127-11.497-.433-4.284.267-7.377 1.043-2.996 1.06-6.354 3.841-.822.779-.518 1.423-.562-.253L9.5 582.763l-3.646 1.716-5.137 3.224-.822 1.505-.316 2.478-2.48 3.496-1.432 4.338-3.238 4.215-5.265 12.752-3.73 6.659-1.594 6.467-4.738 10.172-6.823 9.837-2.314 4.308-1.556 4.015-.241 3.44-1.094 3.681-.91 5.573.921 6.004-.224 6.101 1.358 3.902 2.28 11.859-.092 2.602-1.763 6.04-5.532 6.293-2.386 1.283-1.613 2.396-3.996 3.708-3.675 5.395-14.099 12.641-.538 1.215-1.093.636-8.755 10.433-1.13 2.932-.57 4.997.094 4.071 2.669 5.897 2.88 12.239.405 4.999-1.54 15.025-1.877 5.279-2.543 10.75-1.782 16.352-.251 8.831-1.973 9.991.15 16.285 1.617 10.579.162 7.294.46 2.791-.925 11.01-1.67 10.844.865 12.919-.827 7.367.275 4.145 1.12 4.951 2.3 4.754 5.072 6.789 4.039 7.418 2.07 1.73.938 1.83.912.717 6.229 11.152 1.857 1.517 1.458 1.981.417-.429 1.381 2.014 4.938 3.306 5.711 2.994 3.744 1.042"/><path fill="none" stroke="#000" stroke-width="7.75" stroke-linecap="round" stroke-linejoin="round" d="m61.865 589.059.439-.907-.166.301.726.596.922.042.156 1.043-1.42 8.604.669 19.242 1.648 4.302.816 1.095 2.512 7.177 2.936 4.76.53.132 1.075 1.555 2.15 1.08 1.634.338.492-.326.09.427-.07-.475 1.534-.7.986-1.471.09-2.507-.96-4.621-2.129-6.02-1.612-6.539-.763-.79-2.197-5.429-1.341-8.955-1.092-3.98-1.689-1.867-.436.01-.699-3.016 1.859 7.792 3.003 9.535.734 11.383.807 3.66 2.82 7.304 1.469 1.447-.798-17.933-1.42-8.29-1.3-4.297-2.667-5.776-1.187-1.657.026.713M40.851 594.299l-.201-.713-.053.737-2.296.926-4.152 5.224-4.934 11.543-5.712 9.402-1.732 4.801-2.428 3.99-1.825 5.3-1.135 5.133-.399 9.886 1.696 6.666 1.882.394 2.756-2.592 3.812-6.748 7.45-9.824 1.127-2.235 2.787-7.696 1.235-6.556 2.934-9.871-.145-13.54-.177-2.176-1.07-1.842-3.602 8.378-3.75 10.906-3.368 8.132-3.35 14.353-4.004 9.007-2.544 3.44.148.428.196-.65 5.38-4.035 2.603-2.698 4.05-6.437 1.817-4.58 2.167-7.629 1.488-12.973-.504-2.013-6.566 12.062-5.303 12.819-4.876 8.091-.94 6.17-1.16 1.683 1.067-.97M7.077 624.149l-.826 1.222-4.18 3.29-2.863 3.356-1.551 2.672-5.86 4.493-3.111.815-2.966 4.182-.865 3.071-3.023 6.509-.975 5.373-2.235 7.952.714 3.243.156-.32 1.054.208 1.968-1.139 3.046-2.431 3.194-3.348 9.664-15.81 1.742-4.401.773-4.942 3.159-7.381-.238-.406-.315.843-5.47 4.531-1.718 2.154-1.845 1.453-6.233 8.524-.779 2.805-.38 10.559-.677 5.218-.677 1.688M2.628 668.267l-.886.863.408.27.1-.739-.123.829-2.201 2.919-1.533 3.313-4.975 14.964-5.05 7.808-4.445 9.956-1.925 5.984-1.082 5.433-.638 5.355.333 2.551h.383l.214-.842.835.461 5.157-3.137 1.066-2.208 1.29-6.033 1.189-3.23 4.106-5.438 6.623-5.039 1.563-1.907.284.175 4.204-7.531.282-7.87-1.481-5.34-.41-9.387-.548-2.913-.238.374-1.92 8.886-2.176 5.693-1.003 5.203-2.11 7.227-2.604 4.834-5.718 7.672-.382 1.427-2.283 1.915 1.017-.29 3.536-2.842 11.794-14.587 2.333-7.27M38.263 661.296l-.846 1.157-.256-.351.3.155-3.827 1.91-2.955 2.075-2.25 2.372-.902 1.703-3.627 11.628-.43 3.138.284.693.833-1.186 1.678.168 3.524-1.504 4.823-4.281 2.52-2.958.692-1.769-.177-4.599-.666-1.143-.17.346"/><path fill="none" stroke="#000" stroke-width="7.75" stroke-linecap="round" stroke-linejoin="round" d="m33.1 679.408-.989-.123-.07-1.211 4.731-7.554-.918 1.347.061-.607-1.11.528-4.29 3.006-2.64 3.105-.491 1.563.423 1.707 1.765.87 2.979-1.119 2.317-2.398.42-2.234-.193-1.6-1.447-4.532M53.087 650.506l-1.355-2.993.375.67-.565.585-.108 4.232 1.574 15.821.85 4.129 1.368 3.325.136 5.945 1.997 6.472.638.981 2.668 1.056 3.587-.178 1.874-.877 3.548-9.845 2.604-4.236-1.04.606-2.746-13.615-4.725-6.588-1.74-6.499-3.561-6.649-.464-1.403.57-4.682 2.114 13.343 2.776 11.508-.178 4.435.568 5.052 2.863 6.743.673 5.046.507 1.067 1.489 1.174-.291-.437-.181.45-.253-.942-2.762-2.363-1.628.415-.541-.305-.525.412.237-4.67 4.906-12.492-1.253-1.98-1.433-6.514-.634-1.223-1.091-.787M88.638 643.153l-.277-.273.676-.471.808-.297.228.425.755 5.866 2.05 5.508 2.728 12.529 1.654 4.51 2.187 9.164 6.258 16.955 1.078 5.14 1.548 2.132 1.429 6.835.875 2.794 1.636 3.072.652 3.71 3.026 5.616 1.411 5.194.46-.085.657 1.281.556 3.485 1.117.99.715 2.777 1.294 1.44 1.313 5.221.276.458.343-.503.505 1.961.821 1.006 1.253.552 2.029-1.041 1.055-3.699.346-3.653-1.444-3.948.025-6.129-1.002-2.621-.126-2.558-.343.067-.646-1.654-.748-4.887-1.892-7.236-3.041-8.001-.733-4.179-.105.676-.514-1.016-.985-4.486-1.005-1.853-1.024-4.987-.946-2.097-.834-4.223.011-3.637-1.689-8.736.047-4.442-1.311-3.589-.047-4.263-.315.369-1.179-4.736-.927-1.793-2.031-2.15-3.643-6.215-1.748-2.104-2.66-1.929-.549-1.232-.448.268-.04-.376-2.627-.976.06.641-.163-.647.01.69-.13-.577-.962.825.258 1.385-.717 4.146-.019 4.199 6.184 15.094 4.601 7.76 2.209 11.746 1.224 3.737.771 7.963 1.947 8.699 2.364 7.129 2.357 3.878.611 2.667 3.107 7.026.675 6.335-3.522-19.363-7.414-32.214-2.042-6.867-1.575-3.309-1.44-4.599-3.508-7.251M17.186 599.043l-.14-.876-.434-.073-.264 1.931.44-1.253 4.268-4.917 2.617-3.867 2.75-2.484 1.177-.579.323.135-.21.343 5.658-1.13 2.265-1.581.453.579 2.028-.321 1.714-1.161-.048-.345-.188.647-.398.137.01-.535-.82-.337-1.825-2.102-1.448-.632-2.26.813-.879 1.552-8.286 6.174-4.567 6.166-2.055 1.866-1.78.738-.498 1.16.518-.83M88.058 597.582l.842.101-.697.359.054-.454.059.514-.262-.356.096.792-1.146 1.47.069.805 1.269 1.876.854 3.491 1.685 4.117 1.312 1.072 2.198.199 2.736 2.227.82 2.084 3.683 5.987 2.94 2.445.823 1.882 2.823 1.975 1.108 2.592 1.444.736.824.006.336-.492.015.349-.068-.415.057.424 1.234-1.727.26-1.315-2.935-7.906-5.674-5.719-1.926-4.029-2.16-1.414-1.573-3.564-.868-5.7-.569.03-2.32-4.45-.635-.098-.17-.517-.903.556-2.29-.136-.537.947.549.621.21 4.258 3.491 7.621.778 4.399 1.218 3.804M81.153 695.377l-.099-.657-.498.665-.453-.554-.887 1.307-1.99.978-2.762 3.15-2.09 3.93-2.066 5.414-3.3 5.53-.432 2.991-1.021 2.302-2.522 3.28.242.47.285-1.333-.086 5.234 1.054 1.735 1.059.576 2.166 2.908 1.606 6.905.304 5.69-1.037 5.742.084 1.849.601 1.183.078-.298 1.79.494 1.819-.216.453.383 1.11-.893 3.715-8.93-.123-1.818-.712-1.037-.18-3.537 1.944-18.693 2.11-6.246 2.919-4.798-.303 1.037.49-.54 3.453-7.358-.503-1.415-.082-6.066-.504.543-2.432-3.262-1.062.823-.154-.392-2.697 3.95-2.238 3.831-2.008 5.657-6.606 10.524-2.14 5.507-1.742 7.616.174 5.005.426 1.653.19-.34-.512 1.73.382-.042 7.696-19.487 5.456-10.07 1.592-6.128.855-1.511-8.018 11.214-2.398 5.11-2.324 7.495-.365 2.539 2.652-7.69 4.28-8.145 2.438-3.078 1.045-2.544.923-.573M39.574 705.095l-.834.804-.864 2.586-2.362 3.333-1.834 3.75-2.655 7.418-2.791 3.254-.387-.066-.507 1.165-.384-.377-1.704.332-3.657 1.649-2.737-.521-.882-2.903.111-2.11 2.558-7.408 3.892-4.462 2.883-1.898 3.32-3.811 3.2-2.477 2.432-10.134-.769-3.095.76-1.967-.202.804.144-.513 4.6-1.396.76.217.227.534.08 4.002-1.316 11.848-.959 3.367-3.815 6.113-.29 4.983-1.41 6.605-4.258 6.817-6.405 6.97.394-1.115.186.261 3.525-4.007 4.49-7.894 5.077-6.98 3.561-13.28 1.863-10.29.883-1.785 1.42-5.428-.518 1.383.052-.656-2.637 1.686-.278.704-.366-.15-.8 1.106-1.848 1.145-1.364 1.72-1.415.442-3.572 2.507-.663-.872-.838.537-2.195.01-1.45-.331-.623-.66-.598.584-1.175-.412-1.105 1.123-1.178.076-.708.547-.417-.325-.122.59-.129-.654-1.173 5.176.064 3.622 1.913 5.385 5 8.191 1.504 5.466-.324 3.773-1.65 4.554-1.742 2.077-.207 1.628 2.318-3.852 3.08-6.717 1.352-8.086 2.576-7.23 3.673-7.3.53-5.104-.212-2.923-.712-2.172.116.393.176-.325.516 3.035-.024 4.725-.767 9.096-2.447 6.288-.896.782-2.705 5.564-1.891 7.301M-22.408 764.674l-1.893 1.817.324 2.597 1.11 1.628 3.455 1.647 2.318-.015 1.537.705 1.195-.109.413-.527 1.81.227 3.405-1.389.718-.883 1.623-.547 3.413-3.845-.244-1.373 1.02-4.831-1.126-2.013-.695-6.921-1.292-2.343-.116-1.499.895-5.08 3.856-8.59 1.713-6.942-2.744-7.288-.731-.435-.592.101-.186.809-2.299 2.542-2.938 5.029-3.234 10.022-.839 4.598-3.054 8.099-.518 4.031-.939 2.23-1.938 2.649-1.343.671-1.595 1.603-.743 2.242-.363.428-.202-.258-.634 1.608-.333 1.987.457 3.537 1.674.685 2.938-1.103 3.55-4.313 2.8-2.048.736-.041 1.413-1.711 1.354-5.026-.156-8.372 1.141-8.238-.183 1.345-7.331 18.27-.926 4.226.346.868.297-1.109 1.573-1.385 4.698-6.519 1.59-3.034.062.668-.47.269-1.4 3.454-3.091 4.364-1.231 3.67M-37.492 742.226l.156-.51.41.371.346-.547.101.364-.402 3.556.36 7.342-.735 6.067-1.503 6.831-2.839 9.597-3.654 7.629-.579 5.912.085-.904-.867.232-1.025-1.269-.69-.007-.836-2.063-2.236-2.426.15-1.836 1.824-3.825.348-2.06 4.765-11.148-.41.122-1.18-3.984-.913-.732-1.267-.131-1.645-3.905-.108-1.71 1.475-5.45 4.333-9.2 1.537-2.222 1.258-3.431-.18-.507.112 1.155 1.564 3.102.728 2.941.303 5.902 1.708 6.208-1.075 6.714-4.884 9.22-.638 4.527.612 5.416.851-6.488 2.346-10.599.071-3.642 1-3.509M44.958 736.91l.709-.18-.004-.381-.68 1.103.864 7.49-.078 4.706-1.993 5.718-.413 2.687-4.452 5.979-.845.499-1.098 6.617.066 3.17 2.237 5.436.736 5.706.648 1.512.358-.068 1.772 4.884.486.073.257 1.137 1.195 1.211 1.23 2.714.073 5.548.058-.921.254.418 2.8-.528.572-.754 2.324-.688 3.266-2.985.424.071.85-1.261-.19-.879 1.37-4.444 1.37-3.031 1.239-.971-.376.87-.575-1.009.58-11.944-1.244-3.4-1.35-12.223-1.87-3.18-1.494-7.204-2.547-5.334-.75-2.941-1.276-1.545-.154-.863.177 1.096.118-.39-.22-.288-.075.403-.96-1.962.22.741.185-.27 1.386 11.169.382 7.278-.482 10.384.35 8.695-.503 4.593-.75 2.627.83-1.75 1.417-12.027-.037-6.977-3.823-9.517-.006 1.477-1.139 2.209-1.158 5.726 1.125 5.054 2.292 1.297.493-.784.174.267.264-.935-.309-5.701-2.17-8.311.415 1.834-.493.536-.657 3.383-.261 5.494 1.861 8.509 1.468 4.44 2.58 5.059-.354-.997.213-.347.25.566.06-.386.89 3.517.095 2.626-1.947 11.348-1.648 3.453-3.069 3.871-4.267 10.453-1.72 5.546-1.1 1.8-1.648 1.627-.654-.194-.217-.561-1.133.909-5.346.987-1.64.641-.042.388-.76-.495-1.105.981-2.89-.087-.732-.456-.282.313-1.544-4.21-.287-3.879.905-7.095 2.087-4.653 2.128-3.008.639-.479.194.33.014-.651-.289.383 1.273-1.506 1.74.506 1.142 1.31 1.182.061.957 1.127 2.826 6.728 2.395 3.672 1.396 5.626.338-.287-2.204-2.642-3.636-7.571-1.09-.511-.253-.809-.28.506-.681-.207-.155-.5-1.192.602-1.307 3.054.5 9.271 2.745-4.276.533-3.57-.549-.31-.022.956.02-.425-.809.098M14.366 753.607l1.068-1.789-.09.559.769.879 1.668 6.237 2.602 7.302 1.885 10.454-1.029 2.415-.453-.562-2.252.244-2.896 2.022-.488-.114.003.459-.102-.772-.871.83-.936-.375-1.935 1.882.277-1.182-.67-1.869.07-1.298 1.71-6.692-.004-2.255 1.22-6.701-.926-8.189-1.96-9.313-.676-1.207 4.297 6.809 1.515 9.194-.118 2.214-1.743 7.695-1.215 3.569-2.534 4.871-.311 1.536.396 1.577M-2.274 787.875l-.096-3.294-.354.264-.613 7.944.521 7.672-1.63 4.77.133-1.637-2.61-1.442-.408-.653.116-.981-.43.302.304-7.552-.717-5.993-.294-.727-.28.391-.26-.262-.001-.468-.181.71-.046-.598-2.131 1.997-1.563.778-.312-.407-.487.975-.408.264-.204-.506-1.75 1.795-1.947 1.161-1.27 1.474-.227-.189-.321 1.769-.382-.313-.672.81-2.894.386-1.116.728-.227.67-.752-.313-2.133 2.887-.938 5.317 1.592 4.73-.11 1.126-2.17 4.031-1.306.956-1.052 2.506-1.179 11.115.195 10.166.88 4.843 1.867 4.018 1.349.577 1.752-1.143.52.256.987-1.53 5.43-4.293 6.103-6.827.604-1.376.419-3.298 3.613-7.998 2.103-8.543 2.378-6.673.115.84 2.091-2.325 1.415-.637.924-1.597.023-2.221-.212-2.187v.93l-2.643 2.858-4.968 6.731-2.785 5.419-1.99 2.165-2.814 4.525-1.328 1.209-2.477.129-.748-.424-.261-.761-.57.351-.236-1.222-.298.217.656-4.04 4.087-14.015 1.97-2.764 2.037-4.374.893-4.214-.324-.681-.3.878-1.71-.39-2.049.77-2.044 1.157-1.401 1.664-2.956 4.096-2.337 4.327-2.182 7.326-.56 4.414.088 4.738.645 3.588 1.129 2.146.189-1.647.316.385 3.688-4.654 7.765-12.34 3.729-7.105.139-7.11-.738-3.979-.197 1.121-1.92 1.08-1.414 1.403-3.37 4.714-4.144 8.57-5.336 13.751-1.867 6.13-.36 7.304.53 1.203.08-.376.096 1.803 1.492-1.61M-60.496 800.673l2.347 11.676 2.706 5.778 4.232 15.835-.004 6.42.104-.715.647-.203 1.23-1.677 3.108-5.239.233-6.558-1.404-6.661-4.696-10.738.1.923-.233-.745-.121.54-1.885-3.77.27 1.285-.08-1-.188.849-.07-.431-.08.327-.647-.216-.418-.948-1.22.688-.424-1.198-.668.501-.672-.898-.249.242.28-.205-.166.717.074-.399.312.387 1.879 4.673.84 8.759-1.247 3.208-1.42 1.936-.63 3.543-.617 2-.25-.355-.899 8.495.042-.696.16.739.17-.335 2.636 3.027 3.752 1.247.892-1.177.738-2.447-.742-4.463-4.728-14.135M-56.108 869.724l.505-.269.148.423.025-.421-.003.826-1.355 16.364-.267 1.874-1.833 3.956-.33 8.385.362.924.264-.932 3.555-1.479 2.082-2.772.979-2.644.53-5.116.803-3.119-.415-3.469-5.793-16.543-.284-4.374-.303.649.223-.185.147.737-.087-1.237.086 1.033-.586.986M-41.047 884.761l-.066.363-.258-.714.197 1.005.102-.721.245.299.855 2.725 1.346 6.045.883 7.152-.434 3.484-2.72 9.813-.766 7.118 1.618 5.418 1.127.923 1.113 2.118 1.125 1.109 2.027-1.149.748-1.696-.473-10.738-1.581-10.92.744-9.666v-4.142l-.416-1.306M16.458 868.474l-1.587 1.901.47.223-.284 1.482-1.382 1.41-1.002 2.363-1.567 6.775.515 6.273 1.34 3.863 1.683 7.626 3.732.725 6.08-5.351 1.376-2.185-.275-.458-.324.197-.859-9.213-1.076-5.37-2.068-3.61-.92-.265-.743-1.458-.627.397.012-.744.079.382-3.853 2.022-.396 2.33.765 4.871 3.612 11.977 2.32 12.246.614-.052.262.501-.112-.377.171.226 2.506-2.485 1.21-3.439 1.094-5.007.98-8.787.034-7.156-.493-.578-1.157.683-2.11-1.67-1.319-2.473-1.987-1.009-2.17.151-1.244 1.178-1.04 3.422.333 3.5 4.89 23.553 1.152 2.274 1.27.412-.218-1.49-.223.637.16-.826 1.208.366 1.623-2.536.613-2.519-.501-4.975-3.71-11.098-1.755-2.192M95.778 865.689l-3.147.954-.147-.276.23.242.558-.588-.317 1.428-3.513 3.318-1.113 2.648-.104 7.058-1.208 8.777.55 3.048 1.075 1.036 3.173 7.164 1.097 1.449 1.432.779 1.693 1.801.416-.321 1.549 3.28.157 2.985-.325.957.391.952-.427 3.709-1.916 5.782.48 4.096-1.855 8.124.527 5.171-.152 3.343-.677 2.837 3.046-1.704 2.345-3.431.539-2.07.245-5.152-.467-6.973 1.985-9.101-1.562-5.988-.377-5.071.086-2.79 1.476-8.208-1.187-9.503.495-8.766-3.117-7.218-2.235-2.541-.293.176-.675-1.606-2.264-2.868-.05 1.096.188-.334.104.339-1.052 11.846.43 4.784 1.975 8.839-1.014 8.147-.127 4.727 1.338 13.233.567.785 1.337.033M118.706 856.659l.303-.736.241 1.603-2.211 5.53-1.343 12.106.483 3.946 1.057 1.977.968.676.339-.542.939 1.171 1.081-.699.16.531 4.924-5.641 2.873-4.442.891-2.908.095-1.713-1.46-7.101-.135-9.771-.271-.448-.42.549-1.942-2.278-.602 1.429-2.784 2.348-.879 2.452.255 8.044 1.553 9.559 1.338 3.766.482.396.212-.244.705 3.065.559.734 1.706-18.921-.146-5.676-.8.319-1.74-.698-.245.285-.476-.672-.398 1.027-.526.296-.3-.326-3.472 4.919-1.053 2.256-2.072 7.226 3.368 19.034 1.247 3.846 2.53-.219-.388.022.028-.398 1.776-4.257M86.762 794.97l-1.678.88.586-.217.778.555 1.042 13.12-.268 6.343-.999 10.401-2.095 4.8-.907 5.638-1.653 6.329 1.089 9.869.078-.788.89 1.27.347-.444.451 1.282.332-.522 2.032-.267 1.091.315 1.631-1.316 1.031-.428.517.293 1.5-2.068 1.101-.6.373.39.82-1.387 1.304-.647 1.927-4.234.391-3.127.106-11.521 1.142-6.8.107-4.151 1.554-7.161 1.694-5.427-.568 1.133-.953-3.447-2.649-4.607-2.93-1.553-1.15-1.179-1.37-3.242-1.125-1.414-.814.213-.597-.586-.387.14.1.3.347-.377.032.53-.188-.55-1.78 5.148-.898 4.701-.062 3.178.932 5.484.668 10.333-.792 6.713-1.546 3.97-1.379 7.306-.005 5.179.354 1.221.116-.99 1.039-.459 3.012-4.144 2.56-4.998 2.245-9.002-1.112-11.6-.228-10.15-.094.991-2.992-6.524-.26-1.5-1.252-1.119-.285-1.504.367.787-.54 8.232.727 3.011M136.981 755.56l-.268.296.376.936-4.514 6.112-3.988 8.283-1.282 1.133-1.494 2.868-.334-.092-1.042 10.493-.523 1.889-.454 12.388 2.57 8.792.948 1.395.577.029 1.461 3.758 1.272 7.129-.418 5.034.362 2.775.252-.166.278.819.655 3.611 1.856 5.172 1.369 1.387.687-.542.645.107 2.292-2.94 2.392-5.154 1.801-6.668-.598-2.959-.911-.685-1.065-2.719.05-5.628-.629-1.916.374-4.937 1.976-9.468-.894.02-.367-1.414-.551-6.339-.916-4.534-.871.345-.909-1.753-1.206-10.071-2.148-4.76-.774-5.475-.124 1.609-.72.477-.745 1.675-2.039 6.355-.116 13.877.802 7.179 1.869 8.156 2.094 6.563.632 8.758 1.499 8.141-.204 8.4.33 1.429.231-1.286-1.623-12.389-.141-8.629-2.004-3.598-.536-4.067.558-6.56 1.717-10.334-.139-1.018-.269.299-.134-3.128.435-3.738.267-1.011.273.217-.254-.555.053.945-.004-.903-.56-.136M147.032 865.702l-.428-1.805.3 2.172-.567.934-.862 4.621-.163 9.352-1.259 9.397-.097 5.764 1.052 2.718.78.252 1.632 1.651.139-.351.817 1.143 2.807.241 1.029-.732.125.468-.393-.642-.134.449.746-.4 1.419-1.947 1.394-7.044 2.128-7.595-.168-1.034-.388.507-.548-3.63.205-4.872-.106-.415-.406.672-1.948-6.43-.511.567.017-.592-.167.985.307-.049-2.586 4.259-.849 2.658-1.085 7.117.399 12.93-2.138 9.446-.494 4.026.379.403.225-1.299.753-.125.989-1.475 3.053-6.113 3.48-11.246-.151-2.667-2.64-4.525-1.61-4.391.066 1.018-.383-.726M134.771 933.117l-.731.339.257.425.137-.988.001 1.403-5.558 10.469-1.367 9.271.031 1.777.723 2.331.683 1.242-.09-.676.182.487.096-.412 1.509-.311-.175-.558-.338.432.06-.558 5.649-10.149.553-7.47 1.614-7.835-1.394 4.678M118.24 923.918l-1.321-4.414-.042-3.428.452 1.591-.144-.721-.313 1.89-2.618 5.147-1.568 12.344-3.04 13.742-.39 6.143.244 8.878.252 1.482.221-.654.509.995.27-.555.682.42.631-.492.02.359 2.273-18.136-1.227-9.182.737-7.37 1.513-5.599 1.877-4.455 2.048-3.265 2.047-2.055.063.783-.361-.551.079.712-.063-.984 2.792-3.813-.539.858.156.694.039-1.384-.059.829.086-.597 1.843-1.785.355-1.043-.47 1.366M47.121 925.842l1.354-2.49.16 1.188-.425.455-.34-.45-.268 1.775-2.913 4.782-1.428 3.78-.36 2.206.112 11.494.908 3.791.908.494.386-.697 1.629.422 3.108-1.628.568.359 3.245-3.416 2.315-9.875.006-4.177-.331.264-.412-.998-.414.107-.169-9.233-1.268-3.973-.366.103-.41-.967-.213.19-.152-1.287-2.132-1.598-1.006.245-1.986 2.476-.67 7.311-.048 10.816 1.037 7.73.582 1.284 2.266 2.159 1.876-2.655 1.36-4.932-.007-5.024-2.337-12.089-.293 2.707-2.29 4.315-1.944 7.253-.298 10.679 1.45 11.046.493.765 2.31-2.526M63.23 807.395l-.854-.384 1.2-1.316.305.434-2.535 7.781-.947.569-2.386 3.384-3.025 5.295-.947 2.891-.434.605-.189-.432-.624 2.456-.783.344-1.027 2.033-2.59 3.346-1.392 3.083-1.409 1.316-2.877 5.164-1.402 3.016.084 1.175-1.706 8.155-.026 5.07.404 1.678 2.586 4.743.373-.06 1.628 6.276 2.506 2.857.726.105 1.48 1.719.848.311.534 1.827.268-.125.524 1.126.704 4.147-1.198 7.471.413.184 1.881 4.759.41-.393 1.031.826 2.8.685 1.067.933.948-.216.977.537 1.054-.943.93.117 1.05-1.84.936-.729.066-.483-.257.119 2.243-5.975 1.252-8.25-.303-2.261-.48.044-.375-1.07-.959-4.167-.318-12.333-1.56-6.9.51-16.867 3-12.354-.435-.314-1.147-8.362-1.124-1.853-.203-.218-.42.662-1.943-3.691-.317-.188-.547.743-.189-.436-1.12 4.641-3.053 6.568-1.62 1.959-2.001 4.533-.813 2.99-1.04 1.462-.375-.059-1.242 2.188-.835.245-1.2 1.287-1.911 2.841-2.93 5.222-1.434 4.42.313 2.731 1.065-1.981 9.512-10.422 5.557-8.383.587-2.135-.387.621-.138-.395.415.317-.554 1.982-9.93 27.274-1.145 5.111.23 1.228.542-.515 5.011-12.866 2.769-8.966 4.552-16.242.381-4.971.034.864-1.652 3.825-3.054 10.222-2.483 9.547-3.916 27.274.6-.092 3.246-8.033 3.738-11.42 5.476-18.78.588-4.865-.597.609.282 1.694-1.83 6.289-2.399 13.261-1.232 14.591.018 14.096.224.508.726-2.364 1.198-11.46 2.31-15.58-.577 1.405.22 1.569-.417 1.127-1.28 38.353 1.285-3.718 2.27-25.34-1.056 10.354.03 9.147-.746 10.807.02-3.972-1.355-3.603-.864-4.135.762-8.326.685-2.057-.1-1.841-.13-.354-.502.35-.417-.333-.74-1.667.317.084-.064 1.444-1.974 11.972-.125 4.948.442-3.828-1.186-10.193.23-9.617-1.384 14.991-1.63 6.055.565-5.516-1.286-5.097.71-1.946M95.282 726.181l.217-1.33.146.912-2.157 1.9-.935 1.623-.289 1.805 1.36 4.512.961 6.971.798 1.847 2.323 2.408 3.215 5.509 3.213 11.078.739.251 1.186-1.042.357-3.969.004-3.957-.971-4.762.197-5.273-.438-1.998-3.959-10.813-1.395-1.76-.723-.515-.306.299-.681-.743-2.282-3.754-.19.289-.306-.688-.36.392-.177-.487-1.092.871-.205-.257 1.007 4.981 1.558 2.733 3.924 3.857 1.646 2.765 1.527 5.454.343.364.223-.295.778 2.431.45 4.382"/><path fill="none" stroke="#000" stroke-width="7.75" stroke-linecap="round" stroke-linejoin="round" d="m61.526 829.048.013-3.423-.58-.279-.181.374-.371-.435-.314 1.275-2.252 2.781-1.089 3.839-9.203 22.897-2.77 4.51.15 1.568.552.329.402-.293 3.748-8.613 3.049-5.172 3.577-8.005.974-4.225.682-6.553-.708-5.172.267.635-.578.694-3.708 11.773-5.803 10.46-2.148 4.977-.865 5.102.353 2.349 1.646 3.451.827.817.905.542 1.493-.224.704.39M46.79 777.333l-1.323-5.893-.475 6.018.223 5.845 1.822 10.379.433.651.807.072 2.7-2.925.486-1.063.61-4.693-2.568-11.442-2.47-6.775 2.818 6.936.993 7.281.122-1.192 1.285-1.525 1.436-3.294.215-2.037-.367-2.891-4.054-10.205-1.023-1.156-1.54.938-.776-.089-.26.5.184-.663-.029.306.72-.063M-20.669 824.676l-5.474 3.291-.95 1.289.442.802.475-.064 1.024-3.144.338 4.488-.375 2.871-2.597 7.696.162 2.614.42.636 1.067.048 2.02-1.991 2.588-4.278.913-2.598.48-3.371-.44-3.937-1.324-3.726.01.567-.116-.539-2.04 3.313-.664 2.02M-4.126 936.47l-.259.92-.487-.213-.903.526-.761-.438-.858.682-.995.07-3.88 4.456-1.793 5.897-.276 5.275 1.112 5.631 2.912 5.348.184-.508.365.271 1.595-1.16 1.434-3.833 1.475-7.728.513-6.69-.574-5.592-.12.908-.234-.434-.007.471-.057-.342-.686-.026-2.104 1.616-1.585 2.517-2.36 5.751-.49 5.274 1.281 5.425 1.242 2.456 3.074 1.594 2.244-.638 2.523-1.421 1.073-2.809-.177-2.727-1.554-5.7-1.724-3.635-1.2-2.006-.51-.257-.346.659-.177-4.935M-11.527 905.859l-.702.135-.36-.572.367.956-2.26 5.738-1.461 5.418-.43 4.878.258.345.986-1.183 2.443-1.137 2.687-2.474.777-2.377-.654-1.16-.813-3.65-1.434-2.663-.131.333-.75-.347-1.787 1.335-2.088 2.344-.682 1.828-.032 1.706.39.323.605-.748 1.943-.259 1.692-1.032M14.27 940.266l-.13-2.815.137-.287.37.479.1-.319-.86-1.94.207 1.764-.231-.63-1.093 2.461-.481 6.921.173 9.855 1.023 3.555.608-.496.54.827.505-.295 1.32-1.787 4.518-9.69 1.076-3.434-.568-7.382-1.32-7.828-.275-.312-.128.306-2.541-4.375-1.66-1.74.274.628-2.695 4.05-.813 2.647-.686 5.277.284 9.407 3.831 15.511 1.867 2.548.303.202.064-.387.246-14.098-.441-3.928-.226.493-.215-.57-.148.388-.192-.66-.317.121M-52.563 945.559l.225.499.305-.542-1.018 3.455-.183 3.814 3.335 13.782 1.023.465 2.47 2.476 2.527 5.809.913.537 1.443-.559-.387.094-.535-3.2.05-8.427-.16 1.371-1.543-4.173-1.074-6.274-.191.55-.539-1.526-.201.245-.486-.56-.35-1.933-3.766-7.215-.32.054.329.734-.178-.897-.123.743.598 2.842-.989-4.428-.975-.467-1.338-3.424-2.114-2.543-1.682-6.327-.436-.354-.034.293-.044-2.138.766-4.09 2.78-8.282"/><path fill="none" stroke="#000" stroke-width="7.75" stroke-linecap="round" stroke-linejoin="round" d="m-58.454 922.982-.526.01.34.234.728-1.768 1.062-.733 1.108-2.424.567.131-.545.496-.066-.729.72-3.99 2.352-8.187.06-3.72-1.733-5.891-.646-3.975.323-7.26M116.222 872.018l-.856-.17-.832.705 1.013-1.281.429-1.533.541-6.237 1.043-4.19 3.367-6.202.167-1.324 2.829-6.503 2.494-3.813 1.297-.618.518-.974.134.457-.038-.889.022.484.202-.257 2.376-4.78 1.67-4.283-.008-.666-.57.174-.394-.48-1.517-3.056-1.093-12.392-.712-3.169M102.959 822.919l-.647-2.814.065-3.79-.49-2.043.002-1.789 1.28-5.749-.45-4.214.221-2.869-.999-3.787-.336-8.405-.733-2.399-.214-5.146-.68-1.746.21-3.766 2.233-7.145.311-8.976M129.533 775.814l.752-1.1-.31-2.883.269.233 1.452-3.888 1.344-4.645 1.671-2.442 1.383-3.95 3.912-6.687-.056.602 1.578-2.019 1.293-.786.453-1.038.358.11 1.977-9.926"/><path fill="none" stroke="#000" stroke-width="7.75" stroke-linecap="round" stroke-linejoin="round" d="m141.885 744.703.457.248 1.355-5.973 2.658-5.223.547-2.604.326-6.158-1.053-2.619-.379-3.013-.163-8.893M137.02 775.086l.356-1.81-.054.794.328-.444 3.675-6.905M138.532 780.745l5.728-7.948 2.523-2.179M139.838 793.877l5.481-6.044 4.513-3.588 1.393-.452M141.787 807.586l3.218-4.112 4.253-3.911M141.098 824.422l1.933-.453 2.586-2.566 4.226-1.187M96.968 651.517l-1.157-4.709-.144 1.339.768.025 2.787 10.365.947 1.304-.149-1.644-3.69-11.094-.947-1.535M94.183 666.48l-1.208-7.324-.493-6.174.095-10.736.836-8.84 1.003-2.67.33.151.401-6.331-2.132-8.826-1.86-4.539-.324-5.09M-2.945 645.853l2.704 20.001M48.984 742.058l1.237-3.362-.646-1.113.681-1.875 2.1-4.279 2.274-2.157 3.11-1.545 1.515-1.436 2.608-.128-.073-.427.209.633.28-.308 3.103.453-.167.269.124-.879.033.865.764-.375.554.624"/><path fill="none" stroke="#000" stroke-width="7.75" stroke-linecap="round" stroke-linejoin="round" d="m64.563 729.082-.024-1.29-.394.839-1.282-.128-1.222.866-1.325 2.051-1.876 1.804-4.164 7.29-2.226 5.973M59.838 678.828l.24-.45.06.936.107-.374.217.327-.676 7.776 1.085 5.082-.21 8.269.679 2.819.967 2.165 4.402 6.611 1.36 4.085 1.876 2.001.424 1.42.562.698.053-.511-.046.602.22-.223-.349-.645-.076.513.075-.837-3.845-5.935-2.252-4.722-1.454-4.864-1.178-8.898.095-9.67-.493.072M-.508 832.091l-.174-1.361.519-1.472.72 4.891 2.91 6.889.209 6.464-.488.324.527-.764.33-3.458.696-1.814-.189-1.449.554-1.784-.23-2.254-.344-1.76-.993-.491-.607.344-.287-1.097-.39.492-.322-1-.718 1.157M16.124 941.978l-.352-2.062.004.678v-.508l.108.498-1.353-1.218-1.215-1.545-.33.32-.52-1.311-.391.481-2.541-1.695-4.669-9.917-.95-1.199-1.177-3.817-1.53-10.321.297-5.332.038 2.774 1.684 7.312.55.226.669 1.815 2.16 3.249.918 4.328.32-.557.427 1.058.488.524.245-.248 1.177 1.746 5.396 4.606M116.38 918.855l-.56-.554-.464.807.523-.368M117.013 916.108l4.007-8.998-.364-2.861.416-2.357 1.961-4.743-.163.504-.226-.276-.728-3.574-2.13-4.393M-43.24 890.377l-.36-6.933-.241-.435-.104.484-.759-4.575-1.29-3.954-.926-5.614-1.85-4.39-1.12-7.229-1.728-3.1-1.465-8.344-1.71-5.308-.288-1.909.421-5.923-.12-.615-.257.275.176-1.986.03 1.799-.441.616M-58.106 847.039l.57.13M-56.931 847.292l-.864.333-.845 5.205.77 4.223 1.2 2.519.923 12.468M-43.784 745.855l-1.04-.442-.069-.426 2.939-5.112.821-3.767.16.284.721-1.596 5.891-6.704 6.908-7.001.215.824 2.363-1.073 5.327-.897 2.382.386.214.882-.406-.785-.683 1.105-1.745.273-1.506 1.659-2.77 1.952-.69 1.176-2.617 1.507-8.538 6.602-3.004 3.158-3.001 4.642-.537 2.813M35.704 662.533l-.883 1.319.528-.487.834-4.371-.277-7.755-.187 1.888-.24-.191-1.158 4.527.077 3.677M55.954 667.015l.536-2.097-.784-3.631-.353-5.335-.151 4.399.51 3.131.45.717.296-.179 2.376 3.856 1.739 5.895.02-.634.29.229-.379.189-.472-3.094-1.546-2.275-2.071-5.553-.374-2.9.068-8.885-.505.362.184-.335.13.486.59 8.16 3.527 14.491M63.606 609.296l-1.15-1.837.462-.195.323.781-.866 12.662.428 6.109.473-.349.307-1.717-2.228-17.897.573 1.307M97.928 651.306l-.724-.826 1.336.308.739 2.123 4.058 4.493 1.586 2.621.739 2.662-2.625-9.387-1.903-3.762-1.585-1.845-1.218-.612.79-.1.759 1.426 3.051 2.592 1.76 2.439 2.469 6.906 1.731 1.109.436-.516-4.037-8.582-2.743-8.2.195 1.352.185-.524 1.65 3.576 2.14 5.798 1.298 4.994.624 4.654.258 9.193-.307 5.326-2.089 7.253 7.035 14.201M122.888 729.523l-.527-.512-.208.445.489.805.359 8.362-.342 5.483-.105-2.691-3.184-14.656-.295-.581-.042.817.516 1.579.244-.532.191 1.756 1.382 3.621 2.426 4.118M42.46 767.641l-1.309-2.663-.662-3.406.504.428.21 1.162.668 14.882-.21 2.402-.804 1.094-.035-18.867-.954 12.059.924 4.27 1.032.029.382-.623 1.214-.225M76.17 726.277l1.121.531-.41 1.031-2.182 1.273-1.952 3.529-1.624 13.753.442-3.085-1.27-11.092 1.151 14.293 1.725-5.505.111-3.573.148 2.003-.495 1.493M21.559 700.25l1.2 22.425 1.149-7.829-.882-10.069.825 3.53 3.128 3.795.924.312.623-.696.4-3.813-2.84-7.206-.792-.474-.45 1.137-.544.068-2.4 4.524-.748 2.357-.649 6.182.521 4.854 1.613 3.294.982.678 2.611-5.494.934-2.606.219-4.29-.572-1.325-.8-.079-.264.635.207-.496-.67.185M-45.645 759.221l.285-9.469-.368 8.801.507-4.838-.333-4.04-.546-1.52.05 10.627-.713 4.948-.785 2.364 1.747-8.122.382-5.044-.503-3.216M-8.934 731l-.328-.537-.368.356.395 1.857-.377 1.566-2.079 5.697-2.095 4.152 1.835-4.05 6.396-9.801.522.065-.468.153-.541 1.35-.042 1.295-2.558 7.768.427-1.313.682-.903.448.122M-14.95 860.794l.282.872-.282 2.627-3.662 9.429-.43.277-2.552 7.738-.177 4.602 1.164 7.689.666.605 2.51-.286 2.728 1.674 1.94-.112 3.476-4.163 1.006.595.335-.663.243-5.166-2.085-10.29-.755-13.858-2.054-2.992-.97-3.505-.318-3.313-.15.64-1.623-4.485-.256-5.537.641-6.973 1.18-8.626 1.501-3.221-4.512 30.631-.023 4.223 1.463 11.366.347 13.585.607 4.235 1.03 2.969-.778-1.857-.08 1.056-1.554 1.883-1.42 3.531-.744 5.097-.095 4.158-.113-1.784-1.564-2.55-1.704-5.192.026-2.593.95-2.58.565.503.412-.94 5.731-1.672-.487 1.03 1.004-.171M1.862 1019.28l-1.166 2.18-.384.38.388-1.09M-10.789 997.357l-2.25-2.441-.827-3.093.519.45.214 1.167.242-.556.31.272 3.746 11.824 2.809 12.29 1.415 11.47.133 14.7-2.026 18.62"/><path fill="none" stroke="#000" stroke-width="7.75" stroke-linecap="round" stroke-linejoin="round" d="m-1.846 989.079-.886-2.281.075-.808.396 1.088.856 3.728 2.118 14.244.682 7.75.31 13.79-.623 14.42M79.837 982.233l.17 1.138.214-.767.078.674-1.28 2.293-3.422 8.821-3.05 11.798-2.891 15.36-2.231 15.78M70.639 981.978l.718-1.018.347.534.077-.594-.239 1.372-2.866 1.594-1.255 1.321-2.278 4.882-3.386 14.501-1.41 9.09-1.38 18.24-.105 10 1.095 15.27 1.292 8.35.805 10.22M60.598 974.237l-.947.912-.61-1.508-.494 1.17-1.085.568-1.088 1.649L51.8 999.57l-4.665 31.12-1.963 31.91M35.519 975.226l-.351-.615.405 1.337-1.286 4.041-1.166 6.572-.581 9.437-.32 22.332 1.24 24.34M10.414 988.223l-1.146.097 1.252-.844.141.648 3.46 33.026 1.578 27.43.052 13.9"/><path fill="none" stroke="#000" stroke-width="7.75" stroke-linecap="round" stroke-linejoin="round" d="m78.657 999.686 1.895-7.61 1.294-3.28 2.796-5.065 1.278-.958-.904 2.594-.048 3.228-1.185 5.689-3.537 11.646-.221 2.37 5.134-12.583 2.76-9.989-7.887 22.252.003 1.89.935-.38 2.115-2.9 3.405-6.1 6.972-17.004-1.187 2.298-2.301-.044-1.948 1.586-2.847 3.69-10.092 19.124 1.066-2.68 2.448-16.439.346-5.643-.249-3.054-.517-1.105-1 .107-.764.931-3.238 1.599-1.385 1.315-4.12 5.127-2.521 5.129-1.836 2.717.78-1.941 3.291-15.206.208-2.668-.715.113-.646.844-1.875-.347-3.434 1.291-1.76 2.439-3.163 2.914-4.38 6.895 1.289-2.251 1.236-5.367.118-2.537-.83-3.044-.708.439-.51-.661-.68.748-.902-.067-1.312.705-6.199 4.742-1.37.487M47.588 973.928l-3.875-.884-1.678.383-.519 1.007-.47-.257.76.399"/><path fill="none" stroke="#000" stroke-width="7.75" stroke-linecap="round" stroke-linejoin="round" d="m79.332 1008.38-1.035-.14-1.435 1.87M35.832 977.474l.453-1.273-.71 13.882-.893 6.802-1.368 4.665-.393.37.13-1.3-1.275-1.315-3.772-6.719-3.868-8.058.5 1.415-.483.451-1.398 4.417-3.287 13.039 1.006-3.914-.155-5.772-.5-4.517-2.294-7.093-.21.764.602 1.791-2.126 20.201M57.185 948.542l-.63.934-1.427.645.034.763-1.286 1.929-1.486 4.28-1.109 5.667.403 4.286.417-.066.504 1.849.609.229.4 1.365.873.941 2.052.939 2.1-.039.306.478.727-.569.462 1.196.723.059 2.723 2.408 1.903.885.346.752 1.553.091.385.632.637-.213.923 1.577 3.41 1.657 1.383-.731 1.12.011 1.302-1.049 6.148-7.075 1.988-3.728.455-2.57 1.608-4.174 3.723-8.011-.518-5.799.835-8.228M85.603 975.734l1.129 4.138.946 1.432 6.164 4.251 2.349-.823 1.346.105.68.539 2.072-1.093 5.11.326 3.143-.505 1.562-1.612.97.125 2.196-2.975M138.801 966.704l.154.594.322-.266"/><path fill="none" stroke="#000" stroke-width="7.75" stroke-linecap="round" stroke-linejoin="round" d="m12.202 955.396.711.1-.088.781.494.54-1.246 4.577.198 4.309 4.409 9.519 1.8 2.137.324 1.023 1.637.388 4.062 2.275 3.646 1.045M-1.106 981.05l.835-1.09-.027-1.17-.42 1.457.413 2.898M-2.808 983.817l.45-.01.074.455.66-.774-.538-2.824-2.338-4.42-1.053-4.529-1.64-1.525-.67-2.431 1.78-9.703"/><path fill="none" stroke="#000" stroke-width="7.75" stroke-linecap="round" stroke-linejoin="round" d="m-3.791 972.602-2.076.132-1.38-.462-1.827.527-.356.854 1.59-.348 1.189 1.294M61.252 968.138l-.729-.063-.284-.606 4.107-.929 3.75 1.888M65.471 959.953l.212.267.255-.315.413.844.157-.501 1.516 1.488 1.11.417M65.964 945.775l-.703-.895.891-.128M133.256 979.447l1.331.142-.661.605M-29.783 986.844l-1.14-1.045-.054.776.433-.432.197 1.182.228-.66-.079.614 2.445 4.437M-9.139 986.62l-.22-2.832.314 1.643.518-.778"/><path fill="none" stroke="#000" stroke-width="7.75" stroke-linecap="round" stroke-linejoin="round" d="m-5.465 973.202-1.452-.273-.906-.451-.028-.605.49.471M-21.776 978.772l-2.47-.154-.047 1.222M-34.439 985.945l-1.864-.059-1.792-1.047 1.638.568M-32.932 988.223l-1.023.078.1-.564.586.727 1.628-.25M-9.995 974.552l-3.965-2.005 1.802.175M13.088 964.575l-1.742-1.322.033-.534.45 1.289.46-.273.804.6M14.334 979.278l-2.61-.719-.284.333.925.05.225.516.582-.879.45.167M28.616 973.654l-1.141-.624-1.004-1.276-1.16-.108.334-.342.82.955.932-.436M36.374 962.566l-1.1-.258-.716-2.065.74.715 1.116.032M50.238 961.725l-.94.075 1.543.647M67.495 967.801l-.966-.367.25.424.288-.527.499.242M86.077 970.245l.21.782M104.98 974.383l-1.364-.116.165.275.114-.442.507-.075.139.588.116-.394M113.754 980.459l-.197.227-.449-.597-.904 1.056.863-.546M129.581 971.767l-.528-.085-.618-1.108.042-.355.264.487.556-3.518M140.791 953.117l-2.618-1.404-.16-.564 1.102-.238M140.806 966.61l-1.249-.286.132.545-.429-.183-2.365 3.788M108.567 981.281l-2.505-.523-.777.255-.47-.486.646-.197M95.046 968.859l-4.44-1.615-1.155-.811-.555-.058.082.798-.03-1.098.432.841.182-.45M83.14 957.674l-4.627-1.807-.818-.873-.31-1.117.341.276M70.257 972.442l-2.853.046-.83.482-.103.607.526-.334M61.315 967.524l-7.07-2.15M29.526 967.059l-6.433-1.809-.952.227.102.612.665-.672M2.393 976.801l-.036.023M-18.726 987.295l-1.842.109-.962-.613.168.634.349-.152"/><path fill="none" stroke="#000" stroke-width="7.75" stroke-linecap="round" stroke-linejoin="round" d="m-26.853 990.249-3.884-1.828-1.225-.073-1.335-1.288.067-.546 1.757.891M-28.99 970.839l-5.967-1.574 1.595-.073.316-.432M-15.192 954.129l-2.287-.296-.255-.753.518-.452M-16.114 969.067l-1.02.33-.362.766.334 1.199.531.555.333-.239M-14.252 938.602l-3.336-2.345.024-.641.81.949.923-.264M-10.697 923.093l-3.675-.293-.862-.706 1.524-.087M-20.255 906.516l-6.717-2.443M136.145 952.358l-.692.318-.42-.659.27.373.52-.22M147.967 932.441l-2.754-2.866-.335.157.203.489.45-.58M152.667 912.646l-1.988-2.388.889.327M141.437 946.956l-1.382-.341.891.525.379-.639 1.057.867M142.147 963.437l-1.567.198-1.851-.892-.893.894.699.236.187.689M133.535 972.864l-.87.133.232-.579.221.461.022-.681M110.063 981.514l-1.33-.783-.708-1.295.018.549-.185-1.016M94.814 974.385l-1.658-.179-1.222-.724.33.574.918-.208M119.545 952.358l-1.514-2.399-.108-1.135.293.362.045.895M128.005 930.171l-1.051.145M90.3 950.466l-.658 1.161-.501-.098-.008-.638.264.635.612-.604M96.189 935.712l-2.915-4.231-.281-2.137M92.683 909.15l-3.366-.536M56.46 909.065l.137.57.027-.712"/></svg>