<svg width="500" height="500" viewBox="-702 0 1404 1872" xmlns="http://www.w3.org/2000/svg" version="1.2" baseProfile="tiny">\n<path d="M105.964 852.515c.955-1.994 2.203-3.872 2.865-5.981.125-.396-.748-.658-.652-1.063.237-.997.823-1.927 1.538-2.661 1.677-1.72 4.423-2.479 5.545-4.602 1.763-3.336 1.343-7.47 2.696-10.992 1.154-3.003 2.997-5.705 4.755-8.4.541-.829 1.339-1.466 2.099-2.101 1.28-1.071 2.606-2.096 4.006-3.004 1.397-.905 3.013-1.455 4.368-2.422.997-.713 1.639-1.846 2.626-2.574 1.561-1.151 3.192-2.251 4.969-3.027 5.689-2.484 11.433-4.894 17.364-6.725 3.279-1.011 6.797-.999 10.142-1.763.285-.065.532-.386.556-.677.044-.525.043-1.21-.37-1.536-1.131-.896-2.517-1.485-3.912-1.853-1.006-.265-2.107-.239-3.12-.002-2.62.615-5.149 1.582-7.667 2.532-5.039 1.903-10.088 3.8-14.993 6.024-1.766.801-3.408 1.876-4.969 3.027-.987.728-1.622 1.871-2.626 2.574-2.349 1.644-5.026 2.782-7.374 4.426-1.002.702-1.664 1.806-2.62 2.57-.713.569-1.846.641-2.35 1.401a48.15 48.15 0 0 0-4.885 9.531c-1.036 2.744-1.146 5.76-1.953 8.58-.178.623-.55 1.195-.982 1.677-1.676 1.872-3.844 3.309-5.312 5.348-1.036 1.439-1.509 3.219-2.066 4.901-.629 1.896-1.436 3.81-1.483 5.806-.015.622.713 1.166 1.315 1.322"/><path fill="none" stroke="#000" stroke-width="4.5" stroke-linecap="round" stroke-linejoin="round" d="m104.643 805.666-.94-1.132-.455 1.061-.217.203-.045-.51.376.783.305-.068.366-.697.025.197.896.023.098.522-.122-.571.766-.436.544-.694 5.521-8.676 4.329-5.975 1.278-1.29 3.713-5.353 2.194-4.107 1.258-4.008 3.103-2.549 4.018-1.967 3.562-1.283 10.169-2.755 1.916-.313 4.129.02 10.542-.758 4.149-.583M164.261 863.363l.703-.221 1.087.392.389.549.741-.113 1.14 1.028 1.643-.068.759-.55.385.234 1.991.149 2.396-.351.846-.429 1.708-.153 1.254.359.06.477 1.156 1.103 1.51-.111 1.843.643 1.096-.135 2.247-.828.48.151 1.056-.583.198.3.637-.084.417-.35.894.158.502-.261 1.32.294.542-.174.221-.575.711.465.183-.246 2.7-.036 2.26-.954 1.374.194.282-.218-.105.489-.15-.325.765-.525 2.467-.55 4.349-1.817.4-.069-.145.185-.52.205-.273-.153-.088.391.438-.61 1.101-.428.642.093 2.155-2.052-.062-.312-.772.248-.247-1.329.281-7.947-.268-.469.35-2.662.072.256.257-.884-.11.695.151-.367.066.494 2.096-1.366.68.008 1.624-.804-.027.269-.504-.02-.278.614.129.153.068-.507.249.838.525.054.372-.582.166.465.932.776 1.221.56.253.26-.251.012.976.275 1.801 1.59 1.488.176.815-.347 1.697.846.648.585 1.879.187.515.413-.135.748-.349.027 1.759.581.479-.168 3.189 1.125.816-.087.596.977.585-.218.245.141 3.577-1.768-.31-.246-.313.212 1.494-3.118.121-1.945-.505-.839-.095-.974-.136.288-1.711-7.552.769-1.871.516-.703.215.317.087-.754-.296.347.434-.128 1.697-2.338 1.179-1.068.538-1.039 1.068-.179.315.417.306-.218-.37.293-.031.712-.149-.711.116.273.441-.248 4.828-.248.821-.323.421.218-.033.368-.308-.343-.468.932.273-.254 1.295 1.229.677.203.417-.339.512.464 1.07.211.004.266-.046-.349-.118.598.587-.399.661.287.447-.32.824.538.99-.173 1.394.394.606-.036.188-.25.43.507 1.449-.417.553.052.303.305 1.229-.292.542-.633 1.167.7.564.032.213-.447.146.468-.178.384-.191-.178.21-.338.975-.69.501-.957.307-.115-.229-.55-.21.398-.192-.369.157-1.634-.249.863-.78.247M255.485 811.685l-.061.257-.286-.462-.062.64-.215.037 1.236.919.969.125 3.365 1.324.56-.309 1.206 1.079 2.113.049 1.358.338 3.261 1.606 1.146 1.165 2.826 3.885 1.411.115.605 1.203.631.407.305 1.933.074-.15.555.392.724.937.987.195 1.054.993 1.627 2.649.679.317.21-.125.308.743.37-.865.62.72.697-.109.395-.491 3.106.592.01.43-.44-.49.103-.487.204.708.29-.55 1.952-.699.942-.702.785-.785-.027-.344-.872.253-.146-.159.143.433.216-.606.507-.093.671-1.146 1.739-1.276 3.333-3.731.044-1.293.424-1.234.333-.156 1.158-2.382.909-1.214 2.754-2.485.007-.266-.535.191.062-.232.228.225 3.847-2.268 1.16-.112 1.894-1.861-.206.524-1.038-.226-.123.324 1.76-4.197-.765-3.535-.516-4.036-.934-1.431-.566-3.619-.503-1.969-.354-.383-.088.288-.51-1.518-.517-3.558-.883-3.166-2.141-2.462-.648-.447-.362.306-.21-.129-1.268-1.789-1.221-.358-1.245-1.641-1.126-.65-1.33-1.537-1.363-.875-3.613-1.142-.694.334-.344-.355-2.117-.872-2.355-.628-.41.417-.522.081-.44-.49-1.266-.5-1.118-.9-1.116-.422-.519.077-2.018-1.372-3.747-1.421-5.007-1.152-5.456-.922-1 .102-.516-.31-.893.067-.679-.256-2.12-1.509-1.051-1.344-.453-1.319-.238.216-1.005-.519-.526.029"/><path fill="none" stroke="#000" stroke-width="4.5" stroke-linecap="round" stroke-linejoin="round" d="m-219.331 782.235-.597-.179-.207.243-.08-1.05-.246.448.426-1.337-.103-2.249.324-1.589.394-.561.474-3.882.515-.132-.396-4.334 1.591-6.718-.086-.5-.452.382.193-.013-.003-1.102.923-3.048.347-2.542.837-1.282.575-.187.769-1.096.333-1.058-.355.081.301-1.255 1.276-3.066.621-.303 3.378-5.661.815-1.142 1.046-.744 1.131-2.379 1.268-1.25-.258-.455.478-.771.67-.453.855-1.876.151-.992.574-.873.384.104.746-.926.695-.291.517-.77 1.206-.78.272.102 3.646-1.85 4.056-4.388.537-.18 2.624-2.779 1.4-.635.422.121 1.335-1.19.841-1.261.197.16.357-.176 1.076-1.2 2.069-1.268 1.153-.32 1.71-1.37 2.928-1.505.363-.725 1.019-.214.116.32.89-1.152.568-.017 1.185-.894 3.287-1.341 2.181-1.294.736-.701 2.744-.679 1.111-.789 1.977-.687.654-.677 2.459-.514 1.559-1.365 1.656.134 1.238-.728.606-.682 2.564-.278 4.264-2.011 9.507-3.527 4.071-.782.45.346-.101-.58.847-.245.522.231 1.691-1.08 3.783-.898 3.669-1.671 7.503-2.02 5.7-2.166.979-.132 3.988-1.761 4.202-.98 1.287-.863.525.129 2.886-.433 8.457-3.857 1.715-1.219 1.14-.058.537-.367 1.458-.203 1.011-.466 2.7-.111 2.825-.576 4.623-1.385 1.228-.056 4.214-1.488 2.442-.202.681-.367 1.712.175 2.661-.688 2.243-.025 1.04-.276 2.556.273.433-.269 6.852-1.106 2.492-.803 3.164.048 2.279-.481 2.415-.048.865.343 2.958-.461 5.706-.122 3.477-.57 5.911-.363 3.937-.938 2.935-.396 1.47.158 3.578-.995 1.155.138.462.337.719.021.441-.29 1.437.45 2.695.348 7.551-.095 3.153-.538 1.288.198.47.635.976-.414.305-.425 2.075.542.468-.291.144.256.964.302 6.31.305 6.867-.621 3.222-.016 2.287.699 1.483-.002.884-.437 2.052.71 6.401-.764 7.629-1.417.51-.351.873.488.148-.304.235.246-.126.396 1.542-.373.729-.564 2.986.157 6.286-1.806-.707.267.162.386.43-.431 1.752.338 1.1.584 3.755.018 2.144.35.704.37.977-.312 2.902-.233.426-.247 1.939.705.586.481 2.131-.24 2.216.518 1.774.001.456-.375.591.3.309-.158.644.2 2.508-.402 2.346.025 2.81.353 4.244 1.087.656-.248 2.044.98 1.851-.194 8.935.476 2.233.89 1.175.106 1.664.947 2.743.767 2.233.477 1.388-.042 2.57.421 5.655.233 1.099.305.696.487 1.855.39.757-.246 2.98 1.413 3.403.884 3.302.745 5.46.638 1.004.388 1.221-.11 1.731.583 1.295.056.991-.257 1.264.488.612.635 1.625.129.729-.197 1.89.327 7.124-.398 2.07.501 1.932.014 1.977.814 1.904.217.892-.211 1.798.408.862.51 1.98.054.683-.277 1.127.385.141.296 1.333.214.446.542 1.719-.004 1.592 1.312 1.715.79 1.967 2.084 1.397.764 7.804 3.088 3.495 1.04 1.776.99.548.61.455-.312.947 1.592 1.098.92.428-.042 2.554 1.625 1.976.669 4.139 2.902.53-.35 1.998 2.095.792.253 2.483 1.658 3.448 3.122.944.204 1.616 1.243.726.882 2.832 1.469 6.299 4.122.811.946.337.058.815 1.357 2.304 2.383.47.928.949.7 5.966 6.939 2.163 2.105 2.887 2.17.79 1.049 2.21 1.454 1.503 1.655.524.983 1.317 1.059.519.818.155.979.361.031 1.754 1.587.529 1.131.074-.321.339 1.766.242.016.472 1.31 5.036 7.803 1.81 3.713 2.67 3.986.327.948.749.874.356-.088 1.324 2.614.98.564 1.665 2.156.203.935.181-.092 1.02 1.978.162.128.23-.289.331.431.089.342-.088-.148-.137.241.765 1.596.744 2.495 2.446 5.189 1.115 3.184.82 3.025.452 3.602.129-.506-.245-.308.019 1.056-2.353 5.037M161.525 800.084l-.654-.248-.738.081-.176.249-.12-.143M134.98 809.999l-.188-.525-.109.127"/><path fill="none" stroke="#000" stroke-width="4.5" stroke-linecap="round" stroke-linejoin="round" d="m167.868 765.378.32-.192.133.462 1.092-1.69.55-.251 2.364-2.222.814-.322 2.304-2.142.414.473M153.15 781.343l-.392.017.02-.35.092.6.133-.508 1.462-.56.837-.609 2.747-1.021 1.333.038 5.795-3.015 3.946-2.46 6.423-4.569 4.269-2.182 1.403-.534 6.366-1.051 3.908-1.24 1.918-.127M176.959 780.557l-.458.762.015.845.778-1.21.731-.481.368.168.586-.261 1.529-1.443 10.559-6.998 5.89-2.434 3.648-1.075M177.696 776.776l-.75.449-.237.646-.426.14M171.848 779.204l-2.208 3.482-3.6 1.833-1.593 2.124M146.39 796.812l.431.007.08-.302-.045.678-.293.077M168.161 794.84l6.255-3.603 1.576-.447.637.107.082.321.04-.186.394 1.286.622.101 2.628-.478M191.795 785.907l-.007-.448M202.778 782.16l-.01-.746.071.235 1.54-1.293.976-.336M141.248 776.548l.393.364.114-.179-.102.413-.652.311-.534 1.015-.85.348-1.803 1.649-2.47 3.148-3.749 5.477-2.264 2.357M286.954 760.466l-3.132-8.901-6.845-13.21-5.332-12.318-1.198-1.717-2.246-4.627-1.387-1.522-1.327-2.643-.759-.807-.82-.398.141-.199.296 1.924 1.041 2.236.605 2.317 4.44 8.606 5.702 8.71 2.944 6.246 1.942 5.661.823 3.275 1.581 10.132.689.967.116-.413-.239-.611-.817-.507-.772-1.2-2.282-4.656-2.506-7.64-1.878-3.892-1.717-4.662-2.745-6.081-5.392-8.929-4.263-5.283-3.339-5.685-.916-2.051-.677-.706-.436.272.012-.309.054 1.385 1.052 7.325 7.834 25.838M269.811 756.91l-1.346-2.827-2.331-3.492-1.343-2.688-.789-.344-.666-1.006-.633-1.952-6.668-14.676-1.384-2.386-3.243-6.937-1.146-3.197-2.065-4.472-1.503-2.538-3.122-3.912-2.334-2.287-1.847-2.434-3.908-3.705-.411-.198-.248.365.243.298.103-.158.703 7.178 1.751 5.882 2.312 5.37 4.696 9.67 2.152 4.309 2.407 4.007.985 3.482M208.446 693.206l-1.288-1.461.044-.334.568-.218M120.195 810.159l2.572-4.346 4.379-3.653 4.459-4.191 3.411-2.252 8.515-4.3.875-.659 2.556-.838M138.333 816.048l-1.821 1.46-2.373.974-.861.027-3.121 1.204-1.048.106-.603-.747-1.6.643-.628.784-.233-.301-.54-.038-.146-.45-.166.067.175.672.634-.757 1.013-.079 4.536-1.785 6.691-1.809 4.188-.249 2.66.286 4.083-.145 2.931 1.008 1.026.05.313-.416.394.899.107-.441-.652-.203"/><path fill="none" stroke="#000" stroke-width="4.5" stroke-linecap="round" stroke-linejoin="round" d="m129.617 816.795-1.633-.194.952-.106 1.496-.802 3.029-1.01 2.801-.407 2.994-.024 10.66 1.729 7.624 1.843"/><path fill="none" stroke="#000" stroke-width="4.5" stroke-linecap="round" stroke-linejoin="round" d="m129.624 814.023-.471.359.139.424.594-.437.044.208 1.079.259 3.308 1.524 5.944 3.107 2.537 1.692 3.575 1.428 1.687.245 6.3 2.657 2.955.657 1.295-.202.467.469 1.672.551M121.69 825.76l-.621-.582-.022-.77.847.77.637-.486.301.456 1.253.69.984.933 1.764.616 2.134.232 3.7.989 1.652.698 6.304 1.785 4.743 1.662 2.561 1.815M119.013 832.941l-1.111-1.877-.05-.392.536-.56.794 1.182 3.498 2.558 1.64 1.373.902 1.106 3.26 1.864 5.742 3.826 1.74 1.762M115.614 833.239l-2.409-1.727-.388.296.052.597.882-.019 1.362 1.678 2.148 1.24 4.516 4.255.933 1.367.274 2.874M137.917 811.685l-1.225-.051-.928.422-1.702-1.254-.824-.255-.37-.379 1.131-.741.08-.356.04.443.435.144 1.245-.399 4.14-.377 2.216.152 6.985-.673 10.997-.289 8.119.832 6.134 1.766 5.145 2.219 3.515.628 6.361.338 3.027-.338"/><path d="M104.723 884.737c5.457-1.005 10.852-2.443 16.371-3.016 18.096-1.881 36.283-2.759 54.407-4.34 3.683-.321 7.315-1.165 11.006-1.367 4.655-.255 9.337-.353 13.986 0 4.047.307 7.961 1.76 12.014 1.972 8.652.452 17.329.055 25.993.013.677-.003 1.406.125 2.026-.148.572-.251.998-.793 1.325-1.325.18-.293.165-.685.118-1.026-.071-.513-.196-1.04-.466-1.481a2.43 2.43 0 0 0-.977-.87c-.309-.155-.683-.129-1.03-.134-2.664-.039-5.338-.234-7.993 0-1.049.093-1.956.902-3.007.97-3.988.258-8.01.374-11.989.001-3.062-.287-5.943-1.804-9.014-1.972-8.982-.492-18-.417-26.986 0-7.029.326-13.983 1.595-20.991 2.225-14.003 1.258-28.071 1.822-42.037 3.441-5.459.633-10.928 1.597-16.151 3.306-.601.197.415 1.234.84 1.704m-17.379 1.837c-.763-.175-1.508-.471-2.29-.526a33.728 33.728 0 0 0-4.995.015c-.463.037-1.637.158-1.306.484.559.551 1.518.447 2.302.499 1.662.11 3.335.11 4.996-.015"/><path fill="none" stroke="#000" stroke-width="4.5" stroke-linecap="round" stroke-linejoin="round" d="m252.022 875.113-.127.268.256.314 1.324-1.196 3.448-1.587.582.144-.189-.22-.185.684.344-.153.09.467.064-.705.161.233 9.898.184 2.799.417.192-.217.107.792.577.069 1.825 1.19 1.988.684 1.956.108 1.421.54 5.221.85 2.783.863 2.477 1.254.964.968.657.148 3.177 2.984 3.346 1.82 3.125 1.045 1.591.878 3.337 1.134 6.447 1.108 4.204 1.276 2.542 1.067 1.661 1.21.5.037 2.673 1.318 1.582 1.291.854 1.092 2.82.864 3.865 1.944 4.336 1.407 2.904 1.381 3.033.915 4.131 2.748 1.606 2.023.633.273.486.762 1.102.532 1.473 1.39 1.277.607.593-.057 3.873 2.273.85 1.408-.421 2.985.048 1.775-2.823 1.137-1.694.275-.196.418M359.91 922.445l.091-.742-.054 1.105.777.49-.088-.146-.127.208.421 1.781 1.079 3.289 1.708 2.802 2.517 7.577 1.487 3.022.864 1.142.929 3.293.456.651-.043.912-.098-.421-1.174 1.332"/><path d="M72.765 1051.72c2.83-1.13 5.7-2.17 8.49-3.4 1.442-.64 2.748-1.55 4.191-2.18.325-.14.706-.16 1.056-.11.523.08 1.125.13 1.506.49.996.96 1.238 2.7 2.468 3.33 1.213.62 2.746.27 4.085.02 1.628-.3 3.177-.97 4.69-1.64 1.569-.7 2.934-1.82 4.524-2.48 4.081-1.68 8.594-2.35 12.446-4.5 3.754-2.09 6.896-5.16 10.064-8.06.874-.8 1.457-1.89 1.964-2.97 1.57-3.32 2.634-6.88 4.247-10.19 1.547-3.17 3.108-6.38 5.216-9.21 1.857-2.5 4.564-4.25 6.573-6.63 1.672-1.98 2.851-4.329 4.43-6.38.602-.783 1.265-1.56 2.095-2.095 7.63-4.917 15.247-9.888 23.223-14.219 5.188-2.817 10.836-4.689 16.186-7.183.896-.417 1.628-1.142 2.532-1.542 2.769-1.224 5.508-2.628 8.456-3.318 5.277-1.233 10.763-1.355 16.076-2.418 3.441-.688 6.805-1.731 10.14-2.824 2.156-.706 4.159-1.826 6.305-2.563a62.227 62.227 0 0 1 6.581-1.858c6.041-1.35 12.061-2.901 18.202-3.683 9.485-1.208 19.072-1.407 28.594-2.275 8.978-.819 17.948-1.731 26.901-2.787 1.497-.177 2.924-.865 4.431-.91.72-.021 1.329.591 2.037.717.685.122 1.406.155 2.087.017 2.348-.478 4.562-1.611 6.945-1.855 3.335-.341 6.739-.371 10.055.117 5.731.843 11.197 3.139 16.945 3.855 4.628.577 9.329.144 13.99-.001a2.891 2.891 0 0 0 1.486-.483c.596-.397 1.145-.91 1.52-1.521.27-.439.576-1.05.34-1.508-.501-.972-1.428-1.683-2.314-2.322-.292-.211-.749-.279-1.074-.122-.823.396-1.315 1.345-2.164 1.682-.292.115-.479-.532-.792-.509-.387.029-.601.524-.971.641a1.786 1.786 0 0 1-1.054 0c-.371-.117-.584-.644-.973-.642-.391.002-.588.591-.974.652-1.324.208-2.702.379-4.02.133-5.375-1.002-10.522-3.156-15.945-3.853-4.98-.64-10.05-.427-15.061-.132-4.685.276-9.279 1.478-13.958 1.839-.406.032-.626-.553-1.012-.682-.346-.116-.733-.081-1.093-.023-1.447.233-2.85.722-4.305.892-6.589.768-13.229 1.069-19.807 1.919-3.644.471-7.188 1.572-10.832 2.04-1.329.171-2.696.08-4.019-.134-.707-.114-1.264-.777-1.978-.837-2.654-.223-5.357-.404-7.99-.001-4.145.635-8.072 2.326-12.195 3.094-5.683 1.059-11.466 1.484-17.177 2.378-4.295.672-8.637 1.193-12.836 2.32-5.342 1.434-10.364 3.923-15.709 5.344-11.595 3.084-23.307 5.727-35.056 8.158-7.374 1.525-14.807 2.822-22.285 3.705-8.213.969-16.472 1.795-24.742 1.847-2.325.015-4.621-.782-6.778-1.649-1.341-.539-2.302-1.757-3.542-2.498-2.07-1.237-4.364-2.088-6.369-3.426-.465-.311-.458-1.068-.891-1.421-1.489-1.213-3.017-2.461-4.787-3.205-2.395-1.007-5-1.424-7.538-1.977-4.355-.949-8.69-2.154-13.13-2.525-.62-.052-1.095.736-1.322 1.315-.25.636-.151 1.383 0 2.049.072.314.336.605.633.728 3.314 1.367 7.791.953 10.097 3.697 1.253 1.491-1.558 3.585-2.59 5.236-.513.819-2.394 1.221-1.998 2.102.915 2.035 3.506 2.801 4.962 4.491.77.895.822 4.022 1.62 3.151 2.225-2.428 2.206-6.243 3.835-9.106.507-.892 1.686-1.184 2.426-1.896.866-.835 1.243-2.297 2.368-2.724.583-.221 1.527.737 1.321 1.326-1.328 3.776-3.494 7.213-5.535 10.656-.532.899-1.677 1.353-2.139 2.29-.302.614-.25 1.415 0 2.052.228.579.704 1.254 1.323 1.316.934.094 1.915-.348 2.662-.916.925-.702 1.546-1.75 2.153-2.74 1.259-2.056 2.117-4.345 3.425-6.37.438-.679 1.021-1.343 1.762-1.667.637-.278 1.415-.201 2.084-.014 1.287.358 2.522.928 3.667 1.616.635.38.998 1.109 1.598 1.542.595.43 1.284.716 1.951 1.021 1.207.553 2.394 1.177 3.667 1.552.66.194 1.371.13 2.059.133 7.664.037 15.366.737 22.993-.013 8.444-.83 16.699-3.022 25.015-4.704 1.339-.271 2.578-.968 3.931-1.149 1.084-.146 4.177-.439 3.277.181-8.92 6.15-18.856 10.718-27.85 16.76-1.742 1.17-2.874 3.069-4.151 4.736-1.043 1.361-1.642 3.049-2.789 4.32-1.877 2.09-4.572 3.41-6.214 5.69-3.136 4.34-5.609 9.15-7.963 13.96-1.154 2.36-.972 5.34-2.517 7.47-2.097 2.88-5.223 4.86-8.042 7.03-1.542 1.2-3.219 2.24-4.997 3.04-3.049 1.37-6.336 2.14-9.418 3.43-2.139.9-4.05 2.3-6.221 3.11-.65.24-1.47.32-2.08-.01-1.173-.63-1.661-2.35-2.948-2.7-2.278-.62-4.81-.66-7.08-.01-4.444 1.26-8.5 3.62-12.67 5.61-.288.14-.556.42-.626.73-.15.66-.25 1.41-.001 2.05.227.57.756 1.05 1.322 1.31"/><path fill="none" stroke="#000" stroke-width="4.5" stroke-linecap="round" stroke-linejoin="round" d="m115.027 980.855 1.387-5.596-.086-.911-.385.462-.273 1.555.565.544.27.887M141.605 982.42l.032-2.378.369-.409-.14-.427-.065 1.148.195.119M112.096 1039.16l.202-2.31-.169-.46-.074 1.24.181-.26.132.67h.318M105.211 983.602l.089-3.247-.262-2.168.239-.478.144.492.458-.515.662-.019.056-.208-1.074.549-1.346 1.654M175.114 970.734l-1.39-.15-.752.437-.542 1.364-.233-.404-.638.064-1.598.616-5.545 3.044-4.211 1.819-8.829 2.431-4.684 1.675-2.189 1.15-2.002 1.626-8.131 4.107-3.759 2.668-1.932 2.094-2.138 1.221-4.428 4.494-.941.6-1.531 2.14-3.33 5.15-2.694 5.81-1.323 4.57-1.406 2.68-.229 1.45-.951.74-1.443 1.92.379-.48-.165-.48-.418-.17"/><path fill="none" stroke="#000" stroke-width="4.5" stroke-linecap="round" stroke-linejoin="round" d="m121.877 972.023-1.172-.431-.697.031.033.326-1.777 1.016-3.872 4.125-2.135 2.678-1.303 2.252-.571 1.509-2.274 3.358-1.651 3.833-4.177 8.174-1.033 2.526-.785 2.89-1.08 1.55-.747.72.009-.31-.232.85-.404-.83"/><path d="M91.961 993.521c.43-.432 1.002-.759 1.288-1.296 1.243-2.332 2.074-4.865 3.254-7.229.815-1.632 1.96-3.09 2.725-4.747.664-1.438.88-3.055 1.54-4.495.228-.496.97-.694 1.083-1.228.165-.78.314-1.891-.323-2.369-.808-.605-2.024-.272-3.025-.142-.631.082-1.451.202-1.752.764-1.985 3.707-3.414 7.692-4.886 11.632-.708 1.897-.929 3.954-1.644 5.849-.194.512-1.14.729-1.043 1.267.17.947.91 1.778 1.692 2.338"/><path fill="none" stroke="#000" stroke-width="4.5" stroke-linecap="round" stroke-linejoin="round" d="m139.717 990.198-.168-.297-.107.57-.206-.107-.018-.445-.045.828-.414.129-.648 1.725M109.594 1042.15l-.185-1.62-.351-.29-.858 1.16-.949-.23-1.329.18-3.066.89-4.898 3-2.603.89-1.328.13-1.112-.15-.272-.5-2.558.23-2.14-.53-1.037.13-.633-.22-6.344 1.07-.756.62-1.111-.39-.436-.51-1.142.11-.66.45-1.563-.83-.648-.72-.417.16-1.694-.24-1.353-.41-.373-.37-2.49-.41-.979-.49-.385.2-1.91-1.97-.679-1.06-.486-.26-.2.22-.642-1.22-.148.34-.52-.77.002-.46.104.14-.383.16.228-.04.097-.47-.394.81-.695.56.567.49.195-.25M81.613 1051.56l-.241-.6-.333.2-.622-.79-.714.35-.317-.6-.079.68.269-.26-.044.33.189-.33-.37.16-.147-.23-1.936 1.88-.073-.3.169.39 1.308-1.35"/><path fill="none" stroke="#000" stroke-width="4.5" stroke-linecap="round" stroke-linejoin="round" d="m100.589 1041.53-1.574 1.41-1.385.36-.511.38-1.874-.17-.445.3-.125-.3-.457-.11-.272.31-2.915.68-1.147.67-.76 1.06M85.75 1049.96l.733-1.15-.629.54-.632-.27-.862.44-.218-.32M90.533 1052.03l-.813-2.26.14-.59-.118.2.811.41.293-.08"/><path d="M85.959 963.523c.295-.33.709-.584.884-.991.14-.324.245-.806-.001-1.06-1.718-1.767-3.643-3.34-5.658-4.76-1.228-.866-2.599-1.546-4.013-2.057-2.86-1.033-5.924-1.451-8.758-2.555-1.026-.4-2.018-1.043-2.698-1.91-2.116-2.696-4.337-5.441-5.577-8.636-.73-1.88-.307-4.042-.123-6.051.096-1.046.915-1.953.954-3.003.027-.714-.77-1.286-.768-2 .003-.717.718-1.289.784-2.004.154-1.667.242-3.39-.134-5.022-.14-.609-.743-1.097-1.325-1.325-.635-.249-1.38-.136-2.048.001-.285.058-.635.266-.672.554-.795 6.242-1.325 12.516-1.792 18.79-.033.446.081.917.298 1.308 1.027 1.859 2.206 3.633 3.403 5.388.94 1.377 1.913 2.736 3 4 .954 1.11 1.882 2.302 3.107 3.102 1.405.917 3.048 1.422 4.639 1.955 2.005.672 4.214.749 6.126 1.653 2.8 1.325 5.03 3.701 7.86 4.962m31.512-78.339c.297-.329.73-.575.89-.989.185-.477.489-1.216.087-1.534-1.242-.985-2.814-1.59-4.376-1.867a17.755 17.755 0 0 0-6.118.002c-1.16.202-3.149.436-3.141 1.613.01 1.48 1.752 2.693 3.173 3.103 2.569.743 5.349.226 8.022.134"/><path fill="none" stroke="#000" stroke-width="4.5" stroke-linecap="round" stroke-linejoin="round" d="m96.029 968.88-.977.793-.648.032-1.285-.82-.553-.988.008.517.142-.195M355.287 952.39l-.627.373-1.82-.263-1.744-1.166-.316.058-.239-.532-.197.422-2.206.421-1.471.164-.793-.171M173.279 976.882l.017-.63.699-.995.172.129-.622.263-.262.643-.158-.749-.078.429-.249-.306.086.261-.425.236-5.569 1.899-4.111 1.907-7.488 3.534-1.646 1.167-5.798 2.583-4.502 2.694-1.336 1.579-.46.064.227-.212.994-.105.851-.709 2.065-.707 4.637-3.414 4.111-2.02 2.717-1.682 2.454-1.827-.885-.826-.151.525-1.009-.245-4.704 2.685-3.005 1.291-1.517.337-6.39 3.646-1.135.356-3.975 3.704.324-.444.472-.12 4.321-7.652 2.329-2.842.341-.83-.197-.209-1.291.803.072-.243.047.319-.332.329-1.556.674-3.757 3.238-2.388 1.517-1.04 1.074-3.21 1.919-3.831 2.957-1.651 1.065-.663.296.059-.188.42-.057.168.235.626-1.106 1.309-.763 2.86-3.986 5.351-6.437.583-1.265-1.149.642-.373.406.387.09-.22-.149-1.183 1.143-5.866 3.237-.834.769-2.582.516 1.568-.901 4.264-6.227.69-1.729-.147-.159-.122.212-.911.081-.459.227.352.307-.383-.016-2.586 3.338-1.596 1.172-.873.154-1.869 2.098-2.04 1.524M107.987 985.353l-.485-3.4-.692-1.264-.346.55.248.577M122.058 937.146l.05-.348-.298.47.307.885-2.231 3.938-.849 3.047-.778 1.776-.148 5.057.839 1.457 1.064-.06M166.532 948.682l1.496.843-.31-.176-.052.549-.165-.606-.051.573.014-.577.167.452.282-.164M226.299 942.499l.461.954.215-.113.145-.877.017.22.544.119 1.045-.329M206.858 798.695l-.284.412.067.448M265.938 765.871l-.391-.933-1.903-.908-2.593-.443-1.181.405-1.992-.99-2.679-.356-2.231-.857-2.939-.502-2.529-.881-1.121.069-1.696-.616-3.606-2.245-.691.053-1.946-1.095-4.08-1.194-4.073-1.564-5.312-2.536-2.735-.61-1.017.263-3.387-1.513-1.752-.202-1.009.564-2.428-1.178-2.526-.064-10.514-2.562-1.135.095-.353-.31-.613-.053-.638-.55-1.901.178-1.794-.344-.681-.498-1.902.231-1.41-.305-1.309.392-.79-.375-1.958-.008-.784-.481-.377.286-2.387-.508-.653.212-.203.317-1.711-.187-.621-.455-1.034.405-.635-.513-.707.394-.762-.487-1.119.161-.133-.136.221-.211-.537.053-1.454-1.254-.963-.383-.394.155-.679-.848-.271.304.122-.591.099.405-.297.095.103-.221-.853-.796-.688-1.284-.608-2.304-.042-3.818-.585-6.017-.52-.776-4.561.08-.392-.174-1.109 1.117-.402-.19-1.436 1.264-1.634.422-2.294 1.297-1.328.376-1.093 1.466.233 1.903-.378 1.862-.329-.488.16-.161-2.433.399-1.817-.184-.42.162-.984-.333-4.201.526-.291.226-2.733.026-2.209-.034-1.354-.441-1.178.226-2.092-.315-2.887.404-2.882-.662-1.948.454-.689-.012-.253-.278-.112.326-1.322.129-2.284-.228-3.06.218-2.563-.467-2.012.005-.621.225-1.108-.163-.505-.36-1.239.441-.409.432-1.049-.243-3.079.387-5.263-.424-5.265-1.331-1.004-.02-5.057-1.634-1.679-1.05-1.13-.11-1.333-.65-.178.21-.52-.647-3.622-2.558-1.372-.449-.3.116v.352l.16-.323.03.394-.256-.944-2.092-2.525-1.562-.525.496.303-.127-.245-.012.335-1.907 1.776-1.09 1.517-3.415 3.391-.318.846-.136-.163.255.197-.147.204-.386-.089-.754.525-.8.158-3.918.061-2.22-.226-1.922.331-1.053-.087-.48-.535-2.05.733-1.643-.402-1.777.251-.664.562-10.195-.535-6.513-.037-5.248.266-.936-.443-2.678.666-3.03-.366-2.576.414-2.908-.148-.973.264-2.287-.068-4.02.446-5.228.146-1.068.28-4.466-.176-4.241.167-9.822 1.038-.637.313-1.549-.214-.525-.352-1.13.061-.543.319-2.527-.771-13.543 2.643-4.107 1.066-1.088-.198-1.048.175-.432.333-1.345-.38-.46-.493-1.36.195-1.47-.214-.605-.571-.238.257-1.487.302-1.567.035-1.544.522-1.606.008-6.893 1.35-2.445.284-.701-.183-2.005.757-3.055-.005-2.449.55-1.824.606-2.472 2.018-4.007 1.992-.5.626-1.34.529-6.145 1.579-4.546.816-1.68.576-2.895.15-1.759.558-.697.602-2.689-.48-3.604.497-2.591-.474-.386.286-4.466.947-2.235.733-.157.41-1.224-.123-.318.189.234-.32-.363-.104-.253.466-.517-.306-1.291-.022-3.543 1.182-1.647 1.069.033-.54-.594.196.151-.229-.337-.206-.041-.609-.177.138-1.915-.907-2.312-1.749-3.85-1.014-2.87-.351-.293-.321-3.225.169-.723-.127.027-.485-.198-.049-.185.309-.696.086-.229-.146.111-.415-.266.024-1.916-1.683-1.699-.957-2.322.235-1.816 1.299-4.485 1.712-.326.523-1.966-.008-5.596 2.214-2.921 2.119-1.966.867-.123.387-1.378.18-.693.402-.139.417-1.12.375-3.081 2.029-2.175.533-.395.378-.567-.552-.032-.354-.995-.309-.474.253-.988-.57-1.582.329-1.533.502-2.82 1.458-1.775 1.223-.382.581-.601-.148-.961 1.381-1.265-.033-1.685.849-.497.656-2.182 1.519.134.43.455.055-.287.833-.218-.166-.32.865-.897 1.045-2.297 1.869-2.263 1.275-.278.682-.774.099.081.403-.329.062-.043.463-1.392.196-1.236.922-.344-.005-1.607 1.474-.209.584-.438.135-1.356 1.303-.396 1.344-1.339 1.8-.233-.17-.098.869-.273-.371.227.185-.038.576-.353.192.202.448-.651.551.167-.062-.109.451-.403.035-.011.696-1.069 1.253-.831 2.542-.277.207.022-.398.227-.088-.191.125.285.098-.43-.104.31.154-.551.426.017.508-1.208 1.228-.151-.22.023.291.216-.283-.043.311-1.498.587-1.05 1.484.235.247.122 2.673"/><path fill="none" stroke="#000" stroke-width="4.5" stroke-linecap="round" stroke-linejoin="round" d="m141.425 738.856.858-2.74 1.375-3.431.196-.015-.322 1.059.244 3.807-.791 2.292-1.947 3.54-3.327 4.729M152.251 738.071l.532-2.383-1.442 2.497-.678.322-4.794 4.87-3.46 2.819-1.465 1.81"/><path fill="none" stroke="#000" stroke-width="4.5" stroke-linecap="round" stroke-linejoin="round" d="m155.779 736.583-.062-.951-.398-.918-.205 1.045-1.907.711-5.333 3.77-2.076 2.797-.722 1.826M159.867 734.991l.908-3.584 1.666-3.183.647-.411-.044.782-.362.682-.117-.166-1.218 3.418-1.639 2.891-3.87 5.746-.431 1.063M164.348 734.796l1.086-3.979.105-2.5-.389.625.356 2.663-.13 4.262-.836 3.577-1.802 3.679M170.553 740.224l-.304-4.093.16 1.701-.955 2.799-2.193 4.024-4.302 5.713M171.647 749.018l.157-1.557 1.213-3.488-.911 2.301-2.078 1.878-3.882 4.6-.612 1.535.216.921M182.96 748.905l1.206-3.942.074-1.374-.619 1.079-.079.689-2.996 3.748-.88 1.658-.329 1.192.312 1.072M193.026 749.944l.295-.845-.344-.388-.287.638-2.348 1.024-3.704 2.795-1.136 1.734M215.172 753.554l-.322-.869-.233.048-.475-.643-.459.997-.271-.163-1.667.557-1.3 1.061-1.216 1.466-1.369 2.549M238.888 756.895l-.503.055-.44-.786-.509.713-.511-.163-.465 1.633-.156 2.155M209.725 754.768l-1.728.25 1.388.024M223.898 756.355l-1.07-1.639-.771-.435-.468.236-1.713-1.322-1.1.354-.709-.111-.739.474-2.256.653-1.219.757-.361.919.736.836"/><path fill="none" stroke="#000" stroke-width="4.5" stroke-linecap="round" stroke-linejoin="round" d="m238.188 760.024-.484-.11-.317-.677-.347.29-.465-.659-1.41.869-.178.374"/><path fill="none" stroke="#000" stroke-width="4.5" stroke-linecap="round" stroke-linejoin="round" d="m239.259 761.037-.343-.478-.131-.978-.309.976-.191-.6-.392.345-1.345-.61-2.927.19-12.186 2.193-1.987.823-1.029.878M258.814 761.908l-.035-.374-.855.067-3.194 1.16-11.549 5.393-1.452.912-3.292.586-1.25-.066-1.645.62M264.959 763.296l-1.033-.637-.538-1.332-.2.448-3.231 1.164-3.463 2.885-6.39 3.945M268.255 768.217l.474-1.307-.098.435-.83.561-2.045.554-6.631 2.761-2.87 2.104M276.724 772.364l.8-2.543-.202.007-.266 1.138-.428-.16-.752.522-3.845 2.894-1.538 1.536M293.065 776.385l-.013-1.442-.103.384-.031-.205-1.122 1.101-1.354.529-.648-.039-1.352 1.796M302.026 784.032l-.317.48-.491-.622.233-.018M250.645 874.65h.39l.183-.425.18.065-.649-.118-.056.467-.215.154-.084-.187-.047.342-.308.119.15-.223-.007.251.322.033.057-.239.281.068-.065.277-.002-.683-.045.404-.341.043.203.291.369-.277.073-.447-.207.943-.105-.805-.239-.125.162.598-.354.237.153-.619-.058.568.282.11.312-.548.453.269.241-.182M159.655 851.75l-.962.553.638.082.217.679-1.059 5.785.156 2.336.477 1.159M359.194 960.125l-1.053-.139-.679-.715-2.49-.926-.367-.478-.152.211-.449-.128-.421.392-1.486-.899-1.826-.451-.696-.701-3.803-1.734-.828-.121-1.336-.838-.748.102-4.045-.921-.672.214-.899-.195-.769.621-4.95-.963-5.361.115-1.806-.243-.704-.328-1.18-.124-.677.227-1.322-.588-.511-.56-4.845.067-6.624.627-3.862.573-.994.336-.469.466-1.234-.1-.5-.325-1.306.426-1.141.049-.586-.589-.202.372-1.306.616-.956-.11-.439.203-.04-.615-.027.627-.064-.498.332.448.154-.602.035.737.067-.432.194.152.28-.3.67.431.149-.341.496-.171 3.885.722 3.201.277 1.041.515 3.53-.595 3.546.345 4.565-.578 4.194 1.07.608.523 2.881.763 7.259.667 2.048.855.362-.069 1.093.927 1.646.597 1.881-.083 1.33.171.735.378 1.582.051 1.346-.352 2.138.896 2.977.229.934.179.231.372.877-.475 1.804.077 5.432-1.343 2.729-.98.978-.953.44.111 1.676-.444.716-.525.007-.432-.58.495-.252-.268.362.002 1.603-1.32 2.014-2.256.404.072.301-.244.653-.766-.053-.314-.118.371-.393.147-.035.421-.475-.182-.221.339-1.393.717-2.738.669-2.505 1.07-1.088.808-.516-.175-2.229.404-1.058-.212-3.113.608-5.31-.146-1.038.257-5.463-1.728-3.606-.404-.873.125-3.103-.549-.151.188-.28-1.14-.357.16-.304-.489-.127-.926-.212.099-1.554-1.556-1.336-.303-1.585-.099-2.655.328-1.253.163-.261.336-.363-.27-.866.278-.513-.158-.593.527-1.107.392"/><path fill="none" stroke="#000" stroke-width="4.5" stroke-linecap="round" stroke-linejoin="round" d="m307.764 953.201-.763-1.338-1.602-.648-.156-.471-.379.271-.31-.74-.929-.384-.768-.866-.541.166-1.535-1.519-.052-.309-.245-.129.364 1.289M348.333 953.562l-.795-2.101-.413.175-.657-.223-1.134-.439-.755-.606-4.233.603-.902.342.122.462M104.902 936.525l-.417-.715.577-.466.078.719-.118.172-.06-.284-.148.376.026.738-.258-.165-.493 3.894-.169 3.46.106.315.069-.226M125.909 945.648l-.258.268-.189-.135-.088.415.048-.338.179.618.059-.227.499 1.53M136.463 942.175l-.565.287.031-.293-.273.069.104-.771.172.103-.235.017.02.92-.639 1.235-.443 2.059.68 2.94.545.359.433-.095M150.623 948.637h-.483l-.068.319-.176-.248.046-.406.335.92.059-.612.922 2.184M349.924 930.774l-1.694-1.02-.673-1.524.391-1.148-.893-.093-2.349-1.82.599.589.119.748.66.227.859 2.578.987 1.546.509 1.45 1.964 2.675-.502.422M331.491 926.708l-.747.036-.48-.298-.133.242.567.139.202-.216.292.91.038-.8-.159.884-.102.152-.048-.273.298.432.053 1.005 1.297 1.933 1.155.804M311.973 929.485l.109-.385.263.283-.225.413.145-.111"/><path d="M96.125 877.9c.566-.791 1.404-1.445 1.698-2.371.12-.382-.644-.629-.622-1.029.038-.716.668-1.296.783-2.004.108-.667.145-1.406-.133-2.022-.254-.565-.737-1.191-1.35-1.273-.613-.082-1.19.444-1.634.873-.704.68-1.264 1.511-1.729 2.372-.169.313-.125.704-.124 1.06.003 1.007-.186 2.065.135 3.02.198.592.756 1.062 1.323 1.323"/><path fill="none" stroke="#000" stroke-width="4.5" stroke-linecap="round" stroke-linejoin="round" d="m.806 835.184-.496-4.696-.365-1.04-1.003-1.162-.986-.153-2.127-1.158-2.008-2.097-.407-1.224-.185.11-.684-.547-.526-1.429-.612-.262-.44.314-1.06-2.303-.251.147-.64-.333-.363.349-.554-.481-.957-.197-.497-.382-2.444-.409-1.348-.782-1.49-.348-.577-.316-.66-.854-.734-.302-.537-.61-.464.022-.942-.786-.344-.924-.293.229-.708-.116-.287.414-.338-.018-.853-.665-.242-.673-.15.188-.725-.229-.751.191-7.9-4.138-2.522-2.287-.25.446-.39-1.242-.715-.87-.43-.315-.174.513-.267.025-.095-.59-.961-.794-.32-.719-.87-.293-.483.22-1.372-.872-2.199-2.034-2.634-3.49-.262-.206-.131.377-.951-1.789-.641.799-.838-.263-.39-1.321-.126.463-.833-.144-.735-.49-.98-.857-.168-.551-1.288-1.334-.714-.232-.97-1.36-1.071-.703-.829-.216-.596.195-.776-.298-.35-.97-.272.355-.946.203-2.924-2.087-.272.337-.328-.034-1.116-1.562-2.504-2.014-.028-.512-.917.058-.73-.384-1.716-.066-1.879-.895-1.358-1.345-.217.28-.144-.544-1.13-.856-.339-.737-.64-.563-.229.135-.55-1.197-1.537-1.28.062-.292-2.072-.585-.867-.624.217-.165-.114-.22-1.65-.694-.739-.046-2.206-2.617-1.41-.832-.725-.371-1.223-.024-10.679-4.762-2.248-.758-3.438-.573-1.51.427-.504-.49"/><path fill="none" stroke="#000" stroke-width="4.5" stroke-linecap="round" stroke-linejoin="round" d="m-59.68 793.733.266-.448-.112-1.018.17.505-.257.9-.447-.413-.138.452-.014-.389.992-.977-.42-.433.098-.943-.297-.361-.014.23-.348-.876-2.138-1.295-.187-.338-.993-.38-.917-.011-1.041-1.642-1.007-.759-.603-.068-.674-.897-.072-.486-.259-.275-.979-.196-.137-.477-.752.158-1.769-.722-2.553-.337-2.567.257-3.576 1.326-5.49 2.987-5.727 3.761-5.393 2.792-2.31.901M-86.541 771.13l1.38.418-1.308.436-.271-1.539-.275-.255-.16.24-.75-.27-.178-.336-.08.238-1.268.386-4.405.167-3.59.634-4.995 1.585-10.55 4.709-3.583 1.276M-215.288 771.892l-1 .561.124.253-.334.969.168.127-.264.044-.082.489-.369-.48.491.066-.276-.11.056.567-.128-.753.277.099-.725.925-.469 1.141.036.506-.775.789.222.334-.208.218-.272-.208.502.328-.208-.006.093-.444.691 1.817.412.203.247.726.086-.242.234 1.043.284-.025.014-.232.345.355 1.558 5.504-.338 1.02.207.566-.326.36.144.805-.816.932.043.488-.554.358-.334 1.405-.443.925-.391.196.114.376-.463 1.157.155.449-.143-.466-.184.071.389-.298-.35.078.335.132-.356 1.352.32 1.125.012 1.588-.355 1.173-.436-.424.603-.099-.532.19.306-.004-.099.385.325-.606-.296.997-.036.572.265.295-.253.964.394-.412-.328-.194.459.141-.284.134.781 1.403.256 1.453.272.78.222-.112.679 2.148.315-.06-.057.369.604.384h.554l-.035-.242 2.088 1.636-.043.324 1.482 1.439.266 1.129.387.331.592.004 1.356.928 1.454.185 1.81-.244 2.977.599.217-.458.785.459.183.735.169-.172.798.466.096.433.399.252.321-.183 2.085 1.6 3.136 1.573.208.379 1.335.322.462.475.254.778.46-.11.71.45.267.59.997.027 1.8 1.351.38-.023.791 1.194.956.658.508 1.35.426.241.392-.385.732 1.347.734.426.509.705.207.888.763-.462.141.13-.252.091.781.136.362.616 1.661 1.14.52 1.094.55.161.342-.454.069 1.232.295-.637.116.753.36.186.337-.232.255.529 1.016.544-.497.365.837.057.409-.668.848 1.286 1.736-.308 1.262.338.422.495 1.4-.018.693.449 2.06.118 2.823-.353 6.951-2.137M65.921 756.036l-.073-.75-.08.744-.199-.263-.118.448.02 1.065-.919 3.626-.436 4.492-.357 6.337.346 5.655"/><path fill="none" stroke="#000" stroke-width="4.5" stroke-linecap="round" stroke-linejoin="round" d="m64.133 775.691-.055-.754.178-.317.176.318-.186-.433.232.537-.055.906.024-.927M60.902 743.615l-1.046 18.17-.065 5.252M88.752 799.426l.074 1.126-.04-.355.17.212.153-.487.278.026-.02-1.607.96-5.876 1.778-6.819 4.817-9.565.92-2.602 2.332-4.069 1.181-1.3 7.118-12.646 1.509-1.859M131.122 753.876l-.575.227-.109-.151-.503.492-.101-.557-.301-.093.064.365-.547.877-.027-.289-.563.297M76.447 795.82l.625-.191.034.184-.216-1.099-.252-.169-.12-2.148 1.659-5.382 4.7-12.56 3.326-7.658 3.967-10.666M94.169 746.935l-.626.647-.262-.046.286 1.119M95.038 796.316l-.477.501-.164-.424-.223.549.586.134-.943 2.159-1.747 5.819-1.852 7.299-1.563 4.56-.654 1.035-.318-.186.003-.592.528-.598M112.385 802.273l.21 1.351-.294-.777M112.811 809.206l-1.378.48-.667.644M109.048 814.561l-.342-.033-.827.943-.038-1.371-.299-.091-.714 2.531-1.705 3.041-.147 1.451-.33.346-.073-.291-.117.134-.215.985-.088-.539-.808 2.147.383-.222-.023-.712.12.557-.274-.48.052.894.32-.391-.052-.696 1.055.246 1.068-.813 1.072-1.25.544-1.093-.863 1.28-.232 3.621-.48.862.008.736.039-1.058.17.017-.321-.06-.123.896-1.98 2.798-.286 1.487 2.323-7.913.278-2.242.643-1.474 1.828-2.116M116.24 800.997l-.556-.571-.134.305.186-.085M138.771 750.937l.228-.256.381.13.396-.488M26.978 753.599l.395-2.264-.185.589.323.338-.217.112-.087 1.532 1.062 3.296.395 2.154.447.555.603 1.942 2.176 4.504 2.856 4.75 1.107 3.087.473 1.917 1.742 12.846 1.92 9.486 2.016 7.675 1.297 3.441 1.342 2.657 1.32 4.132.829.959.027.767.884 1.57M50.514 832.905l-1.47-.24-.077-.186.325-.136M55.147 837.955l-.69.091M60.99 790.069l.559.177 1.06-.175-.096-.457-.484.948M63.071 830.73l-.8-.067-.575.779.121.217M71.895 807.176l-.498-1.649.396-2.442.16.36-.31 1.324.103 2.886-.743 2.123M75.543 820.412l-.688-.318M-7.865 832.847l2.045-1.949.018-.46-1.579.972-.29.497-1.8-1.095-.358-.528-1.766-.558-.358-.499-.909-.341-.505.252-.084-.357-.67-.271-.306-.556-3.152.937-2.136 2.246M-12.815 826.022l.045-3.545-.212-1.076-.594 1.368-.176-.313-1.006 2.707-.45.345-.6-.129-2.02 2.937-1.497 1.17M-18.681 821.706l-.913-2.183.13-1.24.035 1.143-.062.261-.305.031M-24.658 830.327l1.242-1.352.608.03-.218.589M-97.236 844.75l-.487 1.344.283.203.03-.526-.497 1.193.22-.41-.015.398-.164-.06.21.072.104-1.145.36-.044.022-.419.214 1.116.547-.961-.195-.043.016-.443.455-2.194.828-7.69M-95.478 850.559l.78-.871 1.268-.765.03-.509-.562.312.017-.29 1.39-4.052M-154.287 841.333l.286-.507-.267-.437.317.326.264-.265.068.321.366-1.99-.115-.203-.133.275-.066-1.219-.39-.535-.267.193.173-.36-.248-.645.242-.291-.269-1.779.338-2.529-.305-.516-.3 2.165-.802 1.435-1.151 3.375.188.154-.268.496.114.428.485-1.787-.159-.239-.052.374.157-1.657-.414-.691.18-.591.08.891M-141.992 841.432l-.038-1.751.344-1.296-.277.155-.161.995-.625.988.053.949.45.12.273-.534.19.925.31-1.232.254.004-.21.203.265-.153.203-.577.167-.997-.278-.24.777-1.302.58-2.151-.265-.636.377-.393.215.127-.616 1.452-.082 1.351.28-.626-.348.928.353.451.306-.158-.228.265-.001.832.57.938-.286.257.092 1.28-.223.781.511 1.381.113 1.25.48-1.21.268.16.048-.207M-3.39 836.673l-.228-.029-.036-.326.462.354-.247-.161.165.107-.353.379.172-.444M-5.67 836.91l-.523.231-1.173-.096-2.974.766-1.027.691-1.058.154"/><path fill="none" stroke="#000" stroke-width="4.5" stroke-linecap="round" stroke-linejoin="round" d="m-5.758 836.871-1.04-.705-1.16-.016-.271-.219-.913.297-.392-.188-.339-.621-.14.271-1.06.185-1.103-.1-.72-.351-6.167 1.59-5.602 4.137M-9.664 827.346l-.697.086-1.763-1.389-.229.738-.41.224-.663.159-1.444-.344-1.184.298-1.895.772-2.698 1.55-4.078 2.949-9.016 5.893M-13.964 823.981l-.919 1.133-.262-.459-1.126-.082-.74-.557-1.529.599-.628.548-1.339-.503-1.995.543-1.698-.017-4.627.868-9.956 2.591-3.345 1.826-4.254 3.283-3.797 3.628-1.462 2.685-.55 1.694M-20.812 816.933l-.015-1.98-.867.02-.143-.207-.597.399-1.132-.014-2.16-.701-.692.275-2.893.197-.524-.377-.61-.054-.473.503-1.77.328-1.223.584-5.553 1.612-7.598 4.385-11.17 5.843-5.602 2.624-5.428 3.265-2.424 1.959-2.376 1.314-2.969 2.129-.882.259-.597.459-.82 1.398M-29.5 810.7l-.321-.551-1.043-.337-.479.273-.148-.326-.98-.277-.287-.42-.813-.14-.38.296-.432-.276-2.807-.074-7.272 1.066-3.347.99-1.647.811-5.124.941-4.737 2.484-.866.913-1.009.534-.969.14-3.714 1.722-1.774 1.281-3.118 3.147-2.087 2.634-.796 1.52-.896 2.678.14 1.157.715 1.686 1.284 1.674M-43.816 804.137l-1.95-.83-.549-.621-1.302-.282-.728.27-1.06-.285-.428-.553-.22.268-.902.062-.508.295-2.106-.209-3.789.483-8.936 2.559-11.594 6.03-4.57 2.732-1.4.327-1.394.738-5.663 3.672-3.968 3.195-6.28 4.068-5.363 6.068"/><path fill="none" stroke="#000" stroke-width="4.5" stroke-linecap="round" stroke-linejoin="round" d="m-52.937 802.752.045.433-.1-.249-.916-.365-.306-1.221-.81-.288-.45-.49-.282.062-.239-.527-.795-.398-.47.234-.579-.543-1.725-.799-1.783-.458-6.331.326-7.304 1.447-6.979 2.045-2.804 1.367-3.782 1.214-4.003 2.048-3.011 1.947-1.466 1.718-1.094 1.836M-77.825 816.681l-.21-1.623M-56.092 794.01l-4.889.225-1.535-.315-4.455.72-3.936.117-1.552-.189-3.511.255-1.938.711-.826-.305-3.708-.09-1.87-.337-9.263 1.136-6.979 1.446-7.617 3.21-3.095.832-3.188 1.293M-112.033 799.589l-.838-1.026-.757-.158-.189.299-.244-.28.335.701.135-.478.235.131.021-.2 2.373-.093M-14.919 810.052l-1.864-.576-.49.503-.01-.374.124.321.547.195-.036-.163.923.14M2.62 819.419l.26.059.033-.84-.784-1.062-1.184-.183-2.462-2.122-.638-1.435-1.249-1.53-1.933-5.468-1.814-2.777-.524-.337-.594-1.303-1.781-1.697-.86-.22-3.872-4.512-2.522-2.3-4.436-3.973-2.92-2.238-5.249-6.034-1.928-1.775-1.674-.878-3.734-3.738-3.044-1.371-.47-.501-3.788-2.221-2.473-1.031-.658.381-.729.001-.592-.665-1.784-1.107-1.32-1.324-2.18-.93-3.07-1.823-4.623-3.344-1.265-.386-2.115-1.327-1.108-.208-2.08-1.386-.696-.077-.179.21.39.043.218-.59 1.083 1.429.21-.245.288.101M19.17 800.778l-.263.24-.591-.006.221.24-.116.354.038-.571.39.263-.343.125-.471-2.172.175-2.393-.4-2.505-1.057-2.572-.848-.877-.808-2.39-.415-2.27-.586-9.562-1.149-4.126-1.448-2.508-2.574-2.909-.472-1.081-.258.133-2.128-1.365-.817-.3-.81.294.622-.022M113.043 840.601l-.815-1.156-.662-1.743 2.186 4.382 1.956 1.101M-214.476 777.925l-.118.598.409.944M110.328 839.549l-1.991-1.632-.154.156.234.466.165-.503.064.193.293-.228-.27-.16.239.285-.23-.172-.118.308-1.343.903-1.557 2.102-.476.906-.467 2.376-.422.878-.458 4.512-.957 4.228-2.076 4.876-.223 3.143-.744 1.244-.617 2.195-1.856 3.298-2.026 2.565-1.073.835-.727 1.422-1.075 1.312-.375.139-1.014 2.202-1.09.76-1.375 1.99-2.668 1.375-.821.898-1.615.602-.796.78-.553 1.147-.743.324-.548-.308-.96 1.603-1.438.619-.686 1.013-.757.553-.503-.073-.82 1.129-2.457 1.69-3.052 1.791-1.104-.219-1.843 1.752-.171.431-2.519 1.267-1.163.936-.546 1.033-1.547.153-.713.512-.348.615-.952-.313-.785.329-.313.476-2.152-.29-1.428.68-4.837.895-.134-.352-.422.176-.192-.321-4.865 1.4M77.739 834.084l-.499.302.14.527-.14-.143-.441.23-.05-.18-.673.516-.627-.04-1.423.471-.585.565-.99-.183-.46.46-.355.463.045 1.229-.217.775-.178-.064-.315 2.421-.802.989-.49 1.569-.12-.215-.544.105v-.607l-4.025 1.52-2.959 1.73-.587.624-1.444.498-.455.603-.143.488.699-.207.138-.343.254.464 1.694 7.942 2.392 4.814.338 1.365-.11.715-1.113 2.238-3.815 4.061-2.46 1.885-6.267 3.16-1.266 1.771-.81.539M45.648 880.448l-.259.2-.067-.217-.052-.371.321.336.158.686"/><path fill="none" stroke="#000" stroke-width="4.5" stroke-linecap="round" stroke-linejoin="round" d="m69.24 883.363-.001-.354 1.314-1.347 2.37-.986.723-.004 2.687-.855 4.432-2.339.778-1.212.318-1.986.084-2.595-.713-3.306-.033.224.314.079-.17.115.2-.606.183.824 1.02-.553 1.044-.989 4.413-1.757M95.995 855.089l-1.922-.832-.626-.167-.456.216-.47-.347-.75.098.041.536M76.395 885.378l-.618-.861-1.272-.386.013.824-.992 1.484M18.452 842.899l-.824-.937-.11.384-.085-1.718.147-.265.134.116.163-1.014-.128-.363-.235.038.168-.115-.173-.234.17.337.36-.161-.063.74.223.248-.924 7.409-.115 2.402.214.33.075 1.934-.423 2.269-.71.735-.392.09-1.053 1.477-2.88 2.454-1.726.664-.154.359h-.857l-1.118.868-1.129.409-1.119 1.474-.73.258-.373.62M6.454 866.543l-1.604-1.067-.204.458"/><path d="M-180.302 962.772c14.136-.79 28.308-1.095 42.409-2.371 3.756-.34 7.309-1.928 11.042-2.464 8.235-1.182 16.57-1.555 24.812-2.684 3.778-.517 7.441-1.719 11.218-2.251 9.02-1.269 18.082-2.247 27.146-3.148 10.86-1.079 21.773-1.602 32.622-2.793 2.354-.258 4.648-.923 6.932-1.547 1.149-.315 2.307-.675 3.343-1.263.642-.365.976-1.133 1.593-1.538 1.09-.716 2.245-1.37 3.48-1.793 2.403-.823 5.014-.983 7.374-1.923.591-.236 1.374-.881 1.193-1.491-.315-1.061-1.298-1.974-2.336-2.357-1.277-.472-2.761-.335-4.085-.015a26.769 26.769 0 0 0-6.662 2.615c-1.044.579-1.506 1.943-2.56 2.503-1.664.883-3.514 1.497-5.386 1.715-11.485 1.34-23.072 1.656-34.563 2.946-5.952.668-11.781 2.217-17.729 2.926-.406.049-.611-.622-1.015-.692-1.014-.175-2.075-.197-3.088-.017-4.436.789-8.767 2.099-13.197 2.916-5.874 1.085-11.758 2.196-17.703 2.788-.729.073-1.313-.735-2.042-.819-1.344-.155-2.721-.095-4.058.115-4.349.686-8.676 1.54-12.957 2.569-3.685.885-7.148 2.804-10.92 3.169-7.651.739-15.375.338-23.058.117-.715-.021-1.268-.739-1.977-.837-1.658-.23-3.358-.337-5.019-.134-3.377.413-6.641 1.528-10.014 1.972-1.34.177-2.726.135-4.054-.119-3.672-.701-7.176-2.203-10.876-2.732-1.06-.152-2.058.803-3.126.732-3.531-.237-7.011-.994-10.489-1.645-2.753-.516-5.499-1.093-8.194-1.855-3.852-1.089-7.571-2.616-11.427-3.691-1.559-.435-3.18-.62-4.785-.829-10.661-1.386-21.316-2.849-32.009-3.955-11.327-1.172-22.682-2.059-34.04-2.878-1.538-.111-3.188-.471-4.626.088-.903.352-1.377 1.45-1.688 2.368-.108.317.326.627.618.79.678.378 1.425.684 2.196.781 9.152 1.148 18.329 2.1 27.514 2.945 1.003.092 2.033.072 3.019-.134.382-.08.576-.564.944-.694.344-.121.733-.082 1.093-.024 6.004.964 11.958 2.235 17.979 3.086 6.798.961 13.726 1.019 20.462 2.348 6.7 1.323 13.026 4.198 19.714 5.582 8.51 1.761 17.139 2.989 25.789 3.836m-147.555-28.465c2.079-1.412 4.237-2.716 6.238-4.236.786-.597 1.477-1.324 2.095-2.095.731-.912 1.474-1.851 1.932-2.926 1.024-2.401 1.372-5.065 2.482-7.428.241-.512 1.035-.509 1.435-.91.661-.663 1.004-1.608 1.7-2.234.872-.785 1.905-1.382 2.938-1.939 1.105-.595 2.378-.856 3.453-1.503a25.815 25.815 0 0 0 3.965-2.967c.413-.373.488-1.025.884-1.417 1.493-1.479 3.038-2.924 4.742-4.155 1.35-.974 3.071-1.378 4.368-2.422 1.163-.937 1.83-2.371 2.89-3.423 1.493-1.482 2.986-3.01 4.749-4.159 1.658-1.081 3.65-1.543 5.404-2.46a49.862 49.862 0 0 0 4.957-2.958c1.611-1.099 2.999-2.507 4.63-3.576 1.329-.87 2.737-1.639 4.215-2.219 2.975-1.169 6.006-2.226 9.104-3.012 3.846-.976 7.827-1.344 11.688-2.261 4.262-1.012 8.361-2.683 12.66-3.521 18.278-3.562 36.612-6.87 55.022-9.67 1.046-.159 2.005.903 3.06.837 9.676-.61 19.275-2.145 28.944-2.853a68.387 68.387 0 0 1 9.989.001c1.047.077 1.951.957 3.001.955 3.054-.004 6.06-.81 9.11-.972 19.907-1.057 39.837-1.626 59.744-2.685 5.063-.269 10.091-1.057 15.156-1.299 3.99-.191 7.999-.254 11.987 0 1.409.09 2.717.796 4.11 1.025 4.616.757 9.233 1.605 13.9 1.931.71.05 1.273-.678 1.97-.822.682-.141 1.408-.168 2.088-.017 3.254.719 6.57 1.344 9.651 2.613 2.136.88 3.777 2.685 5.82 3.76 4.305 2.266 9.015 3.751 13.191 6.246 1.643.982 2.82 2.603 4.061 4.06.593.696.76 1.709 1.407 2.356.731.731 1.886.935 2.616 1.668.734.738.967 1.87 1.669 2.638A138.955 138.955 0 0 0 22.5 891c1.124 1.034 2.549 1.7 3.69 2.715 1.795 1.596 3.714 3.13 5.095 5.095 2.208 3.141 3.135 7.115 5.573 10.082.565.688 1.962.491 2.67-.049.63-.482.65-1.567.456-2.337-.59-2.35-1.68-4.553-2.737-6.733-.517-1.066-1.159-2.093-1.962-2.963a179.992 179.992 0 0 0-10.095-10.095c-.772-.713-1.919-.946-2.66-1.691-1.013-1.016-1.54-2.438-2.507-3.496-.604-.661-1.524-.969-2.157-1.602-.713-.713-1.146-1.67-1.843-2.399-3.205-3.349-6.05-7.161-9.846-9.82-4.063-2.845-9.019-4.145-13.405-6.46-1.957-1.033-3.597-2.621-5.596-3.57-1.708-.811-3.55-1.404-5.422-1.664-11.714-1.626-23.435-3.567-35.254-3.984-6.673-.236-13.266 1.573-19.927 2.035-11.663.81-23.343 1.425-35.03 1.779-.407.013-.627-.555-1.013-.685-.345-.117-.73-.052-1.093-.027-8.316.579-16.611 1.523-24.94 1.839-.732.028-1.308-.832-2.04-.813-11.459.286-22.905.984-34.344 1.721-7.974.514-15.965.985-23.887 2.032-5.315.702-10.473 2.32-15.761 3.206-4.616.773-9.321.954-13.93 1.768-8.075 1.426-16.097 3.146-24.097 4.946-2.991.673-5.875 1.771-8.86 2.47-3.992.935-8.076 1.45-12.057 2.429-1.966.483-3.889 1.155-5.752 1.948a47.429 47.429 0 0 0-5.955 3.036c-2.297 1.389-4.326 3.193-6.628 4.574-2.707 1.623-5.708 2.73-8.37 4.425-1.034.658-1.669 1.808-2.626 2.573-.723.578-1.677.828-2.38 1.43-1.645 1.41-2.956 3.183-4.62 4.57-2.346 1.955-5.033 3.476-7.38 5.43-1.652 1.376-2.83 3.294-4.586 4.535-1.72 1.214-4.023 1.451-5.697 2.728-2.536 1.935-5.018 4.103-6.759 6.777-1.432 2.2-1.519 5.034-2.515 7.463-.294.719-.783 1.36-1.327 1.916-1.834 1.873-4.162 3.274-5.777 5.34-.421.539-.258 1.419 0 2.052.234.575.812.976 1.355 1.276"/><path fill="none" stroke="#000" stroke-width="4.5" stroke-linecap="round" stroke-linejoin="round" d="m-94.146 951.299-1.356-.938.144.18.307-.368.665.649.942-1.023.92-.436 1.151-.04 1.557-1.456.194.27 2.256.278.752-.307 1.471.596 2.65.013.522.32 1.94-.263 2.856.802.44-.165.735.479.063.77.449.125.289-.436 1.079 1.48.521-.003 3.64 1.842.467.608.935.107.286-.224.608.817.313.203.183-.198.388.584-.056.348.195-.109.582.44 1.93 2.002.396-.058 1.02.672.66 1.757.429.449.195-.256.392 2.184.116.249.302-.103.28 2.19.409 1.158.283.133.153 1.785.853 1.393.04.936.54.611.274 1.345.46.383 1.259 4.702 1.225 2.148.298.004.28.386.075-.168.427 1.441.189.333.146-.142.724 1.388-.06.408.584.915.471 1.53.885.848.386 1.037 1.102.704.651 1.148.235.015.14 1.752.305.717.15-.086.196 1.552 2.404 2.411 1.438.615 1.034.147.607.503.589-.08 1.307.463 1.776 1.679 1.858-.188.57.198 2.915-.754 1.925.005.947-.214.386-.345.333.041-.018.328.37-.193.254-.568 1 .673 2.766-.953.856-.15.533.301 4.567-1.194 2.82-1.015 3.681-.087 1.229-.2.552-.374 1.755.513 7.305-.66M31.937 989.061l-.604-2.334-.388-.263-.468-1.036-.453-.195-.12.258-.033-.879.187.495.818-.894M-55.21 942.088l2.86.446.817-.159 1.082.395 2.512-.044 5.295-.924 1.104-.495 1.006-.044 2.935-.94 7.22-.805.881.169 2.814-.952 2.278-.224.826.317 1.806-.468 1.498.139.223.42.378.044.395-.274 1.877-.207 3.14.132 7.025-1.191 1.407.024 3.399-.923 1.808-.08.799-.424 1.466-.022.57-.404 2.352-.189 4.606-2.269 2.124-1.637 1.145-1.901 2.9-2.504.757-1.195.25.123.595-.401 2.252-2.373 1.259-.926.318-1.22.524-.534.304-1.037 1.502-1.589.158-.502.186.607-.417.17-.086.475.313 2.823"/><path fill="none" stroke="#000" stroke-width="4.5" stroke-linecap="round" stroke-linejoin="round" d="m-60.749 946.242-1.169-.08-2.303-.884.52-1.239.21.542.23-1.576-.12.601-.087-.506-.278.518.058.645.361.094-.068.374.468.122.854.935 7.47 3.796 1.772 3.227.612 1.712 2.1 3.409.55.404.488 1.214 1.635 1.444 1.137 3.081 1.313 1.873.314 1.11 1.093 5.476.185 1.667-.2.843.52 1.25.467.399.294 1.291 1.136 1.464.552 1.238M-44.311 946.115l-.23-.438-.24.437-.284-.176-.6-3.106-.273-.301-.187-.06-.09.481-.203-.21.514.58-.148.472 2.179.139 1.888 1.135 3.829 3.646 1.12 2.268 1.538 2.096.704.427 2.99 4.733 1.52 1.302 3.843 5.232 1.795 4.21.151 2.439.842 2.548.065.905.486-.176.149-.347M-17.94 942.332l-.265-.945.284-1.596.285.143 1.295-1.038 1.051-.484 1.07.035-.106.543.606 2.248 1.937 3.897 1.31 4.083.767 1.296.476.254.762 3.588.432.348-.019 1.925.78 1.19.031.973.769 1.279.348 1.635.314.22.416-.178M7.545 942.535l-.659-3.206-.296-.321-.059-1.739-.441.464.113.655.255-.081-.018.611M-12.147 1013.72l-.624.03-1.614-.72h.924l.243-.76.777.32.755-1.07M11.412 948.556l.175.068-.315.709M-37.985 988.171l-.506 1.534.14-.596.218.564 1.507.315.407.435.1-.358.452.475.229-.182.988 1.407 1.733 1.404 4.477 2.707 1.582.43 1.25-.054 2.782.974.528-.251 1.13.525.425.662 1.27.044.532-.386 1.593.705.553.616 3.483.456.563.3 1.957-.054 3.692-.457 1.335-.291.652-.489 2.252.085.984-.422 3.236-.146.735-.546 2.129-.031 6.156-2.137 2.12-1.08 1.284-.345 1.777-1.035 1.758.116-.45.112-.16.392.056-.753 7.29-6.469M38.162 979.779l1.175-2.581.094-.544-.575.891M57.796 1050.48l-.535.19-.166-.28.207-.84-.242.2-.029-.42-.138.27.46-.45M87.326 963.198l-.357.283-.581-.242.147-.182-.102.552-.132-.289-2.796-.745-.592-.416-1.598-.278-1.14-1.657-2.484-1.896-5.478-1.539-.399.375-.512-1.7-.425.039-1.289-.797-.145.186-.3-.541.197.603.255-.784.465.439-.005-.459.093.62-.225-.102.08-.292-.17.153.3-.416-.167.303-.197-.142.064.191-.241-.795-.41-.063"/><path fill="none" stroke="#000" stroke-width="4.5" stroke-linecap="round" stroke-linejoin="round" d="m79.035 960.273.295-1.383-.748 1.379-4.003 3.538-3.054 3.587-5.15 6.808M82.854 963.049l.887-2.448-.022-.962-.125.585.24.327-.228.076-.068-.305-.258 1.148-1.062.435-1.957 2.674-5.742 8.965-2.87 5.115M59.907 1043.5l-.517.2-.773-.34-.242.35-.735-1.33-.488-.03-.564.38-.864-.78-.457.46-1.3-.23-.358-.49-1.119-.46-1.124-1.39-.068-.54.136.55-3.644.44-1.783 1.29-1.626.74-2.103 3.29-.956.88.077.25-.146-.28.265-.24h-.303l.002-.48-.11.69-.37-.49-.21.14-1.586-.51-.946.18-.443-.48-2.329-1.22-2.691-.69-2.747-1.12-.926-.78.079.44.615-.13 1.41 1.04"/><path fill="none" stroke="#000" stroke-width="4.5" stroke-linecap="round" stroke-linejoin="round" d="m42.438 1045.17-4.976-3.62 3.292 1.28 1.179-.17.78-.6.573.17 2.665-.17 2.383-.44M32.34 1044.73l-.308-.35-1.42-.42-.77.09-.747-1.09.78-.24-1.157-1.13-.846-1.33-.18-1.92-1.046-1.48-.444-1.64-.517.26-.332-.92-.167.36-.103-.94.229.23-.253.27.605-.8 1.029-5.5.142-.32.07.43.272-.56.125-1.1.433-.18.264-.81-.281.16.075.22-.015-.32.216.44-.282-.55 1.02-1.05M29.71 1021.7l-.694-.08-1.88-.92-.185.19-.339-.13-1.992-1.84-.126-.6.35.07.152.41"/><path fill="none" stroke="#000" stroke-width="4.5" stroke-linecap="round" stroke-linejoin="round" d="m12.501 1022.02-.268-2.24.646-3.78-.762 2.18.19-.38v.57l.522-.01-.124.2.481.83.384.51.354-.04.979 1.62.868.16.61-.4 2.165 1.27 2.298.46 1.162-.15 2.818.69 2.426.05 2.521-.59 2.6-1.02 2.252-2.3.208.36.464-.5-.17-.07-.123.5.022-.19.276.28-.318-.03 1.455.39 7.068 1.28 2.023-.49 1.48-.92 1.453-.22.229.31.303-.02.951-1.03.423-1.08 1.148-3.6 1.082-4.78.603-.98.607-.29M43.962 998.346l-.453-1.853.09-1.433.35 1.126.351-.353.584.309 2.939-.147M6.301 1030.44l-.607-1.24-.335-.09-.183-2.74-.826-1.8.045-.93-.56-.45.087-.4-.167.59.263-.45.05.43.441-.5.104.54 1.712.23"/><path fill="none" stroke="#000" stroke-width="4.5" stroke-linecap="round" stroke-linejoin="round" d="m12.106 1019.24.244-3.48-.128.62.913.4 3.37-.68M66.232 960.422l-7.7 1.207-5.773.59-.912.499-2.085-.063.349.272.577-.6 2.4-.387.939-.613 1.963-.192M54.642 933.069l.057-1.616-.294-1.57-.66-1.666-.506-.37-.332.056-.078 1.321-2.809 1.493-.79.126-.221.502.915-2.781.729-1.251 1.644-1.366M52.19 916.62l-.287.269-.543-.168-.276-.992.083-.932-.683-1.201-1.074-.096.488.39.045-.331.265.344 1.719-8.524.13-1.989-.46-8.08.228-.798.555-.707.673.037.202-.233-3.888 4.933-2.305 2.263-.81 1.171-2.189 1.574-.748 1.613.096.26.037-.499.356.044.253-.679 3.514-3.913 3.959-3.455 2.041-2.299.959-1.54.224.02.626-3.977.008.386-.697 1.113-5.235 6.293-3.97 3.901-1.365.808.327-.312-.002-.396-.6-3.633-.904-2.903-.326.035-.37-.34.357 2.099-.926 5.017-.152 7.222.507 7.87.706 1.996.721.203 6.014-4.483.704-1.166.354-1.498-.125-2.973.295-4.977 1.055-3.832-.084-1.265.064.324 1.062-1.648 1.055-.472.658.073.54-.644.03-.496-.72.822-.211-.107.336.837.053-1.028 2.16-1.634 1.746-1.87 1.501-2.104 2.25-3.925 1.607-1.352 1.397-.393"/><path fill="none" stroke="#000" stroke-width="4.5" stroke-linecap="round" stroke-linejoin="round" d="m66.64 888.786-.64.743-.466 1.42-.16 1.175.2.971.625.143.081-.574-.139-1.398.287-4.226-.3-3.845-.605-1.885-.415-.114-.294.425-1.057-.542-1.563.934-6.095 2.673-1.33.973-3.372 3.252-5.782 3.47-1.183.052-.196-.495-.226.165-.311-.216-.468-.746-.657-1.964-.693-5.41.167 1.248-2.57 1.602-2.134 1.759-1.09.481-1.601 1.554M31.353 883.793l.517-.618-.196-.868-.173-.304-.32.531-.208.077-.02-.196.166.979-.934 1.802-.106.507.357.337-.127.118M32.65 870.127l-1.957-3.987-.027.722 1.167.986M47.306 940.69l-2.965-3.086-1.41-3.589-.442-1.333-.22-4.066.18-2.576-.492 2.678-3.023 5.906.882-1.223-.335-.554 3.552-8.243.508-1.865.679-1.177-.831-2.882.165-.439.151.307-.752 3.669-.26 3.285.235 4.264.974 3.299 1.057 1.156 1.278-.092.486-.448 1.994-.311 1.01.217 5.298-2.502.902-1.678-.254-.013-.142.378-.594.069.38.887-2.16 4.395-2.503 4.154-.525 2.74.182-.535.054.448.456.326.603-.416 1.824-.501.99.121 1.422-.739-.755.357.546-.129 3.25 1.349.895.594 1.306 1.852 2.045 5.445M70.357 963.496l-.35-.313-.177-.832.265.312.08-.475.007 1.044.542.307M35.838 924.446l-1.86-2.744-.99-.956-.425.12-.062-.504.18-.302.999.873.66.148.637-.424.64.128.936-.177-.146-.164"/><path fill="none" stroke="#000" stroke-width="4.5" stroke-linecap="round" stroke-linejoin="round" d="m32.654 914.413-1.309.25-.08-.197.653-.068.544-4.072-.167-3.711.18-4.165-.413-1.241-.799-.78-.597-.13-.18.382-.214-.402.127-.346.096-.167.238.566.245-.605.033.256-.442.005-.218-.285-2.067-.587-1.14-.158-.248.274-1.736-.871-.101-.488-1.36-1.546-.353-.033-1.533-3.872-.505-.796-.208.382.635.306.165.964 2.443 3.406.694.306 5.053 6.662.747 1.708.683 1.082.327.094.66 2.048.554.557.355.003 1.181 2.6.03 2.618-.847 2.711-.96 1.899-.135 1.398.51 1.09.349-.451-.111.27-.181-1.533.716-2.273.438-4.068.042.24.275-.044-.357.747.102.25.216-.464.9 3.841.366.672-.085 11.342.527 4.504-.428 2.934-.846 1.334-.387 1.582-.688.718.334-.38-.035-.962 2.055-6.124 2.881-5.569 3.039-4.98-1.209 1.312-.29-.166.356.074-1.328 1.01-1.073 1.556-2.13 2.213-1.431 2.296-.939.991-.196 1.079.45-1.009-.26-.263.083-2.888.724-2.508 1.572-3.938 1.786-2.284-.114-.4-.574.091-.122.345-.458-.423.066.73.342-.825-.202-2.632-.652-.223-1.022-.964-.537.048.614.161v-.219l.278.33 2.173.083 1.547.486.614.784-.143.373.208-.313 1.953-.348.277-.377.48.202-.109.608-1.876 1.191-1.95.37-2.517 1.203-2.23.083-1.967.703-.46-.422-.012-.236.244.255.356-.139-.438-.273-.525-1.611.17-.945 1.46-1.209 3.103-1.301.048-.395-.271.624-.755.394.035.422-.76.135-3.748 2.148-.323.618-1.13.909-.058.478.382.047.206-.654.39-.107.187.212 1.994-.954 1.224-.938 2.44-.844 1.185-.018 1.01-.555 1.978-.484.37.128.228.473.578-.041.857 2.444.33.266.033 1.207-.237-.082-1.493.866-.889 1.158.208.686 1.135.025.319.305M46.521 913.283l-.6-.886.02.374-1.207.526-2.476 2.293.104.625.812-.342 3.727-9.081 2.165-3.255 1.09-.982-.144.655-.41.178-.009-.503-.308 1.476.996 5.503-.108 7.222-.2-1.738.587-7.425.678-4.311-.116-.493-.4.423-.044 1.254.286 1.216-.183 3.757-1.376 7.612.085 1.531.148.71.545.692.477.034 1.136 1.429.965.223-.377.059-.221-.448.993-4.625-.157-4.722-.284-.334.174 3.601.908 6.246 1.324 5.79 1.245 3.271.42.507M68.817 914.262l-.686-1.992-.266-.275-.13.198.006-.219.468-.083.425.857.152 5.357-.35 6.291-1.307 8.792.238 1.768 1.536-.131M92.681 920.825l-.484-1.288-.119.398.076 2.137-1.431 4.695-1.11 5.431-.222 3.744.18 2.746.39.053.202-.243 1.232.912.34-.065M-2.266 882.942l-.196.143-1.332-.78-.287-.639-.202.121.005.654 1.075-1.003.815 1.14.406.037.014.657 2.941 6.055 1.556 2.128 6.812 7.036.63.068 1.132 2.452.287 2.81-.591 1.168-.41-.072-.073-.741-1.925-.436-2.197-1.095-5.52-4.166-2.15-1.289-1.274-.345-.36-.642-.928.172-.48.544-.116-.231-1.058-.304-.62.357-.701 1.122-.37-.053-.432.404M-14.85 903.992l-.27-1.927.024-.334.315-.113.075.575.61.441.363.889 2.916 3.531 3.759 8.646M-40.857 909.554l.383-.362.27.006.106.327.341-.035-.143-.2.246.657M-78.814 918.529l-.473.331-.392-.056-1.332-.632-.218-.431-.906.222.069-.293-.422.858M-20.28 911.934l-.59-.099-.269-.376.292-.96.105.359.452-.002-.162.434M-31.608 942.229l.608-1.452.537-.515.32-1.046.229.47-.153-.466.066.342.235-.31-.02.451.23-.428.03.514.319-.343-.194.548.412.519 2.806 2.054 2.594 3.486M-4.559 965.106l-.413-.433.42-.062.44.286.68-.264-.198.294.019-.406.04 1.063.216-.335M12.438 953.191l.136-1.284.24-.693.321-.203-.476.713M7.553 1022.2l.657.41.66-.16-.494-.26-.244.39-1.011-.39-5.358-2.9-1.027-.84-1.398-2.45-1.327-4.56.094-.83-.545-1.47.154-1.11-.046.21-.431-.25-.056-1.32.314-1.44-.07.24-.115-.56.42-1.18-.342-1.54.417-.45-.323-.64-.291-.02-.007-.24.314.1.014-.24.896 3.84 2.418 4.38 3.474 4.58 3.054 1.93.819 1.78.367.09.646 1.09.695 1.65 1.065 1.27 1.986 1.35 1.743.17 3.697-.56 1.456.27 2.334-1.03.817.63.742-.26.079.38M22.46 1026.29l-.181.23M21.828 991.703l6.502-1.436 1.518-.099.08.32"/><path fill="none" stroke="#000" stroke-width="4.5" stroke-linecap="round" stroke-linejoin="round" d="m28.789 991.062-2.977.649-2.553 1.124-4.4 2.471-5.845 3.741-.435.835-.587.478-.446-.09-2.5 1.13-1.065 1.29-.166.55-.125-.14-.038.2.317.04.142-.33.468-.16-.018.26 2.542-2.01 4.645-2.608 1.425-.588-.363.911-.49.336-.244-.262-.315.27-.415-.079-1.886 2.94-2.501 2.35-1.212.76-3.465 1.29-4.512 3.3.402.94 1.191-1.44.204.14.297-.3.396.2 1.64-.46 1.253-.77.458.22 6.78-1.35.444.03.558.49.181-.13-.057 1.42-.475 1.87-.626.9-.272-.17-1.024 2.37-.515.58-.355 1.93M23.41 1025.91l-.061-1.21-.08.58-.122-.16.196-.53-.17.37M14.94 1015.89l.31.14 2.107-3.23.283.14 1.237-.73 1.52-.16.5-.71-.234 2.71.197.27-1.503 2.06-3.332 2.04-2.482 2.13-.785 1.11-.154-.1.217-.23.798.1.53.49.252-.36 1.68-.81"/><path fill="none" stroke="#000" stroke-width="4.5" stroke-linecap="round" stroke-linejoin="round" d="m17.857 999.733-5.538 2.857-.587.61-1.276.34-1.94 1-.86.86-.085.47.63-.33.442.22.615-.1.314.36.497-.39 6.652-1.75 3.88-.75 2.332-.75.136-.4-.13.46-.514.34-1.693.68-1.125 1.27-3.833 2.77-1.21 1.33-2.64 1.98-1.842 1.21-.436-.14-1.306 1.74-.298.27.084-.35.335 1.24 1.054.14 1.62 1.64 2.23.45.394 1.65M53.662 1028.48l-2.499-1.01-4.92-.82-2.608.4-4.364 1.41-3.622 2.12.395.08.633-.49.614.07.377-.53.433.26 1.284.08 3.742-1.34 2.38-.07.865.39 1.317.04-2.932 5.51-2.527 2.31-.454.08-1.702 2.12-.63.38-.944 1.45-.27.86.24.98.977.84 1.51.48M37.158 1048.53l-1.28-1.41-.45.02.393.26M-112.304 760.916l-.368.191-.694-.266.252-.714.535-.8.238.067 1.486-2.298 1.072-.377.03-.634-.252.358.125.223-.556.394.3-.275-.142.197.386-.093-.214-.235-.308.154.149-.096-.457-.491-2.147.334-2.159-.443.655-.084-.07.38.558-.185.165-.491.186.372-.378.224.978.311.778.989.262.966 4.382 3.133 3.276 1.513 3.895.896M-105.281 754.751l-.449.241-.787-.754-.137-.548.127-.167.412.454.733-1.182.289.037-.034.76 1.082.556 2.101 1.78 2.98 1.707 3.006 2.758.701.042 2.778 1.22 1.68.187M-92.813 751.298l-.929-.374-.121-.38-.597.245-.216-.763.9-.02 2.758.85 1.954.298 1.852 1.228.702.946 1.369 1.032.73-.026.487.338 2.895 2.504 1.553.206M-84.358 749.855l-1.191-1.821.146-.87.37-.23.229.545 1.364.997 2.634 1.198 2.202 1.366.765.906.944.493 1.137 1.149M-78.584 747.728l-1.277-2.204.492.03.315.605 1.79.902 4.822 1.846 4.45 2.154M-65.62 745.34l-1.072-2.97.207-1.094.584.842.06.631 4.026 2.614 3.444 3.352 2.217 1.353M-54.818 743.944l-1.02-3.331.15-.661 2.83.955.606-.033 2.018 1.519 2.378 2.338 3.748 4.156M-45.974 741.474l-.352-1.203.155-1.436.533.757 1.296.476.988.021 4.041 2.659 4.575 4.484M-31.412 741.195l-.585-1.959.027-1.577.422 1.429 1.898.787 1.101.908 2.227.905 3.097 2.355 1.6 1.445 2.6 3.254M-15.855 740.262l-.591-2.867-.025-1.414.903 1.168 2.424.51 2.308 2.095 1.718 2.996.68 2.138M.208 736.274l-.131-3.583.292-1.328.654-.977.076 2.159 5.569 10.199M17.359 734.349l.337-4.701.113 1.904.885 1.238.723 1.766 1.492 4.421.126 1.12M23.11 735.661l-.726-4.491.4 1.36.743.491 1.14 1.496 1.136 2.568M34.515 736.701l-.624-2.754.243-.957.295 1.694 1.166 2.809.128 1.027M44.158 736.551l-.54-3.748.172-1.118.625.319-.015 1.081.98 1.478 1.488 3.761.855 4.692M50.974 738.07l-.348-3.091.724 1.409 1.827 1.891.691 1.736-.314 2.595M60.481 737.875l-.123-4.714.33-.918.104 1.967 2.612 5.014.274 2.361-.11 1.833M71.994 733.641l-.782-4.234.875 1.715 1.653 1.772.69 1.495.13 2.74-.911 3.919M76.258 732.43l-.136-3.52.19-1.206.75-1.706.59-.617.877.132.485.757.221-.045.699 1.864.625.92.257 1.15-.12 2.01-.718 2.798-1.313 3.031-1.074 1.613"/><path fill="none" stroke="#000" stroke-width="4.5" stroke-linecap="round" stroke-linejoin="round" d="m78.31 730.726.216-2.674-.27-3.076-.526-1.629-.165 1.038.6 2.349.202 1.998-.176 5.251-.793 4.695M92.42 733.629l-.179-3.923.167-.05-.381 2.676-3.139 8.802M98.024 735.832l.408-3.949.846-2.362-.214 5.151-2.474 8.499-.147 2.373M103.506 738.624l-.079-2.048.309-.473-.286.971.245 1.109-.067 2.214-1.13 3.848-.815 1.638M115.141 738.788l1.014-2.625.332-.243-.214.597-.609.79-.98 2.687-3.47 6.821-.439.424M119.97 740.787l1.05-3.498-.069.867-.621 1.073-3.388 4.833-3.89 6.449M130.358 740.821l1.416-4.677-.999 2.249-3.025 4.334-2.442 4.571M-129.273 758.919l.569-.441-.109-.239.817-.96.49-.261.207.239 2.057-.99 1.104.243.001.354 1.553.115M-130.08 755.578l-.07-1.831.596-.236 1.846.128.98-.26 1.974.585 3.103 1.829M-135.821 752.23l-.432-.78-1.5-1.216-.366.342-.005-.34.304.025 2.231 2.256 1.926 1.258 1.526 1.781M-147.24 750.505l-.423-.343-.278-1.092.186-.342.114.36.108-.36 1.146.466 3.398.571 5.742 1.543M-154.137 750.88l-.472.48-.423-.203-.131.226.277.17.154-.277.344.057.001.202 1.988.535 4.056.81M-157.417 753.525l-.859-1.426-.325-.078.261-.281.446.265.535-.237 2.088.595 1.15.776 2.052-.248 3.905.366M-171.604 760.733l.713-.938.92-.415.517.126 2.688-.728 1.31.18 1.437-.299M-188.025 766.403l2.373-2.2 1.086.13 6.448-1.531 4.057.538M-204.529 776.667l.091-1.092-.221-.19.177.234.041-.389-.004.395-.016-.563.323.222-.293.274 1.636-.16M-213.208 782.307l-.315-.838.027-.579.35-.356-.294.24.625.066 2.278-.08"/><path fill="none" stroke="#000" stroke-width="4.5" stroke-linecap="round" stroke-linejoin="round" d="m-147.085 752.84-.195-.531 1.72-3.356-.531.479-.309 1.318.945 2.511 1.728 2.564 1.666.522.739-.514.976.365 2.505.108M-155.228 753.156l-2.288-.51.873.277v.223l.205-.294.279.46-.125 1.114.459.919.201-.066-.103.63M-167.276 757.255l-.331-.368-.134.302-.137-.905.192.849.596.079-.097.245.731 1.632 1.385 1.73M-179.803 766.013l-.469-.508-1.553 1.536M-203.202 774.006l-.801-1.15-1.154-.37-.217.181.345.076-.227.295 1.754.803M26.486 927.799l.786.31.354.474.027.527 1.469.84 3.923 1.43 2.592.494 1.123-.297 2.167 1.24.438.61.128.803-.503-.438.75-2.073.078-2.214-.934-2.642-1.308-5.553-1.492-1.263.281.078.03.314.568-.064.268-.313.416.938.946.005 1.213 2.025 2.658 2.897 3.839 6.613.054.606-.245-.908.112.496-.352-.298-2.747-3.406-2.583-1.682-1.417-.561-.006-.266-.395.707.202.164.2-.237.12.797.189-.018.81 1.73 1.332 3.436 1.523 3.01 1.617 2.252 1.009 2.336-.2-.044-.094.41-.344-1.127-.455.543.026-.291-.779-.247-1.902-1.712-.754-.288-2.268-2.587-1.358-1.173-.682-.171.23.3.306-.14 1.065.636.136.428.106-.18.63.184 2.46 2.892 1.406 1.236 3.833 2.67 1.018.405 3.321 3.296-.178.185-.145-.442-.534-.287-.297.282-.323-.301-.078-.558-.357.184-3.21-2.021-2.456-.987-2.744-.348-2.356.261-.596.527-.384-.113-.02-.295.596.179.316.394.984-.48.932.699.47 1.275.333-.031 1.202 1.047.843.327 2.472 3.43 1.744 1.838 2.192 3.119.078-.171-.361-.148-.181-.521-.022.229-4.927-6.064-1.636-1.1-3.019-.963.098-.17.538.954.768-.513.083 1.614.798 2.163.508 3.42 1.68 2.858-.051.293.183-.117-.126.126"/><path fill="none" stroke="#000" stroke-width="4.5" stroke-linecap="round" stroke-linejoin="round" d="m27.74 953.341.559-1.42 1.311.377.397.374 1.507-.13 1.508.435.995.602.657-.193 5.323 1.172.718-.209 1.737.861 2.809.107.693-.269.264.255M52.312 949.451l-.456.315-.563-.298-.213.625.269.439-.41.725M54.363 963.893l-.582-.622.16-.335-.666 1.301-.379-.072-2.392 1.178M28.8 962.019l-.263-.456.48.48.306.832.162-.336.66-.02.261-.349.948.61 1.828.453 4.76 2.583 4.199 1.454M33.36 970.914l-.663-3.37-.182.077-.758-.921.196-.258-.24.284.064.726.37.312.945-.118.486-.491.433-.043M57.21 956.642l-.412-.422-.203.085-.156-.879.18-.241-.638.003.19-.467-.357-2.712-3.43-.157-.537.418-1.34-.137-.87.44-.757.875.042.773.388.613 1.275-.403 1.422.137 3.446-1.33 1.638-2.865.166-1.27-.179-.369.261-.851-.06-1.585.06.427-.273-.17.138.388-.863.307-.518-.143-.336-.44M36.498 932.581l-.011-1.85-.314-1.401.048-1.068.23-.267.063 1.345.127.419.289.017.333 1.465 1.052 2.114.187 1.738-1.081 2.076-1.25 1.141-1.5.257-.258.168.043.329 2.407-1.494 1.033.018 3.02-2.863 1.173-.909.486-.105.727-1.318 1.877.277 1.235.526 1.51.898 1.557 1.345M59.014 942.267l.122.138 1.053-1.054.719-1.759-.634-3.016-.129.105-.404-.978-1.03-.774-.315-.798-.018.369-.244.094.077.662.481.394.069 1.284.79 1.792.282 1.386.378 3.949-.256-.261 1.128-2.826-.214-2.062.165-4.432-.262-1.245-.222-.457-.306.032-.332 1.37-1.126 1.013-.418 1.444-.034 3.829.596 3.178"/><path d="M-345.28 972.758c8.464-1.673 16.907-3.45 25.391-5.018 6.891-1.275 13.87-2.078 20.731-3.51 5.651-1.18 11.115-3.162 16.77-4.321 4.234-.867 8.533-1.482 12.846-1.75.734-.045 1.311.795 2.045.826 5.994.251 12.005.299 17.997.014 6.999-.333 13.939-1.518 20.937-1.867.719-.036 1.327.6 2.037.72.994.168 2.017.207 3.022.132.473-.035 1.107-.048 1.347-.456.351-.597.459-1.459.139-2.073-.518-.992-1.512-1.675-2.428-2.317-.292-.204-.704-.116-1.06-.124-1.663-.033-3.339-.197-4.991.001-.71.086-1.282.666-1.977.837-.658.162-1.349.146-2.026.146-.677 0-1.368.016-2.026-.146-.695-.171-1.265-.77-1.978-.837a38.39 38.39 0 0 0-6.989-.001c-5.028.45-9.99 1.487-15.014 1.972a15.77 15.77 0 0 1-4.019-.134c-.707-.114-1.263-.794-1.978-.837-3.989-.239-8.054-.694-11.99-.001-8.252 1.453-16.126 4.598-24.311 6.395-6.516 1.431-13.182 2.074-19.744 3.279-6.984 1.282-13.891 2.971-20.889 4.182-1.013.176-2.137.365-3.086-.032-.359-.151.019-.893.335-1.12 2.327-1.676 4.987-2.841 7.374-4.431 1.608-1.07 2.96-2.5 4.59-3.537 1.155-.734 2.545-1.039 3.718-1.744 2.183-1.313 4.106-3.035 6.321-4.293 3.209-1.821 6.44-3.678 9.913-4.923 2.807-1.006 5.81-1.401 8.769-1.774.517-.065 1.038.216 1.486.482.573.34.873 1.133 1.517 1.301.379.099.597-.553.975-.651a5.226 5.226 0 0 1 2.022-.132c1.047.146 2.015 1.01 3.059.84.956-.157 1.798-.92 2.341-1.723.315-.467.178-1.168-.035-1.689-.437-1.067-.947-2.207-1.853-2.921-.668-.526-1.653-.578-2.501-.508-5.317.438-10.625 1.083-15.877 2.021-1.277.229-2.44.897-3.609 1.461-3.439 1.663-6.891 3.314-10.205 5.215-.656.376-.994 1.17-1.632 1.576-3.046 1.939-6.328 3.489-9.374 5.427-.639.407-.977 1.202-1.633 1.578-1.716.984-3.808 1.285-5.401 2.457-2.274 1.673-3.378 4.976-6.027 5.949-1.105.406-1.359-1.992-1.614-3.141-.297-1.338-.393-2.8.003-4.112.669-2.221 2.237-4.077 3.112-6.225 1.016-2.493 1.566-5.156 2.545-7.663.633-1.62 1.249-3.291 2.281-4.69.752-1.019 2.08-1.475 2.948-2.397 1.397-1.483 2.369-3.338 3.81-4.779.736-.736 1.825-1.019 2.638-1.669.857-.685 1.428-1.708 2.344-2.311 2.013-1.326 4.303-2.185 6.37-3.425a74.802 74.802 0 0 0 6.004-4.002c.681-.504 1.222-1.174 1.809-1.785.297-.309.758-.552.843-.973.103-.504-.09-1.056-.339-1.507-.212-.382-.558-.75-.977-.871-.666-.192-1.459-.319-2.08-.011-1.583.784-2.767 2.21-4.262 3.151-3.054 1.921-6.366 3.421-9.368 5.422-1.019.68-1.669 1.808-2.626 2.574-.723.578-1.676.829-2.38 1.43-1.469 1.253-2.858 2.613-4.095 4.095-2.138 2.562-4.411 5.079-6.006 8.011-1.601 2.943-2.169 6.346-3.482 9.429-.667 1.566-1.809 2.906-2.444 4.486-.737 1.836-1.464 3.732-1.647 5.702-.098 1.053.799 2.005.833 3.062.021.636-.933 1.202-.677 1.784.358.815 1.32 1.268 2.155 1.577.65.241 1.401.138 2.079-.009.383-.083.603-.543.98-.652.136-.04.345.135.324.275-.153 1.034-.744 1.986-.814 3.029-.053.792-.313 2.14.456 2.339"/><path fill="none" stroke="#000" stroke-width="4.5" stroke-linecap="round" stroke-linejoin="round" d="m-342.554 964.289-1.966-.284.358.128 1.033-.323.178-.584 1.183-1.433.101-2.116.358-.083-.155-.058.026.382-.008-.267 1.008-1.064"/><path d="M-321.036 965.515c.929-1.913 1.702-3.91 2.786-5.739.842-1.42 1.888-2.716 2.965-3.966 1.106-1.284 2.511-2.297 3.57-3.62 1.074-1.342 1.62-3.08 2.796-4.335 1.066-1.137 2.793-1.529 3.81-2.711.363-.423.19-1.165-.042-1.672-.258-.568-.742-1.095-1.323-1.323-.647-.254-1.414-.198-2.085-.014-1.27.347-2.683.653-3.624 1.575-.917.899-.955 2.39-1.57 3.518-.567 1.04-1.2 2.055-1.962 2.962-1.09 1.297-2.464 2.336-3.57 3.62-1.091 1.266-2.171 2.566-3.008 4.013-1.032 1.782-1.836 3.693-2.568 5.618-.129.339-.156.771.019 1.088.302.544.714 1.166 1.316 1.322m-7.507-.339c.595-1.247 1.036-2.58 1.786-3.74 1.699-2.629 3.803-4.979 5.534-7.587.977-1.471 1.945-2.981 2.575-4.631a2.978 2.978 0 0 0-.011-2.08c-.228-.581-.755-1.065-1.323-1.323-.507-.232-1.306-.462-1.671-.042-1.54 1.774-2.214 4.156-3.569 6.075-.708 1.003-1.875 1.625-2.577 2.632-1.695 2.433-3.312 4.946-4.573 7.63-.295.627-.181 1.414.011 2.08.121.419.499.748.87.977.441.27.963.464 1.48.466m23.951-4.14c.69.008 1.386.119 2.069.023.206-.029.398-.197.495-.381.975-1.844 1.443-3.978 2.693-5.648 1.724-2.304 3.966-4.179 6.103-6.108 1.137-1.026 2.637-1.624 3.692-2.734.355-.373.446-1.004.34-1.508-.089-.425-.458-.817-.861-.976-.796-.313-1.701-.528-2.54-.362-1.295.256-2.593.767-3.632 1.583-.76.598-.886 1.744-1.524 2.472-1.739 1.983-3.843 3.626-5.57 5.62-.67.774-1.325 1.643-1.577 2.636-.333 1.309-.201 2.701-.122 4.05m18.951-.984c.913-1.896 1.673-3.874 2.74-5.689.375-.638 1.16-.964 1.543-1.598.648-1.074.804-2.408 1.503-3.45.301-.449 1.006-.46 1.38-.849.678-.703 1.4-1.449 1.723-2.371.173-.496-.099-1.076-.353-1.535-.211-.382-.558-.75-.977-.871a3.823 3.823 0 0 0-2.052 0c-.415.117-.665.551-.974.852-.946.922-2.013 1.746-2.789 2.815-.977 1.348-1.501 2.981-2.422 4.368-.409.614-1.159.958-1.538 1.591-.688 1.145-1.258 2.38-1.616 3.666-.187.67-.24 1.438.014 2.085.228.581.72 1.169 1.325 1.325"/><path fill="none" stroke="#000" stroke-width="4.5" stroke-linecap="round" stroke-linejoin="round" d="m-86.423 774.37-.735-.397-.385-.793-1.089.176-.772-.36-.157-.503-1.898.723-1.564-.111-.76-.298-3.072.562-11.274 3.048-12.039 2.253-5.691.402-3.253.763-.887.682-1.093.347-.891-.203-4.494.396-4.712 1.331-1.685 1.17-.631-.198-3.38.775-9.09 4.166-5.449 2.971-.919 1.006-.367 1.059.044.773.195.229.294-.392.072.241M-75.273 784.119l-.793-.231-.188-.475-1.527.261-.626.474-.168-.251-2.086-.059-1.345.289-1.184.753-.475-.104-10.048 2.244-6.961.96-8.682 1.921-5.578 2.305-2.447.634-.802-.194-1.903.927-.884.723-1.527.408-1.03.849-1.631.701-.557-.013.612-.729.163.162-.145-.902-.216-.156-.053.259-.128-.319M74.275 916.835l.826-2.036.04 1.454.115-.466.426.451.648 2.339.292 3.199-.117 3.486.53 3.671.48 1.645.01 1.18-.24-.27-.414 1.982-.682 1.12-.008.645.289.338.404-2.906M85.376 920.467l-.672 2.378.216-.326.052.952.24.123.157.75-.051 3M96.882 924.798l.11-.539.335-.265.257-1.428-.02.643-.713.62-.2.601.153.886-.272 1.104-.48 9.1.037 1.827.09.218.186-.762-.52-.036.68.374"/></svg>