<svg width="500" height="500" viewBox="-702 0 1404 1872" xmlns="http://www.w3.org/2000/svg" version="1.2" baseProfile="tiny"><path fill="none" stroke="#000" stroke-width="6" stroke-linecap="round" stroke-linejoin="round" d="m57.985 743.074.273-.326-.066-1.02.601-.728 3.152-2.262 1.582-.331 2.6-1.721 3.347-1.076 3.08-2.126 2.452-.718.467.159 1.368-1.035.413.172-.018-.261-.072.24.283-.036.42-.309 5.228.127 1.089.828 1.024 1.644 8.037 2.104 2.05 1.126 7.371.646.809.507 2.319-.332 2.988.153 4.217-1.358 1.02-1.479 1.568-1.417 1.435-2.488.398-1.676-.696-1.319-.168-1.392.565-4.798-1.524-4.834.027-5.563-.986-4.446 1.419-6.509.943-1.763 3.669-3.21.388-.983.854-.824 3.381-1.841.914-.882.636-1.304.544-.012.928-1.006 1.501-.799 3.336.122.905.741.638.066 1.529 1.797 3.264 2.146 1.006 1.069.861 1.821 5.743.512 1.358-.161.447.386 4.27-2.876.249.191-.201-.725 1.229-2.342-.403-1.697.274-1.858 3.563-4.782 2.261-1.421 5.441-1.395-.547.237 1.917-.001 2.999 1.147.188.903 4.169 3.707.459-.069 3.833 2.883 5.322 2.816 6.976 1.565 2.67-2.962-.325-1.527.161-1.233.897-1.892 5.861.389 1.107-.35 3.429 3.057 9.958 5.604 1.047 1.114 1.888 1.201.99-.006 3.891 2.542.997.863 1.296 2.267.24 1.025.659.498 2.225.867 2.465.081.979-2.095 2.881-2.262.837-1.546-2.305-3.838.49-4.035-.565-2.222-1.542-1.847-2.211-1.58-.586-1.317-.662-.323-1.846-2.481-4.402-3.15-4.403-1.998-.995-.04-4.957-2.638-6.518-1.787-7.769-1.147-1.808-1.236-4.561-1.825-6.202-1.459-2.58-1.368-4.749-3.752-3.204-1.285-4.134-1.057-3.11-.25-4.962-1.143-2.732-1.752-3.14-.979-6.918-1.247-6.006-1.997-7.979.18-5.057.632-2.248 1.265-1.25 1.357-1.711 1.056-1.753 3.307-2.042 2.296-.285.75-2.931 2.86-4.015 2.951-1.899 2.091-3.038 6.291-.472 4.029-1.795 5.426M111.12 668.678l-.575.725.204-.338-2.242-4.013-1.783-2.146-1.383-.95-1.125-.663-4.446-.377-2.08-.849-3.695.464-7.165 3.233-2.142 1.659-1.138 1.523-3.667 1.778-2.17-.038-.313.39-1.011-.497-.972.146-2.286-.413-1.491-.959-4.562-1.652-.79-1.195-3.601-2.024-2.529-2.901-2.32-1.249-6.052-4.338-.759-.073-2.954-1.539-4.868-.593-1.99-1.452-1.498-.218-4.05-1.737-1.205-1.172-.844-.139-.168-.425-.68.187-1.275-.418-1.768-1.43-.122.207-1.278-1.446-1.402-.531.137-.213-.099.424-3.266 1.37.487.233.757 2.863M58.62 739.404l-.047.298-.075-.371-.175.358-.105-.324-7.234.804-2.46-.304-2.55.547-2.179-.342-2.409.453-1.936-.342-4.735.002-3.22.55-1.45.653-.485-.257.078-.641-1.793-6.047-.446-3.633.929-7.408-.23-5.46 1.926-8.21-.635-5.196.109-1.765 1.873-7.102 1.68-1.942 1.577-.787.628-.609.13-.269-.37.194 1.356-1.011-.32.236-.029-1.418-1.142-2.417-.261-.125-.125.46.035-.425-.345.387-2.27-2.084.036.329-2.437 1.018-2.075 1.542-.33-.074-3.903 3.05-2.723 1.2-2.394 1.576-2.216 2.346-2.348 4.447-.937.879-4.14 2.332-.946.888.023.592.023-.525-4.486-2.584-7.203-1.888-3.761-3.142-4.516-.783-5.328-2.361-4.743-1.402-5.467 3.674-.513.835.249 2.301 2.017 4.791 1.04 3.947 1.378 1.335 1.268 2.626.154 2.742-.321 3.516-4.354 5.703-1.477 2.822-4.715 4.216-.927 1.49-.55.29-.417 1.043-.866.52-.62.955-1.342 1.134-1.687.751-.347-.179-1.15.908-.747-.156-.689.409-.273-.323-.925.025-5.02.782-.416-.237-.932.843-1.025.353-.058-.361-1.369-.069-1.056-.649-1.251-.085-1.55-1.149-.201.133-2.836-4.032-1.397-1.064-.648-1.103-.388-.009-.273-.811-.091.404-.127-.432-6.108-1.182-.908 1.427-.02 2.602.632 2.736.147-.168.607.826 1.782 3.823.313 2.272-.388 3.173-1.148 3.197-2.493 2.043-3.358 1.053-.472.427-1.56.057-5.777 3.18-1.36.321-1.029-.163-1.129.486-2.054 1.141-1.718 1.478-4.25 1.86-7.349-.802-.826-.411-2.736.651-3.823-.417-4.083-1.459-2.548.058-2.64-.388-2.772.161-1.235-.109-.499-.393-1.415.234-1.298-.597-4.461.162-2.128-.684-1.446.015-1.23-.968-.903.109-4.905-2.833-3.053-3.324-1.075-2.173-3.522-9.317-.411-3.134.229-3.229.611-1.187.41-.019.22-1.051.099.32.58-.23 2.449-1.531 1.817-4.121.004-1.35-.322.129"/><path fill="none" stroke="#000" stroke-width="6" stroke-linecap="round" stroke-linejoin="round" d="m-135.538 729.353-1.016-.538.289-.08-1.407-2.169-.777-.233-.962-1.006-2.102-.365-4.059-2.2-4.389-1.738-1.917-1.581-2.473-2.81-.503-1.563.869-3.213.23-3.767 1.224-3.183.446-.445-.238-1.228.546-1.491-.674 1.044"/><path fill="none" stroke="#000" stroke-width="6" stroke-linecap="round" stroke-linejoin="round" d="m-139.487 703.846-.639.066-1.381-.642-.857-.898-.227.347-.762-.722-4.859-1.631-2.479.339-.336-.258-.337.584.057-.486-1.808-.334-.665-.829-1.696-.645-.685-.684-4.694-2.103-2.562-.688-2.085-1.433-2.417-1.095-2.127-2.611-2.71-2.316-1.103-1.407-.932-2.712-2.641-3.274-.222-.934-1.56-1.506-.165.232-1.98-2.68-.99-.767-3.098.203-5.12 2.098-4.253 3.39-2.773 3.359-6.366 3.534-2.657.837-1.41.831-2.215.411-1.848 1.05-1.827.325-2.234 1.391-4.744 1.905-1.864.001-3.597.902-2.386 1.136-4.507 1.333-4.376-.384-.913-.713-1.215.497-1.537-.411-.156-.596-2.426-2.781-.638-.266-.24-.497-.412-.156-.253.281-1.508-2.523-.699-1.924.14-2.729 2.611-8.17 2.858-3.587 1.249-2.698.318.041.603-.865 4.106-2.786.712-.986 2.127-1.304 1.503-.276 2.795-1.577.867-.096 1.317-1.133 1.39-.224 1.405-1.183 3.732.799.781-.247.728.516.787-.138 3.956 2.168 3.046.189 2.007.59 2.401-.134 2.696-.689.478-.501 1.031.262.638-.482 1.037-.096 6.086-2.188 2.81-.514.53-.569 1.388-.107 5.667-3.8 4.114-2.132 4.501-2.124.522.07 1.389-1.006 4.436-1.544 3.747-1.976 2.518-.744.381.444.139-.314.515.278 9.676-2.363 2.667-.018 1.071.471.357-.19 2.293.584 5.09.446 1.984.657.409.487 3.811 1.095 9.044 1.574.946-.392 4.359 1.477 7.325.861 5.439 2.622 1.203.231 3.335 1.982 6.348 5.941 2.78 2.183 1.925 1.046 5.134 5.044 1.963 1.438 1.385.295.758.605 4.829 5.031 4.198 2.382 6.58 5.416 2.637 1.671 2.41.114 3.523 2.302 1.046-.062 2.33 2.455 3.105 1.537 2.708.118 1.008-.319-.236.238M-52.993 714.545l1.056-.102 1.536-3.28 4.441-4.676 1.164-2.784 2.674-3.854.105-1.605 1.603-4.651 1.44-1.88 1.238-2.633 2.8-4.524.055.338.048-.26 2.475-.279 2.31.008.496.733 1.61 1.029 3.36-.305 1.996.959 4.562.195.226.111-.276.215.624.471 1.919.483 2.594.041.546 1.239 1.128.788.97-.028.99.675 1.318 2.731 1.684 2.111M-83.036 734.598l.182.363-.233-.207-.078.57-.133-.4-2.843 1.959-7.6 4.164-2.06 2.242-.948.576-.187-.238-1.68.259-.285.312-.854-.367-.819.181-2.139-.953-.248.282-.109-.625-1.423-.099.167-.385.032.65.11-.708-.044.584-.812.27-.841.957-.898.005-.56.817-1.221.622-.093.425-4.062.884"/><path fill="none" stroke="#000" stroke-width="6" stroke-linecap="round" stroke-linejoin="round" d="m-103.145 744.139.278.136.384-.831.221.227-.338-.655-.275-3.782-.158.194-.897-1.508-1.818-4.967-.437-.378-.215.322-.353-1.155-.543-.104-.653-.895-1.871-3.245-.417.402-.566-1.066-.323.237-1.112-3.467-1.989-2.288-1.147-2.215-.253.145-1.048-3.655-1.119-2.357-2.92-4.005-1.228-4.502-1.006-.494-.21-1.004-1.007-1.706-.7-.379-.529-1.014-.45.05-1.405-1.089-2.594-2.842-1.468-.309-2.893-2.612-.826.109-.317-.854-.687.098-.74-.926-4.145-3.038-.454-.936-.884.025-1.416-.925-4.785-.801-1.788-.791-.644.235-.475-.522-2.08-.037-.607-.574-.3.118-.723-.912-.958-.309-1.031-1.495-1.592-1.385-1.473-.574-.725-.798-.554.104-.323-.8-1.384-1.342-3.045-2.02-1.023.042-.83-.71-.685.149-.215-.511-1.054-.49-.399.269-.494-.348-.48.207-.487-.625-.23.252-1.058-.647-1.391.103-.663-.452-.11.397-.044-.724-.657-.939.033-.98M27.827 643.43l-.558-.086-.11-.365-.436.313-.416-2.437.932-2.251 1.67-1.981 1.703-2.994.112-1.801-.352-.529-5.872-1.258-1.206.209-5.186-.268-8.786 1.369-1.716-.116-1.34.436-2.875.119-5.242 1.834-1.473-.152-1.989.552-2.11-.345-1.408.139-.672.397-2.514.02-8.736 2.886-3.217.437-.432-.366-2.125.613-.486-.243-2.334 1.272-7.89 2.426-.634-.535-.958.187-7.102-3.382-1.879-.027-3.127-.728-4.671 1.154-4.621 3.439-.627-.233-2.65.506-5.683 1.841-1.867.43-.254-.386-1.509.272-3.14.836-.294.332-.58-.337-1.917.075-2.165-.441-3.254.181-.62.435-.654-.495-4.08-.187.127.473-.008-.441-.316.249-3.297-.451-5.776.187-1.018-.144-.436-.468-1.307.209-2.056-.8-.088.295-.149-.416-.409.096-.483-.439-2.611-.205-.018-.307-3.692 2.984-1.226 1.944.253-.164.356.803M222.843 708.653l-.306.593.28.336.212-.382.106.237-1.228 1.928-3.186 2.899-2.197 1.117-2.02 2.155-.905.268-2.35 2.01-3.254 3.68-4.432 3.144-.464 1.259-2.899 3.199-5.353 2.663-.03.839-2.35 3.086-3.696 2.52-3.507 3.934-2.919 2.08-5.816 6.94-5.182 4.706-4.843 7.736-1.487 1.13-1.753 2.186-1.956 4.17-1.712 1.105-1.541 2.298-.954.377-3.507 5.998-3.302 2.223-1.472 1.79-.919.402-.545 1.414-1.969 2.396-1.189.764-1.418 1.784-.918.614-2.1 3.337-4.305 4.045-1.108 1.499-.528 1.41-5.62 5.098-.743 1.189-.387 1.554-.56.379-1.436 2.267-3.398 3.446-1.612 2.36-.426-.039-1.088 1.779-.574.539-.247-.128-4.201 5.457-1.38 1.422-2.245 1.29-.352.74-1.698 1.639-.765 1.773-.667.345-1.123 1.789-1.083.855-1.787 2.343-3.62 7.598-1.281.988-3.483 6.073-2.804 3.348-1.94 3.166-1.083.867-.592 1.629-.537.292-2.46 4.842-4.705 5.332-.468 1.305-.457.071-3.856 7.022-1.808 2.659-2.274 5.576-2.133 3.691-1.04 2.881-.417.055-1.362 3.877-1.768 3.134-.362 1.575-.22.241-.162-.205-1.1 2.926-.305.093-3.125 8.365-.708.726-1.461 3.042-2.265 6.59-1.667 3.227-1.039 4.844-2.87 6.372-1.53 5.78-1.68 3.734-1.284 2.004-1.357 5.163-1.995 5.476-.252 1.301.151-.168.08.36-.074 3.54-.853 6.38-.855 14.046-.796 4.509-.13 15.984 1.01 11.76 6.003 19.79 3.806 8.2 2.677 7.97 2.27 4.93 1.925 5.86 1.175 4.94 1.164 2.33.467 1.87.02 3.23-2.97 19.88-2.204 6.48-2.224 3.74-4.81 5.84-4.84 8.86-4.833 2.48-4.882 5.75-3.58.82-4 2.25-1.334.15-2.83-.74-3.104-.2-1.684.32-2.328-.59-2.679-1.63-3.448-3.17-.973.13-1.551-.43-4.95-4.82-2.301-1.59-3.112-3.9-2.052-3.99-2.019-2.2-2.703-2.24-3.899-2.2-4.852-5.28-9.573-13.22-1.346-.28-9.059-6.4-3.48-1.21-3.668-3.36-7.508-9.31-4.47-8.33-7.521-6.76-2.66-2.92-.529-.11-1.7-2.22-2.945-2.31-1.87-.45-2.314-1.79-2.316-3.06-2.228-4.98-1.413-1.44-.208-.8-.762-.14-1.694-2.83-1.115-3.31-1.124-6.56-1.715-2.52-.597-2.43-2.587-6.94-1.843-2.47-1.862-3.68-1.474-1.98-3.859-9.749-3.142-12.968-2.373-16.007L-113 954.32l-.899-2.765-.55-.458-1.12-4.566-.549-9.996-1.774-7.652-.991-8.432-1.229-2.001-1.323-3.539-1.647-7.493-.695-.73-2.657-5.571-2.264-7.412-1.639-3.786-.157.302-2.547-10.891-.847-2.121-1.59-2.304-1.297-2.811-.566-3.194-1.16-3.423-2.19-2.09-1.181-2.136-1.838-6.328-.46-.374-.211.448-.649-1.687-.796-.616-1.145-1.924-1.306-5.4-.855-1.411-.102.449-.496-2.032-.597-.711-.563-5.139-1.057-2.754-1.051-7.456-2.834-3.532-1.375-3.224-.68-.189-3.366-5.947-.429-.326-.259.278-.667-1.712-.381-.156-1.03-3.135-1.848-2.027-.057-1.257.767-.467 2.619-4.601"/><path fill="none" stroke="#000" stroke-width="6" stroke-linecap="round" stroke-linejoin="round" d="m-163.892 812.06.343-1.776.103.412-1.236-4.49-1.046-6.052-.525-1.328-.34-.151-.956-2.837-.969-4.788-3.171-5.717-.783-.69-2.528-8.68-3.358-4.794-1.802-5.6-1.57-2.217-1.811-1.232-2.644-5.862-1.513-1.855-.76-.291-1.496-1.586-.356.092-3.028-6.54-3.292-2.574-2.11-2.96-.947-2.243-.921-1.18-1.518-.96-2.454-2.993-1.634-1.323-1.325-2.363-1.75-1.416-.68-.173-1.314-1.942-1.454-.924-.892-1.241-.788-.221-2.496-1.957-2.532-4.139-1.067-1.095-.111-.59-.448-.443-.252.133-1.461-5.496-2.394-3.74-2.092-4.831-3.174-3.327-2.825-2M-121.424 780.096l-1.427-2.166M-122.845 769.845l-.051-1.182.417-1.31.252-.062.061.406.218-.605 5.537 18.582 1.231 3.178 1.73 3.033 3.108 9.441.762 7.215.235 6.591 1.088 7.691.193 11.054.565 3.302 1.392 4.763M17.567 707.868l.215 1.68-1.75 8.327-2.043 6.722-.893 5.862-.348 5.708.235 10.789-.995 9.938.152 7.267-.844 6.138-1.415 6.075-.512 8.004-4.615 19.017-2.016 6.284-.438 2.941-.157 10.649 1.486 10.476.205 4.292-.347 9.948-.924 6.564-2.91 10.107-1.18 8.838M-80.003 1013.48l-.191-2.54-.606-1.65-3.701-1.6-.679-.78.14-6 .868-2.371.446-.212-.733-4.944-1.002-2.547-.731-.002-.32-1.172.526-6.863M-94.71 961.845l-.974-.492.843-1.986M-56.043 1006.96l-2.51-1.32-1.474-.33-.893-.8-1.508-2.45-.475-3.545.203-2.371.805-3.058 4.754-9.82-.99.451-1.92-1.616-.59-.013-1.788-1.994-3.578-1.478-.965-.814.05-3.113 1.858-9.108-.445-.479-.94.195-1.467-.705-2.198-2.527-.971-2.125M-36.907 976.512l-4.355-14.584.57-7.97 1.642-4.262.553-4.389-.607-.729-1.129.466-1.917-1.21-.273.113-.79-3.073-1.64-4.213-1.721-1.573-.148-2.913 1.095-4.793-.123-.715-.138.251M3.166 1007.22l-1.657.2-.426-.3.374.36 1.277-1.18 2.814-4.43.834-1.85.161-1.579-.429-.893-2.176-2.021-1.944-2.649-2.283-2.277-.602-1.114-.207-1.423.96-4.332 2.861-8.288-.254-.634-.73.704-1.824-1.986L-.573 972l.184-2.532 1.745-4.168.663-1.056 1.6-1.339.608-2.638-.038-1.356-2.33-6.062-.417-2.386M23.814 995.181l-.087.255-.387-.679-.354.031-.396-2.823 1.647-8.632.568-4.801 2.035-7.942-.477-.672-.959.741-1.523-.791-.529-.701.044-1.267 1.207-4.008 5.388-11.025-.015-.675-.711.86-.358-.288-.806-1.724-1.698-7.633.419-2.157 3.637-9.407M30.75 995.957l-.223.2-1.298-.908.078.347.444-.681.805-.335 1.223-2.203.59-2.091.178-2.557-1.13-.947-.317-2.262.206-1.279 1.328-4.02 4.786-9.585-.203-.166-.702.747-1.667-.717-.48.303-2.479-2.705-.288-1.446.172-1.691 1.049-2.511 7.33-11.779.317-3.265-.784-2.061-.852-.638-.27-1.703 1.179-3.5 4.674-7.907 2.018-1.958 1.301-.793.668-1.016-.031.619-.364-.856.485-3.342 2.35-6.264-.664-3.687.515-6.234 1.262-3.275 1.724-6.765.35-4.54M11.11 979.023l-1.263.343-2.14-.763.187-.645.524.257 5.471-12.275 2.08-5.635.468-2.556-.338-.931-.936-.227-.518.37-1.742-1.143-1.578-.205-1.371-1.163-1.681-2.226-.417-1.632-.08-2.562.38-1.532 1.25-2.31 4.762-5.835 5.933-8.571.122-.818-.87 1.115-2.426.034-.45-.973 3.383-7.609.793-2.779-.419-1.765-.518-.889-.258.148-1.043-5.187.587-11.19-.171-2.289-.281-.307M18.528 889.542l-1.549.632-.523-.267M-21.844 977.298l-1.022.863-.362-.248-1.667.082-1.033.336-.203.414-.075-.304 1.09-1.192 1.673-6.29 3.454-8.204-.026-1.365-.408-.558-.425.164-1.662-1.301-6.498-.442-1.124-1.3-.233-1.552.508-2.702.89-1.588 4.156-4.249 3.297-2.599 1.53-1.832.536-1.159.996-.876-.018-.96-1.012-.211-4.157-3.781-2.512-3.417-.278-1.123.187-1.422 5.159-10.42M-24.448 899.742l.573-2.135M-92.35 954.034l-3.287-.461-.655-.765-.095-1.672.916-4.487 1.41-3.437.895-1.04-.609.145-.283.455-1.036-1.206-2.898-1.728-1.43-1.645-.48-1.189-.499-3.611.264-4.646-1.22-7.006-.633-11.927-.454-1.29-1.101-.36-.461-.559-1.481.736-.545-.503-.286-1.265.616-3.554M-105.643 967.396l-1.048-8.077-1.416-5.239-2.059-4.245-.74-3.027-3.411-6.805-.738-9.273-1.398.129-1.079-1.841.297-3.43 2.13-7.709-.245-.292-.523.107-.464-.856-1.928-5.019-.903-4.36-.928-2.563-.92-.851-.459.127-2.796-2.503-1.139-2.113-.083-2.456 1.007-6.664M-75.99 997.531l-.434-.276.093-1.266 2.835-7.002 1.31-5.906.01-2.038-.597-.61-.327.113-5.269-3.076-.616-.648.901-1.642 1.535-7.21-.282-1.261-.773-1.238-1.37-1.031-.297-1.029.577-4.63.03-8.786-1.534-4.562-1.454-1.906-1.403-1.171-.62-1.369M-65.243 941.069l-.265.118-.022-.348-.04.492-1.214.659-1.804-.417-.748-.593-.137-1.751 1.404-4.952 3.82-6.53.21-1.244-.222-.599-1.557-1.061-3.718-1.251-.574-4.732M-81.091 900.757l-1.032-.617-.203-.432.287.154M-88.577 926.029l.014.658-.14-.882M-96.981 897.939l-.846.234.014-.761.308.239.17-.333-.283.326M-102.109 866.429l-.123-.783-1.78-3.122-.769-4.887-1.337-3.11-.686-.439M-81.077 1012.49l-.12 1.12-.522.44-.318.94-.5 5 .24 1.3 1.68.68 3.544-.15.355 1.27.664.09.806 1.07.804.36.61 1.48.32 6.73 3.458 5.71 1.19.6M-67.927 1044.53l.302.55 3.062 1.3 1.1.87 1.477 2.86.323-.27.485.81.524.1 1.323 3.36 1.26.69.487-.51M-76.572 999.349l.86-1.459 1.064-.326-.415 2.274-1.527 4.582.316 2.45 2.17 2.42 7.627 5.27.73 2.06-.221 5.34.491 1.4.874.9 3.672 1.03 2.652 1.75.757 3.89.021 2.41.634 2.3 2.257 3.75 1.091 3.37.255 3.49-.811 4.4.045 1.5 1.25.21 3.163-.9 1.347.04 1.078 1.72 3.56 3.37 1.31 2.09.977 3.15.094 2.88-.119.68-.219-1.16M-53.905 1006.59l-.179-2.34-.221.18-.034 3.39.867 2.04 4.778 3.91 2.899 3.57 1.046 3.78.385 4.98.916 1.92 4.271 3.96 2.97 4.43.323 2.48-1.36 9.94.154 2.55.555 1.75 1.648 1.8 2.337 1.49 1.156 1.69.271 1.29.444.11M-39.769 986.756l-.27.321.389-.215 1.739 2.291 1.212 2.918.36 5.271 1.122 3.238.648.97 2.017 1.7 2.83 1.7 1.202.2 1.257 2.02.056 6.62 1.537 6.97.116 3.15 1.012 2.75.466 2.92.384.54.743.09 1.048-.41 2.773.05.888.97-.175 4.61.377 2.43 3.2 8.03 1.545 2.15.34 2.98-.45 3.68-.09-.99M-15.456 999.012l-.601-.629.131 1.08.85 1.397 3.106 1.9.882 1.62.224 1.58-.192 2.56-2.92 9.01.173 2.82 1.734.99 4.556 1.03 1.343 1.53.215.93-.26 1.64-1.004 3.19-.21 7.29.517.88 1.969.99 1.298 1.43.357 1.79-.12 4.11.562 1.59M2.034 1060.97l.414.53-.346-.25M3.665 1012.95l-.303-.29-.076.82-1.806 2.29.306.49.552-.17 3.73 1.57 1.246 1.56 1.189 6.53.053 8.19 3.623 8.62 1.05 6.62 1.199 3.1M18.164 1062.26l-.149.39M14.03 1007.89l-1.324.91.022.51.178-.52.427-.1 1.733.66 1.664 1.77.615 1.57-.088 6.06 1.356 5.82 1.208 8.45.539.97 3.32 2.34 1.153 1.48.488 1.38.794.39.797 1.2-.153 2.05-1.056 3.08.595.48.535 1.62.314 3.02-.176 1.61.325 1.68.198-.11.204.86.058-.26-.065.93M29.593 1008.94l-.385-1.06-.343.12.116-.31.191 1.11-1.08 15.85.898 2.57 2.748 1.53 1.822.48 1.092 1.4.364 3.72 1.236 4.87-.24 6.32.94 4.22-.147 4.28.225.49M14.698 994.974l-1.232.402.3-.471.368.366.073-.323-.225.203M11.034 987.744l-1.04.072.552-.322.091-.491-.007.33M51.086 1074.2l.11.38M-44.362 1082.89l-.075.8 2.488-6.04-.495 2.31.552-1.12.68-.5 1.028.28 2.307-.5 1.793.19.931 1.57.497 4.71.784 1.85.845.57 3.17-.14 3.479 2.14 1.41 1.79 2.789 5.92 2.545 1.94.947.16 2.21 1.66 1.56 1.83 3.456 1.69 4.077 6 2.255 1.26M-33.957 1068.48l1.439-3.93-.218 1.97.294-.76 2.092 1.34 1.603 2.07 1.636 2.99 2.198 2.08 3.125 2.1 2.164 2.17 1.457 2 2.81 5.9 1.804.99 1.039-.34.932.26 1.42-.18.98 1.39.8 2.36 2.075 2.31 1.886 5.08 1.526.71.892.83.815 3.12M-15.548 1054.94l-1.119.68-1.11.08.489.16-.054 1.84.408 1.17 1.391 1.3.796-.05 2.893 2.26.86 1.04 1.755 7.18 1.655 3.41 1.263 1.11 3.469.89 1.713 1.41.473 2.56.082 3.6 1.34 1.4 1.02 3.44.92 1.22 2.491 1.07 1.019 1.58M10.949 1098.34l.37.16-.084.44-.21-.25M-.68 1114.99l.265.25.232-.77M-12.87 1115.13l-3.953-18.77"/><path fill="none" stroke="#000" stroke-width="6" stroke-linecap="round" stroke-linejoin="round" d="m-18.674 1107.8-.709-.1-2.286-8.33-.476-7.64M-34.765 1093.64l-1.647 1.5.533-1.28.116-1.45-.665-16.86M-48.018 1085.99l-.426.21-.065-.45 1.76-12.56.28-4.89M-55.404 1073.27l-.408.22.853-8.66 2.25-15.99M-63.033 1061.13l-.804-.76-.23-1.08.173-3.16 3.825-19.56M-73.385 1051.98l-.886-.06 6.754-23.37M-81.867 1045.11l-.212-.16 3.775-7.2 3.803-11.61M-87.754 1032.21l-.733-.03-.15-.68 1.94-5.3 7.962-17.57M-93.618 1023.16l-.657.47.11-.62 4.24-7.35 3.003-7.77M-96.762 1002.31l.486-3.959 3.782-10.313M-104.154 999.936l-.008.014M-109.597 981.902l-.739-1.347.49-3.635 3.847-13.073M-10.704 1110.74l-.485-.43.28-1.3 5.168-11.85M-7.309 1125.01l-.42-.44.067-.9 1.476-6.26 1.466-4.39 1.269-2.49M3.965 1129.14l1.16-3.62 4.319-9.74M16.427 1132.86l1.007-.68M28.467 1140.56l-.26.22M104.994 744.469l-.229.174.234.197-1.884.015-.61.459-.705-.386-.917.461-1.142-.1-2.612 1.167-1.649 1.731-2.91 2.156-3.53 4.346-.618 1.545-2.831 3.528-2.986 4.896-2.475 2.672-1.53 4.142-2.978 5.026-2.996 4.121-9.417 18.389-1.726 4.318-3.585 6.425-4.395 11.978-4.957 10.028-3.02 7.09-2.098 6.934-.971 4.576-3.295 8.194M34.087 875.71l-.111.761-.087-.525-1.882 1.97M187.235 700.849l-1.046-.237-.619.493-.525-.027-5.274 3.892-8.281 9.809-7.928 11.192-4.372 7.19-4.234 7.879-3.657 5.518M146.141 704.924l-1.656 1.446-4.186 5.768-7.214 11.167-3.849 4.81-7.851 12.345-4.062 7.331-2.59 5.604-8.125 13.481-3.211 7.773M-36.075 738.369l-.275-.673-.354.662-1.603 1.185-2.076 2.657-1.541 2.506-.596 1.861-.564.294-1.157 2.344-1.537 3.447-.633 2.281-2.174 12.988-.835 8.924-.02 6.59.553 10.685M-52.046 835.965l.204 1.454M-71.392 758.63l-3.063 8.764-.683 7.489-1.096 7.28-.582 9.306-.237 21.712M-76.096 843.518l-.601 1.761.61 2.28-.06 2.72M-175.508 690.846l-.035-.772M-170.012 700.712l4.324 8.956 2.713 3.824 4.509 11.72M-155.401 704.238l-2.76-3.511-.405.995-.27-.071-.41.572-.204 1.19 1.71 6.743"/><path fill="none" stroke="#000" stroke-width="6" stroke-linecap="round" stroke-linejoin="round" d="m-157.833 708.44-3.731-7.86-1.419.177-1.578-.804-.164-.391.895 2.92M-148.637 730.557l-.663-1.778-1.22-1.865.351 3.442.735 1.815.79.68M-154.217 733.891l.791-1.197 1.652-.943M23.291 697.152l-.771.443M23.956 697.903l-.668-.074-.834 2.269"/><path fill="none" stroke="#000" stroke-width="6" stroke-linecap="round" stroke-linejoin="round" d="m25.09 697.723-1.487-1.231-.653.388-.33.802-1.492 8.397-3.41 24.346M27.543 705.26l-1.11-1.406-.617-.101-.494.44-1.305 4.357-.739 4.55-1.744 17.52-.905 12.567"/><path fill="none" stroke="#000" stroke-width="6" stroke-linecap="round" stroke-linejoin="round" d="m24.545 728.017-1.154 2.637-1.826 7.888-2.398 16.306-2.033 10.159L8.9 797.29M5.532 846.256l-.009-.814.136.391M12.628 711.708l-.148-.48-2.409 5.429-2.85 9.509-3.357 15.59-3.547 24.02-1.876 6.887-3.547 8.499M-6.951 812.11l.044.391-.009-.403M-21.347 697.795l.1-1.62M-18.18 704.208l-.176-.866-2.682 11.77-.41 5.754.187 2.62M-14.666 712.907l1.523-3.444.707-.613-.588 1.182.23.946-.328 3.545-1.173 5.237-2.985 9.656M-3.748 718.779l2.512-6.382 1.24-1.05-.2 1.192-.579.898-1.226 4.551-6.238 17.509-1.29 4.453M9.765 719.923l-.446-.765M-30.804 733.657h0M-48.22 747.685l-.833-.385.156.475-1.102.564-1.82 4.654-2.038 8.426-1.841 11.918-1.675 5.401M-58.175 748.177l-.572 2.083-.74 7.881-2.418 12.426M-61.725 748.035l-.863.044-.641-1.712-.957-.797-.387.464-1.638-2.153-.374-1.204.092-1.013 1.296 10.142M-64.758 753.349l-.116-2.989M-65.55 746.071l-.624.027M-68.427 760.338l-2.61 9.969-.447 4.535.028 7.735-.24 1.362-.412.464-.01-.713"/><path fill="none" stroke="#000" stroke-width="6" stroke-linecap="round" stroke-linejoin="round" d="m-67.645 760.166-1.597-1.062.407.19-.415 1.927-4.643 14.978-.297 2.27.321 1.9M-69.738 766.171l-.38-2.077M-81.33 759.855l-.827 1.046-.599.107-4.045 19.366-.319 3.122M-88.944 770.527l-1.08-1.079.193 1.302-.393 3.507-3.804 13.563-1.714 10.387M-101.089 776.446l-.582-1.361-.269-1.94.174 1.605-.54 4.182 1.17 10.742M-109.132 774.946l-.814-.099-.144-.798.454.459M-108.946 776.326l1.404 10.945M-116.638 772.539l-1.392-1.866.15-.362.605.367 1.094-.506-.271.532.575 3.675M-112.138 785.453l-1.719-.713M28.524 749.484l.029-.897-.196.176-.218 2.951-1.277 5.746M34.195 752.583l-1.524 10.256-1.235 5.498-11.573 36.337M45.332 757.39l-.367-.636.35-.898 1.537-2.831.317-.413.083.274-.546 1.096-.105-.276.311.013-3.798 12.518-.703 1.461-6.236 21.672-5.215 14.951M62.786 751.291l-.382.304-.305-.422.061.333.486-.187M62.064 753.734l-2.423 10.171M73.296 743.78l1.46-2.46M74.935 742.091l-.3-.187 3.406-2.525.295.143-.657.891-.222-.169.161.334-4.39 12.013-7.825 19.385-6.153 11.239M43.411 816.98l.398.153.16-.491-.206.141M81.476 747.859l.179-.483.244.202.72-1.656"/><path fill="none" stroke="#000" stroke-width="6" stroke-linecap="round" stroke-linejoin="round" d="m81.742 746.743.166 1.24-.282.741M135.095 705.811l-1.634 2-2.398 6.954-2.239 4.934-4.286 6.169M133.039 705.966l-.791.756-3.48 6.104-1.853 2.488-2.917 5.483-2.767 3.534-3.182 4.903M130.788 707.281l.41-2.213-1.835.707-3.383 2.994-4.507 9.989-2.393 4.431 3.064-5.439 3.213-7.082 2.465-6.042.24-1.669-2.008.712-3.733 3.89-4.95 7.725-2.026 4.263.635-1.321 9.247-13.134 4.741-5.858 2.313-2.516.36.13-1.104 1.745-3.121 1.742-2.833 2.52-2.569 3.433-2.595 2.718-.502.163-1.004 1.701-.777.562-1.315 2.817M120.401 705.772l1.503-3.061.678-1.08.144.211-.084-.236-.332.31-.73 1.344-.867-.787"/><path fill="none" stroke="#000" stroke-width="6" stroke-linecap="round" stroke-linejoin="round" d="m120.928 711.802-1.68-1.861-.092-1.038.83-3.66-.04-.43-.424.02M118.126 705.914l-.397-1.045.354-.545.339.166M133.731 712.323l-.271-.633.177-.181.127.77M161.437 693.157l-.127-.28-.033.594-.096-.303-.497.265-2.474 2.655-1.753 2.398-2.963 3.007-3.724 5.013-3.685 5.848-4.782 10.753M161.056 691.96l-.37.039.326.13"/><path fill="none" stroke="#000" stroke-width="6" stroke-linecap="round" stroke-linejoin="round" d="m160.824 693.509-2.15 5.083-3.07 5.393-2.875 3.985-9.171 14.611M167.655 696.247l-2.22 2.917-2.348 3.971-3.919 4.76-3.255 4.975-5.765 11.224M171.842 700.889l-.085-1.976.124.934-3.635 4.567-4.915 7.998M157.429 725.746l.085.388.273-.588.191.364M195.534 696.288l.246.181M195.192 697.977l-2.304 4.328M201.555 697.341l-.11-.292M197.862 696.094l-7.268 3.795-2.704 3.474-2.66 2.111-8.456 8.398-6.692 7.439-.861 1.507-.547 1.934M200.153 695.113l-1.99.727-2.502 2.487-7.277 9.765-12.026 13.563M202.015 699.467l-.754-.735.112.731M199.946 702.555l-1.677 1.305-2.358 1.195-4.557 4.577-.718.918-2.796 5.999-2.808 3.884M207.699 697.984l-5.321 7.638-4.166 4.691-4.238 3.83-4.772 6.413M212.622 705.1l-.587-.453-.245.562M214.418 710.488l-.163-1.219.443-.362M180.464 732.12l-.769-.295"/><path fill="none" stroke="#000" stroke-width="6" stroke-linecap="round" stroke-linejoin="round" d="m175.331 715.688-1.268.218-2.781 4.524-3.257 4.233-2.307 1.824-2.675 2.882-3.956 2.952-9.938 17.496-2.738 3.081-5.99 5.37M174.144 723.848l-.918.005.686-.135-.077.283-2.155 1.762-7.9 12.677-10.899 10.808-1.483 3.04-1.436 4.758M177.571 727.153l-.136-.881.216.653-.957 2.062M169.931 740.955l-.529 1.7M139.65 721.818l.268-.313.073.323-.046-.261-2.198 2.266-6.709 9.019-5.838 6.499-1.141 2.191-2.259 2.631-1.874 3.208-.701 3.219-1.053 2.046-1.139 1.134-.562 1.599-1.163 1.72-1.115 3.162-.243 2.005.403-.446M137.36 731.769l-.702 1.319M135.127 739.726l-.358-.071-.103.407-.17-.467.057.26M128.681 748.234l-.084-.878M102.59 772.577l-.598 1.841-1.775 3.072-1.58 1.687-5.278 7.195-6.363 10.925-7.14 8.985-6.35 10.448-1.838 2.156-1.73 3.197.088 2.506M61.412 843.36l-.954-.614.146-.555.406.626-.32.212M56.506 834.086l-.236.901-.511-.26-.142.716M117.076 767.623l-1.106-.204-1.074.794-3.362 4.438-5.031 11.387-3.619 5.536-10.072 17.482-4.968 11.905-3.244 6.296-14.853 25.019-4.854 5.841-2.063 1.993-2.755 4.672-4.361 10.492-.745 8.763M69.11 867.666l.139-2.394 1.936-4.187 12.14-18.724 8.523-11.673 5.078-5.526M107.88 807.279l4.01-5.679 1.955-2.067 1.606-1.136 1.07-4.183 2.999-7.116 1.781-2.642 4.608-5.4M133.125 768.944l.547-3.708 1.214-1.777-.062 1.478.195.45.117-.186M147.715 764.884l1.411-1.462 1.64-.711.754.094M130.312 792.999l-.56-.105.101.495.498-.591 1.139.61M18.798 811.44l-.229-.101-.012.627-.686.76-1.647 5.042-.645 3.898-.93 22.44.622 15.079-.515 8.533-1.452 7.678-.431.044M-18.667 750.002l.033.231M93.783 748.822l-.157-1.336.167.898-.494.928-.174-.301-7.872 9.577M89.039 744.965l-.675-.271.49.304-2.993 3.829-5.874 8.841M-211.841 711.245l-.154-.535M-188.495 742.488l6.812 11.607 2.03 4.629 3.357 4.873 2.364 4.446 3.106 7.379 6.463 9.105 4.749 9.757M-144.845 831.157l.667 2.224 2.374 3.461.168.917-.401-.376M-199.901 707.633l-.411.243-.056.717.965-.248 5.015 8.127 8.161 15.945 10.135 16.465 4.445 8.712 7.195 11.833 6.751 14.538 5.867 14.123.633 2.473 1.405 1.929 1.363 3.412 4.204 7.96 2.675 6.796 1.017 1.199.689 1.869.607.736.595 2.125 1.045 1.884-.131.252-1.118-1.71M-185.947 702.045l-.032-.262M-181.386 707.441l2.745 5.82 2.615 3.979 2.492 6.355 8.289 17.44 7.197 16.88 8.077 16.556 1.946 2.989 8.182 20.541 5.629 10.989 5.997 15.282M-124.501 840.287l.565.919M-137.731 774.374l.434 2.156.712 1.479 2 2.691.928 1.872 5.092 14.467 4.468 9.316 3.233 8.701 2.536 8.321 2.914 13.257 3.034 20.708.649 6.581 1.023 2.842.017 2.013.007-.794-.374-.464M-136.512 842.252l1.564 2.362 2.34 4.701 2.652 9.06 2.567 10.52 7.856 25.355M-114.706 911.765l-.38.729.148-.186.164.314.116-.596.758 3.488.363.373M-116.814 869.546l-.147.503 1.193 6.553 3.188 14.653 3.493 9.704 1.694 3.139.321 1.772-.002-.382.281.076.11.705.27-.193.708.903M-99.118 832.532l2.852 9.002 2.257 15.813 1.161 5.882 2.779 11.465 2.843 9.458 1.568 10.125"/><path fill="none" stroke="#000" stroke-width="6" stroke-linecap="round" stroke-linejoin="round" d="m-86.204 888.246-.386-.088.092.775M-95.252 814.003l-.523-.333.326.988M-86.273 833.11l-.643.534-.214-.466.583.307M20.934 1125.01l-.805-3.78-.829-1.52-.566.17-.85 3.25.428.49 1.555 14.52-.216 3.03-.217-1.84-.4-.82-.427-.16-2.812-10.44-1.633-7.08-1.946-11.28-.828-2.37.523 5.81-.469 1.4-.044 2.17.72 3.21.755 1.25 2.86 8.83 3.767 6.53 1.311 1.2.486-.55.315-2.7 1.966-7.68.554-7.87-.345-8.64-.555 5.49.642 9.66 1.505 4.19 1.41 1.78-.064-2.91.454-1.03.56-6.39.296-9.8.05 2.84.652.37 4.255 6.08.937.16.778-.4 2.66-20.13.608-2.12.192 4.35 4.643 6.44.72.19 1.381 1.42 2.149.6.91-1.47.895-4.74.056-3.52-.92-4.88-1.07 3.88-1.526 2.74-.77 2.21-.482 2.67"/><path fill="none" stroke="#000" stroke-width="6" stroke-linecap="round" stroke-linejoin="round" d="m40.205 1121.92-.322.19-.506-3.34-1.6-3.04-.424-2.14.473 1.72.584-.09.926.58 3.138.31 1.23-.29.602-.6.908-.19.146.39-.033-.31-1.237-.86-.23.5-5.222-6.55-.712-.18-1.253-1.33-.874.77-.44 1.02-.091-.76-.216 1.03.169-.65.437 1.05 2.753 2.67 5.657 2.43.41.79.146-1.04-.604-.37-.4.94-.694-2.18-.089.37-.943-.7-1.517-.48-2.431-1.81-1.568-1.79-.82-.1-5.629-3.18-4.432-3.09-1.263-.47-.466.18.912 1.05.573.14.104.99 1.23 1.53 1.006.51 3.567 5.72 2.81 2.32 1.919.8.624.59 1.78 2.11 1.14 2.11-.018.53-1.055 1.54-.38-.15-1.046 1.03-1.369-.08-1.102-.9-.639.27-2.85-.29-1.594.23-2.94-.37-1.281-.7-2.708 1.55-1.814 2.43.346 2.94 1.468.85.292-.19.529.86 2.79 1.19 9.302-.75 4.368-1.13 2.533-.07.85.36 1.652-.58-.05-.83-.677-.37-.888-4.07-1.685-3.43-.864-.93-1.845-4.41-1.513-2.9-1.61-2.06-.722-.18.121.65 1.428 1.71 5.092-3.55 6.65-2.4 1.728.31.55.99.922.19.287-.66-.177 1.13-.154-.72-.09.23-2.34-2.45-2.517-3.75-1.121-1.21-1.473-.95-.975 1.13.606 1.86.387-.27.165-.98.542 1.12.676-.79 1.617.32 1.073.59 8.178 1.65"/><path fill="none" stroke="#000" stroke-width="6" stroke-linecap="round" stroke-linejoin="round" d="m47.293 1111.9.467 1.03 1.164-.45 1.564.22.948 1.04 3.116.2.68-.25 1.199.64 3.308.82 3.953.43 1.753-.22M41.185 1133.29l-.618 1.58.447-1.54 1.284 2.42 2.471 1.91 3.052 3.84 2.483 4.07M51.642 1115.56l-.557.1.012-.71-.246 1.56.64-.18.739.39 5.2 4.89 4.905 3 1.161 1.3M38.593 1129.08l-.33-1.27.082-2.06.234.84-.195.73-.207-.08-.569 3.03-.578 7.8M22.692 1140.38l-.811-.7-.9-2.63.336 1.35-1.767 10.65M-163.455 669.49l-1.479-3.42-2.333-2.5-.926.399-.113.572 1.226.809.382 1.763.233-.222 3.407 3.027 1.045 1.552.55-.127 2.268 1.074M-152.655 665.639l-1.619-3.079-.675-.181.13.948 5.888 7.12 7.261 12.214 1.279 1.569M-142.431 670.936l-3.46-4.557 2.024 2.677 2.255 1.27 6.302 6.674 3.053 4.333 9.656 12.188M-126.629 678.156l-3.133-5.766 1.163 1.926.203.13.358-.623.56 1.286 2.454 2.933 9.233 19.401 3.868 7.334 1.194 3.049"/><path fill="none" stroke="#000" stroke-width="6" stroke-linecap="round" stroke-linejoin="round" d="m-117.095 679.478-2.125-3.661-.972-2.822-.537-.544 1.207 3.072 1.479 1.969 5.595 15.148 2.599 12.414 1.202 12.539"/><path fill="none" stroke="#000" stroke-width="6" stroke-linecap="round" stroke-linejoin="round" d="m-115.067 691.115-.683-.74-.09-1.053 1.583-.397 1.828-1.579.505.147 1.654 5.336 1.565 9.853M-103.81 687.922l-1.321-2.214-.122.831 1.726 3.753.937 6.79 2.16 10.641M-94.207 693.862l-.86-1.244.029-.784.424 1.693 4.474 10.651M-84.418 692.726l-.866-.389-.23-.447.153-.393.37.094.324.661.306 1.823 3.159 8.263M-73.047 695.063l-.703 1.192-.023-.683.053 1.133 1.513 1.202M-72.332 705.325l-.485-1.092.113.396.323-.421.215.909.187-.915.168-.237.429.43.173-.841.01 1.023 1.134.608M-101.333 711.132l-.087.341-.492-1.128-.067.64.296-.582.683 1.095 2.758 2.025 1.386 1.5.323-.155 1.352 3.109M-95.136 711.899l-.54-2.197.258-.85.308.361.144 2.565.279.826.081-.347 2.17 9.597M-82.331 705.921l-.658-1.79.547 1.274.74 8.634M-73.45 704.736l-.407-.913.254-.003.603.543.01.579M-105.46 728.354l-.643-.375-.849-2.096-.694-.637-.325-2.335.441 3.357.048-.358.393.943.444.221.406 1.358 1.226 2.061 1.473 1.619 1.809.824"/><path fill="none" stroke="#000" stroke-width="6" stroke-linecap="round" stroke-linejoin="round" d="m-97.511 732.354-2.514-5.405-.885-1.446-.377.062-.746-.719-.294-.957-.357 1.95.068-.29.396.326 1.389 4.605.328 2.436.083 2.762-.482.674-2.067-10.139-2.4-6.298-1.897-1.89-.463.31.228.412.12-.458 1.582 3.251M-96.355 731.039-94 726.55l.605-.28.397-1.291.564-4.337-.071-2.85-.623 2.385.43.51 2.008 8.196M-88.01 717.894l-.195-.892.062 1.987.01-.731.981 1.029 2.946 5.352M-82.538 710.622l-.158-1.885.264 2.038 1.366 1.908 2.362 6.163M-80.485 709.569l-.543-1.456 2.228 2.793 1.676 1.435 2.29 3.964M-70.353 706.463l-.692-1.468.987.358 1.103 1.933 1.093.765 1.278 2.608M-61.078 713.098l.06.621.89-.593-1.584 2.387M-85.57 730.787l-.305.668.251.369.161-.245.09-1.005-.327 2.144"/><path fill="none" stroke="#000" stroke-width="6" stroke-linecap="round" stroke-linejoin="round" d="m-59.922 712.86-.654-.047-1.011-.903.032.541 1.07-.363-.437.292.033.848-.149-.792M-191.641 667.837l.536.246-.013-.449.344.174.048.552-.083-1.069-.534-.553-1.126-.714-.976-.014-2.623 1.705-.859 1.715-.027-.33-.422-.095.144-.91-1.205 2.848.086 1.137-.58-.736-.567.515-.236-.154M-206.855 684.774l1.165-.068.015.37M-186.341 674.446l.293.607-1.004 1.157-.896-.437-.494.298-.848-.267-.398.232-.124-.315-.332.436-.893-.545-.424-1.259.366.649.453-1.032.388.14.927-1.25 1.695-1.291.68-.049.96-1.009.089 1.126 2.822.51.661-.371 1.353.682.377.726.631-.383.29-.717.244.85-3.031.462-.818.441-2.094-.352-1.149-.664-2.441-.179-.857.758-.265-.536-1.675-1.014-.975.156-.271.548-.162-1.086 1.134-.809.971 1.339 2.48.437 3.301 1.455 3.452-.025 1.464-.995.638.483 2.908.419 3.304-.366 3.949.579 2.133 1.339M-161.988 680.539l.302.416-.369.211M-166.797 664.096l-.464-1.88.097-.298.298.712.085 1.361M-157.932 660.888l-1.298-.988-.086.246.061-.42.67.693.279-.333M-156.108 663.913l2.331 4.723M-146.043 659.994l-.093-1.196.168 1.197.255.125.067-.478.666 1.262 1.736 1.386 1.918 4.033M-132.003 664.123l-.675-1.326.31-1.04.474.478.531 1.67.511.427M-117.648 672.428l-.138-.81.243.196M-103.814 674.127l-2.881-1.439.14-.836.6-.758 1.472-1.045.011 1.212-.241-.275-.482.636-.529 1.544M-9.86 664.016l.82-.016.338.4.446-.372-.03.416-.34-.131M-8.807 667.941l.506.646.804-.814-.079-.684-.117.923M-4.81 664.946l-.38-.628-.034.958.338-.385.561.297.017-.607.186.53-.06-.318M-3.377 662.629l.408-.196.184-.624.32.796-.136 1.039M-.805 673.028l-.08.67.447-.244.431.337.207-.25-.313.692-.133-1.221M1.611 656.477l-.726.478.006-.627-.114 1.01.145-.556.311.593-.227.171M-8.844 650.321l-.769 1.395-.426.169-.313-.398-.033.756M-24.451 668.87l-.969.22.145.24 1.664-1.063-.277.496.136-.43.288.381M-11.06 664.678l-.251 1.523.704-1.609.23.911M-6.05 670.213l.123-.572M-13.367 669.267l-.49-.505.442-.339.092 1.064.038-.648-.096.898-.282-.177M-19.148 663.706l.55.243.307-.249-.843.731M-.802 667.941l.035.472.023-.496.33-.129.29.62.043-.803-.1.865-.258-.237M-32.18 869.113l-.572 1.419.512.654.963-.27.46-.812.625.397 1.335.081"/></svg>